<?xml version="1.0" encoding="UTF-8" standalone="no"?>
<!DOCTYPE svg PUBLIC "-//W3C//DTD SVG 1.1//EN" "http://www.w3.org/Graphics/SVG/1.1/DTD/svg11.dtd">
<svg version="1.1" xmlns="http://www.w3.org/2000/svg" xmlns:xlink="http://www.w3.org/1999/xlink" preserveAspectRatio="xMidYMid meet" viewBox="0 0 75 75" width="75" height="75"><defs><path d="M51.08 60.08C51.08 64.38 44.9 67.88 37.29 67.88C29.68 67.88 23.5 64.38 23.5 60.08C23.5 55.78 29.68 52.29 37.29 52.29C44.9 52.29 51.08 55.78 51.08 60.08Z" id="g1e0ZlNLMz"></path><path d="M55.85 61.81L47.62 64.8L33.63 26.36L41.85 23.36L55.85 61.81Z" id="byp6X0sKK"></path><path d="M32.12 23.36L40.34 26.36L26.35 64.8L18.12 61.81L32.12 23.36Z" id="abDE8ZK32"></path><path d="M40.86 53.71C42.15 53.71 43.2 54.76 43.2 56.06C43.2 58.66 43.2 64.11 43.2 66.71C43.2 68 42.15 69.05 40.86 69.05C40.3 69.05 40.96 69.05 40.4 69.05C39.1 69.05 38.05 68 38.05 66.71C38.05 64.11 38.05 58.66 38.05 56.06C38.05 54.76 39.1 53.71 40.4 53.71C40.96 53.71 40.3 53.71 40.86 53.71Z" id="cGwwXl3C"></path><path d="M33.77 53.71C35.06 53.71 36.11 54.76 36.11 56.06C36.11 58.66 36.11 64.11 36.11 66.71C36.11 68 35.06 69.05 33.77 69.05C33.21 69.05 33.87 69.05 33.31 69.05C32.02 69.05 30.97 68 30.97 66.71C30.97 64.11 30.97 58.66 30.97 56.06C30.97 54.76 32.02 53.71 33.31 53.71C33.87 53.71 33.21 53.71 33.77 53.71Z" id="a18Zy1uBXF"></path><path d="M47.57 15.27C47.57 21.05 42.87 25.75 37.08 25.75C31.3 25.75 26.6 21.05 26.6 15.27C26.6 9.48 31.3 4.78 37.08 4.78C42.87 4.78 47.57 9.48 47.57 15.27Z" id="b1hqdGzRGg"></path><path d="M40.86 41.58C42.15 41.58 43.2 42.63 43.2 43.92C43.2 46.52 43.2 51.97 43.2 54.57C43.2 55.87 42.15 56.92 40.86 56.92C38.88 56.92 35.29 56.92 33.31 56.92C32.02 56.92 30.97 55.87 30.97 54.57C30.97 51.97 30.97 46.52 30.97 43.92C30.97 42.63 32.02 41.58 33.31 41.58C35.29 41.58 38.88 41.58 40.86 41.58Z" id="c13i7n3LM"></path><path d="M36.11 68.57C36.11 69.48 33.46 70.22 30.19 70.22C26.92 70.22 24.27 69.48 24.27 68.57C24.27 67.66 26.92 66.92 30.19 66.92C33.46 66.92 36.11 67.66 36.11 68.57Z" id="aKgDyI3LX"></path><path d="M40.86 24.98C42.15 24.98 43.2 26.03 43.2 27.32C43.2 32.13 43.2 44.23 43.2 49.04C43.2 50.33 42.15 51.38 40.86 51.38C38.88 51.38 35.29 51.38 33.31 51.38C32.02 51.38 30.97 50.33 30.97 49.04C30.97 44.23 30.97 32.13 30.97 27.32C30.97 26.03 32.02 24.98 33.31 24.98C35.29 24.98 38.88 24.98 40.86 24.98Z" id="arDBjEc3G"></path><path d="M49.12 68.57C49.12 69.48 46.47 70.22 43.2 70.22C39.93 70.22 37.28 69.48 37.28 68.57C37.28 67.66 39.93 66.92 43.2 66.92C46.47 66.92 49.12 67.66 49.12 68.57Z" id="a5s4oiYhiJ"></path><path d="M31.54 54.3L35.54 54.3L35.54 61.97L31.54 61.97L31.54 54.3Z" id="e2dQFfKyzn"></path><path d="M38.63 54.91L42.63 54.91L42.63 62.58L38.63 62.58L38.63 54.91Z" id="b1EVALiDHq"></path><path d="M31.1 25.58C31.64 25.19 32.4 25.31 32.79 25.85C33.04 26.19 33.06 26.22 33.31 26.56C33.7 27.1 33.58 27.86 33.04 28.25C31.26 29.55 26.89 32.72 25.11 34.02C24.56 34.41 23.81 34.29 23.41 33.75C23.17 33.41 23.14 33.38 22.9 33.04C22.5 32.5 22.62 31.74 23.17 31.34C24.95 30.05 29.32 26.88 31.1 25.58Z" id="a2y7eObdi8"></path><path d="M50.61 31.77C51.12 32.21 51.17 32.98 50.73 33.48C50.46 33.8 50.43 33.83 50.16 34.14C49.72 34.65 48.95 34.7 48.44 34.26C46.78 32.81 42.71 29.27 41.04 27.83C40.54 27.39 40.49 26.62 40.92 26.12C41.2 25.8 41.22 25.77 41.5 25.46C41.94 24.95 42.7 24.9 43.21 25.34C44.87 26.78 48.95 30.32 50.61 31.77Z" id="iy6eUCKdr"></path><path d="M25.06 31.92C25.7 31.92 26.23 32.45 26.23 33.09C26.23 34.72 26.23 38.43 26.23 40.06C26.23 40.71 25.7 41.23 25.06 41.23C24.58 41.23 24.32 41.23 23.84 41.23C23.19 41.23 22.67 40.71 22.67 40.06C22.67 38.43 22.67 34.72 22.67 33.09C22.67 32.45 23.19 31.92 23.84 31.92C24.32 31.92 24.58 31.92 25.06 31.92Z" id="a1MuMxPYYd"></path><path d="M49.96 31.92C50.61 31.92 51.13 32.45 51.13 33.09C51.13 34.72 51.13 38.43 51.13 40.06C51.13 40.71 50.61 41.23 49.96 41.23C49.48 41.23 49.22 41.23 48.74 41.23C48.09 41.23 47.57 40.71 47.57 40.06C47.57 38.43 47.57 34.72 47.57 33.09C47.57 32.45 48.09 31.92 48.74 31.92C49.22 31.92 49.48 31.92 49.96 31.92Z" id="b6PPenEFad"></path><path d="M27.02 42.55C27.02 44.34 25.87 45.8 24.45 45.8C23.03 45.8 21.87 44.34 21.87 42.55C21.87 40.75 23.03 39.3 24.45 39.3C25.87 39.3 27.02 40.75 27.02 42.55Z" id="b6dyaGWwA"></path><path d="M51.92 42.55C51.92 44.34 50.77 45.8 49.35 45.8C47.93 45.8 46.78 44.34 46.78 42.55C46.78 40.75 47.93 39.3 49.35 39.3C50.77 39.3 51.92 40.75 51.92 42.55Z" id="c49Z7Cml9B"></path><path d="M34.66 10.73C34.66 11.39 34.16 11.92 33.54 11.92C32.92 11.92 32.41 11.39 32.41 10.73C32.41 10.08 32.92 9.55 33.54 9.55C34.16 9.55 34.66 10.08 34.66 10.73Z" id="a6pzLWBdfK"></path><path d="M41.75 10.73C41.75 11.39 41.25 11.92 40.63 11.92C40.01 11.92 39.5 11.39 39.5 10.73C39.5 10.08 40.01 9.55 40.63 9.55C41.25 9.55 41.75 10.08 41.75 10.73Z" id="eIpFuOOfb"></path><path d="M32.27 17.17L33.08 18.23L34.15 18.73L35.33 19.42L36.46 20.23L37.52 20.73L38.71 20.8L39.9 20.61L41.15 20.17L42.4 19.61L43.4 18.92L43.9 17.73" id="c2vmrZTtpG"></path><path d="M37.58 14.77C37.58 15.04 37.36 15.27 37.08 15.27C36.81 15.27 36.58 15.04 36.58 14.77C36.58 14.49 36.81 14.27 37.08 14.27C37.36 14.27 37.58 14.49 37.58 14.77Z" id="d1BpqZGYp9"></path><path d="M31.44 25.47L35.31 25.47L35.31 30.72L31.44 30.72L31.44 25.47Z" id="d2FwOK9zO"></path><path d="M38.86 25.47L42.73 25.47L42.73 30.72L38.86 30.72L38.86 25.47Z" id="fSk95zPlQ"></path><path d="M26.21 29.83L27.51 31.69L24.34 33.91L23.04 32.05L26.21 29.83Z" id="b7Jg7SR9J"></path><path d="M50.41 32.25L48.95 33.98L45.98 31.49L47.44 29.76L50.41 32.25Z" id="b2yS8rdm1s"></path></defs><g><g><g><use xlink:href="#g1e0ZlNLMz" opacity="1" fill="#5f3d20" fill-opacity="1"></use></g><g><use xlink:href="#byp6X0sKK" opacity="1" fill="#5f3d20" fill-opacity="1"></use></g><g><use xlink:href="#abDE8ZK32" opacity="1" fill="#5f3d20" fill-opacity="1"></use></g><g><g><use xlink:href="#cGwwXl3C" opacity="1" fill="#0a83a8" fill-opacity="1"></use><g><use xlink:href="#cGwwXl3C" opacity="1" fill-opacity="0" stroke="#040306" stroke-width="1" stroke-opacity="1"></use></g></g><g><use xlink:href="#a18Zy1uBXF" opacity="1" fill="#0a83a8" fill-opacity="1"></use><g><use xlink:href="#a18Zy1uBXF" opacity="1" fill-opacity="0" stroke="#040306" stroke-width="1" stroke-opacity="1"></use></g></g><g><use xlink:href="#b1hqdGzRGg" opacity="1" fill="#ecc3a2" fill-opacity="1"></use><g><use xlink:href="#b1hqdGzRGg" opacity="1" fill-opacity="0" stroke="#000000" stroke-width="1" stroke-opacity="1"></use></g></g><g><use xlink:href="#c13i7n3LM" opacity="1" fill="#0a83a8" fill-opacity="1"></use><g><use xlink:href="#c13i7n3LM" opacity="1" fill-opacity="0" stroke="#000000" stroke-width="1" stroke-opacity="1"></use></g></g><g><use xlink:href="#aKgDyI3LX" opacity="1" fill="#000000" fill-opacity="1"></use></g><g><use xlink:href="#arDBjEc3G" opacity="1" fill="#0a40a8" fill-opacity="1"></use><g><use xlink:href="#arDBjEc3G" opacity="1" fill-opacity="0" stroke="#000000" stroke-width="1" stroke-opacity="1"></use></g></g><g><use xlink:href="#a5s4oiYhiJ" opacity="1" fill="#000000" fill-opacity="1"></use></g><g><use xlink:href="#e2dQFfKyzn" opacity="1" fill="#0a83a8" fill-opacity="1"></use></g><g><use xlink:href="#b1EVALiDHq" opacity="1" fill="#0a83a8" fill-opacity="1"></use></g><g><use xlink:href="#a2y7eObdi8" opacity="1" fill="#0a40a8" fill-opacity="1"></use><g><use xlink:href="#a2y7eObdi8" opacity="1" fill-opacity="0" stroke="#000000" stroke-width="1" stroke-opacity="1"></use></g></g><g><use xlink:href="#iy6eUCKdr" opacity="1" fill="#0a40a8" fill-opacity="1"></use><g><use xlink:href="#iy6eUCKdr" opacity="1" fill-opacity="0" stroke="#000000" stroke-width="1" stroke-opacity="1"></use></g></g><g><use xlink:href="#a1MuMxPYYd" opacity="1" fill="#0a40a8" fill-opacity="1"></use><g><use xlink:href="#a1MuMxPYYd" opacity="1" fill-opacity="0" stroke="#000000" stroke-width="1" stroke-opacity="1"></use></g></g><g><use xlink:href="#b6PPenEFad" opacity="1" fill="#0a40a8" fill-opacity="1"></use><g><use xlink:href="#b6PPenEFad" opacity="1" fill-opacity="0" stroke="#000000" stroke-width="1" stroke-opacity="1"></use></g></g><g><use xlink:href="#b6dyaGWwA" opacity="1" fill="#ecc3a2" fill-opacity="1"></use><g><use xlink:href="#b6dyaGWwA" opacity="1" fill-opacity="0" stroke="#000000" stroke-width="1" stroke-opacity="1"></use></g></g><g><use xlink:href="#c49Z7Cml9B" opacity="1" fill="#ecc3a2" fill-opacity="1"></use><g><use xlink:href="#c49Z7Cml9B" opacity="1" fill-opacity="0" stroke="#000000" stroke-width="1" stroke-opacity="1"></use></g></g><g><use xlink:href="#a6pzLWBdfK" opacity="1" fill="#000000" fill-opacity="1"></use></g><g><use xlink:href="#eIpFuOOfb" opacity="1" fill="#000000" fill-opacity="1"></use></g><g><g><use xlink:href="#c2vmrZTtpG" opacity="1" fill-opacity="0" stroke="#000000" stroke-width="1" stroke-opacity="1"></use></g></g><g><use xlink:href="#d1BpqZGYp9" opacity="1" fill="#000000" fill-opacity="1"></use></g></g><g><use xlink:href="#d2FwOK9zO" opacity="1" fill="#0a40a8" fill-opacity="1"></use></g><g><use xlink:href="#fSk95zPlQ" opacity="1" fill="#0a40a8" fill-opacity="1"></use></g><g><use xlink:href="#b7Jg7SR9J" opacity="1" fill="#0a40a8" fill-opacity="1"></use></g><g><use xlink:href="#b2yS8rdm1s" opacity="1" fill="#0a40a8" fill-opacity="1"></use></g></g></g></svg>