<?xml version="1.0" encoding="UTF-8" standalone="no"?>
<!DOCTYPE svg PUBLIC "-//W3C//DTD SVG 1.1//EN" "http://www.w3.org/Graphics/SVG/1.1/DTD/svg11.dtd">
<svg version="1.1" xmlns="http://www.w3.org/2000/svg" xmlns:xlink="http://www.w3.org/1999/xlink" preserveAspectRatio="xMidYMid meet" viewBox="0 0 75 75" width="75" height="75"><defs><path d="M38.59 23.42C46.29 15.72 49.42 6.35 45.57 2.51C41.72 -1.34 32.35 1.78 24.65 9.48C16.95 17.18 13.82 26.55 5.93 42.14C21.52 34.25 30.89 31.12 38.59 23.42Z" id="b16djDp48R"></path><path d="M47.21 11.21C47.21 15.79 43.5 19.5 38.93 19.5C34.36 19.5 30.64 15.79 30.64 11.21C30.64 6.64 34.36 2.93 38.93 2.93C43.5 2.93 47.21 6.64 47.21 11.21Z" id="byy4RO4dR"></path><path d="M43.44 19.5C44.74 19.5 45.79 20.55 45.79 21.84C45.79 26.32 45.79 37.4 45.79 41.87C45.79 43.16 44.74 44.21 43.44 44.21C41.17 44.21 36.69 44.21 34.42 44.21C33.12 44.21 32.07 43.16 32.07 41.87C32.07 37.4 32.07 26.32 32.07 21.84C32.07 20.55 33.12 19.5 34.42 19.5C36.69 19.5 41.17 19.5 43.44 19.5Z" id="cE9oRKHDz"></path><path d="M38.5 23.67C38.5 25.33 37.16 26.67 35.5 26.67C33.84 26.67 32.5 25.33 32.5 23.67C32.5 22.01 33.84 20.67 35.5 20.67C37.16 20.67 38.5 22.01 38.5 23.67Z" id="a1lYxQbRaP"></path><path d="M45.36 23.67C45.36 25.33 44.01 26.67 42.36 26.67C40.7 26.67 39.36 25.33 39.36 23.67C39.36 22.01 40.7 20.67 42.36 20.67C44.01 20.67 45.36 22.01 45.36 23.67Z" id="a7AlPu77Y"></path><path d="M33.79 42.07C34.73 42.07 35.5 42.84 35.5 43.79C35.5 46.87 35.5 54.41 35.5 57.5C35.5 58.45 34.73 59.21 33.79 59.21C33.44 59.21 34.13 59.21 33.79 59.21C32.84 59.21 32.07 58.45 32.07 57.5C32.07 54.41 32.07 46.87 32.07 43.79C32.07 42.84 32.84 42.07 33.79 42.07C34.13 42.07 33.44 42.07 33.79 42.07Z" id="c8BUHxbFA"></path><path d="M44.07 42.07C45.02 42.07 45.79 42.84 45.79 43.79C45.79 46.87 45.79 54.41 45.79 57.5C45.79 58.45 45.02 59.21 44.07 59.21C43.73 59.21 44.41 59.21 44.07 59.21C43.12 59.21 42.36 58.45 42.36 57.5C42.36 54.41 42.36 46.87 42.36 43.79C42.36 42.84 43.12 42.07 44.07 42.07C44.41 42.07 43.73 42.07 44.07 42.07Z" id="agKjBzd0w"></path><path d="M42.36 22.48C44.25 22.48 45.79 23.74 45.79 25.3C45.79 29.6 38.93 31.74 38.93 31.86C38.93 31.86 38.93 31.86 38.93 31.86C38.93 31.74 32.07 29.6 32.07 25.3C32.07 23.74 33.61 22.48 35.5 22.48C37.39 22.48 38.93 23.59 38.93 25.14C38.93 23.59 40.46 22.48 42.36 22.48Z" id="d2vKTyJvU6"></path><path d="M43.58 25.17C44.56 25.17 45.36 25.96 45.36 26.94C45.36 30.33 45.36 38.7 45.36 42.09C45.36 43.07 44.56 43.86 43.58 43.86C41.34 43.86 36.38 43.86 34.13 43.86C33.15 43.86 32.36 43.07 32.36 42.09C32.36 38.7 32.36 30.33 32.36 26.94C32.36 25.96 33.15 25.17 34.13 25.17C36.38 25.17 41.34 25.17 43.58 25.17Z" id="a5UsyAhoZO"></path><path d="M23.14 32.02C22.38 32.77 21.16 32.77 20.41 32.02C20.14 31.75 20.68 32.29 20.41 32.02C19.66 31.27 19.66 30.04 20.41 29.29C22.6 27.1 27.81 21.89 30.01 19.7C30.76 18.94 31.98 18.94 32.73 19.7C33.01 19.97 32.46 19.42 32.73 19.7C33.49 20.45 33.49 21.67 32.73 22.42C30.54 24.61 25.33 29.83 23.14 32.02Z" id="bOissfjQd"></path><path d="M23.45 33.04C22.84 34.24 21.11 34.58 19.61 33.8C18.1 33.03 17.37 31.43 17.98 30.24C18.59 29.05 20.31 28.71 21.82 29.48C23.33 30.26 24.06 31.85 23.45 33.04Z" id="a3MgYzILKA"></path><path d="M52.21 13.79L52.21 16.5L52.5 19.07L52.79 21.93L53.07 24.5L53.21 26.93L53.21 29.64L53.21 32.07L53.21 34.79L53.36 37.36L53.64 40.79L53.93 43.64L54.21 46.21L54.21 48.93L54.21 51.36L53.79 54.21L52.64 56.79" id="b8R7TVk2e"></path><path d="M54.21 32.36C54.96 33.12 56.18 33.12 56.93 32.36C57.21 32.09 56.66 32.64 56.93 32.36C57.69 31.61 57.69 30.39 56.93 29.64C54.74 27.44 49.53 22.23 47.34 20.04C46.58 19.29 45.36 19.29 44.61 20.04C44.34 20.31 44.88 19.77 44.61 20.04C43.86 20.79 43.86 22.01 44.61 22.77C46.8 24.96 52.01 30.17 54.21 32.36Z" id="b6uS0I2eT"></path><path d="M60.29 33.53C59.68 34.72 57.96 35.06 56.45 34.29C54.94 33.52 54.21 31.92 54.83 30.73C55.44 29.54 57.16 29.19 58.67 29.97C60.17 30.74 60.9 32.34 60.29 33.53Z" id="a8M6nX5Fb"></path><path d="M33 34.62L33.25 35.35C33.8 34.81 34.1 34.5 34.16 34.44C34.65 33.96 35.18 33.72 35.36 33.9C35.59 34.13 37.42 35.95 37.65 36.18C37.83 36.36 37.59 36.9 37.11 37.38C36.05 38.44 27.58 46.9 26.53 47.96C26.04 48.44 25.51 48.69 25.33 48.51C25.1 48.28 23.27 46.45 23.04 46.22C22.86 46.04 23.1 45.5 23.58 45.02C24.07 44.54 26.47 42.14 30.79 37.82L33 34.62Z" id="a4FZrPeZG"></path><path d="M35.64 33.5L37.36 31.64L38.93 29.64" id="a1pVAGzVxj"></path><path d="M38.22 30.13L38.19 29.5L38.13 28.91L38.28 28.31" id="cPoLrLNFz"></path><path d="M37.72 30.94L37.69 30.32L37.63 29.72L37.79 29.13" id="akqTn82QR"></path><path d="M37.79 31L38.41 31.04L39.01 31.1L39.6 30.94" id="b3G2ljyHyd"></path><path d="M38.47 30.28L39.09 30.31L39.69 30.37L40.28 30.22" id="d12V1qqPaT"></path><path d="M35.92 35.18L37.63 33.32L39.2 31.32" id="a52EqWbgFl"></path><path d="M38.49 31.8L38.46 31.18L38.4 30.58L38.55 29.99" id="a1hq5pLjum"></path><path d="M38 32.62L37.97 31.99L37.9 31.4L38.06 30.81" id="d2krAziQ3"></path><path d="M38.06 32.68L38.69 32.71L39.28 32.78L39.87 32.62" id="aP0JA59Jw"></path><path d="M38.74 31.96L39.37 31.99L39.96 32.05L40.55 31.89" id="a1by256vjF"></path><path d="M37.31 36.64L39.03 34.78L40.6 32.78" id="a2EFeSsFTA"></path><path d="M39.89 33.26L39.86 32.64L39.8 32.04L39.95 31.45" id="g7ggeEtnX"></path><path d="M39.4 34.08L39.37 33.46L39.3 32.86L39.46 32.27" id="d5CF3PkIJ8"></path><path d="M39.46 34.14L40.08 34.17L40.68 34.24L41.27 34.08" id="a6t8FFLpx6"></path><path d="M40.14 33.42L40.76 33.45L41.36 33.51L41.95 33.35" id="a1zB1Lsp5g"></path><path d="M36.38 58.19C36.38 59.22 34.29 60.06 31.73 60.06C29.17 60.06 27.09 59.22 27.09 58.19C27.09 57.15 29.17 56.31 31.73 56.31C34.29 56.31 36.38 57.15 36.38 58.19Z" id="c1Ui2Dhave"></path><path d="M50.56 58.19C50.56 59.22 48.48 60.06 45.92 60.06C43.35 60.06 41.27 59.22 41.27 58.19C41.27 57.15 43.35 56.31 45.92 56.31C48.48 56.31 50.56 57.15 50.56 58.19Z" id="cI2fPJMVn"></path><path d="M36.83 8.13C36.83 8.77 36.3 9.3 35.66 9.3C35.01 9.3 34.48 8.77 34.48 8.13C34.48 7.48 35.01 6.95 35.66 6.95C36.3 6.95 36.83 7.48 36.83 8.13Z" id="di2Q8OugB"></path><path d="M34.59 7.78L34 7.78L33.41 7.66L32.94 7.25" id="hwlgFbQxl"></path><path d="M34.59 8.39L34 8.39L33.41 8.27L32.94 7.86" id="aUsY5FVa0"></path><path d="M41.21 8.13C41.21 8.77 41.74 9.3 42.38 9.3C43.03 9.3 43.55 8.77 43.55 8.13C43.55 7.48 43.03 6.95 42.38 6.95C41.74 6.95 41.21 7.48 41.21 8.13Z" id="b33soO7ZeI"></path><path d="M43.45 7.78L44.04 7.78L44.63 7.66L45.1 7.25" id="cbuBAJeqY"></path><path d="M43.45 8.39L44.04 8.39L44.63 8.27L45.1 7.86" id="cN9jshUZ4"></path><path d="M34.81 13.97L35.44 14.31L36.16 15.13L36.63 15.59L37.16 15.94L37.81 16.22L38.41 16.38L39.31 16.5L40.22 16.56L40.81 16.56L41.41 16.44L42.19 16.03L42.72 15.56L43.09 15.09L43.41 14.38L43.53 13.78L43.69 13.19" id="b29nuScvDN"></path><path d="M38.34 11.13L38.91 10.72L39.53 10.66L40.13 10.84L40.34 11.44L40.34 12.09L40.13 12.75L39.59 13.06L38.97 13.09" id="h1lBDPOOQ"></path><path d="M51.21 13.06L52.54 13.81L53.63 14.48L54.63 15.23L55.71 16.23L56.54 17.06L57.71 17.9L58.71 18.65L59.63 19.48L60.38 20.65L61.13 21.65L62.04 23.23L62.54 24.48L63.04 25.98L63.29 27.15L63.63 28.31L63.88 29.73L64.21 30.9L64.46 32.23L64.88 34.23L65.04 35.73L65.13 37.23L65.21 38.9L65.21 40.48L65.13 41.98L64.88 43.73L64.38 45.73L64.13 46.9L63.63 48.15L51.79 57.23" id="a1BD0IMqGA"></path></defs><g><g><g><g><use xlink:href="#b16djDp48R" opacity="1" fill="#68360d" fill-opacity="1"></use><g><use xlink:href="#b16djDp48R" opacity="1" fill-opacity="0" stroke="#000000" stroke-width="1" stroke-opacity="1"></use></g></g><g><use xlink:href="#byy4RO4dR" opacity="1" fill="#e4ca97" fill-opacity="1"></use><g><use xlink:href="#byy4RO4dR" opacity="1" fill-opacity="0" stroke="#000000" stroke-width="1" stroke-opacity="1"></use></g></g><g><use xlink:href="#cE9oRKHDz" opacity="1" fill="#e4ca97" fill-opacity="1"></use><g><use xlink:href="#cE9oRKHDz" opacity="1" fill-opacity="0" stroke="#000000" stroke-width="1" stroke-opacity="1"></use></g></g><g><use xlink:href="#a1lYxQbRaP" opacity="1" fill="#e4ca97" fill-opacity="1"></use><g><use xlink:href="#a1lYxQbRaP" opacity="1" fill-opacity="0" stroke="#000000" stroke-width="1" stroke-opacity="1"></use></g></g><g><use xlink:href="#a7AlPu77Y" opacity="1" fill="#e4ca97" fill-opacity="1"></use><g><use xlink:href="#a7AlPu77Y" opacity="1" fill-opacity="0" stroke="#000000" stroke-width="1" stroke-opacity="1"></use></g></g><g><use xlink:href="#c8BUHxbFA" opacity="1" fill="#775c46" fill-opacity="1"></use><g><use xlink:href="#c8BUHxbFA" opacity="1" fill-opacity="0" stroke="#000000" stroke-width="1" stroke-opacity="1"></use></g></g><g><use xlink:href="#agKjBzd0w" opacity="1" fill="#775c46" fill-opacity="1"></use><g><use xlink:href="#agKjBzd0w" opacity="1" fill-opacity="0" stroke="#000000" stroke-width="1" stroke-opacity="1"></use></g></g><g><use xlink:href="#d2vKTyJvU6" opacity="1" fill="#775c46" fill-opacity="1"></use></g><g><use xlink:href="#a5UsyAhoZO" opacity="1" fill="#775c46" fill-opacity="1"></use></g></g><g><use xlink:href="#bOissfjQd" opacity="1" fill="#e4ca97" fill-opacity="1"></use><g><use xlink:href="#bOissfjQd" opacity="1" fill-opacity="0" stroke="#000000" stroke-width="1" stroke-opacity="1"></use></g></g><g><use xlink:href="#a3MgYzILKA" opacity="1" fill="#e4ca97" fill-opacity="1"></use><g><use xlink:href="#a3MgYzILKA" opacity="1" fill-opacity="0" stroke="#000000" stroke-width="1" stroke-opacity="1"></use></g></g><g><g><use xlink:href="#b8R7TVk2e" opacity="1" fill-opacity="0" stroke="#000000" stroke-width="1" stroke-opacity="1"></use></g></g><g><use xlink:href="#b6uS0I2eT" opacity="1" fill="#e4ca97" fill-opacity="1"></use><g><use xlink:href="#b6uS0I2eT" opacity="1" fill-opacity="0" stroke="#000000" stroke-width="1" stroke-opacity="1"></use></g></g><g><use xlink:href="#a8M6nX5Fb" opacity="1" fill="#e4ca97" fill-opacity="1"></use><g><use xlink:href="#a8M6nX5Fb" opacity="1" fill-opacity="0" stroke="#000000" stroke-width="1" stroke-opacity="1"></use></g></g><g><use xlink:href="#a4FZrPeZG" opacity="1" fill="#483326" fill-opacity="1"></use><g><use xlink:href="#a4FZrPeZG" opacity="1" fill-opacity="0" stroke="#000000" stroke-width="1" stroke-opacity="1"></use></g></g><g><g><g><use xlink:href="#a1pVAGzVxj" opacity="1" fill-opacity="0" stroke="#000000" stroke-width="0.5" stroke-opacity="1"></use></g></g><g><g><use xlink:href="#cPoLrLNFz" opacity="1" fill-opacity="0" stroke="#000000" stroke-width="0.5" stroke-opacity="1"></use></g></g><g><g><use xlink:href="#akqTn82QR" opacity="1" fill-opacity="0" stroke="#000000" stroke-width="0.5" stroke-opacity="1"></use></g></g><g><g><use xlink:href="#b3G2ljyHyd" opacity="1" fill-opacity="0" stroke="#000000" stroke-width="0.5" stroke-opacity="1"></use></g></g><g><g><use xlink:href="#d12V1qqPaT" opacity="1" fill-opacity="0" stroke="#000000" stroke-width="0.5" stroke-opacity="1"></use></g></g></g><g><g><g><use xlink:href="#a52EqWbgFl" opacity="1" fill-opacity="0" stroke="#000000" stroke-width="0.5" stroke-opacity="1"></use></g></g><g><g><use xlink:href="#a1hq5pLjum" opacity="1" fill-opacity="0" stroke="#000000" stroke-width="0.5" stroke-opacity="1"></use></g></g><g><g><use xlink:href="#d2krAziQ3" opacity="1" fill-opacity="0" stroke="#000000" stroke-width="0.5" stroke-opacity="1"></use></g></g><g><g><use xlink:href="#aP0JA59Jw" opacity="1" fill-opacity="0" stroke="#000000" stroke-width="0.5" stroke-opacity="1"></use></g></g><g><g><use xlink:href="#a1by256vjF" opacity="1" fill-opacity="0" stroke="#000000" stroke-width="0.5" stroke-opacity="1"></use></g></g></g><g><g><g><use xlink:href="#a2EFeSsFTA" opacity="1" fill-opacity="0" stroke="#000000" stroke-width="0.5" stroke-opacity="1"></use></g></g><g><g><use xlink:href="#g7ggeEtnX" opacity="1" fill-opacity="0" stroke="#000000" stroke-width="0.5" stroke-opacity="1"></use></g></g><g><g><use xlink:href="#d5CF3PkIJ8" opacity="1" fill-opacity="0" stroke="#000000" stroke-width="0.5" stroke-opacity="1"></use></g></g><g><g><use xlink:href="#a6t8FFLpx6" opacity="1" fill-opacity="0" stroke="#000000" stroke-width="0.5" stroke-opacity="1"></use></g></g><g><g><use xlink:href="#a1zB1Lsp5g" opacity="1" fill-opacity="0" stroke="#000000" stroke-width="0.5" stroke-opacity="1"></use></g></g></g><g><use xlink:href="#c1Ui2Dhave" opacity="1" fill="#000000" fill-opacity="1"></use><g><use xlink:href="#c1Ui2Dhave" opacity="1" fill-opacity="0" stroke="#000000" stroke-width="1" stroke-opacity="1"></use></g></g><g><use xlink:href="#cI2fPJMVn" opacity="1" fill="#000000" fill-opacity="1"></use><g><use xlink:href="#cI2fPJMVn" opacity="1" fill-opacity="0" stroke="#000000" stroke-width="1" stroke-opacity="1"></use></g></g><g><g><use xlink:href="#di2Q8OugB" opacity="1" fill="#000000" fill-opacity="1"></use></g><g><g><use xlink:href="#hwlgFbQxl" opacity="1" fill-opacity="0" stroke="#000000" stroke-width="0.5" stroke-opacity="1"></use></g></g><g><g><use xlink:href="#aUsY5FVa0" opacity="1" fill-opacity="0" stroke="#000000" stroke-width="0.5" stroke-opacity="1"></use></g></g></g><g><g><use xlink:href="#b33soO7ZeI" opacity="1" fill="#000000" fill-opacity="1"></use></g><g><g><use xlink:href="#cbuBAJeqY" opacity="1" fill-opacity="0" stroke="#000000" stroke-width="0.5" stroke-opacity="1"></use></g></g><g><g><use xlink:href="#cN9jshUZ4" opacity="1" fill-opacity="0" stroke="#000000" stroke-width="0.5" stroke-opacity="1"></use></g></g></g><g><g><use xlink:href="#b29nuScvDN" opacity="1" fill-opacity="0" stroke="#000000" stroke-width="0.5" stroke-opacity="1"></use></g></g><g><g><use xlink:href="#h1lBDPOOQ" opacity="1" fill-opacity="0" stroke="#000000" stroke-width="0.5" stroke-opacity="1"></use></g></g><g><g><use xlink:href="#a1BD0IMqGA" opacity="1" fill-opacity="0" stroke="#5a340b" stroke-width="3" stroke-opacity="1"></use></g></g></g></g></svg>