<svg width="75" height="75" xmlns="http://www.w3.org/2000/svg" xmlns:svg="http://www.w3.org/2000/svg">
 <!-- Created with SVG-edit - http://svg-edit.googlecode.com/ -->
 <g>
  <title>Layer 1</title>
  <path id="svg_11" d="m46.58268,46.5275c-0.57353,0.52757 -1.21077,1.22397 -1.32353,2.07352c-0.11497,0.8663 0.17256,1.74807 0.39047,2.58436c0.22317,0.85646 0.58833,1.6212 0.89459,2.41635c0.32123,0.83401 0.14679,1.78148 -0.04976,2.63165c-0.19213,0.83102 -0.97431,1.53467 -1.80883,1.40992c-0.87072,-0.13015 -1.70881,-0.70073 -2.53329,-0.38863c-0.8116,0.30722 -0.85655,1.49991 -0.38031,2.23974c0.44956,0.69837 1.47142,0.72524 2.30769,0.94314c0.8578,0.22352 1.75885,0.25319 2.61768,0.11936c0.84639,-0.1319 1.7861,-0.22363 2.42647,-0.77647c0.66504,-0.57414 0.724,-1.54852 0.81176,-2.41542c0.0891,-0.88009 0,-1.77576 0,-2.66229c0,-0.887 0.17487,-1.74087 0.35612,-2.5843c0.18291,-0.85116 0.45727,-1.67989 0.77624,-2.5027c0.31332,-0.80825 0.36764,-1.69412 0.18613,-2.5374l-0.45378,-0.74483" stroke-linecap="null" stroke-linejoin="null" stroke-dasharray="null" stroke-width="null" stroke="#000000" fill="#ffaa56"/>
  <path id="svg_8" d="m30.24404,48.68007c-0.26654,0.65809 -0.55764,1.50024 -0.71341,2.37224c-0.15592,0.87282 -0.16894,1.75588 -0.16894,2.65717c0,0.88236 -0.04348,1.76578 0,2.64659c0.04418,0.89493 -0.01454,1.42348 -0.80294,1.03975c-0.771,-0.37525 -1.73641,-0.61417 -2.56764,-0.31385c-0.81381,0.29403 -1.26353,1.55641 -0.76763,2.27268c0.49185,0.71042 1.60351,0.6652 2.49385,0.70778c0.88412,0.04228 1.9244,0.49135 2.66789,0c0.63843,-0.42193 0.22077,-1.59815 0.39705,-2.45799c0.17602,-0.85849 0.46828,-1.68509 0.55812,-2.55601c0.09003,-0.87268 0.19632,-1.73714 0.2843,-2.60489c0.0894,-0.88173 0.03111,-1.77817 0.07523,-2.66236l0.10718,-0.85381l-0.7793,0.10564" stroke-linecap="null" stroke-linejoin="null" stroke-dasharray="null" stroke-width="null" stroke="#000000" fill="#ffaa56"/>
  <path id="svg_6" d="m56,45c0,0.05882 6.98162,-15.95588 8,-18.05882c1.01838,-2.10294 2.06985,-0.875 0.94118,2c-1.12868,2.875 -2.875,8.08088 -4.00184,11.0625c-1.12684,2.98161 -2.93934,5.99632 -2.93934,5.99632c0,0 -2,-1 -2,-1z" stroke-linecap="null" stroke-linejoin="null" stroke-dasharray="null" stroke-width="null" stroke="#000000" fill="#ffaa56"/>
  <ellipse ry="6" rx="19" id="svg_3" cy="47" cx="39" stroke-linecap="null" stroke-linejoin="null" stroke-dasharray="null" stroke-width="null" stroke="#000000" fill="#ffaa56"/>
  <ellipse ry="6" rx="8" id="svg_1" cy="47" cx="15" stroke-linecap="null" stroke-linejoin="null" stroke-dasharray="null" stroke-width="null" stroke="#000000" fill="#ffaa56"/>
  <path stroke="#000000" d="m26.82353,49.4902c-0.26654,0.71293 -0.55764,1.62526 -0.71341,2.56992c-0.15592,0.94556 -0.16894,1.90221 -0.16894,2.87861c0,0.95588 -0.04348,1.91293 0,2.86714c0.04418,0.96951 -0.01454,1.5421 -0.80294,1.1264c-0.771,-0.40653 -1.7364,-0.66536 -2.56763,-0.34001c-0.81381,0.31853 -1.26353,1.68611 -0.76763,2.46207c0.49185,0.76963 1.60351,0.72063 2.49385,0.76676c0.88412,0.04581 1.9244,0.5323 2.66788,0c0.63843,-0.45708 0.22077,-1.73133 0.39706,-2.66282c0.17601,-0.93003 0.46827,-1.82551 0.55812,-2.76902c0.09003,-0.9454 0.19631,-1.8819 0.28429,-2.82196c0.0894,-0.95521 0.03112,-1.92636 0.07524,-2.88423l0.10718,-0.92496l-0.77929,0.11445" id="svg_7" stroke-linecap="null" stroke-linejoin="null" stroke-dasharray="null" stroke-width="null" fill="#ffaa56"/>
  <path d="m50.20588,48.41177c-0.57353,0.52757 -1.21078,1.22397 -1.32353,2.07353c-0.11497,0.86629 0.17255,1.74807 0.39047,2.58435c0.22317,0.85646 0.58832,1.6212 0.89459,2.41635c0.32123,0.83401 0.14679,1.78148 -0.04977,2.63165c-0.19213,0.83102 -0.9743,1.53467 -1.80882,1.40993c-0.87073,-0.13016 -1.70881,-0.70073 -2.53329,-0.38863c-0.8116,0.30722 -0.85655,1.49991 -0.38031,2.23973c0.44956,0.69838 1.47142,0.72524 2.30769,0.94315c0.8578,0.22351 1.75885,0.25319 2.61768,0.11935c0.8464,-0.1319 1.7861,-0.22363 2.42647,-0.77647c0.66504,-0.57414 0.724,-1.54852 0.81176,-2.41541c0.0891,-0.88009 0,-1.77576 0,-2.66229c0,-0.887 0.17487,-1.74088 0.35612,-2.5843c0.18291,-0.85117 0.45727,-1.67989 0.77624,-2.5027c0.31332,-0.80825 0.36765,-1.69412 0.18613,-2.5374l-0.45378,-0.74484" id="svg_9" stroke-linecap="null" stroke-linejoin="null" stroke-dasharray="null" stroke-width="null" stroke="#000000" fill="#ffaa56"/>
  <path id="svg_12" d="m16,43c-0.02941,-0.02941 -0.02941,-9.02941 -0.02941,-9.02941c0,0 -2.94118,8.02941 -2.97059,8.02941c-0.02941,0 3,1 3,1z" stroke-linecap="null" stroke-linejoin="null" stroke-dasharray="null" stroke-width="null" stroke="#000000" fill="#ffaa56"/>
  <ellipse stroke="#000000" ry="1" rx="1" id="svg_13" cy="45" cx="11" stroke-linecap="null" stroke-linejoin="null" stroke-dasharray="null" stroke-width="null" fill="#000000"/>
  <line stroke="#000000" id="svg_14" y2="44" x2="10" y1="43" x1="13" stroke-linecap="null" stroke-linejoin="null" stroke-dasharray="null" stroke-width="null" fill="none"/>
  <path d="m7.32353,46.94118c0.91177,0 1.78044,0 2.62665,0.14542l0.835,0.2781l0.65776,0.60765l0.57471,0.688" id="svg_16" stroke-linecap="null" stroke-linejoin="null" stroke-dasharray="null" stroke-width="null" stroke="#000000" fill="none"/>
  <path d="m29.47059,42.29412c-0.02337,0.82745 0.28533,1.68988 0.76471,2.41422l0.48855,0.7152l0.5113,0.72941l0.1178,0.87059" id="svg_17" stroke-linecap="null" stroke-linejoin="null" stroke-dasharray="null" stroke-width="null" stroke="#000000" fill="none"/>
  <path d="m35.35294,41.23529c0.89412,0.39576 1.88198,0.55462 2.50588,1.13561c0.64358,0.59932 1.00926,1.45012 1.32518,2.2509l0.16894,0.88661l0.06761,0.85928" id="svg_18" stroke-linecap="null" stroke-linejoin="null" stroke-dasharray="null" stroke-width="null" stroke="#000000" fill="none"/>
  <path d="m44.17647,41.70588c0.8,0.44706 1.39215,1.13725 1.89474,1.85998l0.42463,0.75555l0.3189,0.84455l0.18525,0.84527" id="svg_19" stroke-linecap="null" stroke-linejoin="null" stroke-dasharray="null" stroke-width="null" stroke="#000000" fill="none"/>
 </g>
</svg>