<svg width="75" height="75" xmlns="http://www.w3.org/2000/svg" xmlns:svg="http://www.w3.org/2000/svg">
 <!-- Created with SVG-edit - http://svg-edit.googlecode.com/ -->
 <g>
  <title>Layer 1</title>
  <path d="m7.70588,9c0.68235,-0.66604 1.106,-1.45938 1.73561,-2.08855c0.61895,-0.61851 1.40057,-1.16656 2.25316,-1.31649c0.8917,-0.15681 1.77594,-0.00673 2.56026,-0.00673c0.98039,0 1.99738,-0.06082 2.3909,0.6618c0.37336,0.68561 1.13832,0.71776 1.95906,0.61475c0.93316,-0.11712 1.73685,0.17502 2.57727,0.60696c0.80262,0.41251 0.5668,1.42566 0.87669,1.6459c0.68725,0.48844 1.70166,-0.03134 2.60294,0.00735c0.9124,0.03917 1.75062,0.19083 2.58006,0.4069c0.89114,0.23215 2.21392,0.47216 2.1952,1.2899c-0.01927,0.8413 -1.30283,1.05542 -2.04675,1.50572c-0.64423,0.38996 -0.04898,1.26064 0.25188,2.08179c0.30591,0.83492 -0.62898,1.29657 -1.47682,1.29657c-0.91784,0 -2.06896,-0.50659 -2.67122,0.10761c-0.46774,0.47701 -0.57924,1.22688 -1.44653,1.30363c-0.92632,0.08197 -1.56393,0.46953 -2.41229,0.46108c-0.87546,-0.00872 -1.59576,-0.71639 -2.31184,-1.21349l-0.81365,-0.42353l-0.78588,-0.31012" id="svg_165" stroke-linecap="null" stroke-linejoin="null" stroke-dasharray="null" stroke-width="null" stroke="#000000" fill="#000000"/>
  <path d="m13.23529,41c0.18824,-0.85004 0.46148,-1.67947 0.58823,-2.5647c0.12959,-0.90503 0.11426,-1.78579 0.11765,-2.65829c0.00336,-0.86547 0.28234,-1.74594 0.504,-2.58892c0.22525,-0.85663 0.49568,-1.76426 0.31702,-2.63216c-0.17306,-0.84069 -1.48451,-1.7733 -0.93194,-2.4618c0.47852,-0.59624 1.53327,0.40394 2.43022,0.77141c0.80367,0.32926 1.60494,0.56144 2.52792,0.72271c0.87908,0.15359 1.70174,0.09063 2.63808,0.18137c0.86302,0.08363 1.69035,0.20315 2.57714,0.29094c0.95779,0.09482 1.63968,-0.51563 1.46698,-1.39388c-0.16792,-0.85393 -0.81642,-1.56224 -1.52698,-2.13476c-0.6327,-0.50979 -1.55569,-0.75552 -2.4142,-1.04171c-0.86551,-0.28852 -1.76627,-0.37255 -2.59592,-0.37255c-0.8822,0 -1.81882,0 -2.70024,0c-0.88924,0 -1.92474,0.39247 -2.64251,-0.12941c-0.64785,-0.47104 -0.38128,-1.60037 -0.35545,-2.49412c0.02566,-0.8877 -0.13725,-1.59238 -1.01902,-1.61176c-0.90254,-0.01984 -1.76936,-0.05746 -2.66333,-0.11765c-0.86642,-0.05833 -1.94813,-0.26161 -2.43529,0.47059c-0.46192,0.69426 -0.23529,1.68988 -0.23529,2.56586c0,0.90473 -0.67058,1.14675 -1.55125,1.08792c-0.90354,-0.06036 -1.7864,-0.04184 -2.64812,-0.00673c-0.8822,0.03595 -1.18649,0.87311 -1.37153,1.71712c-0.19188,0.87521 -0.64423,1.81111 -0.30141,2.62233c0.3155,0.74656 1.39943,0.0455 1.73506,-0.79043c0.31702,-0.78956 0.42292,-1.69833 1.31325,-1.5487c0.83518,0.14035 1.43931,0.77541 1.64753,1.6249c0.2128,0.86816 0.26634,1.76431 0.50416,2.59628c0.2425,0.84837 0.52418,1.69863 0.75655,2.54494c0.24094,0.87756 0.52604,1.68332 0.6978,2.57528c0.16957,0.88058 0.23462,1.76128 0.27678,2.63351c0.04324,0.89433 -0.07953,1.78756 -0.11765,2.63828c-0.04083,0.91124 0.01452,1.80122 0.24202,2.65206c0.22925,0.85738 0.38824,1.6981 0.66559,2.52629l0.26761,0.86573" id="svg_159" stroke-linecap="null" stroke-linejoin="null" stroke-dasharray="null" stroke-width="null" stroke="#000000" fill="#ffd4aa"/>
  <rect id="svg_156" height="2.82353" width="3.64706" y="70" x="58.06265" stroke-linecap="null" stroke-linejoin="null" stroke-dasharray="null" stroke-width="null" stroke="#000000" fill="#e5e5e5"/>
  <path id="svg_157" d="m61.82736,49.52941c-0.41422,0.64705 -1.19502,1.13163 -1.80032,1.80454c-0.57975,0.64453 -1.09655,1.36786 -1.59464,2.08706c-0.49838,0.71963 -0.90964,1.58697 -0.84034,2.48991c0.06691,0.87171 0.05185,1.76011 0.26887,2.6166c0.20995,0.82862 0.71896,1.59214 1.16643,2.31953c0.46408,0.75441 1.48643,1.22447 1.62353,2.09412c0.13301,0.84371 -0.29189,1.69812 -0.55483,2.53114c-0.26155,0.82865 -0.6671,1.60595 -0.95498,2.42965c-0.28639,0.81946 -1.09992,1.65358 -0.84312,2.46274c0.24622,0.77582 1.51021,0.56234 2.3294,0.82164c0.84443,0.2673 1.31531,-0.24583 1.55296,-1.08046c0.23718,-0.83298 0.35251,-1.70265 0.63402,-2.50589c0.28967,-0.82653 0.98491,-1.42405 1.48361,-2.16862c0.48439,-0.72321 0.76358,-1.60707 0.70588,-2.50385c-0.05537,-0.86047 -0.52757,-1.65353 -0.70833,-2.51576c-0.17859,-0.85188 -0.24061,-1.75164 -0.1152,-2.64706c0.1188,-0.84821 0.61391,-1.63813 1.11765,-2.35294c0.50827,-0.72125 0.88235,-1.52941 0.98996,-2.39012l0.01004,-0.86755l-0.17648,-0.85998l-0.26054,-0.81725" stroke-linecap="null" stroke-linejoin="null" stroke-dasharray="null" stroke-width="null" stroke="#000000" fill="#e5e5e5"/>
  <rect id="svg_155" height="2.82353" width="3.64706" y="70.41176" x="54.52941" stroke-linecap="null" stroke-linejoin="null" stroke-dasharray="null" stroke-width="null" stroke="#000000" fill="#e5e5e5"/>
  <rect stroke="#000000" id="svg_152" height="2.47059" width="3.05882" y="71.58824" x="11.23529" stroke-linecap="null" stroke-linejoin="null" stroke-dasharray="null" stroke-width="null" fill="#ffffff"/>
  <rect id="svg_153" height="2.47059" width="3.05882" y="71.82353" x="15.23529" stroke-linecap="null" stroke-linejoin="null" stroke-dasharray="null" stroke-width="null" stroke="#000000" fill="#ffffff"/>
  <path id="svg_151" d="m19.71539,47.55676c-0.80125,0.40125 -1.68335,0.76129 -2.25584,1.43231c-0.56877,0.66667 -0.56769,1.62651 -0.56769,2.51132c0,0.90341 -0.15524,1.75948 -0.51043,2.52241c-0.39409,0.84649 -0.78369,1.6516 -1.17194,2.42811c-0.37892,0.75786 -0.78803,1.59295 -1.2297,2.34283c-0.44723,0.7593 -0.92441,1.53897 -1.37028,2.30419c-0.45223,0.77614 -0.74661,1.5807 -0.53992,2.42322c0.20162,0.82184 0.48843,1.6601 0.86933,2.48392c0.3847,0.83205 0.68237,1.60583 1.09359,2.42847c0.39989,0.79996 0.89608,1.58058 0.9312,2.35098c0.03977,0.87233 0.13921,1.74749 0.99984,1.97224c0.79526,0.20767 1.8981,0.26826 1.99137,-0.19075c0.1792,-0.88188 0.10044,-1.74818 0.11342,-2.60925c0.01282,-0.85141 -0.56714,-1.6192 -1.05538,-2.36299c-0.49664,-0.75659 -1.11867,-1.39954 -1.45723,-2.23144c-0.33182,-0.81534 -0.59013,-1.64997 -0.66387,-2.54932c-0.07072,-0.86264 0.36858,-1.70968 0.84451,-2.47721c0.44347,-0.71517 1.05053,-1.39739 1.44716,-2.19326c0.406,-0.81465 0.69856,-1.64445 1,-2.46323c0.3007,-0.81676 0.69091,-1.62827 1.06128,-2.41912c0.37395,-0.79851 0.99827,-1.37402 1.77649,-1.83284l0.67172,-0.54738l0.67132,-0.56039l0.57458,-0.688" stroke-linecap="null" stroke-linejoin="null" stroke-dasharray="null" stroke-width="null" stroke="#000000" fill="#e5e5e5"/>
  <path d="m10.17647,41.23529c0.93788,0 1.64831,0 2.58823,0c0.93867,0 1.81553,0 2.73437,0c0.93229,0 1.80508,0 2.60451,0c0.92657,0 1.80433,0 2.69704,0c0.91247,0 1.78063,-0.11306 2.74978,-0.20671c0.85783,-0.08289 1.62457,-0.01281 2.59131,-0.03531c0.87804,-0.02044 1.69635,-0.09068 2.60337,-0.10847c0.96306,-0.01889 1.85776,-0.05486 2.76794,-0.15539c0.86163,-0.09517 1.63946,-0.17502 2.53606,-0.2458c0.91656,-0.07236 1.88037,-0.07184 2.65161,-0.07184c0.88753,0 1.88929,0 2.76376,0c0.93218,0 1.75925,0 2.60063,0c0.84551,0 1.63429,0 2.72206,0c0.99716,0 1.76516,0 2.64971,0c0.89069,0 1.85504,-0.0145 2.62557,0.00847c0.89026,0.02653 1.79086,0.16005 2.6913,0.26965c0.88456,0.10767 1.85643,0.20335 2.63494,0.27482c0.89959,0.08258 1.78319,0.1779 2.58045,0.31818c0.97741,0.17198 1.85099,0.32833 2.65535,0.49359c0.91504,0.18799 1.83708,0.45396 2.70653,0.66439c0.8231,0.19922 1.68169,0.30898 2.55135,0.67678c0.83725,0.3541 1.55804,0.86992 2.04502,1.61992c0.49147,0.75692 0.48439,1.69826 0.48439,2.57616c0,0.88849 0,1.74404 0,2.66667c0,0.88769 0.07742,1.82225 -0.33612,2.633c-0.38171,0.74837 -0.92021,1.47012 -1.67533,1.97673c-0.80007,0.53677 -1.58324,0.63781 -2.55733,0.84721c-0.88817,0.19093 -1.76054,0.2614 -2.60769,0.26855c-0.931,0.00785 -1.82871,-0.05836 -2.6698,0.00847c-0.8538,0.06783 -1.69033,0.22259 -2.70047,0.22683c-0.87937,0.00369 -1.71883,0 -2.54204,0c-0.93382,0 -1.89443,0 -2.76659,0c-0.92078,0 -1.79545,0 -2.67625,0c-0.86728,0 -1.7821,0 -2.61363,0c-0.95169,0 -1.77631,0 -2.67294,0c-0.88768,0 -1.77553,0 -2.6916,0c-0.84755,0 -1.71392,0.03141 -2.62557,-0.00423c-0.86222,-0.03371 -1.79211,-0.08552 -2.71028,-0.11357c-0.90831,-0.02775 -1.7473,-0.2049 -2.68376,-0.35278c-0.84089,-0.13279 -1.73221,-0.19929 -2.58604,-0.31953c-0.89617,-0.12621 -1.74804,-0.32912 -2.5531,-0.48721c-0.98765,-0.19395 -1.68667,-0.3822 -2.7541,-0.59998c-0.7693,-0.15696 -1.62277,-0.32297 -2.4012,-0.50277c-0.999,-0.23075 -1.86588,-0.50086 -2.7669,-0.5611c-0.87372,-0.05841 -1.75561,0.03015 -2.64455,-0.06128c-0.83443,-0.08582 -1.71374,-0.20161 -2.62886,-0.31535c-0.90565,-0.11257 -1.83596,-0.28187 -2.55435,-0.51749c-0.9131,-0.29948 -1.42284,-1.03373 -1.62739,-1.91092c-0.20726,-0.88884 -0.23057,-1.76081 -0.40116,-2.65c-0.17255,-0.89944 -0.33532,-1.7439 -0.31765,-2.66261c0.01621,-0.84247 0.42776,-1.67482 0.90031,-2.423l0.51092,-0.71818" id="svg_149" stroke-linecap="null" stroke-linejoin="null" stroke-dasharray="null" stroke-width="null" stroke="#000000" fill="#e5e5e5"/>
  <path d="m16.41176,47.11765c-0.80125,0.40126 -1.68335,0.76129 -2.25584,1.43232c-0.56877,0.66666 -0.56769,1.62651 -0.56769,2.51131c0,0.90341 -0.15525,1.75949 -0.51043,2.52241c-0.39409,0.8465 -0.78369,1.6516 -1.17194,2.42812c-0.37893,0.75786 -0.78804,1.59295 -1.22971,2.34282c-0.44723,0.75931 -0.9244,1.53898 -1.37027,2.3042c-0.45223,0.77613 -0.74662,1.5807 -0.53992,2.42321c0.20162,0.82184 0.48843,1.6601 0.86933,2.48392c0.3847,0.83205 0.68237,1.60583 1.09359,2.42847c0.39988,0.79996 0.89607,1.58058 0.9312,2.35098c0.03977,0.87232 0.13921,1.74749 0.99984,1.97224c0.79526,0.20767 1.8981,0.26826 1.99137,-0.19075c0.1792,-0.88188 0.10044,-1.74818 0.11341,-2.60925c0.01283,-0.85141 -0.56714,-1.6192 -1.05537,-2.36298c-0.49664,-0.75659 -1.11867,-1.39954 -1.45724,-2.23145c-0.33182,-0.81534 -0.59013,-1.64997 -0.66386,-2.54932c-0.07072,-0.86264 0.36857,-1.70968 0.84451,-2.47721c0.44347,-0.71517 1.05052,-1.39739 1.44716,-2.19326c0.406,-0.81465 0.69856,-1.64445 1,-2.46323c0.3007,-0.81675 0.69091,-1.62826 1.06127,-2.41912c0.37396,-0.79851 0.99827,-1.37402 1.77649,-1.83284l0.67173,-0.54737l0.67131,-0.56039l0.57459,-0.688" id="svg_150" stroke-linecap="null" stroke-linejoin="null" stroke-dasharray="null" stroke-width="null" stroke="#000000" fill="#e5e5e5"/>
  <path d="m58.29412,49.94118c-0.41422,0.64706 -1.19502,1.13163 -1.80031,1.80455c-0.57976,0.64453 -1.09655,1.36786 -1.59465,2.08706c-0.49838,0.71962 -0.90964,1.58697 -0.84034,2.4899c0.06691,0.87172 0.05185,1.76012 0.26886,2.61661c0.20996,0.82862 0.71897,1.59214 1.16643,2.31953c0.46408,0.75441 1.48643,1.22447 1.62353,2.09412c0.13301,0.84371 -0.29189,1.69812 -0.55482,2.53114c-0.26156,0.82865 -0.66711,1.60595 -0.95498,2.42965c-0.2864,0.81947 -1.09992,1.65358 -0.84312,2.46275c0.24622,0.77582 1.5102,0.56233 2.32939,0.82164c0.84443,0.2673 1.31531,-0.24583 1.55296,-1.08047c0.23718,-0.83298 0.35251,-1.70264 0.63402,-2.50588c0.28968,-0.82654 0.98492,-1.42406 1.48361,-2.16862c0.48439,-0.72321 0.76359,-1.60707 0.70588,-2.50385c-0.05537,-0.86048 -0.52757,-1.65353 -0.70833,-2.51577c-0.17859,-0.85188 -0.2406,-1.75164 -0.1152,-2.64706c0.1188,-0.84821 0.61391,-1.63813 1.11765,-2.35294c0.50828,-0.72125 0.88235,-1.52941 0.98996,-2.39012l0.01004,-0.86755l-0.17647,-0.85998l-0.26055,-0.81726" id="svg_154" stroke-linecap="null" stroke-linejoin="null" stroke-dasharray="null" stroke-width="null" stroke="#000000" fill="#e5e5e5"/>
  <path d="m65.82353,43.11765c0.81945,-0.0651 1.74438,0.01389 2.59682,0.32384c0.78297,0.2847 1.50692,0.85848 2.2485,1.42486c0.67323,0.51418 1.30346,1.17168 1.78998,1.90339c0.4855,0.73018 0.81622,1.54214 1.01176,2.44594c0.19359,0.89479 0.33226,1.72559 0.47059,2.60294c0.1348,0.85493 0.34516,1.74427 0.23483,2.65447c-0.10426,0.8601 0.06059,2.3411 -0.81302,2.53035c-0.48441,0.10494 -0.5017,-1.23608 -0.93726,-2.05914c-0.32131,-0.60719 -0.48689,0.27675 -0.54337,1.16843c-0.05574,0.87994 0.31944,2.3082 -0.23284,2.29902c-0.88052,-0.01463 -0.8586,-1.03452 -1.28732,-0.25378c-0.44331,0.80731 -0.65605,1.35471 -0.65632,0.47953c-0.00023,-0.7501 0.09627,0.13203 0,1.08798c-0.07086,0.70366 -0.31483,-0.15897 -0.35294,-1.08514c-0.03577,-0.86934 0.08363,-1.73077 0.37254,-2.60114c0.26408,-0.79557 0.50916,-1.71916 0.5681,-2.53165c0.06648,-0.9163 0.00053,-1.80619 0.00053,-2.68159c0,-0.92402 0.01533,-1.81992 -0.29601,-2.58912c-0.35284,-0.87175 -0.77788,-1.61208 -1.19865,-2.37804l-0.27006,-0.81176l-0.03922,-0.89019l-0.63937,-0.48439" id="svg_158" stroke-linecap="null" stroke-linejoin="null" stroke-dasharray="null" stroke-width="null" stroke="#000000" fill="#7f3f00"/>
  <ellipse stroke="#000000" ry="7.29412" rx="5.58824" id="svg_160" cy="16.17647" cx="9.76471" stroke-linecap="null" stroke-linejoin="null" stroke-dasharray="null" stroke-width="null" fill="#ffd4aa"/>
  <ellipse stroke="#000000" ry="1.05556" rx="1.11765" id="svg_161" cy="11.70261" cx="7.05882" stroke-linecap="null" stroke-linejoin="null" stroke-dasharray="null" stroke-width="null" fill="#000000"/>
  <ellipse id="svg_162" stroke="#000000" ry="1.05556" rx="1.11765" cy="11.88235" cx="13" stroke-linecap="null" stroke-linejoin="null" stroke-dasharray="null" stroke-width="null" fill="#000000"/>
  <path d="m4.76471,16.76471c0.47304,0.71078 0.95709,1.45865 1.5531,2.14133c0.585,0.67007 1.459,1.02157 2.31024,1.25698c0.81928,0.22658 1.68963,0.39243 2.54843,0.48404l0.88739,0.07616l0.85802,-0.13294l0.81929,-0.33818" id="svg_163" stroke-linecap="null" stroke-linejoin="null" stroke-dasharray="null" stroke-width="null" stroke="#000000" fill="none"/>
  <path d="m9.58823,14.29412c-0.696,0.49412 -1,1.29412 -1.29412,2.12941l0.58823,0.45882l0.85882,-0.11092" id="svg_164" stroke-linecap="null" stroke-linejoin="null" stroke-dasharray="null" stroke-width="null" stroke="#000000" fill="none"/>
  <ellipse stroke="#000000" ry="0.56618" rx="0.64706" id="svg_166" cy="27.56618" cx="7.29412" stroke-linecap="null" stroke-linejoin="null" stroke-dasharray="null" stroke-width="null" fill="#7f3f00"/>
  <ellipse stroke="#000000" id="svg_167" ry="0.5" rx="0.52941" cy="28.03268" cx="11.47059" stroke-linecap="null" stroke-linejoin="null" stroke-dasharray="null" stroke-width="null" fill="#7f3f00"/>
  <line id="svg_168" y2="42.05882" x2="10.05882" y1="33.35294" x1="10.17647" stroke-linecap="null" stroke-linejoin="null" stroke-dasharray="null" stroke-width="null" stroke="#000000" fill="none"/>
  <line id="svg_169" y2="35.58824" x2="12.29412" y1="35.58824" x1="7.82353" stroke-linecap="null" stroke-linejoin="null" stroke-dasharray="null" stroke-width="null" stroke="#000000" fill="none"/>
  <line id="svg_170" y2="38.17647" x2="11.70588" y1="38.17647" x1="8.41176" stroke-linecap="null" stroke-linejoin="null" stroke-dasharray="null" stroke-width="null" stroke="#000000" fill="none"/>
 </g>
</svg>