<svg width="75" height="75" xmlns="http://www.w3.org/2000/svg" xmlns:svg="http://www.w3.org/2000/svg">
 <!-- Created with SVG-edit - http://svg-edit.googlecode.com/ -->
 <g>
  <title>Layer 1</title>
  <g stroke="null" id="svg_96">
   <g stroke="null" transform="matrix(0.6970892379049793,0.9193123144926593,-0.7124945551415945,0.8994352533388768,32.15416184997188,-35.76757984454929) " id="svg_87">
    <path stroke="#000000" id="svg_88" d="m38.69782,30.58297c-0.7271,-0.65882 -1.33828,-1.0488 -1.96555,-1.50588c-0.6365,-0.46381 -1.17643,-1.00787 -1.80575,-1.48235c-0.61637,-0.46474 -1.38306,-0.53036 -2.02494,-0.24951c-0.68431,0.2994 -1.27356,0.86299 -1.96196,1.10582c-0.68204,0.24059 -1.38052,0.19102 -2.14466,0.08188c-0.69148,-0.09875 -1.31466,-0.51427 -1.97842,-0.80878c-0.69202,-0.30705 -1.14721,-0.99571 -1.74267,-1.44722c-0.62155,-0.47129 -1.10447,-1.10113 -1.62832,-1.70745c-0.51935,-0.60112 -1.28396,-0.80926 -1.96032,-0.59811c-0.71557,0.22338 -1.30366,0.84522 -1.66216,1.60109c-0.36111,0.76135 -0.85625,1.31149 -1.29236,2.01051c-0.40682,0.65208 0.27418,1.43287 0.85472,1.96469c0.55516,0.50858 1.1413,1.06421 1.77994,1.48629c0.62294,0.41171 1.30688,0.69196 1.91412,1.13726c0.61284,0.4494 1.2242,0.92867 1.82025,1.3647c0.60395,0.44182 0.05189,0.62026 -0.63112,0.30589c-0.66584,-0.30647 -1.34855,-0.62995 -2.00148,-0.96226c-0.66561,-0.33877 -1.36815,-0.47617 -2.07081,-0.75712c-0.68887,-0.27543 -1.32657,-0.65143 -1.9842,-0.99702c-0.65018,-0.34167 -1.44626,-1.18608 -1.97015,-0.73066c-0.56603,0.49204 -0.34571,1.68182 -0.34593,2.57647c-0.00021,0.88235 0.33917,1.57765 0.98808,1.94102c0.6832,0.38257 1.37935,0.61176 2.06945,0.84468c0.71367,0.24088 1.35337,0.63201 2.01724,1.00065c0.6446,0.35795 1.29292,0.7751 1.91394,1.1702c0.6324,0.40233 1.31387,0.82963 1.84139,1.3807c0.55458,0.57935 1.00215,1.3158 1.70854,1.50981c0.70619,0.19395 1.40046,0.33921 2.11871,0.46055c0.71092,0.12009 1.41556,0.16501 2.13505,0.23103c0.72422,0.06647 1.3436,-0.17616 1.90698,-0.72741c0.5432,-0.5315 1.34903,-0.43476 2.06757,-0.4448l0.68438,-0.10761l0.71158,0" stroke-linecap="null" stroke-linejoin="null" stroke-dasharray="null" stroke-width="null" fill="#4c4c4c"/>
    <path stroke="#000000" id="svg_89" d="m37.64395,33.28886c-0.38322,-0.62604 -0.24663,-1.4609 0.15329,-2.18824c0.40151,-0.73024 0.93649,-1.33793 1.59037,-1.68424c0.65686,-0.34788 1.34099,-0.48557 2.00236,-0.81913c0.65981,-0.33279 1.46034,-1.14643 1.7149,-0.74369c0.43414,0.68685 -0.664,1.52406 -1.04582,2.28235c-0.36374,0.72238 -0.26678,1.56777 -0.29546,2.42353c-0.02863,0.85426 -0.56007,1.6804 -1.20673,2.0583c-0.6573,0.38412 -1.32254,-0.19822 -1.97058,-0.57594l-0.60702,-0.45883" stroke-linecap="null" stroke-linejoin="null" stroke-dasharray="null" stroke-width="null" fill="#4c4c4c"/>
    <ellipse stroke="#000000" id="svg_90" ry="1.52941" rx="1.24547" cy="29.99473" cx="33.71592" stroke-linecap="null" stroke-linejoin="null" stroke-dasharray="null" stroke-width="null" fill="#000000"/>
    <line stroke="#000000" id="svg_91" y2="27.99473" x2="32.94948" y1="29.05356" x1="36.01526" stroke-linecap="null" stroke-linejoin="null" stroke-dasharray="null" stroke-width="null" fill="none"/>
    <path stroke="#000000" id="svg_92" d="m18.00378,28.34768c0.05505,0.97067 -0.53541,2.19035 0,2.68627c0.55683,0.51577 1.44404,-1.13639 1.95444,-0.63921c0.53991,0.52593 0.32586,1.6607 0.95806,1.60298l0.60357,-0.43828" stroke-linecap="null" stroke-linejoin="null" stroke-dasharray="null" stroke-width="null" fill="#ffffff"/>
   </g>
   <g stroke="null" id="svg_81">
    <path stroke="#000000" id="svg_82" d="m33.91546,21.09184c-0.88999,-0.84733 -1.63809,-1.34889 -2.40589,-1.93675c-0.7791,-0.59652 -1.43999,-1.29625 -2.21028,-1.90649c-0.75446,-0.59771 -1.6929,-0.68211 -2.47859,-0.3209c-0.83761,0.38507 -1.55887,1.10991 -2.4015,1.42222c-0.83484,0.30943 -1.6898,0.24568 -2.62513,0.10531c-0.84639,-0.127 -1.60918,-0.66142 -2.42164,-1.04019c-0.84705,-0.3949 -1.40422,-1.28061 -2.13308,-1.86131c-0.7608,-0.60614 -1.3519,-1.41619 -1.9931,-2.196c-0.6357,-0.77312 -1.5716,-1.04081 -2.39948,-0.76924c-0.87588,0.28729 -1.59571,1.08706 -2.03453,2.0592c-0.44201,0.97919 -1.04807,1.68674 -1.58188,2.58577c-0.49796,0.83866 0.33561,1.84285 1.0462,2.52684c0.67953,0.6541 1.39699,1.36871 2.17869,1.91156c0.76249,0.52951 1.59965,0.88995 2.34294,1.46266c0.75013,0.57798 1.49846,1.19439 2.22804,1.75518c0.73926,0.56824 0.06352,0.79773 -0.77251,0.39341c-0.81501,-0.39416 -1.65067,-0.81019 -2.44987,-1.23759c-0.81472,-0.4357 -1.67466,-0.61241 -2.53473,-0.97375c-0.84319,-0.35424 -1.62376,-0.83782 -2.42872,-1.28229c-0.79583,-0.43943 -1.77026,-1.52545 -2.41151,-0.93972c-0.69284,0.63283 -0.42316,2.16303 -0.42342,3.31366c-0.00026,1.13481 0.41515,2.02906 1.20944,2.4964c0.83625,0.49203 1.68837,0.7868 2.53306,1.08636c0.87355,0.3098 1.65657,0.81284 2.46916,1.28696c0.78901,0.46037 1.58257,0.99688 2.34272,1.50502c0.77407,0.51745 1.60821,1.06701 2.25391,1.77575c0.67882,0.74512 1.22666,1.69228 2.0913,1.94181c0.86439,0.24944 1.7142,0.43627 2.59336,0.59233c0.87018,0.15445 1.73268,0.21222 2.61336,0.29713c0.88646,0.08549 1.64461,-0.22656 2.33419,-0.93554c0.6649,-0.68358 1.65125,-0.55916 2.53076,-0.57207l0.8377,-0.1384l0.87099,0" stroke-linecap="null" stroke-linejoin="null" stroke-dasharray="null" stroke-width="null" fill="#4c4c4c"/>
    <path stroke="#000000" id="svg_83" d="m32.6255,24.57195c-0.46907,-0.80517 -0.30189,-1.8789 0.18763,-2.81435c0.49147,-0.93918 1.14629,-1.72075 1.94666,-2.16614c0.80402,-0.44742 1.64141,-0.6245 2.45095,-1.0535c0.80763,-0.42801 1.7875,-1.47445 2.09909,-0.95648c0.5314,0.88338 -0.81275,1.96013 -1.28011,2.93539c-0.44522,0.92907 -0.32655,2.01635 -0.36165,3.11696c-0.03505,1.09869 -0.68554,2.16121 -1.47707,2.64723c-0.80456,0.49403 -1.61883,-0.25494 -2.41204,-0.74073l-0.74301,-0.59011" stroke-linecap="null" stroke-linejoin="null" stroke-dasharray="null" stroke-width="null" fill="#4c4c4c"/>
    <ellipse stroke="#000000" id="svg_84" ry="1.96702" rx="1.5245" cy="20.3353" cx="27.81748" stroke-linecap="null" stroke-linejoin="null" stroke-dasharray="null" stroke-width="null" fill="#000000"/>
    <line stroke="#000000" id="svg_85" y2="17.76305" x2="26.87932" y1="19.12483" x1="30.63193" stroke-linecap="null" stroke-linejoin="null" stroke-dasharray="null" stroke-width="null" fill="none"/>
    <path stroke="#000000" id="svg_86" d="m8.58538,18.21697c0.06738,1.2484 -0.65536,2.81707 0,3.45488c0.68157,0.66334 1.76754,-1.46154 2.39229,-0.8221c0.66087,0.67641 0.39886,2.13587 1.17269,2.06163l0.73879,-0.56368" stroke-linecap="null" stroke-linejoin="null" stroke-dasharray="null" stroke-width="null" fill="#ffffff"/>
   </g>
   <ellipse stroke="#000000" id="svg_67" cy="11.64181" cx="7.09631" stroke-linecap="null" stroke-linejoin="null" stroke-dasharray="null" stroke-width="null" fill="#000000"/>
   <path stroke="#000000" d="m44.73963,33.88421c-1.10833,-0.72832 -1.8838,-1.22645 -2.73018,-1.63373c-0.73065,-0.35159 -1.65845,-0.72287 -2.49314,-1.12473c-0.8529,-0.41063 -1.69015,-0.8529 -2.45983,-1.3876c-0.72925,-0.50661 -1.56585,-1.06447 -2.41777,-1.35613c-0.82432,-0.28221 -1.76727,-0.52933 -2.66185,-0.55016c-0.84735,-0.01973 -1.72465,0.1877 -2.59442,0.45395c-0.85369,0.26133 -1.69902,0.57583 -2.52388,0.98348c-0.83851,0.4144 -1.65594,0.98721 -2.16947,1.89451c-0.52028,0.91922 -0.68425,2.09663 -0.82088,3.24684c-0.12968,1.09163 -0.06639,2.28241 -0.12393,3.39449c-0.05852,1.13084 -0.44483,2.31514 -0.22787,3.41756c0.21304,1.08251 1.02616,1.76325 1.77739,2.33681c0.78009,0.5956 1.6209,0.99098 2.4284,1.53427c0.75267,0.5064 1.56699,1.06849 2.31925,1.65318c0.78955,0.61367 1.54642,1.11787 2.27324,1.71547c0.76475,0.62879 1.38717,1.50214 1.94068,2.29866c0.60807,0.87502 0.21044,1.82991 -0.6494,2.01092c-0.88693,0.18672 -1.79427,0.02582 -2.68452,0.02582c-0.87952,0 -1.80854,-0.23864 -2.61119,0.16642c-0.81787,0.41273 -1.29045,1.48255 -1.51281,2.55394c-0.22566,1.08728 -0.4205,2.16938 -0.47904,3.2973c-0.05866,1.13006 -0.12412,2.25698 -0.10726,3.42402c0.01673,1.15862 0.17996,2.23141 0.28567,3.3177c0.11689,1.20124 -0.49676,1.0058 -1.34353,1.00974c-0.9061,0.00422 -2.05598,0.0716 -2.45766,1.10779c-0.35562,0.91736 0.80704,1.36324 1.64167,1.76708c0.82198,0.39772 1.67274,1.11671 2.54124,1.05848c0.82989,-0.05564 1.66089,-0.68115 2.37917,-1.35795c0.62407,-0.58803 0.47152,-1.84953 0.47152,-3.05455c0,-1.14632 -0.11921,-2.32623 0.09397,-3.36451c0.23515,-1.14527 1.09551,-1.76675 1.93869,-2.08261c0.78998,-0.29594 1.65009,-0.63408 2.48032,-1.07692c0.80906,-0.43154 1.70018,-0.52529 2.49845,-0.9254c0.82282,-0.41241 1.65582,-0.54307 2.46495,-0.12753c0.83927,0.43102 1.70319,0.70389 2.5428,1.11101c0.81013,0.39283 1.47555,1.17914 2.09999,2.01263c0.6137,0.81916 1.3363,1.39699 2.15607,1.79172c0.82303,0.39631 1.64399,0.96861 2.43712,1.23889c0.87648,0.29869 2.01563,0.38313 2.36258,1.41767c0.3544,1.05674 0.27438,2.28076 0.15073,3.41958c-0.10065,0.927 -1.02704,0.49045 -1.88541,0.28668c-0.85605,-0.20321 -1.7294,-0.35835 -2.64899,-0.19589c-0.86448,0.15272 -1.23193,1.48387 -0.62376,2.21776c0.64324,0.77619 1.50092,1.26549 2.38638,1.55951c0.82353,0.27346 1.75833,0.30783 2.60368,0.4164c0.85351,0.10962 1.90132,0.94681 2.65419,0.30222c0.7198,-0.61628 0.45683,-2.15188 0.56289,-3.26021c0.10873,-1.13623 -0.10266,-2.30766 0.14325,-3.43612c0.22876,-1.0498 1.07379,-1.77159 1.9285,-2.03622c0.86051,-0.26642 1.71604,0.15131 2.59977,0.15131c0.86578,0 1.83964,0.19823 2.61275,-0.33288c0.75066,-0.51568 1.29974,-1.51336 1.78616,-2.44256c0.48878,-0.93371 0.95928,-1.9256 1.26267,-2.99669c0.306,-1.08027 0.53047,-2.15652 0.5729,-3.33162c0.04034,-1.11751 0.31398,-2.30564 0.09725,-3.3643c-0.23198,-1.13319 -0.85804,-1.98308 -1.52199,-2.82262c-0.60478,-0.76472 -1.44243,-1.33005 -2.08754,-1.78181c-0.9013,-0.63116 -1.64194,-1.24776 -2.37337,-1.8147c-0.73695,-0.57122 -1.51321,-1.18635 -2.25889,-1.76c-0.80387,-0.61841 -1.46259,-1.3408 -2.10318,-2.10831c-0.67812,-0.81247 -1.29755,-1.61584 -1.93136,-2.32708c-0.67153,-0.75356 -1.48177,-1.22347 -2.20716,-1.75579c-0.8523,-0.62545 -1.48575,-1.41654 -2.40276,-1.75902c-0.71823,-0.26824 -1.54514,-0.65305 -2.42355,-1.21047l-0.62638,-0.78297l-0.40723,-0.98734" id="svg_71" stroke-linecap="null" stroke-linejoin="null" stroke-dasharray="null" stroke-width="null" fill="#4c4c4c"/>
   <g stroke="null" id="svg_80">
    <path stroke="#000000" d="m28.43925,31.31196c-0.88999,-0.84733 -1.63809,-1.34889 -2.40589,-1.93675c-0.7791,-0.59652 -1.43999,-1.29624 -2.21028,-1.90649c-0.75446,-0.59771 -1.6929,-0.6821 -2.4786,-0.3209c-0.83761,0.38507 -1.55887,1.10992 -2.40149,1.42223c-0.83483,0.30942 -1.6898,0.24567 -2.62512,0.10531c-0.8464,-0.12701 -1.60918,-0.66142 -2.42164,-1.0402c-0.84705,-0.3949 -1.40422,-1.2806 -2.13308,-1.8613c-0.7608,-0.60615 -1.3519,-1.41619 -1.9931,-2.196c-0.6357,-0.77312 -1.5716,-1.04082 -2.39948,-0.76925c-0.87588,0.28731 -1.59571,1.08707 -2.03454,2.05921c-0.44201,0.97919 -1.04807,1.68674 -1.58188,2.58577c-0.49796,0.83865 0.33562,1.84285 1.0462,2.52683c0.67953,0.6541 1.39699,1.36871 2.1787,1.91156c0.76249,0.5295 1.59965,0.88995 2.34294,1.46265c0.75013,0.57798 1.49845,1.19439 2.22803,1.75518c0.73926,0.56824 0.06352,0.79772 -0.77251,0.3934c-0.81501,-0.39415 -1.65066,-0.81018 -2.44987,-1.23758c-0.81473,-0.4357 -1.67466,-0.61241 -2.53473,-0.97375c-0.84319,-0.35424 -1.62376,-0.83782 -2.42872,-1.28229c-0.79584,-0.43944 -1.77026,-1.52545 -2.41152,-0.93973c-0.69283,0.63283 -0.42316,2.16304 -0.42342,3.31366c-0.00026,1.13482 0.41515,2.02906 1.20944,2.4964c0.83626,0.49203 1.68837,0.7868 2.53307,1.08637c0.87355,0.3098 1.65657,0.81284 2.46916,1.28696c0.78901,0.46036 1.58257,0.99687 2.34272,1.50502c0.77407,0.51745 1.60821,1.06701 2.25391,1.77576c0.67882,0.74511 1.22666,1.69228 2.0913,1.9418c0.86439,0.24945 1.7142,0.43627 2.59336,0.59232c0.87018,0.15446 1.73268,0.21223 2.61336,0.29715c0.88646,0.08548 1.64461,-0.22657 2.3342,-0.93554c0.66489,-0.68358 1.65125,-0.55916 2.53076,-0.57207l0.83769,-0.1384l0.87099,0" id="svg_73" stroke-linecap="null" stroke-linejoin="null" stroke-dasharray="null" stroke-width="null" fill="#4c4c4c"/>
    <path stroke="#000000" d="m27.14929,34.79207c-0.46908,-0.80517 -0.30189,-1.8789 0.18763,-2.81435c0.49147,-0.93917 1.14629,-1.72074 1.94666,-2.16614c0.80402,-0.44742 1.64141,-0.6245 2.45094,-1.05351c0.80763,-0.428 1.7875,-1.47445 2.09909,-0.95647c0.5314,0.88337 -0.81275,1.96014 -1.28011,2.93539c-0.44523,0.92907 -0.32655,2.01635 -0.36166,3.11696c-0.03505,1.09868 -0.68554,2.1612 -1.47706,2.64722c-0.80456,0.49404 -1.61884,-0.25493 -2.41204,-0.74073l-0.74302,-0.59011" id="svg_75" stroke-linecap="null" stroke-linejoin="null" stroke-dasharray="null" stroke-width="null" fill="#4c4c4c"/>
    <ellipse stroke="#000000" ry="1.96702" rx="1.5245" id="svg_76" cy="30.55542" cx="22.34126" stroke-linecap="null" stroke-linejoin="null" stroke-dasharray="null" stroke-width="null" fill="#000000"/>
    <line stroke="#000000" id="svg_78" y2="27.98317" x2="21.40311" y1="29.34495" x1="25.15572" stroke-linecap="null" stroke-linejoin="null" stroke-dasharray="null" stroke-width="null" fill="none"/>
    <path stroke="#000000" d="m3.10916,28.43709c0.06739,1.2484 -0.65535,2.81706 0,3.45489c0.68158,0.66335 1.76755,-1.46155 2.39229,-0.82211c0.66087,0.67642 0.39887,2.13588 1.17269,2.06163l0.73879,-0.56368" id="svg_79" stroke-linecap="null" stroke-linejoin="null" stroke-dasharray="null" stroke-width="null" fill="#ffffff"/>
   </g>
   <path stroke="#000000" d="m34.30269,52.04128c0.44578,-1.10698 0.65999,-2.33672 1.26947,-3.14561c0.61093,-0.81082 1.4839,-1.16354 2.2733,-1.63736l0.81666,-0.36153l0.86075,-0.15131" id="svg_93" stroke-linecap="null" stroke-linejoin="null" stroke-dasharray="null" stroke-width="null" fill="none"/>
   <path stroke="#000000" d="m50.83761,65.35647c-0.59979,-0.62279 -1.08812,-1.6096 -1.17269,-2.774c-0.08013,-1.10332 0.1137,-2.24493 0.37776,-3.30859c0.26937,-1.08504 0.59504,-2.11686 0.93565,-3.19466l0.49253,-0.92096l0.679,-0.73277l0.76288,-0.51513" id="svg_94" stroke-linecap="null" stroke-linejoin="null" stroke-dasharray="null" stroke-width="null" fill="none"/>
   <path stroke="#000000" d="m63.38538,49.77165c0.91052,0 1.79516,0.01299 2.61306,0.40046c0.84495,0.40029 1.63129,0.78025 2.56022,0.9484c0.8698,0.15745 1.74241,0.25972 2.55771,0.46672c0.87626,0.22247 2.30463,-0.02288 2.33053,0.78693c0.03588,1.1216 -1.46713,1.30223 -2.34131,1.48283c-0.83047,0.17157 -1.69249,-0.26066 -2.56037,-0.60524c-0.84035,-0.33365 -1.75358,-0.73055 -2.60338,-0.56226c-0.85753,0.16982 -1.63004,0.0932 -2.20215,-0.7779l-0.6123,-0.80862l-0.48027,-0.92278" id="svg_95" stroke-linecap="null" stroke-linejoin="null" stroke-dasharray="null" stroke-width="null" fill="#666666"/>
  </g>
 </g>
</svg>