<svg width="75" height="75" xmlns="http://www.w3.org/2000/svg" xmlns:svg="http://www.w3.org/2000/svg">
 <!-- Created with SVG-edit - http://svg-edit.googlecode.com/ -->
 <g>
  <title>Layer 1</title>
  <path d="m9.94118,37.58823c-0.84722,0 -1.80494,-0.09387 -2.6462,0.11767c-0.86251,0.21688 -1.74122,0.67577 -2.06022,1.44704c-0.26221,0.63397 0.71131,0.67059 1.62798,0.67059l0.84063,-0.22102l0.8378,-0.27561l0.81176,-0.3269" id="svg_52" stroke-linecap="null" stroke-linejoin="null" stroke-dasharray="null" stroke-width="null" stroke="#000000" fill="#ffffff"/>
  <path stroke="#000000" d="m9.29755,39.70588c-0.71142,0.7629 -1.17284,1.70901 -1.46344,2.72005c-0.28025,0.975 -0.51227,1.59727 0.34698,1.00894l0.97557,-0.45399l0.92136,-0.49986l0.89829,-0.53653" id="svg_54" stroke-linecap="null" stroke-linejoin="null" stroke-dasharray="null" stroke-width="null" fill="#ffffff"/>
  <path d="m11.82353,41.11765c0.52753,0.78651 0.90329,1.57111 1.52941,2.23529c0.59468,0.63083 1.48344,1.7051 1.98039,1.15686c0.58747,-0.6481 0.01961,-1.7742 -0.1098,-2.61818l-0.22353,-0.83453l-0.13725,-0.90023l-0.21569,-0.83922" id="svg_55" stroke-linecap="null" stroke-linejoin="null" stroke-dasharray="null" stroke-width="null" stroke="#000000" fill="#ffffff"/>
  <path stroke="#000000" id="svg_53" d="m57.96315,37.71626c0.95744,0 2.03978,-0.09387 2.99048,0.11767c0.97474,0.21688 1.96778,0.67577 2.32827,1.44704c0.29633,0.63397 -0.80386,0.67058 -1.83979,0.67058l-0.95,-0.22102l-0.9468,-0.2756l-0.91739,-0.3269" stroke-linecap="null" stroke-linejoin="null" stroke-dasharray="null" stroke-width="null" fill="#ffffff"/>
  <path d="m55.11765,41.23529c-0.2549,0.98039 -0.65896,1.76075 -1.19608,2.5098c-0.50776,0.70811 -1.16021,1.52405 -1.39216,0.86871c-0.30193,-0.85308 -0.11765,-1.78839 -0.11763,-2.68439l0.25865,-0.82525" id="svg_57" stroke-linecap="null" stroke-linejoin="null" stroke-dasharray="null" stroke-width="null" stroke="#000000" fill="#ffffff"/>
  <path d="m58.52941,40.41177c0.72941,0.49412 1.41486,1.06263 1.968,1.784c0.5323,0.69419 1.46574,1.84113 0.8789,2.41772c-0.61,0.59936 -1.72976,-0.27977 -2.46196,-0.80926c-0.73281,-0.52993 -1.34965,-1.1807 -1.97318,-1.80423l-0.52816,-0.71765" id="svg_56" stroke-linecap="null" stroke-linejoin="null" stroke-dasharray="null" stroke-width="null" stroke="#000000" fill="#ffffff"/>
  <path id="svg_50" d="m28.80467,49.4903c-0.87056,-0.11765 -1.74672,-0.13175 -2.56549,0.16172c-0.85874,0.30781 -1.7969,0.72842 -2.02221,1.56769c-0.23022,0.85756 0.03274,1.78053 0.26082,2.6588c0.21416,0.82465 0.60866,1.77479 1.40924,2.07234c0.82395,0.30624 1.71435,0.2893 1.62353,1.1669c-0.08982,0.86795 -0.11765,1.75574 -0.11765,2.6549c0,0.87043 0,1.74416 0,2.62808c0,0.91498 0.41926,2.07138 -0.23582,2.65427c-0.50847,0.45244 -1.53467,-0.21162 -2.40196,-0.27058c-0.89691,-0.06098 -1.77376,-0.09243 -2.68491,0c-0.86211,0.08745 -1.98464,0.31874 -2.30476,1.17647c-0.25617,0.68637 1.03723,0.83296 1.89224,1.008c0.86992,0.17809 1.74131,0.16831 2.6469,0.16847c0.89333,0.00016 1.74175,0.1711 2.57411,0.32925c0.93165,0.17702 1.769,-0.04796 2.60222,-0.33545c0.84336,-0.29099 1.94143,-0.19269 2.26492,-0.87615c0.37964,-0.80209 0,-1.80063 0,-2.65197c0,-0.8867 0,-1.73627 0,-2.66176c0,-0.80314 0.01708,-1.7793 0,-2.69079c-0.01671,-0.8918 -0.11764,-1.75095 -0.11764,-2.62325l0,-0.90667l0,-0.90084l0,-0.85639" stroke-linecap="null" stroke-linejoin="null" stroke-dasharray="null" stroke-width="null" stroke="#000000" fill="#7f0000"/>
  <path stroke="#000000" id="svg_47" d="m24.94117,37.76606c-0.48281,-0.47174 -0.95291,-0.96646 -1.42974,-1.40815c-0.5023,-0.4653 -0.9974,-0.83252 -1.51535,-1.25014c-0.515,-0.41524 -1.01533,-0.80632 -1.5627,-1.13551c-0.54892,-0.33012 -1.09838,-0.52102 -1.65719,-0.55914c-0.52862,-0.03606 -1.10413,-0.01861 -1.68336,0.06128c-0.58347,0.08047 -1.1561,0.21632 -1.74478,0.31504c-0.56539,0.09481 -1.13363,0.16727 -1.66354,0.37096c-0.57838,0.22231 -1.10596,0.5313 -1.69752,0.76252c-0.5266,0.20584 -1.04726,0.59245 -1.47736,1.14902c-0.45837,0.59316 -0.88392,1.16035 -1.14823,1.98089c-0.24855,0.77163 -0.4211,1.64858 -0.42022,2.51715c0.00086,0.85249 0.67595,0.93941 1.21964,0.9942c0.60145,0.06062 1.16045,0.1995 1.69767,-0.01961c0.56026,-0.2285 1.07444,-0.74701 1.57139,-1.18651c0.49001,-0.43336 0.932,-1.0332 1.4224,-1.48559c0.47652,-0.43956 1.00391,-0.58542 1.64312,-0.76521c0.53998,-0.15188 1.12872,-0.21853 1.70557,-0.22355c0.56303,-0.0049 1.13279,0.004 1.69006,0.11749c0.56794,0.11567 1.10169,0.40081 1.66815,0.6218c0.54841,0.21396 1.09842,0.40377 1.62548,0.72377l0.50533,0.41929" stroke-linecap="null" stroke-linejoin="null" stroke-dasharray="null" stroke-width="null" fill="#7f0000"/>
  <path d="m22.64706,16.41176c-0.03341,-0.80408 0.11793,-1.73497 0.61176,-2.44282c0.51464,-0.73768 1.23649,-1.1582 2.20188,-1.45318c0.82248,-0.25131 1.6725,-0.46273 1.23341,0.18855c-0.51708,0.76697 -0.33119,0.83848 0.49459,0.46165c0.78474,-0.35811 1.69337,-0.49401 2.51963,-0.57773c0.84433,-0.08555 0.07969,0.422 -0.49657,1.14118c-0.47556,0.5935 0.41033,0.22309 1.24327,-0.0521c0.87089,-0.28772 1.80843,-0.5614 2.62457,-0.32437c0.68779,0.19975 -0.47118,0.83462 -0.50612,1.71341c-0.00903,0.22708 1.03136,0.13328 1.95963,0.25351c0.65915,0.08538 1.63546,0.29479 2.60414,0.46445c0.90177,0.15794 2.20179,0.17979 2.12157,0.72157c-0.13232,0.89357 -1.60113,0.60867 -2.51514,0.72941c-0.85123,0.11245 -2.4292,-0.32721 -2.52314,0.49427c-0.09954,0.87047 1.55838,0.69553 2.40298,1.01161c0.83706,0.31325 2.06652,0.34055 2.42353,1.12941c0.2766,0.61118 -0.91485,0.70573 -1.81422,0.95539c-0.83887,0.23287 -1.01899,1.01247 -0.28922,1.52451c0.74513,0.52282 1.51263,0.94029 2.09308,1.63759c0.55401,0.66554 0.39994,1.73595 -0.41067,1.83545c-0.89672,0.11007 -1.76437,-0.12463 -1.20447,0.42157c0.6433,0.62755 1.43245,1.0986 1.95192,1.78847c0.53291,0.70771 -0.487,0.96643 -1.2869,0.96643c-0.9349,0 -1.92562,-0.09523 -1.9371,0.01004c-0.09124,0.83682 1.61636,0.62216 2.38294,0.95361c0.88159,0.38118 1.75132,1.08442 1.13541,1.42459c-0.73058,0.4035 -1.78511,0.39842 -2.5971,0.52957c-0.88896,0.14358 -1.83497,0.25552 -1.11486,0.67288c0.76266,0.44202 1.6057,0.7343 2.48663,1.06814c0.82353,0.31208 0.56483,0.46267 -0.33655,0.51767c-0.88904,0.05424 -0.44085,0.32707 0.46267,0.45096c0.81184,0.11132 1.68953,0.15118 2.45039,0.22633c0.9537,0.0942 1.77211,0.21273 2.7449,0.40676c0.99722,0.19891 2.33417,0.3727 2.17067,0.8924c-0.26492,0.84205 -1.72729,0.29878 -2.57537,0.3429c-0.8272,0.04303 -2.32382,-0.96452 -2.75137,0.05318c-0.1932,0.45987 1.13533,0.50896 2.12314,0.73349c0.84154,0.19129 2.03303,0.27445 2.32973,1.07232c0.25056,0.6738 -0.95232,0.76213 -1.82369,0.76282c-0.88533,0.00071 -1.98208,0.12703 -1.78994,0.40779c0.46804,0.68389 1.61978,0.59263 2.58274,0.91606c0.6486,0.21784 2.13179,0.11222 2.45416,1.01228c0.21448,0.59883 -1.06615,0.85018 -1.91536,1.09525c-0.84439,0.24368 -1.94012,0.57443 -1.59108,1.23073c0.43422,0.81643 1.46399,1.14075 2.21006,1.54966c0.81961,0.44922 2.0663,1.00185 1.77318,1.80785c-0.28306,0.77834 -1.65174,0.52028 -2.55392,0.56617c-0.87288,0.04441 -1.87107,0.06703 -1.46316,0.50834c0.59348,0.64205 1.63578,1.01455 1.80671,1.84455c0.17602,0.85475 -0.02492,1.78682 -0.80022,2.07867l-0.90643,0.04149l-0.85396,-0.00016l-0.9091,-0.1032" id="svg_45" stroke-linecap="null" stroke-linejoin="null" stroke-dasharray="null" stroke-width="null" stroke="#000000" fill="#3f7f00"/>
  <path d="m24.17647,34.41177c0.72926,-0.67859 1.00608,-1.50988 1.05882,-2.38024c0.0553,-0.91242 -0.2896,-1.72086 -0.54622,-2.56651c-0.25846,-0.85172 -0.40824,-1.70803 -0.7992,-2.50784c-0.38527,-0.78818 -0.70014,-1.58591 -1.09176,-2.37082c-0.40525,-0.81221 -0.73391,-1.62663 -0.90698,-2.48643c-0.17315,-0.86016 -0.30501,-1.74698 -0.3029,-2.62996c0.00213,-0.89069 0.19886,-1.78489 0.80988,-2.4229c0.617,-0.64426 1.50266,-0.93057 2.34916,-1.02972c0.88942,-0.10418 1.75641,-0.07616 2.60796,-0.07616c0.94563,0 1.86558,-0.09012 2.69868,0.00245c0.88061,0.09785 1.82697,0.36719 2.48726,0.95049c0.64443,0.5693 0.93932,1.49067 1.4353,2.22416c0.48006,0.70995 0.86442,1.49359 1.06555,2.34727c0.19842,0.8422 0.42857,1.7299 0.42857,2.61288c0,0.8652 0.05868,1.78591 0.11765,2.63937c0.05938,0.85944 0.09239,1.80019 -0.10777,2.66196c-0.19765,0.85099 -0.47659,1.67784 -0.59139,2.54912c-0.11794,0.89518 -0.53457,1.86364 -0.12014,2.67112c0.37576,0.73213 1.39809,1.02336 1.9549,1.69527c0.57309,0.69156 0.98933,1.46886 1.48165,2.18708c0.48133,0.7022 1.24759,1.30706 1.75671,2.02102c0.49321,0.69166 0.89442,1.54597 1.12132,2.37563c0.22367,0.81789 0.37993,1.74954 0.38708,2.65316c0.00711,0.89935 0.00002,1.78157 0,2.55333c-0.00002,0.98508 -0.03785,1.86506 -0.29657,2.73559c-0.25498,0.85793 -0.47289,1.684 -0.80312,2.4679c-0.35093,0.83303 -0.64624,1.83106 -1.44414,2.21637c-0.69027,0.33334 -1.69017,0.17133 -2.57759,0.1963c-0.91134,0.02565 -1.80223,0.02285 -2.75677,-0.12518c-0.80889,-0.12545 -1.68055,-0.22196 -2.57559,-0.37647c-0.9052,-0.15626 -1.72701,-0.39403 -2.41808,-0.88361c-0.76623,-0.54283 -1.42409,-1.14148 -2.03859,-1.75623c-0.64937,-0.64964 -1.19459,-1.27744 -1.68904,-2.04136c-0.48475,-0.74893 -0.88045,-1.52945 -1.2291,-2.3732c-0.3504,-0.848 -0.64146,-1.65743 -0.73108,-2.5447c-0.08868,-0.87799 -0.02859,-1.78718 -0.02859,-2.64671c0,-0.93851 -0.02248,-1.78832 0.09804,-2.67969c0.11468,-0.84818 0.3526,-1.72977 0.60769,-2.56486c0.25532,-0.83585 0.3531,-1.72088 0.5469,-2.55671l0.15914,-0.86127" id="svg_44" stroke-linecap="null" stroke-linejoin="null" stroke-dasharray="null" stroke-width="null" stroke="#000000" fill="#7f0000"/>
  <ellipse transform="rotate(31.32866859436035 23.82353019714354,21.000000000000004) " ry="0.47059" rx="1.29412" id="svg_36" cy="21" cx="23.82353" stroke-linecap="null" stroke-linejoin="null" stroke-dasharray="null" stroke-width="null" stroke="#000000" fill="#000000"/>
  <ellipse id="svg_37" transform="rotate(-22.13550567626953 27,20.588235855102536) " ry="0.47059" rx="1.29412" cy="20.58824" cx="27" stroke-linecap="null" stroke-linejoin="null" stroke-dasharray="null" stroke-width="null" stroke="#000000" fill="#000000"/>
  <path d="m22.17647,23.58824c0.8799,0 1.76526,-0.11242 2.63059,-0.23106c0.8472,-0.11615 1.73408,-0.13449 2.54588,-0.45522c0.79018,-0.31219 1.73194,-0.31984 2.56524,-0.2549c0.8975,0.06994 1.83946,0.3534 2.44527,1.01176c0.56967,0.61909 0.6155,1.71265 0.00745,2.32322c-0.60967,0.61219 -1.53446,0.84196 -2.37335,1.01796c-0.87119,0.18278 -1.75085,0.09177 -2.67159,0.11765c-0.89047,0.02503 -1.73772,0.21569 -2.62008,0.23529l-0.88067,0" id="svg_38" stroke-linecap="null" stroke-linejoin="null" stroke-dasharray="null" stroke-width="null" stroke="#000000" fill="#000000"/>
  <path stroke="#000000" d="m26.17647,23.13672c0.40988,0.96831 0.94261,1.83354 1.55294,2.63716c0.60239,0.79315 0.5647,0.2898 0.84149,-0.75425l0.38708,-0.91895l0.15967,-1.06539" id="svg_40" stroke-linecap="null" stroke-linejoin="null" stroke-dasharray="null" stroke-width="null" fill="#ffffff"/>
  <path id="svg_41" stroke="#000000" d="m22.70588,23.47876c0.40988,0.96831 0.94261,1.83354 1.55294,2.63716c0.60239,0.79315 0.56471,0.2898 0.84149,-0.75425l0.38708,-0.91894l0.15967,-1.0654" stroke-linecap="null" stroke-linejoin="null" stroke-dasharray="null" stroke-width="null" fill="#ffffff"/>
  <path d="m34.17647,37.70588c0.74906,-0.47174 1.47842,-0.96646 2.2182,-1.40816c0.7793,-0.46529 1.54743,-0.83252 2.35102,-1.25014c0.799,-0.41523 1.57525,-0.80632 2.42449,-1.13551c0.85163,-0.33012 1.7041,-0.52102 2.57108,-0.55914c0.82014,-0.03606 1.71303,-0.01861 2.61168,0.06128c0.90524,0.08047 1.79365,0.21632 2.70698,0.31504c0.87718,0.09481 1.7588,0.16728 2.58094,0.37096c0.89734,0.22231 1.71585,0.5313 2.63365,0.76253c0.81701,0.20583 1.62479,0.59245 2.29208,1.14902c0.71115,0.59316 1.37138,1.16034 1.78145,1.98088c0.38562,0.77163 0.65333,1.64859 0.65196,2.51716c-0.00134,0.85248 -1.04871,0.9394 -1.89223,0.9942c-0.93313,0.06062 -1.80039,0.1995 -2.63388,-0.01961c-0.86922,-0.2285 -1.66696,-0.74701 -2.43796,-1.18651c-0.76023,-0.43336 -1.44597,-1.0332 -2.20683,-1.48559c-0.7393,-0.43957 -1.55753,-0.58542 -2.54926,-0.76522c-0.83777,-0.15188 -1.75117,-0.21853 -2.64616,-0.22355c-0.87351,-0.0049 -1.75749,0.004 -2.62208,0.11749c-0.88115,0.11567 -1.70924,0.40081 -2.58808,0.6218c-0.85084,0.21395 -1.70416,0.40376 -2.52188,0.72376l-0.784,0.4193" id="svg_46" stroke-linecap="null" stroke-linejoin="null" stroke-dasharray="null" stroke-width="null" stroke="#000000" fill="#7f0000"/>
  <path d="m35.58823,50.64706c-0.87057,-0.11765 -1.74672,-0.13175 -2.56549,0.16172c-0.85875,0.30781 -1.7969,0.72841 -2.02221,1.56769c-0.23022,0.85756 0.03274,1.78053 0.26082,2.6588c0.21416,0.82465 0.60866,1.77478 1.40924,2.07233c0.82395,0.30624 1.71435,0.2893 1.62353,1.1669c-0.08982,0.86795 -0.11765,1.75574 -0.11765,2.6549c0,0.87043 0,1.74416 0,2.62808c0,0.91498 0.41925,2.07138 -0.23582,2.65427c-0.50847,0.45244 -1.53467,-0.21162 -2.40196,-0.27058c-0.89691,-0.06097 -1.77376,-0.09243 -2.6849,0c-0.86211,0.08746 -1.98465,0.31874 -2.30477,1.17647c-0.25616,0.68637 1.03723,0.83297 1.89224,1.008c0.86993,0.17809 1.74131,0.16831 2.6469,0.16847c0.89333,0.00016 1.74175,0.1711 2.57412,0.32925c0.93165,0.17702 1.76899,-0.04797 2.60222,-0.33546c0.84336,-0.29099 1.94143,-0.19269 2.26492,-0.87615c0.37963,-0.80209 0,-1.80063 0,-2.65196c0,-0.88671 0,-1.73627 0,-2.66177c0,-0.80313 0.01708,-1.7793 0,-2.69078c-0.01671,-0.8918 -0.11765,-1.75096 -0.11765,-2.62325l0,-0.90667l0,-0.90084l0,-0.85639" id="svg_49" stroke-linecap="null" stroke-linejoin="null" stroke-dasharray="null" stroke-width="null" stroke="#000000" fill="#7f0000"/>
  <line id="svg_58" y2="19.35294" x2="26.29412" y1="17.82353" x1="28.76471" stroke-linecap="null" stroke-linejoin="null" stroke-dasharray="null" stroke-width="null" stroke="#000000" fill="none"/>
  <line id="svg_59" y2="19.70588" x2="24.17647" y1="18.05882" x1="22.88235" stroke-linecap="null" stroke-linejoin="null" stroke-dasharray="null" stroke-width="null" stroke="#000000" fill="none"/>
 </g>
</svg>