<svg xmlns="http://www.w3.org/2000/svg" xmlns:xlink="http://www.w3.org/1999/xlink" version="1.1" preserveAspectRatio="xMidYMid meet" width="75" height="75" style=""><rect id="backgroundrect" width="100%" height="100%" x="0" y="0" fill="none" stroke="none"/><defs><path d="M50.71 51.14C50.71 53.7 44.67 55.79 37.21 55.79C29.76 55.79 23.71 53.7 23.71 51.14C23.71 48.57 29.76 46.48 37.21 46.48C44.67 46.48 50.71 48.57 50.71 51.14Z" id="b4mwcV3jaD"/><path d="M49.7 20.81C50.85 20.81 51.79 21.75 51.79 22.9C51.79 28.6 51.79 43.6 51.79 49.3C51.79 50.45 50.85 51.39 49.7 51.39C44.31 51.39 30.26 51.39 24.88 51.39C23.72 51.39 22.79 50.45 22.79 49.3C22.79 43.6 22.79 28.6 22.79 22.9C22.79 21.75 23.72 20.81 24.88 20.81C30.26 20.81 44.31 20.81 49.7 20.81Z" id="c2IZB77vZT"/><path d="M52.5 12.27C52.5 18.18 45.78 22.98 37.5 22.98C29.22 22.98 22.5 18.18 22.5 12.27C22.5 6.37 29.22 1.57 37.5 1.57C45.78 1.57 52.5 6.37 52.5 12.27Z" id="cCcmAIzlH"/><path d="M39.76 31.51C41.47 31.51 42.86 32.9 42.86 34.61C42.86 37.13 42.86 41.57 42.86 44.09C42.86 45.8 41.47 47.19 39.76 47.19C38.15 47.19 36.42 47.19 34.81 47.19C33.1 47.19 31.71 45.8 31.71 44.09C31.71 41.57 31.71 37.13 31.71 34.61C31.71 32.9 33.1 31.51 34.81 31.51C36.42 31.51 38.15 31.51 39.76 31.51Z" id="a5efdnlVC"/><path d="M37.5 31.9L37.21 34.41L36.93 37.07L36.93 39.58L37.21 42.1L37.36 44.91L37.21 47.57" id="h1JjZPsLQm"/><path d="M31.93 38.27L34.95 38.27L37.66 38.39L40.37 38.39L43.07 38.39" id="j14LsBBoCd"/><path d="M31.79 42.47L34.49 42.5L37.52 42.6L40.22 42.6L42.93 42.5" id="af4bqcRSf"/><path d="M25.5 22.98C25.5 26.35 22.43 29.09 18.64 29.09C14.86 29.09 11.79 26.35 11.79 22.98C11.79 19.6 14.86 16.86 18.64 16.86C22.43 16.86 25.5 19.6 25.5 22.98Z" id="bhvZe3JsQ"/><path d="M63.56 22.98C63.56 26.35 60.49 29.09 56.7 29.09C52.92 29.09 49.84 26.35 49.84 22.98C49.84 19.6 52.92 16.86 56.7 16.86C60.49 16.86 63.56 19.6 63.56 22.98Z" id="dMhL4EC2"/><path d="M19.36 32.6C19.36 36.85 16.96 40.31 14 40.31C11.04 40.31 8.64 36.85 8.64 32.6C8.64 28.34 11.04 24.89 14 24.89C16.96 24.89 19.36 28.34 19.36 32.6Z" id="a8HmmpUgHF"/><path d="M64.56 32.6C64.56 36.85 62.16 40.31 59.2 40.31C56.24 40.31 53.84 36.85 53.84 32.6C53.84 28.34 56.24 24.89 59.2 24.89C62.16 24.89 64.56 28.34 64.56 32.6Z" id="j2KXNawRjN"/><path d="M19.3 44.64C19.3 47.34 16.78 49.54 13.68 49.54C10.59 49.54 8.07 47.34 8.07 44.64C8.07 41.93 10.59 39.73 13.68 39.73C16.78 39.73 19.3 41.93 19.3 44.64Z" id="aoKMNqZMb"/><path d="M21.07 44.64C21.07 45.89 20.28 46.9 19.3 46.9C18.32 46.9 17.52 45.89 17.52 44.64C17.52 43.39 18.32 42.37 19.3 42.37C20.28 42.37 21.07 43.39 21.07 44.64Z" id="ciuEWu0bk"/><path d="M10.77 48.03L10.34 45.89" id="b22R0muo9"/><path d="M13.75 49.17L13.75 47.03" id="dvpmeiZ6g"/><path d="M16.88 48.66L16.74 46.52" id="aqGuCH9YY"/><path d="M19.3 44.13C19.3 45.38 18.05 46.4 16.52 46.4C15 46.4 13.75 45.38 13.75 44.13C13.75 42.88 15 41.87 16.52 41.87C18.05 41.87 19.3 42.88 19.3 44.13Z" id="g4APXVa211"/><path d="M53.91 44.76C53.91 47.47 56.42 49.67 59.52 49.67C62.61 49.67 65.13 47.47 65.13 44.76C65.13 42.06 62.61 39.86 59.52 39.86C56.42 39.86 53.91 42.06 53.91 44.76Z" id="a2g2u5yup"/><path d="M52.13 44.76C52.13 46.01 52.93 47.03 53.91 47.03C54.89 47.03 55.68 46.01 55.68 44.76C55.68 43.51 54.89 42.5 53.91 42.5C52.93 42.5 52.13 43.51 52.13 44.76Z" id="ckEGmu4Ow"/><path d="M62.43 48.16L62.86 46.02" id="d6hScX1iLQ"/><path d="M59.45 49.29L59.45 47.15" id="a15pbjGudx"/><path d="M56.32 48.79L56.46 46.65" id="l3WClNmdl"/><path d="M53.91 44.26C53.91 45.51 55.15 46.53 56.68 46.53C58.2 46.53 59.45 45.51 59.45 44.26C59.45 43.01 58.2 42 56.68 42C55.15 42 53.91 43.01 53.91 44.26Z" id="e1cGk5RUTg"/><path d="M52 49.54C52.67 49.54 53.21 50.09 53.21 50.76C53.21 51.15 53.21 51.12 53.21 51.51C53.21 52.18 52.67 52.73 52 52.73C45.96 52.73 29.04 52.73 23 52.73C22.33 52.73 21.79 52.18 21.79 51.51C21.79 51.12 21.79 51.15 21.79 50.76C21.79 50.09 22.33 49.54 23 49.54C29.04 49.54 45.96 49.54 52 49.54Z" id="a2mNwwK0k3"/><path d="M27.79 62.28C25.54 65.53 21.9 66.89 19.66 65.31C17.43 63.74 17.45 59.82 19.71 56.57C21.97 53.32 25.61 51.97 27.84 53.54C30.07 55.12 30.05 59.03 27.79 62.28Z" id="b12FteWwMP"/><path d="M25.19 68.13C25.19 71.15 23.58 73.61 21.6 73.61C19.62 73.61 18.01 71.15 18.01 68.13C18.01 65.11 19.62 62.66 21.6 62.66C23.58 62.66 25.19 65.11 25.19 68.13Z" id="b2272rBtsP"/><path d="M24.58 72.4C24.58 73.77 21.2 74.88 17.04 74.88C12.88 74.88 9.5 73.77 9.5 72.4C9.5 71.03 12.88 69.91 17.04 69.91C21.2 69.91 24.58 71.03 24.58 72.4Z" id="eBDrSK5wh"/><path d="M45.55 62.28C47.81 65.53 51.45 66.89 53.68 65.31C55.91 63.74 55.89 59.82 53.63 56.57C51.38 53.32 47.73 51.97 45.5 53.54C43.27 55.12 43.29 59.03 45.55 62.28Z" id="itXMHMmG3"/><path d="M48.15 68.13C48.15 71.15 49.76 73.61 51.74 73.61C53.73 73.61 55.34 71.15 55.34 68.13C55.34 65.11 53.73 62.66 51.74 62.66C49.76 62.66 48.15 65.11 48.15 68.13Z" id="eSFX5aqI"/><path d="M48.76 72.4C48.76 73.77 52.14 74.88 56.3 74.88C60.46 74.88 63.84 73.77 63.84 72.4C63.84 71.03 60.46 69.91 56.3 69.91C52.14 69.91 48.76 71.03 48.76 72.4Z" id="evoZsShaG"/><path d="M45.28 8.19C45.28 9.49 44.23 10.54 42.94 10.54C41.64 10.54 40.59 9.49 40.59 8.19C40.59 6.9 41.64 5.85 42.94 5.85C44.23 5.85 45.28 6.9 45.28 8.19Z" id="bfP8O3n4A"/><path d="M45.04 6.23L39.66 8.74L38.87 7.04L44.25 4.53L45.04 6.23Z" id="b3w67fQQyS"/><path d="M33.25 3.75L33.19 5.13L33 6.32L32.56 7.44L32 8.5L31.5 9.57L30.87 10.57L30 11.57L29.25 12.57" id="a5RqMcVK33"/><path d="M33.78 8.32C33.78 9.61 32.73 10.66 31.44 10.66C30.14 10.66 29.09 9.61 29.09 8.32C29.09 7.02 30.14 5.97 31.44 5.97C32.73 5.97 33.78 7.02 33.78 8.32Z" id="ccJqxzKjG"/><path d="M30.05 4.9L35.43 7.41L34.64 9.11L29.26 6.6L30.05 4.9Z" id="mrWbjjB6s"/><path d="M28.94 18.07L30.19 17.44L31.44 17.13L32.69 16.69L33.94 16.38L35.25 16.19L36.81 16.07L38.06 16.13L39.25 16.38L40.37 16.75L41.62 17.38L43 17.88" id="a1edZP6YTu"/><path d="M36.5 10.57L35.25 11.32L34.37 12.25L35.5 13L36.75 13" id="g4Jx65XTrl"/><path d="M17.53 26.33C17.53 28.69 16.48 30.61 15.18 30.61C13.89 30.61 12.84 28.69 12.84 26.33C12.84 23.98 13.89 22.06 15.18 22.06C16.48 22.06 17.53 23.98 17.53 26.33Z" id="hW3z2XAAy"/><path d="M60.97 26.33C60.97 28.69 59.64 30.61 58 30.61C56.37 30.61 55.04 28.69 55.04 26.33C55.04 23.98 56.37 22.06 58 22.06C59.64 22.06 60.97 23.98 60.97 26.33Z" id="ddbvmQbqU"/><path d="M24.68 62.16C24.68 63.61 23.52 64.78 22.09 64.78C20.66 64.78 19.5 63.61 19.5 62.16C19.5 60.71 20.66 59.54 22.09 59.54C23.52 59.54 24.68 60.71 24.68 62.16Z" id="aeruieud6"/><path d="M53.31 62.16C53.31 63.61 52.14 64.78 50.71 64.78C49.28 64.78 48.12 63.61 48.12 62.16C48.12 60.71 49.28 59.54 50.71 59.54C52.14 59.54 53.31 60.71 53.31 62.16Z" id="dGcW3lC2b"/><path d="M49.03 54.32C49.03 55.2 47.87 55.91 46.44 55.91C45.01 55.91 43.84 55.2 43.84 54.32C43.84 53.44 45.01 52.73 46.44 52.73C47.87 52.73 49.03 53.44 49.03 54.32Z" id="g2jxQjs22P"/><path d="M29.5 54.62C29.5 55.5 28.34 56.21 26.91 56.21C25.48 56.21 24.32 55.5 24.32 54.62C24.32 53.74 25.48 53.02 26.91 53.02C28.34 53.02 29.5 53.74 29.5 54.62Z" id="cOH3qdyxb"/><path d="M34.58 24.07C35.88 24.07 36.93 25.12 36.93 26.42C36.93 27.81 36.93 29.64 36.93 31.03C36.93 32.33 35.88 33.38 34.58 33.38C32.41 33.38 28.23 33.38 26.06 33.38C24.76 33.38 23.71 32.33 23.71 31.03C23.71 29.64 23.71 27.81 23.71 26.42C23.71 25.12 24.76 24.07 26.06 24.07C28.23 24.07 32.41 24.07 34.58 24.07Z" id="a2q8rrx9Ad"/><path d="M48.68 24.07C49.97 24.07 51.02 25.12 51.02 26.42C51.02 27.81 51.02 29.64 51.02 31.03C51.02 32.33 49.97 33.38 48.68 33.38C46.5 33.38 42.33 33.38 40.15 33.38C38.86 33.38 37.81 32.33 37.81 31.03C37.81 29.64 37.81 27.81 37.81 26.42C37.81 25.12 38.86 24.07 40.15 24.07C42.33 24.07 46.5 24.07 48.68 24.07Z" id="d3zQbKb7p"/></defs><g class="currentLayer" style=""><title>Layer 1</title><g id="svg_3" class=""><use xlink:href="#b4mwcV3jaD" opacity="1" fill="#816341" fill-opacity="1" id="svg_4"/><g id="svg_5"><use xlink:href="#b4mwcV3jaD" opacity="1" fill-opacity="0" stroke="#000000" stroke-width="1" stroke-opacity="1" id="svg_6"/></g></g><g id="svg_7" class="" fill="#eb1a1a" fill-opacity="1" stroke="#d50b0b" stroke-opacity="1"><use xlink:href="#c2IZB77vZT" opacity="1" fill="#eac6b1" fill-opacity="1" id="svg_8"/><g id="svg_9" fill="#eb1a1a" fill-opacity="1" stroke="#d50b0b" stroke-opacity="1"><use xlink:href="#c2IZB77vZT" opacity="1" fill-opacity="0" stroke="#000000" stroke-width="1" stroke-opacity="1" id="svg_10"/></g></g><g id="svg_11" class="" fill="#eb1a1a" fill-opacity="1" stroke="#eb1a1a" stroke-opacity="1"><use xlink:href="#cCcmAIzlH" opacity="1" fill="#eac6b1" fill-opacity="1" id="svg_12"/><g id="svg_13" fill="#eb1a1a" fill-opacity="1" stroke="#eb1a1a" stroke-opacity="1"><use xlink:href="#cCcmAIzlH" opacity="1" fill-opacity="0" stroke="#000000" stroke-width="1" stroke-opacity="1" id="svg_14"/></g></g><g id="svg_15" class=""><use xlink:href="#a5efdnlVC" opacity="1" fill="#eac6b1" fill-opacity="1" id="svg_16"/><g id="svg_17"><use xlink:href="#a5efdnlVC" opacity="1" fill-opacity="0" stroke="#000000" stroke-width="1" stroke-opacity="1" id="svg_18"/></g></g><g id="svg_19" class=""><g id="svg_20"><use xlink:href="#h1JjZPsLQm" opacity="1" fill-opacity="0" stroke="#000000" stroke-width="1" stroke-opacity="1" id="svg_21"/></g></g><g id="svg_22" class=""><g id="svg_23"><use xlink:href="#j14LsBBoCd" opacity="1" fill-opacity="0" stroke="#000000" stroke-width="1" stroke-opacity="1" id="svg_24"/></g></g><g id="svg_25" class=""><g id="svg_26"><use xlink:href="#af4bqcRSf" opacity="1" fill-opacity="0" stroke="#000000" stroke-width="1" stroke-opacity="1" id="svg_27"/></g></g><g id="svg_28" class=""><use xlink:href="#bhvZe3JsQ" opacity="1" fill="#eac6b1" fill-opacity="1" id="svg_29"/><g id="svg_30"><use xlink:href="#bhvZe3JsQ" opacity="1" fill-opacity="0" stroke="#0a080f" stroke-width="1" stroke-opacity="1" id="svg_31"/></g></g><g id="svg_32" class=""><use xlink:href="#dMhL4EC2" opacity="1" fill="#eac6b1" fill-opacity="1" id="svg_33"/><g id="svg_34"><use xlink:href="#dMhL4EC2" opacity="1" fill-opacity="0" stroke="#0a080f" stroke-width="1" stroke-opacity="1" id="svg_35"/></g></g><g id="svg_36" class=""><use xlink:href="#a8HmmpUgHF" opacity="1" fill="#eac6b1" fill-opacity="1" id="svg_37"/><g id="svg_38"><use xlink:href="#a8HmmpUgHF" opacity="1" fill-opacity="0" stroke="#000000" stroke-width="1" stroke-opacity="1" id="svg_39"/></g></g><g id="svg_40" class=""><use xlink:href="#j2KXNawRjN" opacity="1" fill="#eac6b1" fill-opacity="1" id="svg_41"/><g id="svg_42"><use xlink:href="#j2KXNawRjN" opacity="1" fill-opacity="0" stroke="#000000" stroke-width="1" stroke-opacity="1" id="svg_43"/></g></g><g id="svg_44" class=""><g id="svg_45"><use xlink:href="#aoKMNqZMb" opacity="1" fill="#eac6b1" fill-opacity="1" id="svg_46"/><g id="svg_47"><use xlink:href="#aoKMNqZMb" opacity="1" fill-opacity="0" stroke="#000000" stroke-width="1" stroke-opacity="1" id="svg_48"/></g></g><g id="svg_49"><use xlink:href="#ciuEWu0bk" opacity="1" fill="#eac6b1" fill-opacity="1" id="svg_50"/><g id="svg_51"><use xlink:href="#ciuEWu0bk" opacity="1" fill-opacity="0" stroke="#000000" stroke-width="1" stroke-opacity="1" id="svg_52"/></g></g><g id="svg_53"><use xlink:href="#b22R0muo9" opacity="1" fill="#eac6b1" fill-opacity="1" id="svg_54"/><g id="svg_55"><use xlink:href="#b22R0muo9" opacity="1" fill-opacity="0" stroke="#000000" stroke-width="1" stroke-opacity="1" id="svg_56"/></g></g><g id="svg_57"><use xlink:href="#dvpmeiZ6g" opacity="1" fill="#eac6b1" fill-opacity="1" id="svg_58"/><g id="svg_59"><use xlink:href="#dvpmeiZ6g" opacity="1" fill-opacity="0" stroke="#000000" stroke-width="1" stroke-opacity="1" id="svg_60"/></g></g><g id="svg_61"><use xlink:href="#aqGuCH9YY" opacity="1" fill="#eac6b1" fill-opacity="1" id="svg_62"/><g id="svg_63"><use xlink:href="#aqGuCH9YY" opacity="1" fill-opacity="0" stroke="#000000" stroke-width="1" stroke-opacity="1" id="svg_64"/></g></g><g id="svg_65"><use xlink:href="#g4APXVa211" opacity="1" fill="#eac6b1" fill-opacity="1" id="svg_66"/></g></g><g id="svg_67" class=""><g id="svg_68"><use xlink:href="#a2g2u5yup" opacity="1" fill="#eac6b1" fill-opacity="1" id="svg_69"/><g id="svg_70"><use xlink:href="#a2g2u5yup" opacity="1" fill-opacity="0" stroke="#000000" stroke-width="1" stroke-opacity="1" id="svg_71"/></g></g><g id="svg_72"><use xlink:href="#ckEGmu4Ow" opacity="1" fill="#eac6b1" fill-opacity="1" id="svg_73"/><g id="svg_74"><use xlink:href="#ckEGmu4Ow" opacity="1" fill-opacity="0" stroke="#000000" stroke-width="1" stroke-opacity="1" id="svg_75"/></g></g><g id="svg_76"><use xlink:href="#d6hScX1iLQ" opacity="1" fill="#eac6b1" fill-opacity="1" id="svg_77"/><g id="svg_78"><use xlink:href="#d6hScX1iLQ" opacity="1" fill-opacity="0" stroke="#000000" stroke-width="1" stroke-opacity="1" id="svg_79"/></g></g><g id="svg_80"><use xlink:href="#a15pbjGudx" opacity="1" fill="#eac6b1" fill-opacity="1" id="svg_81"/><g id="svg_82"><use xlink:href="#a15pbjGudx" opacity="1" fill-opacity="0" stroke="#000000" stroke-width="1" stroke-opacity="1" id="svg_83"/></g></g><g id="svg_84"><use xlink:href="#l3WClNmdl" opacity="1" fill="#eac6b1" fill-opacity="1" id="svg_85"/><g id="svg_86"><use xlink:href="#l3WClNmdl" opacity="1" fill-opacity="0" stroke="#000000" stroke-width="1" stroke-opacity="1" id="svg_87"/></g></g><g id="svg_88"><use xlink:href="#e1cGk5RUTg" opacity="1" fill="#eac6b1" fill-opacity="1" id="svg_89"/></g></g><g id="svg_90" class=""><use xlink:href="#a2mNwwK0k3" opacity="1" fill="#816341" fill-opacity="1" id="svg_91"/><g id="svg_92"><use xlink:href="#a2mNwwK0k3" opacity="1" fill-opacity="0" stroke="#000000" stroke-width="1" stroke-opacity="1" id="svg_93"/></g></g><g id="svg_94" class=""><g id="svg_95"><use xlink:href="#b12FteWwMP" opacity="1" fill="#816341" fill-opacity="1" id="svg_96"/><g id="svg_97"><use xlink:href="#b12FteWwMP" opacity="1" fill-opacity="0" stroke="#000000" stroke-width="1" stroke-opacity="1" id="svg_98"/></g></g><g id="svg_99"><use xlink:href="#b2272rBtsP" opacity="1" fill="#816341" fill-opacity="1" id="svg_100"/><g id="svg_101"><use xlink:href="#b2272rBtsP" opacity="1" fill-opacity="0" stroke="#000000" stroke-width="1" stroke-opacity="1" id="svg_102"/></g></g><g id="svg_103"><use xlink:href="#eBDrSK5wh" opacity="1" fill="#000000" fill-opacity="1" id="svg_104"/></g></g><g id="svg_105" class=""><g id="svg_106"><use xlink:href="#itXMHMmG3" opacity="1" fill="#816341" fill-opacity="1" id="svg_107"/><g id="svg_108"><use xlink:href="#itXMHMmG3" opacity="1" fill-opacity="0" stroke="#000000" stroke-width="1" stroke-opacity="1" id="svg_109"/></g></g><g id="svg_110"><use xlink:href="#eSFX5aqI" opacity="1" fill="#816341" fill-opacity="1" id="svg_111"/><g id="svg_112"><use xlink:href="#eSFX5aqI" opacity="1" fill-opacity="0" stroke="#000000" stroke-width="1" stroke-opacity="1" id="svg_113"/></g></g><g id="svg_114"><use xlink:href="#evoZsShaG" opacity="1" fill="#000000" fill-opacity="1" id="svg_115"/></g></g><g id="svg_116" class=""><use xlink:href="#bfP8O3n4A" opacity="1" fill="#000000" fill-opacity="1" id="svg_117"/></g><g id="svg_118" class=""><use xlink:href="#b3w67fQQyS" opacity="1" fill="#eac6b1" fill-opacity="1" id="svg_119"/></g><g id="svg_120" class=""><g id="svg_121"><use xlink:href="#a5RqMcVK33" opacity="1" fill-opacity="0" stroke="#411809" stroke-width="1" stroke-opacity="1" id="svg_122"/></g></g><g id="svg_123" class=""><use xlink:href="#ccJqxzKjG" opacity="1" fill="#000000" fill-opacity="1" id="svg_124"/></g><g id="svg_125" class=""><use xlink:href="#mrWbjjB6s" opacity="1" fill="#eac6b1" fill-opacity="1" id="svg_126"/></g><g id="svg_127" class=""><g id="svg_128"><use xlink:href="#a1edZP6YTu" opacity="1" fill-opacity="0" stroke="#000000" stroke-width="1" stroke-opacity="1" id="svg_129"/></g></g><g id="svg_130" class=""><g id="svg_131"><use xlink:href="#g4Jx65XTrl" opacity="1" fill-opacity="0" stroke="#000000" stroke-width="1" stroke-opacity="1" id="svg_132"/></g></g><g id="svg_133" class=""><use xlink:href="#hW3z2XAAy" opacity="1" fill="#eac6b1" fill-opacity="1" id="svg_134"/></g><g id="svg_135" class=""><use xlink:href="#ddbvmQbqU" opacity="1" fill="#eac6b1" fill-opacity="1" id="svg_136"/></g><g id="svg_137" class=""><use xlink:href="#aeruieud6" opacity="1" fill="#816341" fill-opacity="1" id="svg_138"/></g><g id="svg_139" class=""><use xlink:href="#dGcW3lC2b" opacity="1" fill="#816341" fill-opacity="1" id="svg_140"/></g><g id="svg_141" class=""><use xlink:href="#g2jxQjs22P" opacity="1" fill="#816341" fill-opacity="1" id="svg_142"/></g><g id="svg_143" class=""><use xlink:href="#cOH3qdyxb" opacity="1" fill="#816341" fill-opacity="1" id="svg_144"/></g><g id="svg_145" class=""><use xlink:href="#a2q8rrx9Ad" opacity="1" fill="#eac6b1" fill-opacity="1" id="svg_146"/><g id="svg_147"><use xlink:href="#a2q8rrx9Ad" opacity="1" fill-opacity="0" stroke="#000000" stroke-width="1" stroke-opacity="1" id="svg_148"/></g></g><g id="svg_149" class="" fill="#eb1a1a" fill-opacity="1" stroke="#d50b0b" stroke-opacity="1"><use xlink:href="#d3zQbKb7p" opacity="1" fill="#eac6b1" fill-opacity="1" id="svg_150"/><g id="svg_151" fill="#eb1a1a" fill-opacity="1" stroke="#d50b0b" stroke-opacity="1"><use xlink:href="#d3zQbKb7p" opacity="1" fill-opacity="0" stroke="#000000" stroke-width="1" stroke-opacity="1" id="svg_152"/></g></g><path fill="#000000" fill-opacity="1" stroke="#000000" stroke-opacity="1" stroke-width="1" stroke-dasharray="none" stroke-linejoin="round" stroke-linecap="butt" stroke-dashoffset="" fill-rule="nonzero" opacity="1" marker-start="" marker-mid="" marker-end="" id="svg_153" d="M23.624402345071495,8.086124540267203 L21.81818181818182,6.619927219959577 L19.80861244019139,3.243230676699524 C19.89234486068552,3.2876609438417383 19.89234486068552,0.5329873977456386 19.98803864233644,0.6218478347164805 C20.083732423987364,0.7107082716873224 22.380383183609503,4.265125750520999 22.29665071770335,4.220695465537961 C22.380383183609503,4.265125750520999 25.44258419643902,6.13119492690868 25.35885167464115,6.086764607865884 " style="color: rgb(0, 0, 0);" class=""/><path fill="#000000" fill-opacity="1" stroke="#000000" stroke-opacity="1" stroke-width="1" stroke-dasharray="none" stroke-linejoin="round" stroke-linecap="butt" stroke-dashoffset="" fill-rule="nonzero" opacity="1" marker-start="" marker-mid="" marker-end="" d="M51.539300533649175,7.607656233658702 L53.18876253186296,6.235417362713527 L55.02392511163792,3.0751099553343764 C54.947459672580294,3.1166929938344268 54.947459672580294,0.5385474302316049 54.86007097671026,0.6217134161542766 C54.772682280840236,0.7048794020769487 52.675353579959555,4.031518838983818 52.75181906048798,3.989935783786236 C52.675353579959555,4.031518838983818 49.87891531211863,5.778004543359922 49.95538084368805,5.736421456285237 " style="color: rgb(0, 0, 0);" class="" id="svg_155"/></g></svg>