<svg width="75" height="75" xmlns="http://www.w3.org/2000/svg" xmlns:svg="http://www.w3.org/2000/svg" stroke="null" style="vector-effect: non-scaling-stroke;">
 <!-- Created with SVG-edit - http://svg-edit.googlecode.com/ -->
 <g stroke="null">
  <title stroke="null">Layer 1</title>
  <path d="m60.375,41c-0.0625,-0.93489 -0.34886,-1.82508 -0.75,-2.625c-0.39391,-0.78551 -0.50471,-1.69233 -0.925,-2.42183c-0.44694,-0.77575 0.19049,-0.69237 0.99017,-0.30319c0.78391,0.38151 1.48483,0.90059 2.19731,1.48752l0.58752,0.5875" id="svg_28" stroke-linecap="null" stroke-linejoin="null" stroke-dasharray="null" stroke="#000000" fill="#ffd4aa"/>
  <path d="m54.375,47.375c-0.26433,-0.92883 -0.49075,-1.86175 -0.6895,-2.58683c-0.24834,-0.90602 -1.0316,-1.80467 -0.73867,-2.64133c0.22496,-0.64254 1.41737,-0.3415 2.27816,-0.09367l0.80592,0.35933l0.71317,0.53694l0.76842,0.4104" id="svg_27" stroke-linecap="null" stroke-linejoin="null" stroke-dasharray="null" stroke="#000000" fill="#ffd4aa"/>
  <path d="m45.25,49.75c0.209,-0.813 0.66749,-1.64142 0.87483,-2.48533c0.21436,-0.87248 -0.0794,-1.7909 0.12517,-2.66467c0.18065,-0.77164 0.97599,-0.09824 1.39983,0.66433c0.42201,0.75927 0.95,1.471 1.39033,2.28831l0.48752,0.70985l0.54281,0.6875" id="svg_26" stroke-linecap="null" stroke-linejoin="null" stroke-dasharray="null" stroke="#000000" fill="#ffd4aa"/>
  <path d="m37.5,49.375c0.33583,-0.82933 0.71832,-1.61579 1.09817,-2.44367c0.36794,-0.80193 0.79169,-1.63483 1.52414,-2.17864c0.46402,-0.34452 0.67376,0.50691 0.81519,1.49731c0.12658,0.88638 0.42233,1.73215 0.59017,2.59194l0.09733,0.85673" id="svg_25" stroke-linecap="null" stroke-linejoin="null" stroke-dasharray="null" stroke="#000000" fill="#ffd4aa"/>
  <path d="m30.875,37.25c0.88037,-0.125 1.7382,-0.14946 2.51433,-0.11433c0.91543,0.04142 1.91424,0.08289 2.77908,0.11433c0.89586,0.03257 1.25129,0.94596 0.85242,1.70833c-0.39828,0.76125 -1.1237,1.36251 -1.73992,2.01075c-0.60688,0.63842 -1.08408,1.38409 -1.43075,2.18092l-0.40017,0.72183" id="svg_29" stroke-linecap="null" stroke-linejoin="null" stroke-dasharray="null" stroke="#000000" fill="#ffd4aa"/>
  <path stroke="#000000" d="m15.75,24c0.5,-0.65 0.4495,-1.57603 0.87817,-2.325c0.42957,-0.75055 1.32714,-1.09478 2.1075,-1.44617c0.80021,-0.36032 1.43783,0.03383 2.26433,0.52117l0.80267,0.25" id="svg_23" stroke-linecap="null" stroke-linejoin="null" stroke-dasharray="null" fill="none"/>
  <path stroke="#000000" id="svg_18" d="m26.98476,31.46311c0,0.88488 0,1.8035 0,2.675c0,0.8875 -0.02673,1.76598 -0.1875,2.6375c-0.15926,0.86333 -0.44298,1.69419 -0.76908,2.5126c-0.33594,0.84308 -0.59486,1.67437 -1.13842,2.39357c-0.56229,0.74397 -1.38746,1.15942 -2.23317,1.40499c-0.84454,0.24524 -1.64936,0.07876 -1.8245,-0.77364c-0.1746,-0.84981 -0.62514,-1.7239 -0.83666,-1.13952c-0.28789,0.79535 -0.28024,1.75591 -0.76067,2.477c-0.40867,0.61337 -1.74589,0.21825 -2.27183,0.88883c-0.35813,0.45661 0.67965,0.82575 1.5255,0.97234c0.9108,0.15785 1.24633,0.61649 1.24633,1.50133c0,0.86842 0.39384,1.58893 0.75002,0.82767c0.36641,-0.78312 0.22407,-1.95222 0.93565,-2.4025c0.73135,-0.46281 1.78136,-0.05081 2.62683,-0.22517c0.85315,-0.17595 1.67757,-0.56532 2.45933,-0.95c0.78473,-0.38615 1.505,-0.90317 2.17817,-1.5l0.4625,-0.74944l0.2125,-0.82239" stroke-linecap="null" stroke-linejoin="null" stroke-dasharray="null" fill="#bf0000"/>
  <path stroke="#000000" id="svg_16" d="m37.44116,52.09232c-0.918,0.42367 -1.87251,0.83968 -2.67044,1.39998c-0.79994,0.56171 -1.47265,1.25772 -1.87282,2.06698c-0.39894,0.80674 -0.68773,1.71358 -0.5529,2.53304c0.14448,0.87812 0.76124,1.65376 1.09545,2.50367c0.30642,0.77924 -0.77504,0.87024 -1.7651,0.99633c-1.05906,0.13489 -2.02407,0.39497 -2.87788,0.85c-0.88234,0.47023 -0.96326,0.97283 0.07622,1.025c1.0491,0.05266 2.06046,-0.18865 3.10201,-0.25c1.04625,-0.06162 2.08721,-0.09746 3.12663,-0.14584c0.95996,-0.04467 0.22522,0.64234 -0.40867,1.34584c-0.62208,0.69038 -1.11344,1.55502 -1.07516,2.4375c0.02018,0.46547 1.00856,-0.07248 1.8681,-0.58367c0.848,-0.50432 1.59394,-1.13318 2.27954,-1.81817c0.65889,-0.65829 0.8288,-1.70196 1.64663,-1.98566c0.99127,-0.34386 2.11956,-0.00068 3.14465,0.125c1.01403,0.12433 2.51054,-0.31136 1.95929,-0.99729c-0.57937,-0.72093 -1.9722,-0.45426 -2.98384,-0.62827c-1.01068,-0.17386 -2.19034,0.28627 -3.11679,-0.12578c-0.87915,-0.39101 -0.81834,-1.54801 -0.97512,-2.43416c-0.15113,-0.85421 -0.25086,-1.7668 -0.00757,-2.60256c0.25173,-0.86481 0.79978,-1.625 1.42584,-2.30561l0.6224,-0.61872l0.90768,-0.535" stroke-linecap="null" stroke-linejoin="null" stroke-dasharray="null" fill="#bf0000"/>
  <path stroke="#000000" d="m38.64373,56.25c-0.79992,0.42367 -1.63165,0.83968 -2.32694,1.39998c-0.69704,0.56171 -1.28322,1.25772 -1.63192,2.06698c-0.34762,0.80674 -0.59926,1.71358 -0.48178,2.53304c0.12589,0.87812 0.66332,1.65376 0.95454,2.50367c0.26701,0.77924 -0.67535,0.87024 -1.53805,0.99633c-0.92284,0.13489 -1.76372,0.39497 -2.5077,0.85c-0.76885,0.47023 -0.83935,0.97283 0.06642,1.025c0.91415,0.05266 1.79543,-0.18865 2.703,-0.25c0.91167,-0.06162 1.81873,-0.09746 2.72445,-0.14584c0.83648,-0.04468 0.19625,0.64233 -0.35611,1.34583c-0.54206,0.69038 -0.97021,1.55502 -0.93687,2.4375c0.01759,0.46547 0.87883,-0.07248 1.62781,-0.58366c0.73892,-0.50433 1.38891,-1.13318 1.98632,-1.81817c0.57413,-0.65829 0.72218,-1.70197 1.43482,-1.98566c0.86377,-0.34386 1.84692,-0.00068 2.74016,0.125c0.8836,0.12433 2.18761,-0.31136 1.70727,-0.99729c-0.50485,-0.72093 -1.71851,-0.45426 -2.60003,-0.62827c-0.88067,-0.17385 -1.9086,0.28628 -2.71587,-0.12577c-0.76607,-0.39101 -0.71308,-1.54802 -0.84969,-2.43417c-0.13169,-0.85421 -0.21859,-1.7668 -0.00661,-2.60256c0.21935,-0.8648 0.6969,-1.625 1.24244,-2.3056l0.54234,-0.61873l0.79093,-0.535" id="svg_15" stroke-linecap="null" stroke-linejoin="null" stroke-dasharray="null" fill="#bf0000"/>
  <path stroke="#000000" d="m36.625,10c0.60983,0.66517 0.96122,1.44061 1.25056,2.28862c0.28373,0.83156 0.59858,1.65659 0.94944,2.47921c0.34004,0.79726 0.89808,1.51652 1.18873,2.32681c0.28423,0.79242 0.59455,1.62394 0.86127,2.46525c0.26929,0.84942 0.67243,1.63666 0.87817,2.46194c0.17453,0.70012 -0.69262,0.26659 -1.38077,-0.27183c-0.71199,-0.55708 -1.43731,-1.10646 -2.30989,-1.25c-0.88018,-0.14479 -1.67656,0.47416 -2.225,1.1625c-0.54247,0.68084 -0.5298,1.5791 -0.35269,2.44192c0.17724,0.86344 0.89542,1.94748 0.45008,2.20808c-0.75728,0.44315 -1.40733,-1.24222 -2.22775,-1.10658c-0.87887,0.1453 -1.71851,0.5516 -2.41615,1.05175c-0.7313,0.52429 -1.18076,1.32986 -1.17315,2.15483c0.00809,0.87712 1.59031,1.93606 0.88217,2.475c-0.36951,0.28123 -0.97418,0.10238 -1.81052,-0.184c-0.80501,-0.27565 -0.64124,-1.5655 -0.93933,-2.39283c-0.2999,-0.83234 -0.83175,-1.51725 -1.38767,-2.19817l-0.77556,-0.35535" id="svg_14" stroke-linecap="null" stroke-linejoin="null" stroke-dasharray="null" fill="#ff7f00"/>
  <path stroke="#000000" d="m11.25,29.125c0.3395,-0.93933 0.4891,-1.85489 0.9355,-2.59617c0.46024,-0.76425 1.02155,-1.45355 1.72033,-1.98333c0.69319,-0.52554 1.53895,-0.84632 2.39415,-1.19548c0.82971,-0.33875 1.64438,-0.69964 2.51252,-0.84742c0.85415,-0.14539 1.79787,-0.30251 2.6375,-0.03887c0.80226,0.25191 1.51316,0.84662 2.20133,1.4376c0.66197,0.56848 1.21147,1.25539 1.807,1.932c0.58398,0.66349 1.21538,1.28727 1.74167,1.96684c0.55361,0.71483 0.92648,1.50908 1.29398,2.34973c0.34434,0.78766 0.61303,1.65145 0.82052,2.45043c0.24281,0.935 0.31974,1.81203 0.6105,2.6305c0.29545,0.83169 0.71267,1.59447 0.99867,2.4755c0.26363,0.81213 0.44297,1.71267 0.68616,2.56867c0.23624,0.83151 0.43848,1.67324 0.81384,2.50183c0.37008,0.81695 0.85289,1.54681 1.38683,2.27301c0.51682,0.70291 0.92552,1.50067 1.47879,2.11445c0.59556,0.66068 1.29163,1.29811 2.0805,1.7055c0.77293,0.39916 1.67799,0.36924 2.56771,0.52604c0.77886,0.13726 1.65189,0.32049 2.56771,0.41667c0.99205,0.10419 1.88394,0.1799 2.77012,0.1875c0.82064,0.00703 1.73285,0.09754 2.64784,0c0.83075,-0.08856 1.57728,-0.48256 2.46243,-0.74877c0.85759,-0.25793 1.8224,-0.49311 2.48679,-1.06112c0.65902,-0.56342 1.00111,-1.47929 1.62619,-2.06144c0.61231,-0.57026 1.56281,-0.93163 2.25142,-1.5245c0.62557,-0.5386 1.21083,-1.27449 1.79583,-1.9005c0.59264,-0.63417 1.07174,-1.45838 1.56134,-2.1685c0.48586,-0.70471 0.93916,-1.47651 1.45366,-2.14984c0.5709,-0.74712 1.23846,-1.4856 2.11684,-1.63533c0.82132,-0.14001 1.75722,0 2.612,0c0.92766,0 2.31559,-0.66795 2.69239,0.15271c0.28762,0.62643 -1.27247,0.85809 -2.08523,1.21912c-0.77597,0.3447 -1.64483,0.70887 -2.29366,1.27634c-0.66406,0.58078 -1.10298,1.4144 -1.41306,2.22422c-0.3215,0.83962 -0.65688,1.6245 -0.8125,2.5c-0.15738,0.88535 -0.23089,1.76656 -0.53828,2.59878c-0.30401,0.82308 -0.77897,1.5577 -1.39983,2.21433c-0.61463,0.65004 -1.09015,1.4011 -1.67517,2.05c-0.6055,0.67162 -1.2998,1.21181 -2.097,1.61767c-0.80137,0.40799 -1.5994,0.76886 -2.41733,1.126c-0.81558,0.35611 -1.57814,0.80261 -2.40383,1.16016c-0.789,0.34166 -1.63389,0.54625 -2.51459,0.74225c-0.84308,0.18764 -1.71614,0.38262 -2.55924,0.49792c-0.89449,0.12233 -1.79732,0.1205 -2.68005,0.1205c-0.83179,0 -1.77629,0 -2.65379,0c-0.89033,0 -1.85738,0.1979 -2.64617,-0.08083c-0.82994,-0.29327 -1.51485,-0.88734 -2.26744,-1.38055c-0.73934,-0.48453 -1.53025,-0.92984 -2.19989,-1.47429c-0.67998,-0.55285 -1.32601,-1.18363 -1.95,-1.81433c-0.63209,-0.63889 -1.16908,-1.28545 -1.77083,-2c-0.54753,-0.65016 -1.06745,-1.41391 -1.36665,-2.27502c-0.29625,-0.85262 -0.51827,-1.67316 -0.76235,-2.54965c-0.22052,-0.79188 -0.41685,-1.70043 -0.65017,-2.57666c-0.22175,-0.83281 -0.37123,-1.67921 -0.61965,-2.59275c-0.22618,-0.83178 -0.48935,-1.67667 -0.83295,-2.50853c-0.35089,-0.84948 -0.69782,-1.63229 -1.14742,-2.40995c-0.41026,-0.70961 -0.87541,-1.51382 -1.32481,-2.28727c-0.42747,-0.73569 -0.86323,-1.56093 -1.37517,-2.27484c-0.52122,-0.72684 -1.04104,-1.63837 -1.91917,-1.77266c-0.85523,-0.13079 -1.69343,0.47074 -2.39925,0.95983c-0.74159,0.51389 -1.36052,1.19622 -1.58158,2.05833c-0.21749,0.8482 -0.25,1.74167 -0.25,2.60417c0,0.9125 0.08333,1.8066 0,2.6875c-0.08295,0.87688 -0.5269,1.65884 -1.07633,2.33433c-0.55909,0.68735 -1.27463,1.48776 -2.09342,1.38944c-0.87586,-0.10517 -1.65886,-1.04081 -1.58025,-1.89044c0.07927,-0.8567 0.89013,-1.48972 1.17817,-2.32083c0.22085,-0.63726 -0.17998,0.1648 -0.72817,0.8455c-0.55998,0.69534 -1.39881,1.0416 -2.0295,1.6545c-0.63355,0.61568 -1.52109,1.38752 -2.333,1.04944c-0.7845,-0.32667 -1.19579,-1.35809 -1.2125,-2.22444c-0.0165,-0.85553 0.94721,-1.21543 1.7526,-1.5875c0.81943,-0.37855 1.65556,-0.78251 2.01823,-1.5625c0.36335,-0.78144 0.41619,-1.70128 0.60677,-2.5625c0.1887,-0.85269 0.60537,-1.65529 0.61657,-2.517" id="svg_11" stroke-linecap="null" stroke-linejoin="null" stroke-dasharray="null" fill="#bf0000"/>
  <path stroke="#000000" d="m23.625,23.75c0.77083,-0.5 1.57711,-0.8295 2.3,-1.29867c0.72839,-0.47274 1.40291,-1.09594 1.92917,-1.82633c0.51252,-0.71133 0.94206,-1.47013 1.43333,-2.20658c0.48584,-0.72831 1.01317,-1.41241 1.4375,-2.20792c0.41019,-0.769 1.0054,-1.4503 1.4599,-2.21571c0.44518,-0.74972 0.7701,-1.62411 1.1606,-2.38396c0.4176,-0.81257 0.78453,-1.62385 1.094,-2.35067c0.36617,-0.85998 0.63703,-1.73267 0.92033,-2.56283c0.26738,-0.78349 0.66117,-0.02876 0.89,0.77767c0.23654,0.8336 0.4311,1.7734 0.25017,2.61467c-0.18403,0.85566 -0.90751,1.43934 -1.42367,2.1385c-0.52864,0.71608 -0.90724,1.50417 -1.34067,2.27567c-0.43252,0.7699 -0.70495,1.6092 -1.0575,2.393c-0.36001,0.80038 -0.7374,1.61907 -1.199,2.374c-0.46547,0.76126 -1.00269,1.43333 -1.51933,2.172c-0.50851,0.72705 -0.97537,1.44676 -1.52494,2.12227c-0.56664,0.6965 -1.30729,1.17969 -2.09906,1.60956l-0.54889,0.61875" id="svg_12" stroke-linecap="null" stroke-linejoin="null" stroke-dasharray="null" fill="#bf0000"/>
  <path stroke="#000000" d="m27,35.875c0,0.88488 0,1.8035 0,2.675c0,0.8875 -0.02673,1.76598 -0.1875,2.6375c-0.15926,0.86333 -0.44298,1.69419 -0.76908,2.5126c-0.33593,0.84307 -0.59485,1.67437 -1.13842,2.39356c-0.56229,0.74397 -1.38746,1.15943 -2.23317,1.405c-0.84455,0.24524 -1.64936,0.07876 -1.8245,-0.77364c-0.17461,-0.84981 -0.62515,-1.7239 -0.83667,-1.13952c-0.28788,0.79535 -0.28023,1.75591 -0.76067,2.477c-0.40867,0.61337 -1.74589,0.21825 -2.27183,0.88883c-0.35812,0.45661 0.67965,0.82574 1.5255,0.97234c0.9108,0.15785 1.24633,0.6165 1.24633,1.50133c0,0.86842 0.39384,1.58893 0.75002,0.82767c0.36641,-0.78312 0.22407,-1.95221 0.93565,-2.4025c0.73135,-0.4628 1.78136,-0.0508 2.62683,-0.22517c0.85315,-0.17595 1.67757,-0.56532 2.45933,-0.95c0.78473,-0.38615 1.505,-0.90317 2.17817,-1.5l0.4625,-0.74944l0.2125,-0.8224" id="svg_17" stroke-linecap="null" stroke-linejoin="null" stroke-dasharray="null" fill="#bf0000"/>
  <ellipse stroke="#000000" transform="rotate(-59.48976516723633 12.874999999999998,30.062499999999996) " ry="0.36088" rx="1.29131" id="svg_19" cy="30.0625" cx="12.875" stroke-linecap="null" stroke-linejoin="null" stroke-dasharray="null" fill="#000000"/>
  <path stroke="#000000" d="m9.75,40.625c-1.00904,0.1625 -1.91395,0.33253 -2.6875,0.6875c-0.8131,0.37312 -1.55483,1.11808 -1.05,1.3125c0.81693,0.31462 0.66307,0.77664 0.2375,1.56511c-0.4231,0.78387 -0.80104,1.54735 -1.0875,2.40398c-0.27368,0.81842 0.21366,0.49715 0.85833,-0.09408c0.63899,-0.58602 1.24467,-0.48738 1.004,0.33567c-0.24965,0.85377 -0.38895,1.72528 -0.71494,2.53933c-0.33207,0.82925 -0.77255,1.58668 -0.9349,2.47917c-0.15818,0.86961 -0.2057,1.46322 0.55017,0.99567c0.74589,-0.46138 1.44687,-0.95966 2.13933,-1.53933c0.68351,-0.57217 1.24085,-1.2574 1.648,-2.02902c0.42049,-0.79691 0.75247,-0.93286 1.15729,-0.15908c0.41742,0.79786 0.5409,1.71474 0.83154,2.52761c0.29935,0.83722 0.8511,1.28547 0.91652,0.39887c0.06301,-0.8539 0.13215,-1.74871 0.13215,-2.65304c0,-0.874 -0.16522,-1.75228 -0.3855,-2.59566c-0.22625,-0.86624 -0.41612,-1.72994 -0.47883,-2.625c-0.06149,-0.87758 -0.05475,-1.75017 -0.20338,-2.61527l-0.55729,-0.68489l-0.8,-0.25" id="svg_21" stroke-linecap="null" stroke-linejoin="null" stroke-dasharray="null" fill="#ff6100"/>
  <path stroke="#000000" d="m13,27.5c0,-0.9 -0.12797,-1.77985 0.00017,-2.6855c0.12085,-0.85415 0.60334,-1.51071 1.37483,-1.96033c0.74503,-0.4342 1.50172,-1.03156 1.75,-1.83233c0.26125,-0.8426 -0.15955,-1.86706 0.3151,-2.58433c0.48075,-0.72648 1.46525,-0.975 2.10008,-1.60267l0.68615,-0.49067l0.69033,-0.615l0.65833,-0.55417" id="svg_22" stroke-linecap="null" stroke-linejoin="null" stroke-dasharray="null" fill="none"/>
 </g>
</svg>