<svg width="75" height="75" xmlns="http://www.w3.org/2000/svg" xmlns:svg="http://www.w3.org/2000/svg" stroke="null" style="vector-effect: non-scaling-stroke;">
 <!-- Created with SVG-edit - http://svg-edit.googlecode.com/ -->
 <g stroke="null">
  <title stroke="null">Layer 1</title>
  <path stroke="#000000" id="svg_37" d="m38.37465,17.18994c0.55371,-0.84287 1.00902,-1.65066 1.87646,-2.34229c0.86383,-0.68875 1.76034,-1.3541 2.82904,-1.85771c1.03584,-0.48812 2.2826,-0.84193 3.54121,-1.1105c1.29685,-0.27673 2.62655,-0.50488 3.90453,-0.4395c1.32185,0.06762 2.52868,0.4418 3.69561,0.87883c1.14304,0.42809 2.13012,1.07415 2.92223,1.74877c0.83435,0.71062 1.31608,1.56753 1.76667,2.42623c0.43511,0.82922 0.84432,1.61745 1.12118,2.43217c0.33349,0.98142 0.27583,1.839 0.27583,2.73788c0,0.83245 0.01459,1.80893 -0.4223,2.58779c-0.48002,0.85573 -1.08023,1.6324 -1.77742,2.3785c-0.67793,0.72549 -1.28607,1.45997 -2.17642,2.22116c-0.83748,0.71599 -1.66635,1.40523 -2.59847,2.02917c-0.89976,0.60228 -1.92162,1.1795 -3.16346,1.62679c-1.13164,0.4076 -2.28532,0.74757 -3.55441,1.16188c-1.19499,0.39012 -2.56949,0.69913 -3.1893,1.499c-0.40296,0.52003 1.20817,0.70033 2.47763,0.94025c1.25203,0.23661 2.59892,0.48463 3.81727,0.70658c1.19966,0.21854 2.54782,0.56731 3.76756,0.91261c1.13122,0.32023 2.44662,0.68199 3.43053,1.21906c1.02635,0.56024 1.71789,1.32093 2.01335,2.18966c0.30441,0.89505 0.41475,1.78893 0.26022,2.67275c-0.14198,0.81213 -1.06223,1.591 -2.00939,2.15459c-1.02262,0.60849 -2.29205,0.92359 -3.56103,1.137c-1.25469,0.211 -2.61377,0.334 -3.90899,0.33933c-1.30494,0.00537 -2.68981,0.0431 -3.96305,-0.15267c-1.25332,-0.19271 -2.43422,-0.52075 -3.69087,-0.79866c-1.25589,-0.27774 -2.42026,-0.71383 -3.3576,-1.32902l-0.51248,-0.78215" stroke-linecap="null" stroke-linejoin="null" stroke-dasharray="null" stroke-width="null" fill="#00ffff"/>
  <path stroke="#000000" d="m34.06199,17.625c-0.5601,-0.84287 -1.02066,-1.65066 -1.8981,-2.34229c-0.87378,-0.68875 -1.78064,-1.3541 -2.86167,-1.85771c-1.04778,-0.48812 -2.30891,-0.84193 -3.58205,-1.1105c-1.31181,-0.27673 -2.65683,-0.50488 -3.94956,-0.4395c-1.33709,0.06762 -2.55784,0.4418 -3.73823,0.87883c-1.15622,0.42808 -2.1547,1.07414 -2.95593,1.74877c-0.84397,0.71062 -1.33127,1.56752 -1.78705,2.42623c-0.44013,0.82922 -0.85406,1.61745 -1.1341,2.43217c-0.33735,0.98142 -0.27901,1.839 -0.27901,2.73787c0,0.83246 -0.01476,1.80894 0.42717,2.58779c0.48556,0.85573 1.09269,1.6324 1.79792,2.3785c0.68575,0.72549 1.30091,1.45998 2.20152,2.22117c0.84714,0.71599 1.68557,1.40523 2.62844,2.02917c0.91014,0.60228 1.94378,1.17949 3.19994,1.62679c1.14468,0.4076 2.31167,0.74757 3.5954,1.16188c1.20877,0.39012 2.59911,0.69913 3.22607,1.499c0.40761,0.52003 -1.2221,0.70034 -2.5062,0.94025c-1.26646,0.23661 -2.62889,0.48464 -3.86128,0.70658c-1.21349,0.21854 -2.5772,0.56731 -3.81102,0.91261c-1.14427,0.32024 -2.47484,0.68199 -3.47009,1.21906c-1.03819,0.56024 -1.7377,1.32093 -2.03657,2.18967c-0.30792,0.89504 -0.41952,1.78892 -0.26322,2.67275c0.14362,0.81212 1.07448,1.59099 2.03256,2.15458c1.03441,0.60849 2.31848,0.9236 3.6021,1.137c1.26916,0.211 2.64391,0.334 3.95407,0.33933c1.31999,0.00537 2.72083,0.0431 4.00875,-0.15267c1.26777,-0.19271 2.46229,-0.52076 3.73343,-0.79866c1.27037,-0.27774 2.44817,-0.71383 3.39632,-1.32902l0.51839,-0.78215" id="svg_36" stroke-linecap="null" stroke-linejoin="null" stroke-dasharray="null" stroke-width="null" fill="#00ffff"/>
  <path d="m34.5,27.125c-0.00714,0.86542 -0.1276,1.82678 -0.2875,2.68036c-0.15305,0.81697 -0.37625,1.71828 -0.7125,2.54881c-0.2978,0.73555 -0.62017,1.60451 -0.9375,2.39063c-0.35762,0.88593 -0.80151,1.69212 -1.21433,2.43071c-0.46381,0.8298 -0.89808,1.60417 -1.4315,2.3245c-0.46982,0.63445 -1.13167,1.34568 -1.76487,1.97321c-0.59548,0.59014 -1.30396,1.22321 -2.06613,1.66612c-0.76112,0.4423 -1.63132,0.97789 -1.26067,1.11067c0.84367,0.30222 1.79632,0.15706 2.6605,0c0.86652,-0.15749 1.66037,-0.56934 2.42969,-1.0125c0.76801,-0.44241 1.78699,-1.58056 2.33464,-1.01217c0.63013,0.65401 -0.49832,1.68539 -0.85167,2.47517c-0.37546,0.83921 -0.71691,1.65778 -1.05085,2.46466c-0.3334,0.80556 0.03742,0.7038 0.74685,0.16433c0.71275,-0.54199 1.2227,-1.2791 1.84533,-1.894c0.65089,-0.6428 1.52682,-1.02879 1.99984,-1.7605c0.47224,-0.73052 0.66953,-0.99127 0.91833,-0.15183c0.26075,0.87976 0.57672,1.70184 0.67783,2.5625c0.10162,0.86497 0.23779,1.76718 0.38358,2.62092c0.14888,0.87182 0.41262,1.77776 0.90908,1.26841c0.61547,-0.63145 1.12165,-1.40746 1.33233,-2.27483c0.2004,-0.82507 0.08834,-1.74375 0.2145,-2.6175c0.12386,-0.85783 0.14562,-1.76889 0.625,-1.08267c0.49968,0.71527 0.82688,1.50549 1.1855,2.3355c0.33919,0.78504 0.8078,1.5682 1.16867,2.39367c0.34483,0.78877 0.75447,1.67577 0.89583,1.47916c0.50895,-0.70782 0.39263,-1.70435 0.57633,-2.55967c0.1922,-0.89489 0.17394,-1.79598 0.17367,-2.6695c-0.00028,-0.89167 -0.34631,-1.67988 -0.65269,-2.50417c-0.3106,-0.83566 -0.03637,-0.21825 0.47825,0.50536c0.5307,0.74621 0.93749,1.54166 1.57127,2.16648c0.63174,0.6228 1.56558,0.699 2.46125,0.72819c0.82403,0.02686 1.69921,0.12368 2.66423,0.12498c0.87635,0.00118 2.67509,0.42251 2.53238,-0.43489c-0.1326,-0.79669 -1.6173,-0.48238 -2.37386,-0.91644c-0.77398,-0.44405 -1.4458,-1.00803 -1.959,-1.78c-0.49141,-0.73919 -0.90867,-1.50748 -1.38969,-2.25673c-0.49358,-0.76881 -0.99864,-1.49302 -1.48215,-2.19227c-0.51183,-0.74021 -0.96603,-1.49369 -1.38035,-2.2816c-0.4113,-0.78217 -0.75887,-1.60802 -1.05123,-2.41964c-0.30264,-0.84015 -0.42734,-1.72232 -0.66842,-2.59342c-0.23884,-0.863 -0.55536,-1.69287 -0.89583,-2.52083l-0.20433,-0.829l-0.15698,-0.82517l-0.41102,-0.76433" id="svg_33" stroke-linecap="null" stroke-linejoin="null" stroke-dasharray="null" stroke-width="null" stroke="#000000" fill="#007fff"/>
  <path d="m30.875,23.25c-0.47633,0.65 -1.17675,1.28363 -1.98567,1.6c-0.82024,0.3208 -1.70266,0.4361 -2.58162,0.56908c-0.84412,0.12771 -1.71042,0.3845 -2.53687,0.45592c-0.9604,0.08299 -1.82117,0.12868 -2.72798,0.125c-0.87925,-0.00357 -0.44609,-0.40077 0.39998,-0.72817c0.83558,-0.32333 1.70604,-0.67656 2.38533,-1.22633c0.68223,-0.55214 1.32348,-1.23055 1.901,-1.89967c0.56737,-0.65736 0.64583,-1.55483 0.64583,-2.43517c0,-0.9 0,-1.7855 0,-2.67667c0,-0.89181 0.10031,-1.74112 0.41127,-2.5465c0.32828,-0.85023 0.63002,-1.68916 1.1214,-2.44517c0.47733,-0.7344 1.04191,-1.35315 1.49233,-2.1455c0.44974,-0.79115 0.93916,-1.5322 1.56033,-2.2215c0.5712,-0.63385 1.45084,-1.11849 2.31465,-1.02267c0.87113,0.09664 1.6785,0.59335 2.46785,0.89417c0.84304,0.32128 1.46301,1.02393 1.58752,1.86377c0.13427,0.90561 0.34129,1.13782 0.60715,0.2795c0.26983,-0.87115 0.67355,-1.6651 1.375,-2.1901c0.70576,-0.52823 1.46136,-0.94472 2.35123,-1.16965c0.85741,-0.21672 1.80953,-0.36922 2.58627,-0.01265c0.8174,0.37524 1.47691,1.12307 1.85,1.88229c0.38236,0.77807 0.32068,1.75004 0.10986,2.61515c-0.20964,0.86021 -0.52091,1.67819 -0.58352,2.53485c-0.06785,0.92836 0.01807,1.79277 0.1445,2.69167c0.12225,0.86922 0.18151,1.74176 0.41406,2.57813c0.23861,0.85815 0.68981,1.66572 1.20461,2.38421c0.5249,0.73259 1.08428,1.44491 1.8605,1.89183c0.72383,0.41676 2.14449,0.12885 2.44733,0.98233c0.2331,0.65692 -1.21548,0.89666 -2.104,0.98617c-0.87644,0.08829 -1.77414,0.03019 -2.59925,-0.20183c-0.87513,-0.24609 -1.72492,-0.41383 -2.59058,-0.627l-0.858,-0.23233" id="svg_31" stroke-linecap="null" stroke-linejoin="null" stroke-dasharray="null" stroke-width="null" stroke="#000000" fill="#3f7f00"/>
  <ellipse ry="8.375" rx="6.625" id="svg_30" cy="19.375" cx="37.125" stroke-linecap="null" stroke-linejoin="null" stroke-dasharray="null" stroke="#000000" fill="#ffd4aa"/>
  <path d="m33.25,45.375c-0.28683,0.80046 -0.39696,1.71561 -0.55,2.5635c-0.16115,0.89282 -0.22464,1.77763 -0.34367,2.63383c-0.12369,0.88972 -0.16174,1.81443 -0.22419,2.70925c-0.06055,0.86767 -0.00714,1.78092 -0.00714,2.66708c0,0.86644 0,1.74429 0,2.65267c0,0.89683 0.13609,2.01571 -0.54167,2.27367c-0.65285,0.24848 -1.67483,-0.02546 -2.60721,0.08806c-0.91768,0.11173 -1.72613,0.22704 -2.65779,0.40127l-0.87467,0.01067l-0.88117,0" id="svg_34" stroke-linecap="null" stroke-linejoin="null" stroke-dasharray="null" stroke-width="null" stroke="#000000" fill="none"/>
  <path stroke="#000000" id="svg_35" d="m40.09375,44.6875c0.27032,0.80046 0.37411,1.71561 0.51835,2.5635c0.15188,0.89282 0.21171,1.77763 0.32389,2.63383c0.11656,0.88972 0.15242,1.81444 0.21129,2.70925c0.05707,0.86767 0.00673,1.78092 0.00673,2.66709c0,0.86644 0,1.74429 0,2.65266c0,0.89684 -0.12826,2.01572 0.51049,2.27367c0.61528,0.24848 1.57843,-0.02546 2.45715,0.08806c0.86487,0.11173 1.62678,0.22705 2.50483,0.40127l0.82432,0.01067l0.83046,0" stroke-linecap="null" stroke-linejoin="null" stroke-dasharray="null" stroke-width="null" fill="none"/>
  <path d="m34.25,31.375c-0.38083,-0.68683 -1.14205,-1.06683 -2.05619,-1.34192c-0.83908,-0.2525 -1.72241,-0.48033 -2.51873,-0.65537c-0.89551,-0.19685 -1.7818,-0.27956 -2.69592,-0.39854c-0.81221,-0.10572 -1.74066,-0.22692 -2.60417,-0.22917c-0.92764,-0.00242 -1.74227,0.23709 -2.35,0.85c-0.65849,0.6641 -0.98578,1.45327 -1.3401,2.275c-0.32932,0.76374 -0.17231,1.7747 -0.70573,2.52083c-0.45722,0.63954 -1.50933,0.53573 -2.41317,0.6805c-0.88423,0.14163 -1.10582,0.31125 -0.25183,0.08434c0.82386,-0.21891 2.02163,-0.49456 2.43583,0.1274c0.49154,0.73807 -0.2113,1.73832 -0.554,2.51227c-0.29695,0.67063 -0.15462,-0.1846 0.054,-1.0295c0.20856,-0.84466 0.5355,-1.67083 1.0625,-1.89323l0.377,0.76206l0.41467,0.86033l0.35119,0.79285" id="svg_38" stroke-linecap="null" stroke-linejoin="null" stroke-dasharray="null" stroke-width="null" stroke="#000000" fill="none"/>
  <path stroke="#000000" id="svg_39" d="m42.73686,30.5419c0.40105,-0.68683 1.20268,-1.06683 2.16534,-1.34192c0.88362,-0.2525 1.81384,-0.48032 2.65244,-0.65537c0.94305,-0.19686 1.87639,-0.27956 2.83902,-0.39854c0.85534,-0.10572 1.83306,-0.22692 2.74241,-0.22917c0.97688,-0.00242 1.83476,0.23709 2.47475,0.85c0.69345,0.6641 1.03811,1.45327 1.41124,2.275c0.34681,0.76374 0.18146,1.7747 0.74319,2.52083c0.48149,0.63954 1.58945,0.53573 2.54127,0.6805c0.93117,0.14163 1.16452,0.31125 0.2652,0.08434c-0.86758,-0.21891 -2.12894,-0.49456 -2.56513,0.12739c-0.51763,0.73807 0.22252,1.73832 0.58341,2.51227c0.31271,0.67064 0.16283,-0.1846 -0.05687,-1.0295c-0.21963,-0.84466 -0.56393,-1.67083 -1.1189,-1.89322l-0.39701,0.76206l-0.43668,0.86033l-0.36982,0.79285" stroke-linecap="null" stroke-linejoin="null" stroke-dasharray="null" stroke-width="null" fill="none"/>
  <ellipse ry="0.875" rx="0.875" id="svg_40" cy="16.5" cx="34.375" stroke-linecap="null" stroke-linejoin="null" stroke-dasharray="null" stroke-width="null" stroke="#000000" fill="#000000"/>
  <ellipse id="svg_41" ry="0.875" rx="0.875" cy="16.5625" cx="39.375" stroke-linecap="null" stroke-linejoin="null" stroke-dasharray="null" stroke-width="null" stroke="#000000" fill="#000000"/>
  <line id="svg_42" y2="16.25" x2="36.125" y1="14.25" x1="33.75" stroke-linecap="null" stroke-linejoin="null" stroke-dasharray="null" stroke-width="null" stroke="#000000" fill="none"/>
  <line id="svg_43" y2="16.5" x2="37.125" y1="13.75" x1="40.25" stroke-linecap="null" stroke-linejoin="null" stroke-dasharray="null" stroke-width="null" stroke="#000000" fill="none"/>
  <path d="m33.75,24.25c0.55,-0.675 1.27814,-1.23919 2.16667,-1.125c0.81036,0.10414 1.50817,0.76433 2.17083,1.34465l0.35933,0.80085" id="svg_44" stroke-linecap="null" stroke-linejoin="null" stroke-dasharray="null" stroke-width="null" stroke="#000000" fill="none"/>
  <line id="svg_45" y2="19.75" x2="34" y1="18.125" x1="36.375" stroke-linecap="null" stroke-linejoin="null" stroke-dasharray="null" stroke-width="null" stroke="#000000" fill="none"/>
  <line id="svg_46" y2="19.5" x2="34.5" y1="21" x1="37.875" stroke-linecap="null" stroke-linejoin="null" stroke-dasharray="null" stroke-width="null" stroke="#000000" fill="none"/>
  <ellipse ry="4.125" rx="3.625" id="svg_47" cy="19.25" cx="18.75" stroke-linecap="null" stroke-linejoin="null" stroke-dasharray="null" stroke-width="null" stroke="#000000" fill="#5f00bf"/>
  <ellipse id="svg_48" ry="4.125" rx="3.625" cy="18.4375" cx="53.125" stroke-linecap="null" stroke-linejoin="null" stroke-dasharray="null" stroke-width="null" stroke="#000000" fill="#5f00bf"/>
 </g>
</svg>