<svg width="75" height="75" xmlns="http://www.w3.org/2000/svg" xmlns:svg="http://www.w3.org/2000/svg">
 <!-- Created with SVG-edit - http://svg-edit.googlecode.com/ -->
 <title>Fire</title>

 <g>
  <title>Layer 1</title>
  <g id="svg_9">
   <path id="svg_5" d="m40.218319,71.802403c0,0 -12.90036,2.78025 -18.52758,-2.51334c-5.62722,-5.29359 -7.94039,-10.1646 -8.00711,-10.23132c-0.06673,-0.06672 -2.60231,-9.05248 -3.55872,-14.67971c-0.95641,-5.62723 2.73577,-8.27403 4.67082,-12.67794c1.93505,-4.40391 3.84787,-4.93773 4.4484,-9.00801c0.60053,-4.07028 -1.2678,-7.16192 -1.33452,-7.22864c-0.06673,-0.06673 -3.492,-5.7162 -3.55872,-5.78292c-0.06673,-0.06673 3.95906,-0.15569 6.67259,1.33452c2.71353,1.49021 4.62634,5.73843 4.55961,5.6717c-0.06672,-0.06672 3.1806,4.73754 2.89146,8.45196c-0.28914,3.71442 -1.82384,7.18416 -1.89057,7.11744c-0.06672,-0.06672 3.73665,-0.82296 4.84875,-2.93595c1.1121,-2.11299 0,-5.78291 -0.11121,-8.22953c-0.11121,-2.44662 -0.11121,-5.11565 0.1557,-7.85142c0.26691,-2.73577 -0.26691,-4.38167 0.77847,-6.56139c1.04538,-2.17972 5.4048,-5.16015 5.33808,-5.22687c-0.06672,-0.06672 0.51156,4.40391 0.9564,7.74021c0.44484,3.3363 -0.66726,5.33807 0.48933,8.60765c1.15659,3.26958 1.51245,5.96085 2.11299,7.56228c0.60054,1.60143 -1.2678,4.62633 -0.77847,5.67171c0.48933,1.04538 1.95729,3.62544 1.89057,3.55872c-0.06672,-0.06672 2.73576,-11.49911 3.55872,-13.90125c0.82296,-2.40214 1.84609,-5.04892 3.22509,-7.22864c1.379,-2.17972 2.84696,-3.38078 4.89323,-5.11566c2.04627,-1.73488 2.73576,-2.71353 4.22598,-3.3363c1.49022,-0.62277 7.629,-0.26691 7.56228,-0.33363c-0.06672,-0.06672 -5.60499,6.62811 -8.60766,10.85409c-3.00267,4.22598 -2.78025,4.00355 -2.84697,8.83007c-0.06672,4.82652 -1.71264,4.62633 1.77936,11.56584c3.492,6.93951 2.84697,2.84698 3.89235,8.22954c1.04538,5.38256 0.28913,1.0676 1.1121,6.7838c0.82297,5.7162 -0.1557,1.73487 0,6.22776c0.1557,4.49289 0.17793,2.73576 -1.44573,6.11655c-1.62366,3.38079 -0.93417,1.51245 -4.00356,5.33808c-3.06939,3.82563 -15.39146,3.1806 -15.39146,3.1806z" stroke-linecap="null" stroke-linejoin="null" stroke-dasharray="null" stroke-width="null" stroke="#000000" fill="#FF0000"/>
   <path id="svg_7" d="m40.218319,69.355783c-4.09389,1.27365 -9.93848,0.6671 -12.18861,-0.40035c-2.25013,-1.06745 -8.16281,-7.16193 -8.16281,-7.16193c0,0 -2.76018,-3.75135 -3.66993,-7.11744c-0.90975,-3.36608 -0.77847,-8.11832 -0.77847,-8.11832c0,0 0.0204,-6.67309 1.1121,-9.67527c1.0917,-3.00218 4.78203,-8.67438 4.78203,-8.67438c0,0 1.22379,10.8484 2.43072,13.51094c1.20693,2.66253 7.14304,2.89845 5.68744,3.62625c-1.45561,0.7278 3.57928,-10.21255 4.60426,-14.64608c1.02498,-4.43353 0.73398,-10.16459 0.73398,-10.16459c0,0 1.80996,13.64904 3.44751,17.01512c1.63755,3.36608 5.00445,9.45285 5.00445,9.45285c0,0 2.28508,-15.28676 3.492,-18.08274c1.20692,-2.79598 3.95907,-6.71708 3.95907,-6.71708c0,0 0.33363,12.10229 0.33363,16.01423c0,3.91194 2.55783,11.89947 2.55783,11.89947c0,0 2.53727,7.41108 0.44484,10.23131c-2.09243,2.82023 -3.43796,2.7503 -6.89502,5.11566c-3.45706,2.36536 -2.80113,2.6187 -6.89502,3.89235z" stroke-linecap="null" stroke-linejoin="null" stroke-dasharray="null" stroke-width="0" stroke="#000000" fill="#ff7f00"/>
   <path id="svg_8" d="m36.458609,68.920923c-1.8582,0.50029 -6.43225,-1.42938 -6.43225,-1.42938c0,0 -5.43167,-3.35907 -5.47455,-3.40195c-0.04288,-0.04287 -3.24471,-3.10177 -3.95941,-4.74557c-0.71469,-1.64379 -1.35792,-4.78845 -1.50086,-7.21841c-0.14293,-2.42996 0.28588,-13.57919 0.28588,-13.57919c0,0 1.85821,6.0749 3.2876,7.86164c1.42938,1.78673 4.85992,4.71698 4.85992,4.71698c0,0 4.50257,-5.50315 5.64608,-7.79017c1.14351,-2.28702 1.71526,-3.78787 1.71526,-3.78787c0,0 0.21441,2.07261 1.71527,4.14522c1.50086,2.07261 5.71755,8.21898 5.67467,8.17611c-0.04288,-0.04288 3.68783,-4.88851 4.33105,-6.3179c0.64322,-1.42939 1.28645,-4.28817 1.24357,-4.33105c-0.04288,-0.04288 1.97255,10.0486 1.97255,10.0486c0,0 -0.28588,7.14694 -1.14351,8.43339c-0.85763,1.28645 -5.78902,5.50314 -5.78902,5.50314c0,0 -4.57405,3.21612 -6.43225,3.71641z" stroke-linecap="null" stroke-linejoin="null" stroke-dasharray="null" stroke-width="0" stroke="#000000" fill="#ffff00"/>
  </g>
 </g>
</svg>