<svg width="75" height="75" xmlns="http://www.w3.org/2000/svg" xmlns:svg="http://www.w3.org/2000/svg">
 <!-- Created with SVG-edit - http://svg-edit.googlecode.com/ -->
 <title>Goblin</title>
 <g>
  <title>Layer 1</title>
  <path id="svg_16" d="m27.53469,26.42348c-7.00623,0 -15.90302,-2.2242 -15.96975,-2.29092c-0.06672,-0.06672 -4.6041,-5.27136 0.40035,-13.94573c5.00445,-8.67438 -6.56139,-4.11477 -5.22687,8.8968c1.33452,13.01157 16.23665,11.121 16.16993,11.05427c-0.06672,-0.06672 4.62633,-3.71442 4.62633,-3.71442z" stroke-linecap="null" stroke-linejoin="null" stroke-dasharray="null" stroke-width="null" stroke="#000000" fill="#b0d858"/>
  <path stroke="#000000" id="svg_17" d="m47.28961,25.72502c6.33896,0 14.38845,-2.2242 14.44881,-2.29092c0.06037,-0.06672 4.16561,-5.27135 -0.36222,-13.94573c-4.52784,-8.67438 5.9365,-4.11477 4.72907,8.8968c-1.20742,13.01156 -14.69031,11.12099 -14.62994,11.05427c0.06037,-0.06672 -4.18573,-3.71442 -4.18573,-3.71442z" stroke-linecap="null" stroke-linejoin="null" stroke-dasharray="null" stroke-width="null" fill="#b0d858"/>
  <path stroke="#000000" id="svg_19" d="m49.39623,42.03632c-0.02491,0.03915 -1.97687,9.94484 0,14c1.97687,4.05516 8.99644,5.00178 13.09786,2.94306c4.10143,-2.05872 -0.11121,5.00445 0,5.00445c0.11121,0 -9.06939,1.10587 -13.09786,0.05249c-4.02847,-1.05338 -6.96886,-16.04448 -7,-16c-0.03114,0.04448 7,-6 7,-6z" stroke-linecap="null" stroke-linejoin="null" stroke-dasharray="null" stroke-width="null" fill="#b0d858"/>
  <path id="svg_18" d="m26,42c0.02491,0.03915 1.97687,9.94484 0,14c-1.97687,4.05516 -8.99644,5.00178 -13.09786,2.94306c-4.10143,-2.05872 0.11121,5.00445 0,5.00445c-0.11121,0 9.06939,1.10587 13.09786,0.05249c4.02847,-1.05338 6.96886,-16.04448 7,-16c0.03114,0.04448 -7,-6 -7,-6z" stroke-linecap="null" stroke-linejoin="null" stroke-dasharray="null" stroke-width="null" stroke="#000000" fill="#b0d858"/>
  <ellipse ry="9.78648" rx="16.01423" id="svg_14" cy="33.65213" cx="37.5" stroke-linecap="null" stroke-linejoin="null" stroke-dasharray="null" stroke-width="null" stroke="#000000" fill="#b0d858"/>
  <path id="svg_4" d="m23.89821,14.96886c0,0 -2.89146,-2.11299 -3.66993,-4.89324c-0.77847,-2.78025 -1.55694,-0.77847 -1.62366,-0.84519c-0.06672,-0.06672 1.29003,8.40747 4.07028,8.62989c2.78025,0.22242 1.22331,-2.89146 1.22331,-2.89146z" stroke-linecap="null" stroke-linejoin="null" stroke-dasharray="null" stroke="#000000" fill="#b0d858"/>
  <path stroke="#000000" id="svg_5" d="m49.77156,15.14728c0,0 3.61773,-2.11299 4.59173,-4.89324c0.97401,-2.78025 1.94801,-0.77847 2.03151,-0.84519c0.08348,-0.06673 -1.61407,8.40747 -5.09267,8.62989c-3.47858,0.22242 -1.53057,-2.89146 -1.53057,-2.89146z" stroke-linecap="null" stroke-linejoin="null" stroke-dasharray="null" fill="#b0d858"/>
  <ellipse stroke-linejoin="null" stroke-linecap="null" stroke-dasharray="null" ry="7.89591" rx="14.45729" id="svg_1" cy="17.86032" cx="37.46582" stroke-width="null" stroke="#000000" fill="#b0d858"/>
  <ellipse transform="rotate(146.6015167236328 35.98754119873047,39.54626083374024) " id="svg_7" cy="39.54626" cx="35.98754" stroke-linecap="null" stroke-linejoin="null" stroke-dasharray="null" stroke-width="null" stroke="#000000" fill="#b0d858"/>
  <ellipse transform="rotate(10 31.400127410888707,15.58051300048828) " ry="0.55605" rx="1.1121" id="svg_8" cy="15.58051" cx="31.40013" stroke-linecap="null" stroke-linejoin="null" stroke-dasharray="null" stroke-width="null" stroke="#000000" fill="#000000"/>
  <ellipse id="svg_9" transform="rotate(170 42.93816757202148,15.455404281616211) " ry="0.55605" rx="1.1121" cy="15.45541" cx="42.93817" stroke-linecap="null" stroke-linejoin="null" stroke-dasharray="null" stroke-width="null" stroke="#000000" fill="#000000"/>
  <path d="m39.26824,16.41459c-0.9008,0 -1.77535,-0.04002 -2.65937,0.0833c-0.86688,0.12092 -1.69501,0.42676 -2.46886,0.85076c-0.76937,0.42154 -1.56753,0.79493 -2.25334,1.35965c-0.68445,0.5636 -0.03782,0.70896 0.8591,0.70896c0.88412,0 1.80403,0.0922 2.65058,-0.13134c0.82225,-0.21713 1.60532,-0.61933 2.49433,-0.61922l0.81039,0.2738" id="svg_10" stroke-linecap="null" stroke-linejoin="null" stroke-dasharray="null" stroke-width="null" stroke="#000000" fill="none"/>
  <path d="m29.50956,21.66926c0.86443,0.16681 1.70531,0.39384 2.54219,0.66726c0.82193,0.26853 1.73842,0.31314 2.54567,0.0417c0.82449,-0.27724 1.59689,-0.99807 2.40689,-0.78404c0.85511,0.22594 1.53295,0.74234 2.43909,0.74234l0.8657,-0.12511l0.80868,-0.33897l0.7778,-0.40996" id="svg_11" stroke-linecap="null" stroke-linejoin="null" stroke-dasharray="null" stroke-width="null" stroke="#000000" fill="none"/>
  <line id="svg_12" y2="15.33029" x2="33.2629" y1="13.24511" x1="29.00912" stroke-linecap="null" stroke-linejoin="null" stroke-dasharray="null" stroke-width="null" stroke="#000000" fill="none"/>
  <line transform="rotate(-60.1409912109375 43.02157592773438,14.037477493286135) " id="svg_13" y2="15.08007" x2="45.14847" y1="12.99488" x1="40.89469" stroke-linecap="null" stroke-linejoin="null" stroke-dasharray="null" stroke-width="null" stroke="#000000" fill="none"/>
  <path stroke="#000000" id="svg_15" d="m23.42082,38.76779c0,0 28.79275,-0.66726 28.73667,-0.73398c-0.05608,-0.06672 -7.42255,11.96619 -13.31198,12.85587c-5.88943,0.88967 -15.42469,-12.12189 -15.42469,-12.12189z" stroke-linecap="null" stroke-linejoin="null" stroke-dasharray="null" stroke-width="null" fill="#7f3f00"/>
  <ellipse stroke="#000000" ry="1" rx="1" id="svg_25" cy="37" cx="38" stroke-linecap="null" stroke-linejoin="null" stroke-dasharray="null" stroke-width="null" fill="#000000"/>
  <ellipse id="svg_26" stroke="#000000" ry="1" rx="1" cy="29" cx="31" stroke-linecap="null" stroke-linejoin="null" stroke-dasharray="null" stroke-width="null" fill="#b0d858"/>
  <ellipse id="svg_27" stroke="#000000" ry="1" rx="1" cy="29" cx="44" stroke-linecap="null" stroke-linejoin="null" stroke-dasharray="null" stroke-width="null" fill="#b0d858"/>
 </g>
</svg>