<svg width="75" height="75" xmlns="http://www.w3.org/2000/svg" xmlns:svg="http://www.w3.org/2000/svg">
 <!-- Created with SVG-edit - http://svg-edit.googlecode.com/ -->
 <g>
  <title>Layer 1</title>
  <path id="svg_92" d="m62.16858,44.67711c0,0.88067 0.10938,1.76592 0.22857,2.62353c0.12163,0.87523 0.37515,1.80354 0.12437,2.65098c-0.24538,0.8292 -1.04942,1.39718 -1.71765,1.97255c-0.6639,0.57165 -1.47271,0.97769 -2.21229,1.42353c-0.77026,0.46433 -1.58004,1.1009 -1.08057,1.32941c0.81859,0.3745 1.70394,0.28599 2.61051,0.34622c0.8867,0.0589 1.75359,0.09275 2.63284,0.29838c0.82455,0.19284 1.76992,0.31437 2.64951,0.17893c0.85868,-0.13222 1.65412,-0.63773 1.58824,-1.52332c-0.06669,-0.89651 -0.24128,-1.74376 -0.49396,-2.58037c-0.26079,-0.86345 -0.62206,-1.70013 -0.68251,-2.57866c-0.06075,-0.88278 0,-1.78571 0,-2.65883l0.11764,-0.85882" stroke-linecap="null" stroke-linejoin="null" stroke-dasharray="null" stroke-width="null" stroke="#000000" fill="#76777a"/>
  <path id="svg_90" d="m35.4627,43.73594c0,0.88067 0.10938,1.76592 0.22857,2.62353c0.12163,0.87523 0.37515,1.80354 0.12437,2.65098c-0.24538,0.8292 -1.04942,1.39718 -1.71765,1.97255c-0.6639,0.57165 -1.47271,0.97769 -2.21229,1.42353c-0.77026,0.46433 -1.58004,1.1009 -1.08057,1.32941c0.81859,0.3745 1.70394,0.28599 2.61051,0.34622c0.8867,0.0589 1.75359,0.09275 2.63284,0.29838c0.82455,0.19284 1.76992,0.31437 2.64951,0.17893c0.85868,-0.13222 1.65412,-0.63773 1.58824,-1.52332c-0.06669,-0.89651 -0.24128,-1.74376 -0.49396,-2.58037c-0.26079,-0.86345 -0.62206,-1.70013 -0.68251,-2.57866c-0.06075,-0.88278 0,-1.78571 0,-2.65883l0.11764,-0.85882" stroke-linecap="null" stroke-linejoin="null" stroke-dasharray="null" stroke-width="null" stroke="#000000" fill="#76777a"/>
  <path transform="rotate(137.84657287597656 3.805699825286866,32.37840270996094) " d="m3.23529,29.23529c-0.45051,0.80706 -0.76343,1.63199 -0.89114,2.49114c-0.12909,0.86843 -0.03776,1.7705 -0.15341,2.63159c-0.11707,0.87167 -0.16145,1.57874 0.39749,0.87972c0.54622,-0.68311 1.08408,-1.39053 1.37255,-2.23774l0.39706,-0.76716l0.5951,-0.66516l0.54118,-0.69882" id="svg_78" stroke-linecap="null" stroke-linejoin="null" stroke-dasharray="null" stroke-width="null" stroke="#000000" fill="#ffffff"/>
  <rect id="svg_75" height="3.88235" width="16.47059" y="34.29412" x="2.41176" stroke-linecap="null" stroke-linejoin="null" stroke-dasharray="null" stroke-width="null" stroke="#000000" fill="#76777a"/>
  <path d="m67.2353,29.94118c0.8869,0.78965 1.66187,1.09763 2.55482,1.44188c0.84212,0.32465 1.61715,0.75281 2.28251,1.39545c0.62824,0.60678 1.04982,1.38116 1.5291,2.14071c0.47691,0.75579 1.07973,1.71614 0.53553,1.96314c-0.78233,0.35508 -1.70197,-0.24878 -2.56998,-0.48233l-0.84962,-0.3059l-0.68361,-0.5349l-0.58698,-0.70039" id="svg_67" stroke-linecap="null" stroke-linejoin="null" stroke-dasharray="null" stroke-width="null" stroke="#000000" fill="#76777a"/>
  <ellipse ry="13.29412" rx="24.82353" id="svg_66" cy="37.47059" cx="46.64706" stroke-linecap="null" stroke-linejoin="null" stroke-dasharray="null" stroke-width="null" stroke="#000000" fill="#76777a"/>
  <rect transform="rotate(35.281211853027344 12.588234901428224,27.470588684082035) " id="svg_73" height="8.47059" width="18" y="23.23529" x="3.58824" stroke-linecap="null" stroke-linejoin="null" stroke-dasharray="null" stroke-width="null" stroke="#000000" fill="#76777a"/>
  <ellipse stroke="#000000" ry="1" rx="1.17647" id="svg_79" cy="20.82353" cx="7.82353" stroke-linecap="null" stroke-linejoin="null" stroke-dasharray="null" stroke-width="null" fill="#000000"/>
  <ellipse ry="2.11765" rx="1.76471" id="svg_81" cy="26.05882" cx="18.52941" stroke-linecap="null" stroke-linejoin="null" stroke-dasharray="null" stroke-width="null" stroke="#000000" fill="#76777a"/>
  <path d="m20.05882,27.58824c0.4,-0.8 0.56865,-1.66737 0.96126,-2.46714c0.38201,-0.77818 1.4759,-1.13882 2.21276,-0.70688c0.73268,0.42949 1.47278,1.23223 1.53186,2.0799c0.05892,0.84542 -0.84408,1.4 -1.68488,1.70841l-0.84265,0.20923l-0.88171,-0.00002" id="svg_83" stroke-linecap="null" stroke-linejoin="null" stroke-dasharray="null" stroke-width="null" stroke="#000000" fill="#76777a"/>
  <ellipse ry="0.47059" rx="0.11765" id="svg_84" cy="25.70588" cx="17.94118" stroke-linecap="null" stroke-linejoin="null" stroke-dasharray="null" stroke-width="null" stroke="#000000" fill="none"/>
  <path d="m27.94118,29.82353c-0.90084,0.11765 -1.76953,0.21454 -2.63357,0.23529c-0.89919,0.0216 -1.80588,0.01746 -2.64,-0.2811c-0.81662,-0.29229 -1.55068,-0.53708 -1.8833,0.26149c-0.33722,0.80962 -0.55866,1.61856 -0.72549,2.4607c-0.17698,0.89338 -0.27284,1.76164 -0.59122,2.57491c-0.32488,0.82988 -0.82029,1.56921 -0.932,2.42433c-0.10605,0.81178 0.78332,1.2229 1.56408,1.57647c0.83936,0.38011 1.62031,0.77159 2.41992,1.15477l0.75098,0.45196" id="svg_85" stroke-linecap="null" stroke-linejoin="null" stroke-dasharray="null" stroke-width="null" stroke="#000000" fill="#76777a"/>
  <path d="m19.82353,28.64706c0.74117,0.38824 1.31252,1.06317 1.8618,1.74416c0.55729,0.69091 0.90578,1.50134 1.07953,2.38714c0.16826,0.85784 0.29068,1.7777 0.00408,2.61741c-0.27619,0.80921 -1.1847,1.17986 -2.016,1.51263c-0.79216,0.3171 -1.64639,0.46348 -2.47843,0.3269c-0.85923,-0.14104 -1.75067,-0.27438 -2.42241,-0.78823c-0.6891,-0.52714 -0.62746,-1.44503 -0.49916,-2.31765c0.1301,-0.88482 -0.07198,-1.79488 0.27731,-2.61796c0.34201,-0.8059 1.28185,-1.09448 2.08739,-1.43835c0.80302,-0.3428 1.57647,-0.72016 2.43921,-0.95545l0.81929,-0.24518l-0.36439,0.12806" id="svg_86" stroke-linecap="null" stroke-linejoin="null" stroke-dasharray="null" stroke-width="0" stroke="#000000" fill="#76777a"/>
  <line id="svg_87" y2="24.52941" x2="17.35294" y1="24.88235" x1="19.58824" stroke-linecap="null" stroke-linejoin="null" stroke-dasharray="null" stroke="#000000" fill="none"/>
  <path d="m29.82353,45.47059c0,0.88067 0.10938,1.76592 0.22857,2.62353c0.12164,0.87523 0.37515,1.80354 0.12437,2.65098c-0.24538,0.8292 -1.04942,1.39718 -1.71765,1.97255c-0.66391,0.57165 -1.47271,0.97769 -2.2123,1.42353c-0.77026,0.46433 -1.58004,1.1009 -1.08057,1.32941c0.81859,0.3745 1.70394,0.28599 2.61051,0.34622c0.8867,0.05891 1.75359,0.09276 2.63284,0.29839c0.82454,0.19284 1.76991,0.31437 2.64951,0.17892c0.85867,-0.13222 1.65412,-0.63773 1.58824,-1.52332c-0.06669,-0.89651 -0.24128,-1.74376 -0.49396,-2.58037c-0.26079,-0.86346 -0.62206,-1.70013 -0.68251,-2.57867c-0.06075,-0.88278 0,-1.78571 0,-2.65882l0.11765,-0.85882" id="svg_89" stroke-linecap="null" stroke-linejoin="null" stroke-dasharray="null" stroke-width="null" stroke="#000000" fill="#76777a"/>
  <path id="svg_91" d="m57.81564,46.08888c0,0.88067 0.10938,1.76592 0.22857,2.62353c0.12163,0.87523 0.37515,1.80354 0.12437,2.65098c-0.24538,0.8292 -1.04942,1.39718 -1.71765,1.97255c-0.6639,0.57165 -1.47271,0.97769 -2.21229,1.42353c-0.77026,0.46433 -1.58004,1.1009 -1.08057,1.32941c0.81859,0.3745 1.70394,0.28599 2.61051,0.34622c0.8867,0.0589 1.75359,0.09275 2.63284,0.29838c0.82455,0.19284 1.76992,0.31437 2.64951,0.17893c0.85868,-0.13222 1.65412,-0.63773 1.58824,-1.52332c-0.06669,-0.89651 -0.24128,-1.74376 -0.49396,-2.58037c-0.26079,-0.86345 -0.62206,-1.70013 -0.68251,-2.57866c-0.06075,-0.88278 0,-1.78571 0,-2.65883l0.11764,-0.85882" stroke-linecap="null" stroke-linejoin="null" stroke-dasharray="null" stroke-width="null" stroke="#000000" fill="#76777a"/>
 </g>
</svg>