<svg width="75" height="75" xmlns="http://www.w3.org/2000/svg" xmlns:svg="http://www.w3.org/2000/svg">
 <!-- Created with SVG-edit - http://svg-edit.googlecode.com/ -->
 <g>
  <title>Layer 1</title>
  <path d="m72.88235,38.05882c0,0.88392 -0.29372,1.72348 -0.35294,2.60785c-0.05843,0.87255 -0.15247,1.75803 -0.55967,2.50529c-0.43823,0.8042 -1.16769,1.35507 -1.95576,1.80902c-0.70952,0.4087 -1.46616,0.78416 -2.29131,1.13494c-0.81789,0.3477 -1.71737,0.72307 -2.60502,1.00172c-0.83517,0.26218 -1.61894,0.35785 -2.52551,0.54118c-0.95095,0.19231 -1.80296,0.4278 -2.51292,0.59827c-0.90146,0.21645 -1.80437,0.40167 -2.70277,0.51937c-0.96609,0.12656 -1.69449,0.20874 -2.5581,0.36596c-0.89044,0.16211 -1.85142,0.36632 -2.67506,0.47941c-0.94581,0.12987 -1.75897,0.13191 -2.70863,0.25863c-0.73412,0.09796 -1.77323,0.22783 -2.59317,0.29033c-0.88783,0.06768 -1.80169,0.219 -2.6211,0.23845c-0.9384,0.02228 -1.88643,0.00251 -2.79119,0.00251c-0.81065,0 -1.76253,0 -2.61743,0c-0.91513,0 -1.77757,0 -2.62502,0c-0.90847,0 -1.85341,0 -2.71616,0c-0.90196,0 -1.76977,0 -2.68235,0c-0.94129,0 -1.66023,0 -2.61667,0c-0.87908,0 -1.74914,0 -2.6249,0c-0.89716,0 -1.83782,0.01995 -2.71969,-0.06761c-0.89324,-0.08868 -1.78664,-0.3642 -2.63457,-0.62404c-0.76947,-0.23579 -1.75426,-0.47672 -2.43022,-1.03108c-0.64585,-0.52967 -1.19583,-1.30078 -1.63965,-2.03953c-0.45894,-0.76392 -0.58527,-1.66612 -0.8049,-2.56547c-0.20234,-0.82858 -0.16664,-1.72073 -0.22604,-2.63527c-0.056,-0.8622 -0.05675,-1.78755 -0.09214,-2.62428c-0.03813,-0.90152 -0.06955,-1.76837 -0.17839,-2.64802c-0.11445,-0.925 -0.39274,-1.74857 -0.52665,-2.63482c-0.13008,-0.86096 -0.1229,-1.79374 -0.11796,-2.66175c0.00502,-0.88151 0.1932,-1.74882 0.56471,-2.53872c0.38896,-0.82704 0.86132,-1.5565 1.37892,-2.28726c0.51697,-0.72986 0.98459,-1.52667 1.75775,-1.96653c0.74019,-0.4211 1.74961,-0.26386 2.57408,-0.26386c0.86071,0 1.82263,-0.00865 2.65898,0c0.94807,0.0098 1.77463,0.14958 2.71639,0.22541c0.87896,0.07078 1.71222,0.16521 2.65506,0.26855c0.84568,0.09269 1.74939,0.08485 2.64045,0.0948c0.87735,0.0098 1.68237,0.08201 2.58308,0.17594c0.89919,0.09377 1.86018,0.19922 2.57443,0.28063c0.9592,0.10933 1.68463,0.17305 2.67247,0.29412c0.96216,0.11792 1.77635,0.36368 2.63555,0.58943c0.86401,0.22701 1.76123,0.32146 2.68618,0.54171c0.87517,0.20839 1.74124,0.43792 2.61177,0.60173c0.82178,0.15463 1.77628,0.281 2.55435,0.49443c0.84827,0.23269 1.75403,0.40883 2.56182,0.5509c0.95079,0.16723 1.83005,0.29463 2.68382,0.45098c0.89162,0.16328 1.73907,0.3038 2.67402,0.43382c0.89317,0.12422 1.74222,0.33229 2.48676,0.46986c0.94246,0.17414 1.82166,0.39828 2.63279,0.73522c0.82562,0.34296 1.70518,0.63559 2.49333,0.94416c0.87401,0.34218 1.62496,0.83701 2.25602,1.43718c0.63918,0.60789 0.67469,1.62479 1.15453,2.32375c0.49667,0.72345 1.02804,1.37906 1.55745,2.16582l0.58571,0.6577l0.72017,0.48486l0.8353,-0.22084" id="svg_18" stroke-linecap="null" stroke-linejoin="null" stroke-dasharray="null" stroke-width="null" stroke="#000000" fill="#7f3f00"/>
  <path stroke="#000000" d="m10.64706,24.30273c0.52978,-0.6015 1.3335,-0.87477 2.2512,-1.06167c0.85335,-0.1738 1.71699,-0.3586 2.52993,-0.55412c0.95117,-0.22876 1.78606,-0.3932 2.63703,-0.47801c0.84059,-0.08378 1.80172,-0.21467 2.64431,-0.34407c0.87277,-0.13404 1.75528,-0.21344 2.47904,-0.27486c0.95963,-0.08144 1.94505,-0.1863 2.79665,-0.29876c0.86718,-0.11451 1.73982,-0.2175 2.58998,-0.33764c0.86127,-0.12171 1.74268,-0.3937 2.57533,-0.59192c0.83486,-0.19875 1.70525,-0.35556 2.5908,-0.47453c0.91135,-0.12244 1.73457,-0.2544 2.61173,-0.36281c0.87592,-0.10826 1.73504,-0.28635 2.61655,-0.47977c0.90828,-0.19929 1.72949,-0.43743 2.56418,-0.61744c0.8991,-0.1939 1.74432,-0.52412 2.60571,-0.69451c0.8189,-0.16199 1.69911,-0.25546 2.53236,-0.3611c0.83457,-0.10581 1.79904,-0.14952 2.66123,-0.23885c0.86184,-0.08929 1.77205,-0.24389 2.58423,-0.42049c0.8704,-0.18926 1.71557,-0.27341 2.60563,-0.41565c0.87994,-0.14063 1.76684,-0.12004 2.64845,-0.12004c0.90462,0 1.62212,0 2.56492,0c0.95555,0 1.83485,-0.01672 2.68264,0.23598c0.79817,0.23791 1.65871,0.5473 2.44168,0.91125c0.84825,0.3943 1.64358,0.74825 2.35737,1.29064c0.72845,0.55353 1.32321,1.24191 1.69176,2.03413c0.3784,0.81338 0.65166,1.69207 0.96986,2.49681c0.33881,0.85684 0.55398,1.73587 0.6802,2.5867c0.13242,0.89259 0.22824,1.77467 0.44461,2.66079c0.21133,0.86546 0.4373,1.72941 0.67011,2.58383c0.24295,0.89165 0.4386,1.69586 0.68767,2.58765c0.25161,0.90085 0.40794,1.79255 0.52449,2.67497l0.16613,0.87731l0.15043,0.8711l0.14966,0.90647" id="svg_17" stroke-linecap="null" stroke-linejoin="null" stroke-dasharray="null" stroke-width="null" fill="#7f3f00"/>
  <path stroke="#000000" id="svg_4" d="m73.05309,59.58824c0,0 -52.88638,11.41176 -52.93763,11.35294c-0.05124,-0.05883 0.05125,-22.25229 0,-22.35294c-0.05124,-0.10066 53.4501,-9.47059 53.29635,-9.52942c-0.15374,-0.05882 -0.35872,20.52942 -0.35872,20.52942z" stroke-linecap="null" stroke-linejoin="null" stroke-dasharray="null" fill="#7f3f00"/>
  <path id="svg_5" d="m20.17647,70.88235c0,0 -16,-10 -16.05882,-10.05882c-0.05882,-0.05882 0.05882,-22.33866 0,-22.35294c-0.05882,-0.01429 16.05882,10.41176 16,10.35294c-0.05882,-0.05882 0.05882,22.05882 0.05882,22.05882z" stroke-linecap="null" stroke-linejoin="null" stroke-dasharray="null" stroke-width="null" stroke="#000000" fill="#7f3f00"/>
  <path stroke="#000000" d="m4.29412,38.67094c-0.1152,-0.79205 -0.14807,-1.75431 0.1188,-2.61045c0.26748,-0.85808 0.76638,-1.66928 1.09294,-2.48887c0.33952,-0.85213 0.64516,-1.64954 0.93116,-2.53411c0.26859,-0.83072 0.50807,-1.74113 0.72345,-2.57716c0.22127,-0.85887 0.17141,-1.79509 0.52188,-2.58318c0.3789,-0.85203 1.2174,-1.2739 2.09571,-1.5055c0.82739,-0.21818 1.72278,-0.19518 2.61469,-0.19518c0.90137,0 1.78219,0.1271 2.64647,0.35642c0.85515,0.2269 1.7226,0.54683 2.33727,1.21189c0.53842,0.58256 1.04344,1.3355 1.50341,2.17163c0.41913,0.7619 0.71816,1.65467 0.82582,2.51596c0.10986,0.87886 0.08572,1.79655 0.12453,2.69769c0.03872,0.89898 0.15926,1.8017 0.32661,2.6895c0.1563,0.82918 0.41514,1.71612 0.4759,2.6494c0.05574,0.85616 0.01429,1.75781 0.01429,2.65629c0,0.9198 0,1.80294 0,2.71131c0,0.87539 -0.00126,1.7952 -0.11765,2.67563l-0.14369,0.88171l-0.20926,0.87964" id="svg_15" stroke-linecap="null" stroke-linejoin="null" stroke-dasharray="null" stroke-width="null" fill="#7f3f00"/>
  <ellipse transform="rotate(-3.270489454269409 48.647060394286925,43.35293960571294) " stroke="#000000" ry="5.52941" rx="1.64706" id="svg_19" cy="43.35294" cx="48.64706" stroke-linecap="null" stroke-linejoin="null" stroke-dasharray="null" stroke-width="null" fill="#cece04"/>
  <line id="svg_20" y2="44.64706" x2="48.76471" y1="41.70588" x1="48.29412" stroke-linecap="null" stroke-linejoin="null" stroke-dasharray="null" stroke-width="null" stroke="#000000" fill="none"/>
 </g>
</svg>