<svg width="75" height="75" xmlns="http://www.w3.org/2000/svg" xmlns:svg="http://www.w3.org/2000/svg">
 <!-- Created with SVG-edit - http://svg-edit.googlecode.com/ -->
 <g>
  <title>Layer 1</title>
  <g stroke="null" id="svg_125">
   <path stroke="#000000" id="svg_122" d="m55.54312,69.05185c-0.79297,0.30208 -1.63129,0.81327 -1.93166,1.7693c-0.30711,0.97747 0.63984,0.96111 1.46631,0.81991c0.76715,-0.13106 1.61623,0.14385 2.45336,0.13157l0.61249,-0.63273l0.01176,-1.0236" stroke-linecap="null" stroke-linejoin="null" stroke-dasharray="null" stroke-width="null" fill="#999999"/>
   <rect stroke="#000000" id="svg_123" height="7.47997" width="2.23372" y="62.00341" x="55.87819" stroke-linecap="null" stroke-linejoin="null" stroke-dasharray="null" stroke-width="null" fill="#b2b2b2"/>
   <path stroke="#000000" d="m51.27469,52.57559c0.03172,1.09284 0.15143,2.14946 0.32552,3.22195c0.16678,1.02742 0.35617,2.07944 0.68553,3.07233c0.32711,0.98612 0.85726,1.87916 1.57633,2.48031c0.70213,0.58697 1.26865,1.34367 1.90238,2.04261c0.60968,0.67241 1.52043,0.5509 2.25606,0.12026c0.73865,-0.43242 0.66132,-1.43132 0.73713,-2.52037c0.07263,-1.04351 0.46311,-2.01012 0.7818,-3.01987c0.31182,-0.98798 0.52671,-2.01895 0.55843,-3.12445l-0.06418,-1.06446l-0.04751,-1.06446l-0.0723,-1.05623" id="svg_121" stroke-linecap="null" stroke-linejoin="null" stroke-dasharray="null" stroke-width="null" fill="#7f7f7f"/>
   <path stroke="#000000" id="svg_117" d="m60.90405,71.20953c-0.79297,0.30208 -1.63129,0.81327 -1.93166,1.7693c-0.30711,0.97747 0.63984,0.96111 1.46631,0.81991c0.76715,-0.13106 1.61623,0.14385 2.45336,0.13157l0.61249,-0.63273l0.01176,-1.0236" stroke-linecap="null" stroke-linejoin="null" stroke-dasharray="null" stroke-width="null" fill="#999999"/>
   <rect stroke="#000000" id="svg_118" height="7.47997" width="2.23372" y="64.1611" x="61.23911" stroke-linecap="null" stroke-linejoin="null" stroke-dasharray="null" stroke-width="null" fill="#b2b2b2"/>
   <path stroke="#000000" id="svg_115" d="m16.34135,67.3257c-0.79297,0.30208 -1.63129,0.81327 -1.93166,1.7693c-0.30711,0.97747 0.63984,0.96111 1.46631,0.81991c0.76715,-0.13106 1.61623,0.14385 2.45336,0.13157l0.61249,-0.63273l0.01176,-1.0236" stroke-linecap="null" stroke-linejoin="null" stroke-dasharray="null" stroke-width="null" fill="#999999"/>
   <rect stroke="#000000" id="svg_116" height="7.47997" width="2.23372" y="60.85265" x="16.56473" stroke-linecap="null" stroke-linejoin="null" stroke-dasharray="null" stroke-width="null" fill="#b2b2b2"/>
   <path stroke="#000000" d="m19.77925,71.56321c-0.79297,0.30208 -1.63129,0.81327 -1.93166,1.7693c-0.30711,0.97747 0.63984,0.96111 1.46631,0.81992c0.76716,-0.13106 1.61623,0.14385 2.45337,0.13157l0.61249,-0.63273l0.01176,-1.02361" id="svg_114" stroke-linecap="null" stroke-linejoin="null" stroke-dasharray="null" stroke-width="null" fill="#999999"/>
   <rect stroke="#000000" id="svg_112" height="7.47997" width="2.23372" y="64.51478" x="20.11431" stroke-linecap="null" stroke-linejoin="null" stroke-dasharray="null" stroke-width="null" fill="#b2b2b2"/>
   <ellipse stroke="#000000" ry="2.44537" rx="2.45709" id="svg_111" cy="40.78025" cx="62.77834" stroke-linecap="null" stroke-linejoin="null" stroke-dasharray="null" stroke-width="null" fill="#7f7f7f"/>
   <path stroke="#000000" d="m13.18978,11.43575c-0.44674,-0.81992 -0.37523,-1.90886 -0.44674,-2.98518c-0.07196,-1.08311 -0.33585,-2.10967 -0.69487,-3.08513c-0.35293,-0.95891 -0.65322,-1.96196 -1.10329,-2.89439c-0.44725,-0.92659 -1.10652,-1.7739 -1.9247,-1.82372c-0.80759,-0.04918 -1.21003,1.10149 -1.06102,2.18166c0.1418,1.02791 0.61667,1.99805 0.93072,2.99978c0.31652,1.00961 0.76271,1.89891 1.25576,2.78632c0.4929,0.88715 0.74342,1.934 1.0338,2.96451l0.14341,1.03569l0.37513,0.935" id="svg_102" stroke-linecap="null" stroke-linejoin="null" stroke-dasharray="null" stroke-width="null" fill="#7f7f7f"/>
   <path stroke="#000000" d="m16.9871,15.03189c0.0723,-1.06446 0.09605,-2.16516 0.11169,-3.25455c0.01586,-1.10492 0.09606,-2.15012 0.21399,-3.21389c0.11878,-1.0715 0.1682,-2.15094 0.35397,-3.22713c0.18117,-1.04954 0.71211,-2.1992 0.35853,-3.156c-0.35123,-0.95045 -1.52246,-1.06121 -2.28534,-0.66991c-0.77002,0.39496 -1.39106,1.27693 -1.76836,2.30153c-0.34631,0.94043 -0.33506,2.05028 -0.33506,3.16161c0,1.08184 -0.00387,2.16436 0.11118,3.22579c0.11472,1.05835 0.57755,1.97963 1.03918,2.86188l0.45672,0.87746" id="svg_101" stroke-linecap="null" stroke-linejoin="null" stroke-dasharray="null" stroke-width="null" fill="#7f7f7f"/>
   <path stroke="#000000" id="svg_99" d="m16.19696,42.35793c-0.39269,0.79345 -0.85537,1.74632 -1.00518,2.74052c-0.15893,1.05474 -0.32631,2.22562 -0.08694,3.29791c0.22858,1.02395 0.63608,1.93223 0.64537,2.98778c0.00978,1.11075 -0.21659,2.19057 -0.22338,3.27048c-0.00668,1.06423 -0.01297,2.13364 0,3.25514c0.01237,1.06882 0.05548,2.15799 0.11169,3.23441c0.05597,1.07171 0.36987,1.88172 1.17969,2.00244c0.79318,0.11825 2.01905,0.80972 2.48362,-0.08699c0.43143,-0.83277 -0.12619,-2.06956 -0.18242,-3.17649c-0.05424,-1.06744 -0.01862,-2.13372 -0.01862,-3.22695c0,-1.0865 0,-2.19469 0,-3.29405c0,-1.05161 -0.13078,-2.1848 0.1303,-3.23653c0.24846,-1.00087 1.18363,-1.36623 1.68021,-2.19834c0.51213,-0.85818 0.5349,-2.05125 0.5349,-3.12394l-0.44209,-0.85708" stroke-linecap="null" stroke-linejoin="null" stroke-dasharray="null" stroke-width="null" fill="#7f7f7f"/>
   <path stroke="#000000" d="m11.06774,15.89497c-0.24809,1.08189 -0.39163,2.1237 -0.44555,3.16249c-0.05673,1.0929 -0.00119,2.23267 -0.00119,3.28071c0,1.05326 0.04956,2.19112 0.11154,3.22245c0.06578,1.09469 0.15286,2.21864 0.21764,3.23523c0.07188,1.1279 0.15705,2.20952 0.26226,3.26465c0.10246,1.02756 0.19331,2.06358 0.29973,3.10977c0.11928,1.17267 0.14077,2.3601 0.2592,3.40708c0.12067,1.06677 0.12845,2.10825 0.41556,3.19184c0.27972,1.05567 0.7537,2.00607 1.14476,2.83853c0.41251,0.87809 0.99944,1.79842 1.59651,2.57481c0.57135,0.74295 1.12189,1.41912 2.04028,2.27641c0.42485,0.39658 1.1363,0.95544 1.85548,1.48986c0.86498,0.64276 1.61292,1.16155 2.46299,1.74178c0.66183,0.45174 1.44184,0.97455 2.17095,1.30849c0.80111,0.36692 1.61831,0.61848 2.45677,0.81165c0.91616,0.21107 1.64214,0.30638 2.50221,0.44041c0.80715,0.12578 1.74434,0.24591 2.59078,0.35964c0.75439,0.10136 1.61785,0.32583 2.43866,0.45206c0.90543,0.13925 1.62932,0.17962 2.56893,0.28134c0.83339,0.09022 1.7082,0.11527 2.54986,0.11527c0.8146,0 1.65501,0.05561 2.50892,-0.14384c0.78622,-0.18364 1.64694,-0.37749 2.46022,-0.48292c0.84997,-0.11018 1.6379,-0.32787 2.53914,-0.37862c0.86225,-0.04855 1.67489,-0.06646 2.55016,-0.13311c0.77501,-0.05902 1.56911,-0.01228 2.43312,-0.01228c0.87882,0 1.74558,0 2.54971,0c0.81129,0 1.69644,0.00009 2.55536,0c0.89842,-0.0001 1.72143,-0.01748 2.49748,-0.10134c0.85926,-0.09285 1.76471,-0.07949 2.54853,-0.40212c0.79377,-0.32672 1.4687,-0.98643 2.04904,-1.70793c0.68603,-0.85289 1.04194,-1.88052 1.23749,-2.9053c0.19457,-1.01963 0.18246,-2.08662 0.18271,-3.23235c0.00025,-1.14477 0.16629,-2.24455 -0.14966,-3.21615c-0.31802,-0.978 -1.02894,-1.62002 -1.70524,-2.35753c-0.65206,-0.71108 -1.39685,-1.27286 -2.15353,-1.62505c-0.79764,-0.37126 -1.60663,-0.70524 -2.30642,-0.94991c-0.97758,-0.34179 -1.75998,-0.45597 -2.59947,-0.56395c-0.79906,-0.10278 -1.69282,-0.23047 -2.55418,-0.37247c-0.88407,-0.14574 -1.73728,-0.27735 -2.38794,-0.35961c-0.9322,-0.11787 -1.80717,-0.1466 -2.67307,-0.19c-0.79248,-0.03972 -1.67351,-0.18329 -2.49212,-0.29908c-0.89983,-0.12728 -1.65902,-0.35209 -2.48043,-0.41562c-0.85984,-0.06651 -1.74166,-0.22437 -2.59335,-0.28923c-0.80913,-0.06161 -1.66174,0.00141 -2.46938,0c-0.85876,-0.0015 -1.74727,-0.14652 -2.50337,-0.29527c-0.85423,-0.16806 -1.67975,-0.33887 -2.56129,-0.4815c-0.80303,-0.12993 -1.62237,-0.16964 -2.48594,-0.30507c-0.8669,-0.13596 -1.68127,-0.27052 -2.50921,-0.50123c-0.82878,-0.23095 -1.62333,-0.31503 -2.46547,-0.74244c-0.78328,-0.39754 -1.42947,-1.01809 -2.11355,-1.66976c-0.72599,-0.6916 -1.40978,-1.3008 -2.00767,-2.03187c-0.64391,-0.78735 -1.2681,-1.5194 -1.61995,-2.44873c-0.37963,-1.00271 -0.51907,-2.03137 -0.72114,-3.10544c-0.20465,-1.08782 -0.32036,-2.16352 -0.42923,-3.18882c-0.11877,-1.11856 -0.38997,-2.1258 -0.61855,-3.1975c-0.21975,-1.03025 -0.47443,-2.04954 -0.89436,-2.9836c-0.43157,-0.95996 -0.99945,-1.7278 -1.58267,-2.55777c-0.55582,-0.79098 -1.28441,-1.51653 -2.09303,-1.37632c-0.83454,0.14471 -1.46886,0.92061 -1.9013,1.83911l-0.31719,0.99273l-0.22992,1.04758l-0.20997,1.06887" id="svg_97" stroke-linecap="null" stroke-linejoin="null" stroke-dasharray="null" stroke-width="null" fill="#7f7f7f"/>
   <path stroke="#000000" d="m20.11431,45.81485c-0.39269,0.79345 -0.85537,1.74632 -1.00517,2.74052c-0.15893,1.05473 -0.32632,2.22562 -0.08695,3.2979c0.22859,1.02396 0.63608,1.93223 0.64538,2.98779c0.00978,1.11075 -0.21659,2.19057 -0.22337,3.27047c-0.00669,1.06423 -0.01297,2.13364 0,3.25513c0.01236,1.06883 0.05547,2.15801 0.11169,3.23441c0.05597,1.07171 0.36987,1.88172 1.17968,2.00245c0.79318,0.11825 2.01905,0.80972 2.48362,-0.087c0.43144,-0.83277 -0.12618,-2.06955 -0.18242,-3.17649c-0.05423,-1.06744 -0.01862,-2.13371 -0.01862,-3.22694c0,-1.08651 0,-2.1947 0,-3.29406c0,-1.05161 -0.13078,-2.1848 0.1303,-3.23653c0.24845,-1.00086 1.18363,-1.36623 1.68021,-2.19834c0.51213,-0.85818 0.5349,-2.05126 0.5349,-3.12394l-0.44209,-0.85708" id="svg_98" stroke-linecap="null" stroke-linejoin="null" stroke-dasharray="null" stroke-width="null" fill="#7f7f7f"/>
   <ellipse stroke="#000000" ry="0.71923" rx="1.67529" id="svg_103" cy="14.31267" cx="10.84437" stroke-linecap="null" stroke-linejoin="null" stroke-dasharray="null" stroke-width="null" fill="#000000"/>
   <ellipse stroke="#000000" id="svg_104" ry="0.71923" rx="1.67529" cy="14.67228" cx="15.20013" stroke-linecap="null" stroke-linejoin="null" stroke-dasharray="null" stroke-width="null" fill="#000000"/>
   <path stroke="#000000" d="m12.51966,15.75112c-0.53609,0.83411 -1.27886,1.43954 -1.69748,2.37115c-0.41822,0.93072 -0.60727,2.03269 -0.53624,3.09798c0.07188,1.07807 0.83019,1.86286 1.67,1.867c0.81586,0.00403 1.69053,-0.49619 2.12732,-1.43846c0.40032,-0.86358 0.06418,-1.98871 -0.29567,-2.9776l-0.28137,-1.0261l-0.36395,-0.94459l-0.41041,-0.9319" id="svg_105" stroke-linecap="null" stroke-linejoin="null" stroke-dasharray="null" stroke-width="null" fill="#b2b2b2"/>
   <path stroke="#000000" d="m13.74821,20.35418c-0.84881,0 -1.60828,-0.34887 -2.11801,-1.09841l0.06418,0.06636l-0.43677,0.92313l-0.74889,0.44734" id="svg_106" stroke-linecap="null" stroke-linejoin="null" stroke-dasharray="null" stroke-width="null" fill="none"/>
   <line stroke="#000000" id="svg_108" y2="13.30575" x2="13.85989" y1="10.86037" x1="15.98193" stroke-linecap="null" stroke-linejoin="null" stroke-dasharray="null" stroke-width="null" fill="none"/>
   <line stroke="#000000" id="svg_109" y2="12.73037" x2="12.40798" y1="10.42884" x1="9.72751" stroke-linecap="null" stroke-linejoin="null" stroke-dasharray="null" stroke-width="null" fill="none"/>
   <path stroke="#000000" d="m55.9655,53.8702c0.0723,1.05623 0.36185,2.11754 0.86996,2.98527c0.50058,0.85487 0.96498,1.72878 1.47545,2.6247c0.49746,0.8731 1.16999,1.60808 1.43835,2.6036c0.27056,1.0037 0.70738,1.92556 0.79537,3.00329c0.08475,1.03794 0.7113,1.43119 1.54097,1.28542c0.80639,-0.14168 1.83515,-0.41262 2.10528,-1.32549c0.29359,-0.99213 0.02158,-2.15009 -0.0723,-3.22214c-0.09051,-1.0336 -0.8882,-1.85423 -0.98299,-2.8913c-0.0892,-0.9759 0.66051,-1.81422 0.91119,-2.85766c0.24228,-1.00848 0.6202,-1.99138 0.84407,-3.03559c0.22257,-1.03816 0.0676,-2.10677 0.12122,-3.18321c0.05479,-1.10019 0.20367,-2.1706 0.22337,-3.25341c0.01992,-1.09523 -0.0689,-2.20215 -0.49142,-3.14274c-0.41372,-0.921 -0.93892,-1.7339 -1.43687,-2.62705c-0.47987,-0.86071 -0.97228,-1.95919 -1.76857,-2.21134c-0.79153,-0.25065 -1.67002,0 -2.51936,0l-0.8273,0l-0.86385,0.01227" id="svg_110" stroke-linecap="null" stroke-linejoin="null" stroke-dasharray="null" stroke-width="null" fill="#7f7f7f"/>
   <path stroke="#000000" d="m10.95606,23.51878c0.7483,0.43911 1.36257,1.17953 2.00795,1.88435l0.70602,0.55344" id="svg_124" stroke-linecap="null" stroke-linejoin="null" stroke-dasharray="null" stroke-width="null" fill="none"/>
  </g>
 </g>
</svg>