<svg width="75" height="75" xmlns="http://www.w3.org/2000/svg" xmlns:svg="http://www.w3.org/2000/svg">
 <!-- Created with SVG-edit - http://svg-edit.googlecode.com/ -->
 <g>
  <title>Layer 1</title>
  <path id="svg_140" d="m53.68214,45.78169c0.68235,0.49835 1.199,1.22921 1.50084,2.02575c0.32585,0.85991 0.41691,1.73138 0.52522,2.60954c0.11423,0.92618 0.21725,1.74797 0.40923,2.63371c0.18707,0.86302 0.54816,1.73161 0.97271,2.44504c0.47048,0.79061 1.04562,1.4742 1.69004,2.07027c0.65932,0.60985 1.4919,0.99351 2.35357,1.10981c0.85115,0.11487 1.61836,-0.54407 2.11362,-1.27722c0.49155,-0.72763 0.70237,-1.6677 0.55242,-2.52608c-0.14359,-0.82191 -0.96258,-1.38139 -1.52643,-2.07906c-0.5429,-0.67174 -0.91317,-1.50658 -1.47847,-2.13186c-0.6474,-0.71607 -1.30883,-1.35049 -1.79902,-2.03676l-0.46118,-0.74306l-0.29961,-0.85637l-0.27615,-0.81346" stroke-linecap="null" stroke-linejoin="null" stroke-dasharray="null" stroke-width="null" stroke="#000000" fill="#56aaff"/>
  <path id="svg_137" d="m26.06498,44.57184c-0.02606,0.91096 -0.20233,1.77052 -0.23285,2.59314c-0.03434,0.92583 -0.05532,1.88691 0.11765,2.70098c0.18795,0.88455 0.46649,1.71011 0.74077,2.49819c0.31769,0.91285 0.6878,1.7329 1.08147,2.44635c0.44284,0.80259 0.9046,1.60733 1.39162,2.29232c0.53773,0.75631 1.11855,1.35047 1.736,1.95074c0.70476,0.68515 1.41237,1.16381 2.18808,1.62087c0.74114,0.43668 1.58372,0.872 2.37537,1.14431c0.90998,0.31302 1.79408,0.53656 2.51334,0.67579c0.95075,0.18404 1.84473,0.26794 2.776,0.20925c0.81318,-0.05126 1.75007,0.05429 2.63365,-0.0168c0.84211,-0.06775 2.08444,-0.2574 2.20831,-1.11514c0.12013,-0.83188 -1.02427,-1.28384 -1.8799,-1.57396c-0.79235,-0.26867 -1.7542,-0.38754 -2.51963,-0.70651c-0.84777,-0.35329 -1.65767,-0.73163 -2.47106,-1.06996c-0.83124,-0.34575 -1.58048,-0.8309 -2.31968,-1.2731c-0.78307,-0.46844 -1.68832,-0.7278 -2.24281,-1.45714c-0.52836,-0.69496 -0.56792,-1.60704 -0.74584,-2.44874c-0.1804,-0.8534 -0.29167,-1.78318 -0.29167,-2.70589c0,-0.84705 0,-1.7647 0.16345,-2.61176l0.07184,-0.91519l0.11765,-0.85455" stroke-linecap="null" stroke-linejoin="null" stroke-dasharray="null" stroke-width="null" stroke="#000000" fill="#56aaff"/>
  <path transform="rotate(23.43461036682129 13.967148780822772,31.506761550903317) " d="m26.52941,42.29412c-0.11341,-0.86996 -0.11765,-1.7598 -0.11765,-2.61176c0,-0.91765 -0.05389,-1.83273 -0.11765,-2.71765c-0.06213,-0.86227 -0.16097,-1.75911 -0.33333,-2.63137c-0.17198,-0.87031 -0.45656,-1.73221 -0.78186,-2.5049c-0.36016,-0.85547 -0.67911,-1.60067 -1.04653,-2.4918c-0.33975,-0.82404 -0.56112,-1.63977 -0.86853,-2.47276c-0.30581,-0.82863 -0.62371,-1.69773 -1.01931,-2.44786c-0.42953,-0.81446 -0.94521,-1.54259 -1.62227,-2.14541c-0.5964,-0.531 -1.52793,-0.93885 -2.31702,-1.223c-0.84318,-0.30363 -1.72967,-0.45149 -2.60283,-0.55294c-0.87439,-0.10159 -1.71258,-0.19409 -2.59796,-0.29465c-0.87234,-0.09907 -1.80535,-0.1646 -2.6731,-0.25882c-0.95076,-0.10324 -1.81977,-0.11765 -2.69312,-0.11765c-0.90982,0 -1.83747,-0.13179 -2.65386,0.17145c-0.86219,0.32025 -1.59455,0.77556 -2.1931,1.40753c-0.64576,0.68181 -0.97827,1.52575 -1.17922,2.40925c-0.18666,0.82068 -0.64629,2.27282 0.12322,2.55965c0.81355,0.30325 1.44425,-1.00497 2.15545,-1.53612c0.69114,-0.51616 1.42958,-1.00988 2.25631,-1.34118c0.82626,-0.33111 1.72586,-0.47947 2.58149,-0.37647c0.89698,0.10798 1.6268,0.61522 2.39576,1.03169c0.79543,0.4308 1.67643,0.81358 2.36141,1.04331c0.96235,0.32276 1.72115,0.80091 2.33584,1.4348c0.62717,0.64676 1.02493,1.35874 1.40659,2.20784c0.37463,0.83347 0.63245,1.69218 1.08361,2.47843c0.42492,0.74051 0.84683,1.48162 1.19608,2.31373c0.34687,0.82644 0.51657,1.66199 0.63922,2.59075c0.11092,0.83999 0.15439,1.76819 0.30588,2.66714c0.14441,0.85693 0.31514,1.71461 0.41229,2.59543l0.20371,0.8899l0.28735,0.84782" id="svg_127" stroke-linecap="null" stroke-linejoin="null" stroke-dasharray="null" stroke-width="null" stroke="#000000" fill="#56aaff"/>
  <ellipse transform="rotate(-32.905242919921875 6.058823585510246,21.235292434692383) " ry="2.82353" rx="5.17647" id="svg_128" cy="21.23529" cx="6.05882" stroke-linecap="null" stroke-linejoin="null" stroke-dasharray="null" stroke-width="null" stroke="#000000" fill="#56aaff"/>
  <ellipse ry="0.47059" rx="0.58824" id="svg_129" cy="20.41176" cx="5.47059" stroke-linecap="null" stroke-linejoin="null" stroke-dasharray="null" stroke-width="null" stroke="#000000" fill="#56aaff"/>
  <line id="svg_130" y2="19.47059" x2="4.76471" y1="18.41176" x1="6.41176" stroke-linecap="null" stroke-linejoin="null" stroke-dasharray="null" stroke-width="null" stroke="#000000" fill="none"/>
  <line id="svg_131" y2="22.17647" x2="6.76471" y1="23.82353" x1="2.05882" stroke-linecap="null" stroke-linejoin="null" stroke-dasharray="null" stroke-width="null" stroke="#000000" fill="none"/>
  <ellipse ry="8.94118" rx="26.35294" id="svg_134" cy="46.88235" cx="41.82353" stroke-linecap="null" stroke-linejoin="null" stroke-dasharray="null" stroke-width="null" stroke="#000000" fill="#56aaff"/>
  <path d="m21.35294,48.41176c-0.02606,0.91096 -0.20233,1.77052 -0.23284,2.59314c-0.03435,0.92583 -0.05532,1.88691 0.11765,2.70098c0.18794,0.88456 0.46649,1.71012 0.74076,2.4982c0.3177,0.91284 0.68781,1.7329 1.08147,2.44635c0.44285,0.80259 0.90461,1.60733 1.39163,2.29232c0.53773,0.75631 1.11855,1.35047 1.736,1.95074c0.70476,0.68515 1.41237,1.16381 2.18808,1.62086c0.74114,0.43668 1.58372,0.872 2.37537,1.14432c0.90998,0.31301 1.79408,0.53655 2.51333,0.67578c0.95075,0.18404 1.84473,0.26794 2.776,0.20925c0.81318,-0.05125 1.75007,0.05429 2.63365,-0.0168c0.84212,-0.06775 2.08445,-0.2574 2.20831,-1.11514c0.12014,-0.83189 -1.02427,-1.28384 -1.8799,-1.57397c-0.79235,-0.26866 -1.75419,-0.38754 -2.51963,-0.7065c-0.84777,-0.35329 -1.65767,-0.73163 -2.47106,-1.06996c-0.83124,-0.34575 -1.58048,-0.83089 -2.31968,-1.2731c-0.78306,-0.46844 -1.68831,-0.7278 -2.24281,-1.45714c-0.52836,-0.69497 -0.56792,-1.60704 -0.74584,-2.44875c-0.1804,-0.8534 -0.29167,-1.78318 -0.29167,-2.70588c0,-0.84706 0,-1.76471 0.16345,-2.61176l0.07184,-0.9152l0.11765,-0.85455" id="svg_135" stroke-linecap="null" stroke-linejoin="null" stroke-dasharray="null" stroke-width="null" stroke="#000000" fill="#56aaff"/>
  <path d="m49.35294,48.64706c0.68235,0.49835 1.19901,1.22921 1.50084,2.02575c0.32585,0.85991 0.41691,1.73138 0.52522,2.60955c0.11423,0.92618 0.21725,1.74797 0.40923,2.63371c0.18706,0.86302 0.54816,1.73162 0.97271,2.44504c0.47048,0.79061 1.04562,1.47421 1.69004,2.07027c0.65932,0.60984 1.4919,0.99351 2.35357,1.1098c0.85115,0.11487 1.61836,-0.54407 2.11362,-1.27721c0.49154,-0.72763 0.70237,-1.66771 0.55241,-2.52608c-0.14359,-0.82191 -0.96258,-1.38139 -1.52643,-2.07906c-0.5429,-0.67174 -0.91316,-1.50659 -1.47847,-2.13186c-0.6474,-0.71607 -1.30882,-1.35049 -1.79902,-2.03677l-0.46118,-0.74306l-0.29961,-0.85637l-0.27616,-0.81345" id="svg_139" stroke-linecap="null" stroke-linejoin="null" stroke-dasharray="null" stroke-width="null" stroke="#000000" fill="#56aaff"/>
  <path d="m65.23529,42.64706c0.76471,0.47059 1.57601,0.84646 2.30636,1.38274c0.66566,0.48879 1.43506,1.07513 1.92649,1.79372c0.49618,0.72554 0.7191,1.64005 0.83601,2.48439c0.12166,0.87866 0.27878,1.75793 0.3429,2.64518c0.06349,0.87851 0.23027,1.76466 0.2353,2.6688c0.00506,0.90993 0.06735,1.74657 0.11639,2.60163c0.05403,0.94216 0.18591,1.75566 0.43828,2.60157c0.25868,0.86707 0.50105,1.71161 0.58031,2.5749c0.08184,0.89133 0.10572,1.79511 0.40431,2.63514c0.29104,0.81876 -0.00751,1.87317 -0.71639,1.42651c-0.73031,-0.46016 -0.74834,-1.58873 -0.93435,-2.44936c-0.18941,-0.87639 -0.59718,-1.64705 -0.99444,-2.39473c-0.42994,-0.8092 -0.76163,-1.63043 -0.89286,-2.48094c-0.13261,-0.85941 -0.33323,-1.72392 -0.53312,-2.60476c-0.19582,-0.86289 -0.42177,-1.74369 -0.74468,-2.55837c-0.31612,-0.79755 -0.8411,-1.52251 -1.34698,-2.24408l-0.58823,-0.66386" id="svg_141" stroke-linecap="null" stroke-linejoin="null" stroke-dasharray="null" stroke-width="null" stroke="#000000" fill="#56aaff"/>
 </g>
</svg>