<?xml version="1.0" encoding="UTF-8" standalone="no"?>
<!DOCTYPE svg PUBLIC "-//W3C//DTD SVG 1.1//EN" "http://www.w3.org/Graphics/SVG/1.1/DTD/svg11.dtd">
<svg version="1.1" xmlns="http://www.w3.org/2000/svg" xmlns:xlink="http://www.w3.org/1999/xlink" preserveAspectRatio="xMidYMid meet" viewBox="0 0 75 75" width="75" height="75"><defs><path d="M31.13 58.95L43 58.95L43 70.82L31.13 70.82L31.13 58.95Z" id="b1dGNpde91"></path><path d="M49 70.82C49 72.1 43.34 73.13 36.38 73.13C29.41 73.13 23.75 72.1 23.75 70.82C23.75 69.55 29.41 68.51 36.38 68.51C43.34 68.51 49 69.55 49 70.82Z" id="b7029iHWLO"></path><path d="M31.64 34.72L43.38 38.99L30.62 74.06L18.87 69.79L31.64 34.72Z" id="c24t6eHDjZ"></path><path d="M31.72 38.99L43.46 34.72L56.23 69.79L44.48 74.06L31.72 38.99Z" id="b2XWgi8PJy"></path><path d="M47 26.56C47 31.6 42.74 35.69 37.5 35.69C32.26 35.69 28 31.6 28 26.56C28 21.53 32.26 17.44 37.5 17.44C42.74 17.44 47 21.53 47 26.56Z" id="akRbNohUx"></path><path d="M40.59 10.69L43.69 19.81L37.5 19.81L31.31 19.81L34.41 10.69L37.5 1.56L40.59 10.69Z" id="a21Us0DDZQ"></path><path d="M41.91 35.69C43.2 35.69 44.25 36.74 44.25 38.03C44.25 43.21 44.25 56.41 44.25 61.59C44.25 62.89 43.2 63.94 41.91 63.94C39.67 63.94 35.33 63.94 33.09 63.94C31.8 63.94 30.75 62.89 30.75 61.59C30.75 56.41 30.75 43.21 30.75 38.03C30.75 36.74 31.8 35.69 33.09 35.69C35.33 35.69 39.67 35.69 41.91 35.69Z" id="aBU4mewfg"></path><path d="M51.18 35.69C52.46 35.69 53.5 36.73 53.5 38.01C53.5 38.74 53.5 38.63 53.5 39.37C53.5 40.65 52.46 41.69 51.18 41.69C49.04 41.69 44.96 41.69 42.82 41.69C41.54 41.69 40.5 40.65 40.5 39.37C40.5 38.63 40.5 38.74 40.5 38.01C40.5 36.73 41.54 35.69 42.82 35.69C44.96 35.69 49.04 35.69 51.18 35.69Z" id="fgnEjQ6Xe"></path><path d="M32.68 35.69C33.96 35.69 35 36.73 35 38.01C35 38.74 35 38.63 35 39.37C35 40.65 33.96 41.69 32.68 41.69C30.54 41.69 26.46 41.69 24.32 41.69C23.04 41.69 22 40.65 22 39.37C22 38.63 22 38.74 22 38.01C22 36.73 23.04 35.69 24.32 35.69C26.46 35.69 30.54 35.69 32.68 35.69Z" id="a87tzwO6d"></path><path d="M23.49 27.98C24.74 27.98 25.75 28.99 25.75 30.24C25.75 32.59 25.75 37.37 25.75 39.71C25.75 40.96 24.74 41.98 23.49 41.98C22.74 41.98 22.76 41.98 22.01 41.98C20.76 41.98 19.75 40.96 19.75 39.71C19.75 37.37 19.75 32.59 19.75 30.24C19.75 28.99 20.76 27.98 22.01 27.98C22.76 27.98 22.74 27.98 23.49 27.98Z" id="a6GMid24f"></path><path d="M51.83 36.32C53.08 36.32 54.09 37.33 54.09 38.58C54.09 40.93 54.09 45.71 54.09 48.06C54.09 49.31 53.08 50.32 51.83 50.32C51.08 50.32 51.1 50.32 50.36 50.32C49.11 50.32 48.09 49.31 48.09 48.06C48.09 45.71 48.09 40.93 48.09 38.58C48.09 37.33 49.11 36.32 50.36 36.32C51.1 36.32 51.08 36.32 51.83 36.32Z" id="b126Vw41VC"></path><path d="M25.75 27.48C25.75 29.13 23.65 30.48 21.06 30.48C18.48 30.48 16.37 29.13 16.37 27.48C16.37 25.82 18.48 24.48 21.06 24.48C23.65 24.48 25.75 25.82 25.75 27.48Z" id="e3QLGthcx"></path><path d="M54.09 49.07C54.09 50.73 51.99 52.07 49.41 52.07C46.82 52.07 44.72 50.73 44.72 49.07C44.72 47.41 46.82 46.07 49.41 46.07C51.99 46.07 54.09 47.41 54.09 49.07Z" id="hgdTyCTFe"></path><path d="M33.03 60.76C34.58 61.33 35.38 63.05 34.82 64.61C34.07 66.67 32.83 70.06 32.08 72.13C31.52 73.68 29.79 74.48 28.24 73.92C27.67 73.71 28.8 74.12 28.24 73.92C26.68 73.35 25.88 71.63 26.44 70.07C27.2 68.01 28.43 64.62 29.18 62.56C29.75 61 31.47 60.2 33.03 60.76C33.59 60.97 32.46 60.56 33.03 60.76Z" id="b8dk46A981"></path><path d="M40.99 60.76C42.54 60.2 44.27 61 44.83 62.56C45.58 64.62 46.82 68.01 47.57 70.07C48.13 71.63 47.33 73.35 45.78 73.92C45.21 74.12 46.34 73.71 45.78 73.92C44.22 74.48 42.5 73.68 41.93 72.13C41.18 70.06 39.95 66.67 39.19 64.61C38.63 63.05 39.43 61.33 40.99 60.76C41.55 60.56 40.42 60.97 40.99 60.76Z" id="arjOhB5Qm"></path><path d="M32.44 72.86C32.44 74.04 29.89 75 26.75 75C23.61 75 21.06 74.04 21.06 72.86C21.06 71.67 23.61 70.71 26.75 70.71C29.89 70.71 32.44 71.67 32.44 72.86Z" id="b2hEWOcHx"></path><path d="M52.69 72.86C52.69 74.04 50.14 75 47 75C43.86 75 41.31 74.04 41.31 72.86C41.31 71.67 43.86 70.71 47 70.71C50.14 70.71 52.69 71.67 52.69 72.86Z" id="d3FtKUFLT"></path><path d="M33.58 23.02C33.58 23.66 33.05 24.19 32.41 24.19C31.76 24.19 31.23 23.66 31.23 23.02C31.23 22.37 31.76 21.84 32.41 21.84C33.05 21.84 33.58 22.37 33.58 23.02Z" id="flTGLCICZ"></path><path d="M42.55 23.02C42.55 23.66 42.02 24.19 41.38 24.19C40.73 24.19 40.2 23.66 40.2 23.02C40.2 22.37 40.73 21.84 41.38 21.84C42.02 21.84 42.55 22.37 42.55 23.02Z" id="agLNfeqhK"></path><path d="M31.16 21.05L31.74 21.05L32.39 21.05L33.09 21.13L33.71 21.37L34.17 21.7L34.45 22.21L34.54 22.72L35.16 23.05" id="aBLS6friI"></path><path d="M42.93 21.05L42.35 21.05L41.7 21.05L40.99 21.13L40.38 21.37L39.91 21.7L39.64 22.21L39.55 22.72L38.93 23.05" id="a7PMz0ZVn3"></path><path d="M36.81 24.48L37.47 25.11L37.81 25.67L38.06 26.2L37.94 26.83L37.56 27.3L37.03 27.58" id="b4FQhPC8"></path><path d="M41.19 31.19C41.19 32.02 39.47 32.7 37.34 32.7C35.22 32.7 33.5 32.02 33.5 31.19C33.5 30.35 35.22 29.67 37.34 29.67C39.47 29.67 41.19 30.35 41.19 31.19Z" id="a23WgpWOFC"></path><path d="M36.65 13.91L38.27 14.16L37.09 15.36L37.37 17.05L35.92 16.25L34.47 17.05L34.75 15.36L33.58 14.16L35.2 13.91L35.92 12.37L36.65 13.91Z" id="b1pTxSpk1i"></path><path d="M38.74 9.35L39.71 10.67L38.03 10.69L37.03 12.08L36.57 10.49L34.98 10.03L36.37 9.03L36.39 7.35L37.71 8.32L39.32 7.74L38.74 9.35Z" id="aUQk1Ziiy"></path><path d="M41.19 16.36L42.53 17.3L40.95 17.86L40.45 19.5L39.5 18.14L37.85 18.22L38.84 16.82L38.32 15.23L39.89 15.72L41.22 14.66L41.19 16.36Z" id="d1RBGieAJv"></path><path d="M51.57 41.89L53.19 42.14L52.02 43.34L52.29 45.04L50.84 44.24L49.4 45.04L49.67 43.34L48.5 42.14L50.12 41.89L50.84 40.35L51.57 41.89Z" id="bz6VdXxU3"></path><path d="M23.47 37.23L25.09 37.48L23.92 38.68L24.2 40.37L22.75 39.57L21.3 40.37L21.58 38.68L20.41 37.48L22.03 37.23L22.75 35.69L23.47 37.23Z" id="bVwPPSCRw"></path><path d="M29.69 37.55L31.31 37.8L30.14 39L30.42 40.69L28.97 39.89L27.52 40.69L27.8 39L26.63 37.8L28.24 37.55L28.97 36.01L29.69 37.55Z" id="d4yOd7hOOX"></path><path d="M45.8 38.13L47.42 38.38L46.25 39.58L46.53 41.27L45.08 40.47L43.63 41.27L43.91 39.58L42.73 38.38L44.35 38.13L45.08 36.59L45.8 38.13Z" id="cgb1VvOnC"></path><path d="M39.4 42.97L39.08 45.04L37.55 43.54L35.38 43.89L36.4 42.04L35.38 40.18L37.55 40.54L39.08 39.04L39.4 41.11L41.38 42.04L39.4 42.97Z" id="dZAMZmh7"></path><path d="M35.57 57.58L33.5 57.26L35 55.73L34.65 53.55L36.5 54.58L38.35 53.55L38 55.73L39.5 57.26L37.43 57.58L36.5 59.55L35.57 57.58Z" id="b1D5QgUKic"></path><path d="M41.27 47.23L43.34 47.55L41.84 49.09L42.2 51.26L40.34 50.23L38.49 51.26L38.84 49.09L37.34 47.55L39.42 47.23L40.34 45.26L41.27 47.23Z" id="h2FKwwxwqA"></path><path d="M35.34 48.45L36.85 49.9L34.74 50.3L33.79 52.28L32.86 50.37L30.75 50.15L32.29 48.58L31.94 46.46L33.82 47.39L35.71 46.3L35.34 48.45Z" id="crP0TOiRW"></path><path d="M43.94 66.76L45.54 66.44L44.85 67.97L45.69 69.46L44.06 69.21L42.97 70.46L42.65 68.77L41.14 68.04L42.58 67.25L42.73 65.55L43.94 66.76Z" id="aBG85p5Px"></path><path d="M31.3 67.25L32.74 68.04L31.22 68.77L30.9 70.46L29.82 69.21L28.18 69.46L29.02 67.97L28.33 66.44L29.94 66.76L31.15 65.55L31.3 67.25Z" id="cCAvG72Rl"></path><path d="M24.88 36L26.63 36L26.63 40.5L24.88 40.5L24.88 36Z" id="b92e2zaud"></path><path d="M47.59 36.59L49.34 36.59L49.34 41.09L47.59 41.09L47.59 36.59Z" id="eU7u7H8eA"></path><path d="M35.23 61.76C35.23 63.01 34.31 64.01 33.17 64.01C32.03 64.01 31.11 63.01 31.11 61.76C31.11 60.52 32.03 59.51 33.17 59.51C34.31 59.51 35.23 60.52 35.23 61.76Z" id="db0NOTM0Z"></path><path d="M43.2 61.76C43.2 63.01 42.28 64.01 41.14 64.01C40 64.01 39.08 63.01 39.08 61.76C39.08 60.52 40 59.51 41.14 59.51C42.28 59.51 43.2 60.52 43.2 61.76Z" id="a2rXH0mZj"></path></defs><g><g><g><g><use xlink:href="#b1dGNpde91" opacity="1" fill="#4a2107" fill-opacity="1"></use></g><g><use xlink:href="#b7029iHWLO" opacity="1" fill="#4a2107" fill-opacity="1"></use></g><g><use xlink:href="#c24t6eHDjZ" opacity="1" fill="#4a2107" fill-opacity="1"></use></g><g><use xlink:href="#b2XWgi8PJy" opacity="1" fill="#4a2107" fill-opacity="1"></use></g></g><g><g><use xlink:href="#akRbNohUx" opacity="1" fill="#eac6b1" fill-opacity="1"></use><g><use xlink:href="#akRbNohUx" opacity="1" fill-opacity="0" stroke="#000000" stroke-width="1" stroke-opacity="1"></use></g></g><g><use xlink:href="#a21Us0DDZQ" opacity="1" fill="#008dff" fill-opacity="1"></use><g><use xlink:href="#a21Us0DDZQ" opacity="1" fill-opacity="0" stroke="#000000" stroke-width="1" stroke-opacity="1"></use></g></g><g><use xlink:href="#aBU4mewfg" opacity="1" fill="#008dff" fill-opacity="1"></use><g><use xlink:href="#aBU4mewfg" opacity="1" fill-opacity="0" stroke="#000000" stroke-width="1" stroke-opacity="1"></use></g></g><g><use xlink:href="#fgnEjQ6Xe" opacity="1" fill="#008dff" fill-opacity="1"></use><g><use xlink:href="#fgnEjQ6Xe" opacity="1" fill-opacity="0" stroke="#000000" stroke-width="1" stroke-opacity="1"></use></g></g><g><use xlink:href="#a87tzwO6d" opacity="1" fill="#008dff" fill-opacity="1"></use><g><use xlink:href="#a87tzwO6d" opacity="1" fill-opacity="0" stroke="#000000" stroke-width="1" stroke-opacity="1"></use></g></g><g><use xlink:href="#a6GMid24f" opacity="1" fill="#008dff" fill-opacity="1"></use><g><use xlink:href="#a6GMid24f" opacity="1" fill-opacity="0" stroke="#000000" stroke-width="1" stroke-opacity="1"></use></g></g><g><use xlink:href="#b126Vw41VC" opacity="1" fill="#008dff" fill-opacity="1"></use><g><use xlink:href="#b126Vw41VC" opacity="1" fill-opacity="0" stroke="#000000" stroke-width="1" stroke-opacity="1"></use></g></g><g><use xlink:href="#e3QLGthcx" opacity="1" fill="#eac6b1" fill-opacity="1"></use><g><use xlink:href="#e3QLGthcx" opacity="1" fill-opacity="0" stroke="#000000" stroke-width="1" stroke-opacity="1"></use></g></g><g><use xlink:href="#hgdTyCTFe" opacity="1" fill="#eac6b1" fill-opacity="1"></use><g><use xlink:href="#hgdTyCTFe" opacity="1" fill-opacity="0" stroke="#000000" stroke-width="1" stroke-opacity="1"></use></g></g><g><use xlink:href="#b8dk46A981" opacity="1" fill="#008dff" fill-opacity="1"></use><g><use xlink:href="#b8dk46A981" opacity="1" fill-opacity="0" stroke="#000000" stroke-width="1" stroke-opacity="1"></use></g></g><g><use xlink:href="#arjOhB5Qm" opacity="1" fill="#008dff" fill-opacity="1"></use><g><use xlink:href="#arjOhB5Qm" opacity="1" fill-opacity="0" stroke="#000000" stroke-width="1" stroke-opacity="1"></use></g></g><g><use xlink:href="#b2hEWOcHx" opacity="1" fill="#000000" fill-opacity="1"></use></g><g><use xlink:href="#d3FtKUFLT" opacity="1" fill="#000000" fill-opacity="1"></use></g><g><use xlink:href="#flTGLCICZ" opacity="1" fill="#000000" fill-opacity="1"></use></g><g><use xlink:href="#agLNfeqhK" opacity="1" fill="#000000" fill-opacity="1"></use></g><g><g><use xlink:href="#aBLS6friI" opacity="1" fill-opacity="0" stroke="#000000" stroke-width="1" stroke-opacity="1"></use></g></g><g><g><use xlink:href="#a7PMz0ZVn3" opacity="1" fill-opacity="0" stroke="#000000" stroke-width="1" stroke-opacity="1"></use></g></g><g><g><use xlink:href="#b4FQhPC8" opacity="1" fill-opacity="0" stroke="#000000" stroke-width="1" stroke-opacity="1"></use></g></g><g><use xlink:href="#a23WgpWOFC" opacity="1" fill="#000000" fill-opacity="1"></use></g><g><use xlink:href="#b1pTxSpk1i" opacity="1" fill="#ffe700" fill-opacity="1"></use><g><use xlink:href="#b1pTxSpk1i" opacity="1" fill-opacity="0" stroke="#000000" stroke-width="0.25" stroke-opacity="1"></use></g></g><g><use xlink:href="#aUQk1Ziiy" opacity="1" fill="#ffe700" fill-opacity="1"></use><g><use xlink:href="#aUQk1Ziiy" opacity="1" fill-opacity="0" stroke="#000000" stroke-width="0.25" stroke-opacity="1"></use></g></g><g><use xlink:href="#d1RBGieAJv" opacity="1" fill="#ffe700" fill-opacity="1"></use><g><use xlink:href="#d1RBGieAJv" opacity="1" fill-opacity="0" stroke="#000000" stroke-width="0.25" stroke-opacity="1"></use></g></g><g><use xlink:href="#bz6VdXxU3" opacity="1" fill="#ffe700" fill-opacity="1"></use><g><use xlink:href="#bz6VdXxU3" opacity="1" fill-opacity="0" stroke="#000000" stroke-width="0.25" stroke-opacity="1"></use></g></g><g><use xlink:href="#bVwPPSCRw" opacity="1" fill="#ffe700" fill-opacity="1"></use><g><use xlink:href="#bVwPPSCRw" opacity="1" fill-opacity="0" stroke="#000000" stroke-width="0.25" stroke-opacity="1"></use></g></g><g><use xlink:href="#d4yOd7hOOX" opacity="1" fill="#ffe700" fill-opacity="1"></use><g><use xlink:href="#d4yOd7hOOX" opacity="1" fill-opacity="0" stroke="#000000" stroke-width="0.25" stroke-opacity="1"></use></g></g><g><use xlink:href="#cgb1VvOnC" opacity="1" fill="#ffe700" fill-opacity="1"></use><g><use xlink:href="#cgb1VvOnC" opacity="1" fill-opacity="0" stroke="#000000" stroke-width="0.25" stroke-opacity="1"></use></g></g><g><use xlink:href="#dZAMZmh7" opacity="1" fill="#ffe700" fill-opacity="1"></use><g><use xlink:href="#dZAMZmh7" opacity="1" fill-opacity="0" stroke="#000000" stroke-width="0.25" stroke-opacity="1"></use></g></g><g><use xlink:href="#b1D5QgUKic" opacity="1" fill="#ffe700" fill-opacity="1"></use><g><use xlink:href="#b1D5QgUKic" opacity="1" fill-opacity="0" stroke="#000000" stroke-width="0.25" stroke-opacity="1"></use></g></g><g><use xlink:href="#h2FKwwxwqA" opacity="1" fill="#ffe700" fill-opacity="1"></use><g><use xlink:href="#h2FKwwxwqA" opacity="1" fill-opacity="0" stroke="#000000" stroke-width="0.25" stroke-opacity="1"></use></g></g><g><use xlink:href="#crP0TOiRW" opacity="1" fill="#ffe700" fill-opacity="1"></use><g><use xlink:href="#crP0TOiRW" opacity="1" fill-opacity="0" stroke="#000000" stroke-width="0.25" stroke-opacity="1"></use></g></g><g><use xlink:href="#aBG85p5Px" opacity="1" fill="#ffe700" fill-opacity="1"></use><g><use xlink:href="#aBG85p5Px" opacity="1" fill-opacity="0" stroke="#000000" stroke-width="0.25" stroke-opacity="1"></use></g></g><g><use xlink:href="#cCAvG72Rl" opacity="1" fill="#ffe700" fill-opacity="1"></use><g><use xlink:href="#cCAvG72Rl" opacity="1" fill-opacity="0" stroke="#000000" stroke-width="0.25" stroke-opacity="1"></use></g></g></g><g><use xlink:href="#b92e2zaud" opacity="1" fill="#008dff" fill-opacity="1"></use></g><g><use xlink:href="#eU7u7H8eA" opacity="1" fill="#008dff" fill-opacity="1"></use></g><g><use xlink:href="#db0NOTM0Z" opacity="1" fill="#008dff" fill-opacity="1"></use></g><g><use xlink:href="#a2rXH0mZj" opacity="1" fill="#008dff" fill-opacity="1"></use></g></g></g></svg>