<svg width="75" height="75" xmlns="http://www.w3.org/2000/svg" xmlns:svg="http://www.w3.org/2000/svg" xmlns:xlink="http://www.w3.org/1999/xlink" preserveAspectRatio="xMidYMid meet">
 <defs>
  <path id="b16djDp48R" d="m38.59,23.42c7.7,-7.7 10.83,-17.07 6.98,-20.91c-3.85,-3.85 -13.22,-0.73 -20.92,6.97c-7.7,7.7 -10.83,17.07 -18.72,32.66c15.59,-7.89 24.96,-11.02 32.66,-18.72z"/>
  <path id="byy4RO4dR" d="m47.21,11.21c0,4.58 -3.71,8.29 -8.28,8.29c-4.57,0 -8.29,-3.71 -8.29,-8.29c0,-4.57 3.72,-8.28 8.29,-8.28c4.57,0 8.28,3.71 8.28,8.28z"/>
  <path id="cE9oRKHDz" d="m43.44,19.5c1.3,0 2.35,1.05 2.35,2.34c0,4.48 0,15.56 0,20.03c0,1.29 -1.05,2.34 -2.35,2.34c-2.27,0 -6.75,0 -9.02,0c-1.3,0 -2.35,-1.05 -2.35,-2.34c0,-4.47 0,-15.55 0,-20.03c0,-1.29 1.05,-2.34 2.35,-2.34c2.27,0 6.75,0 9.02,0z"/>
  <path id="a1lYxQbRaP" d="m38.5,23.67c0,1.66 -1.34,3 -3,3c-1.66,0 -3,-1.34 -3,-3c0,-1.66 1.34,-3 3,-3c1.66,0 3,1.34 3,3z"/>
  <path id="a7AlPu77Y" d="m45.36,23.67c0,1.66 -1.35,3 -3,3c-1.66,0 -3,-1.34 -3,-3c0,-1.66 1.34,-3 3,-3c1.65,0 3,1.34 3,3z"/>
  <path id="c8BUHxbFA" d="m33.79,42.07c0.94,0 1.71,0.77 1.71,1.72c0,3.08 0,10.62 0,13.71c0,0.95 -0.77,1.71 -1.71,1.71c-0.35,0 0.34,0 0,0c-0.95,0 -1.72,-0.76 -1.72,-1.71c0,-3.09 0,-10.63 0,-13.71c0,-0.95 0.77,-1.72 1.72,-1.72c0.34,0 -0.35,0 0,0z"/>
  <path id="agKjBzd0w" d="m44.07,42.07c0.95,0 1.72,0.77 1.72,1.72c0,3.08 0,10.62 0,13.71c0,0.95 -0.77,1.71 -1.72,1.71c-0.34,0 0.34,0 0,0c-0.95,0 -1.71,-0.76 -1.71,-1.71c0,-3.09 0,-10.63 0,-13.71c0,-0.95 0.76,-1.72 1.71,-1.72c0.34,0 -0.34,0 0,0z"/>
  <path id="d2vKTyJvU6" d="m42.36,22.48c1.89,0 3.43,1.26 3.43,2.82c0,4.3 -6.86,6.44 -6.86,6.56c0,0 0,0 0,0c0,-0.12 -6.86,-2.26 -6.86,-6.56c0,-1.56 1.54,-2.82 3.43,-2.82c1.89,0 3.43,1.11 3.43,2.66c0,-1.55 1.53,-2.66 3.43,-2.66z"/>
  <path id="a5UsyAhoZO" d="m43.58,25.17c0.98,0 1.78,0.79 1.78,1.77c0,3.39 0,11.76 0,15.15c0,0.98 -0.8,1.77 -1.78,1.77c-2.24,0 -7.2,0 -9.45,0c-0.98,0 -1.77,-0.79 -1.77,-1.77c0,-3.39 0,-11.76 0,-15.15c0,-0.98 0.79,-1.77 1.77,-1.77c2.25,0 7.21,0 9.45,0z"/>
  <path id="bOissfjQd" d="m23.14,32.02c-0.76,0.75 -1.98,0.75 -2.73,0c-0.27,-0.27 0.27,0.27 0,0c-0.75,-0.75 -0.75,-1.98 0,-2.73c2.19,-2.19 7.4,-7.4 9.6,-9.59c0.75,-0.76 1.97,-0.76 2.72,0c0.28,0.27 -0.27,-0.28 0,0c0.76,0.75 0.76,1.97 0,2.72c-2.19,2.19 -7.4,7.41 -9.59,9.6z"/>
  <path id="a3MgYzILKA" d="m23.45,33.04c-0.61,1.2 -2.34,1.54 -3.84,0.76c-1.51,-0.77 -2.24,-2.37 -1.63,-3.56c0.61,-1.19 2.33,-1.53 3.84,-0.76c1.51,0.78 2.24,2.37 1.63,3.56z"/>
  <path id="b8R7TVk2e" d="m52.21,13.79l0,2.71l0.29,2.57l0.29,2.86l0.28,2.57l0.14,2.43l0,2.71l0,2.43l0,2.72l0.15,2.57l0.28,3.43l0.29,2.85l0.28,2.57l0,2.72l0,2.43l-0.42,2.85l-1.15,2.58"/>
  <path id="b6uS0I2eT" d="m54.21,32.36c0.75,0.76 1.97,0.76 2.72,0c0.28,-0.27 -0.27,0.28 0,0c0.76,-0.75 0.76,-1.97 0,-2.72c-2.19,-2.2 -7.4,-7.41 -9.59,-9.6c-0.76,-0.75 -1.98,-0.75 -2.73,0c-0.27,0.27 0.27,-0.27 0,0c-0.75,0.75 -0.75,1.97 0,2.73c2.19,2.19 7.4,7.4 9.6,9.59z"/>
  <path id="a8M6nX5Fb" d="m60.29,33.53c-0.61,1.19 -2.33,1.53 -3.84,0.76c-1.51,-0.77 -2.24,-2.37 -1.62,-3.56c0.61,-1.19 2.33,-1.54 3.84,-0.76c1.5,0.77 2.23,2.37 1.62,3.56z"/>
  <path id="a4FZrPeZG" d="m33,34.62l0.25,0.73c0.55,-0.54 0.85,-0.85 0.91,-0.91c0.49,-0.48 1.02,-0.72 1.2,-0.54c0.23,0.23 2.06,2.05 2.29,2.28c0.18,0.18 -0.06,0.72 -0.54,1.2c-1.06,1.06 -9.53,9.52 -10.58,10.58c-0.49,0.48 -1.02,0.73 -1.2,0.55c-0.23,-0.23 -2.06,-2.06 -2.29,-2.29c-0.18,-0.18 0.06,-0.72 0.54,-1.2c0.49,-0.48 2.89,-2.88 7.21,-7.2l2.21,-3.2z"/>
  <path id="a1pVAGzVxj" d="m35.64,33.5l1.72,-1.86l1.57,-2"/>
  <path id="cPoLrLNFz" d="m38.22,30.13l-0.03,-0.63l-0.06,-0.59l0.15,-0.6"/>
  <path id="akqTn82QR" d="m37.72,30.94l-0.03,-0.62l-0.06,-0.6l0.16,-0.59"/>
  <path id="b3G2ljyHyd" d="m37.79,31l0.62,0.04l0.6,0.06l0.59,-0.16"/>
  <path id="d12V1qqPaT" d="m38.47,30.28l0.62,0.03l0.6,0.06l0.59,-0.15"/>
  <path id="a52EqWbgFl" d="m35.92,35.18l1.71,-1.86l1.57,-2"/>
  <path id="a1hq5pLjum" d="m38.49,31.8l-0.03,-0.62l-0.06,-0.6l0.15,-0.59"/>
  <path id="d2krAziQ3" d="m38,32.62l-0.03,-0.63l-0.07,-0.59l0.16,-0.59"/>
  <path id="aP0JA59Jw" d="m38.06,32.68l0.63,0.03l0.59,0.07l0.59,-0.16"/>
  <path id="a1by256vjF" d="m38.74,31.96l0.63,0.03l0.59,0.06l0.59,-0.16"/>
  <path id="a2EFeSsFTA" d="m37.31,36.64l1.72,-1.86l1.57,-2"/>
  <path id="g7ggeEtnX" d="m39.89,33.26l-0.03,-0.62l-0.06,-0.6l0.15,-0.59"/>
  <path id="d5CF3PkIJ8" d="m39.4,34.08l-0.03,-0.62l-0.07,-0.6l0.16,-0.59"/>
  <path id="a6t8FFLpx6" d="m39.46,34.14l0.62,0.03l0.6,0.07l0.59,-0.16"/>
  <path id="a1zB1Lsp5g" d="m40.14,33.42l0.62,0.03l0.6,0.06l0.59,-0.16"/>
  <path id="c1Ui2Dhave" d="m36.38,58.19c0,1.03 -2.09,1.87 -4.65,1.87c-2.56,0 -4.64,-0.84 -4.64,-1.87c0,-1.04 2.08,-1.88 4.64,-1.88c2.56,0 4.65,0.84 4.65,1.88z"/>
  <path id="cI2fPJMVn" d="m50.56,58.19c0,1.03 -2.08,1.87 -4.64,1.87c-2.57,0 -4.65,-0.84 -4.65,-1.87c0,-1.04 2.08,-1.88 4.65,-1.88c2.56,0 4.64,0.84 4.64,1.88z"/>
  <path id="di2Q8OugB" d="m36.83,8.13c0,0.64 -0.53,1.17 -1.17,1.17c-0.65,0 -1.18,-0.53 -1.18,-1.17c0,-0.65 0.53,-1.18 1.18,-1.18c0.64,0 1.17,0.53 1.17,1.18z"/>
  <path id="hwlgFbQxl" d="m34.59,7.78l-0.59,0l-0.59,-0.12l-0.47,-0.41"/>
  <path id="aUsY5FVa0" d="m34.59,8.39l-0.59,0l-0.59,-0.12l-0.47,-0.41"/>
  <path id="b33soO7ZeI" d="m41.21,8.13c0,0.64 0.53,1.17 1.17,1.17c0.65,0 1.17,-0.53 1.17,-1.17c0,-0.65 -0.52,-1.18 -1.17,-1.18c-0.64,0 -1.17,0.53 -1.17,1.18z"/>
  <path id="cbuBAJeqY" d="m43.45,7.78l0.59,0l0.59,-0.12l0.47,-0.41"/>
  <path id="cN9jshUZ4" d="m43.45,8.39l0.59,0l0.59,-0.12l0.47,-0.41"/>
  <path id="b29nuScvDN" d="m34.81,13.97l0.63,0.34l0.72,0.82l0.47,0.46l0.53,0.35l0.65,0.28l0.6,0.16l0.9,0.12l0.91,0.06l0.59,0l0.6,-0.12l0.78,-0.41l0.53,-0.47l0.37,-0.47l0.32,-0.71l0.12,-0.6l0.16,-0.59"/>
  <path id="h1lBDPOOQ" d="m38.34,11.13l0.57,-0.41l0.62,-0.06l0.6,0.18l0.21,0.6l0,0.65l-0.21,0.66l-0.54,0.31l-0.62,0.03"/>
  <path id="a1BD0IMqGA" d="m51.21,13.06l1.33,0.75l1.09,0.67l1,0.75l1.08,1l0.83,0.83l1.17,0.84l1,0.75l0.92,0.83l0.75,1.17l0.75,1l0.91,1.58l0.5,1.25l0.5,1.5l0.25,1.17l0.34,1.16l0.25,1.42l0.33,1.17l0.25,1.33l0.42,2l0.16,1.5l0.09,1.5l0.08,1.67l0,1.58l-0.08,1.5l-0.25,1.75l-0.5,2l-0.25,1.17l-0.5,1.25l-11.84,9.08"/>
 </defs>
 <g>
  <title>Layer 1</title>
  <ellipse id="svg_145" cy="49.47059" cx="17" stroke-linecap="null" stroke-linejoin="null" stroke-dasharray="null" stroke="#000000" fill="#000000"/>
  <g id="svg_149">
   <path stroke="#000000" id="svg_147" d="m35.56601,4.02435c0.58003,-0.43026 1.35958,-0.79848 2.25184,-1.01681c0.87036,-0.21297 1.7405,-0.51724 2.59694,-0.27486c0.81662,0.2311 1.50483,0.91476 1.98153,1.6181c0.51769,0.76378 0.98451,1.5432 1.25047,2.34415c0.27677,0.8335 0.55608,1.66445 1.16653,2.3084c0.56791,0.59906 1.48932,0.67766 2.35512,0.66808c0.88526,-0.00981 1.44845,0.36399 1.55614,1.23284c0.10926,0.88159 0.23618,1.7768 0.67492,2.5041c0.47574,0.78863 1.28752,1.19708 2.14824,1.20423c0.82134,0.00682 1.81541,-0.22623 2.60277,0.12941c0.7827,0.35353 1.0018,1.36352 1.33875,2.17647c0.33183,0.80061 0.73382,1.67676 1.52667,2.01365c0.79216,0.33659 1.652,0.48696 2.50055,0.67802c0.86375,0.19449 1.84841,0.09064 2.4268,0.70588c0.59828,0.63641 0.92054,1.46819 1.50137,2.11838c0.58677,0.65684 1.8131,1.59215 1.16786,2.10635c-0.63275,0.50424 -1.65636,-0.3619 -2.45702,-0.51765c-0.88891,-0.17291 -1.68115,-0.70207 -2.51634,-0.70463c-0.49629,-0.00152 0.10807,0.83222 0.83541,1.25883c0.75766,0.4444 1.38326,1.07697 2.0793,1.62164c0.65817,0.51505 0.57647,1.2531 1.06581,1.96267c0.48763,0.70708 0.08173,1.15799 -0.75762,1.03922c-0.85943,-0.12162 -1.6323,-0.34814 -2.30173,-0.88236c-0.67904,-0.5419 -1.29893,-1.21691 -2.06358,-1.63529c-0.78052,-0.42706 -1.45736,0.00104 -1.22667,0.83733c0.22266,0.80713 0.78133,1.56563 0.79411,2.43575c0.0117,0.79694 -1.01687,0.52837 -1.6946,-0.02618c-0.68737,-0.56244 -1.18787,-1.31179 -2.04123,-1.43567c-0.86685,-0.12583 -1.85509,-0.52061 -2.57649,0.00053c-0.50544,0.36513 0.14193,1.30856 0.2118,2.19247c0.06649,0.84113 0.34219,1.71342 0.34219,2.57469c0,0.90847 -0.5959,0.97462 -1.30902,0.4799c-0.72299,-0.50157 -1.07963,-0.83939 -1.23083,0.0062c-0.12561,0.7025 -1.15928,0.62917 -2.05496,0.6291c-0.90387,-0.00008 -1.91379,-0.52296 -2.48026,-0.104c-0.67751,0.50107 -1.12305,1.11734 -1.97185,1.27623c-0.84235,0.15769 -1.689,0.30134 -2.56723,0.35718c-0.85137,0.05413 -1.76968,0.07781 -2.60649,-0.11765c-0.80501,-0.18803 -1.59563,-0.60784 -2.40377,-0.96078l-0.75041,-0.39461l-0.78504,-0.33316" stroke-linecap="null" stroke-linejoin="null" stroke-dasharray="null" stroke-width="null" fill="#ff7f00"/>
   <path d="m33.35294,4.05882c-0.59108,-0.43025 -1.38548,-0.79847 -2.29475,-1.0168c-0.88694,-0.21297 -1.77367,-0.51724 -2.64643,-0.27486c-0.83218,0.23111 -1.5335,0.91476 -2.01929,1.6181c-0.52755,0.76379 -1.00326,1.54321 -1.27429,2.34416c-0.28205,0.8335 -0.56668,1.66444 -1.18876,2.30839c-0.57872,0.59907 -1.5177,0.67767 -2.4,0.66808c-0.90212,-0.0098 -1.47605,0.364 -1.58578,1.23284c-0.11135,0.88159 -0.24068,1.7768 -0.68778,2.5041c-0.48481,0.78863 -1.31205,1.19709 -2.18918,1.20424c-0.83699,0.00682 -1.85,-0.22623 -2.65237,0.12941c-0.79761,0.35353 -1.02089,1.36352 -1.36426,2.17647c-0.33816,0.80061 -0.7478,1.67676 -1.55576,2.01365c-0.80725,0.33659 -1.68348,0.48696 -2.5482,0.67802c-0.88021,0.19449 -1.88363,0.09064 -2.47304,0.70588c-0.60969,0.63641 -0.93808,1.46819 -1.52998,2.11837c-0.59795,0.65684 -1.84765,1.59216 -1.19012,2.10635c0.64481,0.50425 1.68793,-0.3619 2.50384,-0.51765c0.90585,-0.17291 1.71318,-0.70207 2.56429,-0.70463c0.50574,-0.00152 -0.11013,0.83221 -0.85133,1.25883c-0.7721,0.4444 -1.40962,1.07697 -2.11892,1.62165c-0.67071,0.51504 -0.58745,1.2531 -1.08612,1.96267c-0.49692,0.70708 -0.08329,1.15799 0.77206,1.03922c0.87581,-0.12162 1.66341,-0.34813 2.34559,-0.88235c0.69199,-0.5419 1.32368,-1.21692 2.1029,-1.63529c0.79539,-0.42706 1.48513,0.00104 1.25004,0.83733c-0.2269,0.80713 -0.79621,1.56563 -0.80923,2.43575c-0.01193,0.79694 1.03624,0.52837 1.72688,-0.02618c0.70047,-0.56244 1.21052,-1.31179 2.08014,-1.43567c0.88337,-0.12584 1.89044,-0.52061 2.62559,0.00053c0.51507,0.36513 -0.14464,1.30855 -0.21584,2.19247c-0.06776,0.84112 -0.34871,1.71341 -0.34871,2.57469c0,0.90847 0.60726,0.97461 1.33396,0.4799c0.73677,-0.50157 1.1002,-0.8394 1.25427,0.0062c0.128,0.7025 1.18137,0.62917 2.09412,0.6291c0.9211,-0.00008 1.95026,-0.52295 2.52753,-0.104c0.69042,0.50107 1.14445,1.11735 2.00941,1.27624c0.8584,0.15768 1.72118,0.30134 2.61616,0.35718c0.86759,0.05413 1.80339,0.07781 2.65616,-0.11765c0.82035,-0.18803 1.62604,-0.60784 2.44957,-0.96078l0.76471,-0.39461l0.8,-0.33316" id="svg_146" stroke-linecap="null" stroke-linejoin="null" stroke-dasharray="null" stroke-width="null" stroke="#000000" fill="#ff7f00"/>
   <g id="svg_8">
    <use x="-3.41176" y="1.29412" id="svg_9" fill="#e4ca97" xlink:href="#byy4RO4dR"/>
    <g id="svg_10">
     <use x="-3.41176" y="1.29412" id="svg_11" stroke="#000000" fill-opacity="0" xlink:href="#byy4RO4dR"/>
    </g>
   </g>
   <g id="svg_12">
    <use x="-3.41176" y="1.29412" id="svg_13" fill="#e4ca97" xlink:href="#cE9oRKHDz"/>
    <g id="svg_14">
     <use x="-3.41176" y="1.29412" id="svg_15" stroke="#000000" fill-opacity="0" xlink:href="#cE9oRKHDz"/>
    </g>
   </g>
   <g id="svg_16">
    <use x="-3.41176" y="1.29412" id="svg_17" fill="#e4ca97" xlink:href="#a1lYxQbRaP"/>
    <g id="svg_18">
     <use x="-3.41176" y="1.29412" id="svg_19" stroke="#000000" fill-opacity="0" xlink:href="#a1lYxQbRaP"/>
    </g>
   </g>
   <g id="svg_20">
    <use x="-3.41176" y="1.29412" id="svg_21" fill="#e4ca97" xlink:href="#a7AlPu77Y"/>
    <g id="svg_22">
     <use x="-3.41176" y="1.29412" id="svg_23" stroke="#000000" fill-opacity="0" xlink:href="#a7AlPu77Y"/>
    </g>
   </g>
   <use stroke="#000000" x="-3.76471" y="-0.82353" id="svg_33" fill="#00ffff" xlink:href="#d2vKTyJvU6"/>
   <g id="svg_36">
    <use x="-3.41176" y="1.29412" id="svg_37" fill="#e4ca97" xlink:href="#bOissfjQd"/>
    <g id="svg_38">
     <use x="-3.41176" y="1.29412" id="svg_39" stroke="#000000" fill-opacity="0" xlink:href="#bOissfjQd"/>
    </g>
   </g>
   <g id="svg_40">
    <use x="-3.41176" y="1.29412" id="svg_41" fill="#e4ca97" xlink:href="#a3MgYzILKA"/>
    <g id="svg_42">
     <use x="-3.41176" y="1.29412" id="svg_43" stroke="#000000" fill-opacity="0" xlink:href="#a3MgYzILKA"/>
    </g>
   </g>
   <g id="svg_47">
    <use x="-3.41176" y="1.29412" id="svg_48" fill="#e4ca97" xlink:href="#b6uS0I2eT"/>
    <g id="svg_49">
     <use x="-3.41176" y="1.29412" id="svg_50" stroke="#000000" fill-opacity="0" xlink:href="#b6uS0I2eT"/>
    </g>
   </g>
   <g id="svg_51">
    <use x="-3.41176" y="1.29412" id="svg_52" fill="#e4ca97" xlink:href="#a8M6nX5Fb"/>
    <g id="svg_53">
     <use x="-3.41176" y="1.29412" id="svg_54" stroke="#000000" fill-opacity="0" xlink:href="#a8M6nX5Fb"/>
    </g>
   </g>
   <g id="svg_115">
    <g id="svg_116">
     <use x="-3.41176" y="1.29412" id="svg_117" fill="#000000" xlink:href="#di2Q8OugB"/>
    </g>
    <g id="svg_118">
     <g id="svg_119">
      <use x="-3.41176" y="1.29412" id="svg_120" stroke-width="0.5" stroke="#000000" fill-opacity="0" xlink:href="#hwlgFbQxl"/>
     </g>
    </g>
    <g id="svg_121">
     <g id="svg_122">
      <use x="-3.41176" y="1.29412" id="svg_123" stroke-width="0.5" stroke="#000000" fill-opacity="0" xlink:href="#aUsY5FVa0"/>
     </g>
    </g>
   </g>
   <g id="svg_124">
    <g id="svg_125">
     <use x="-3.41176" y="1.29412" id="svg_126" fill="#000000" xlink:href="#b33soO7ZeI"/>
    </g>
    <g id="svg_127">
     <g id="svg_128">
      <use x="-3.41176" y="1.29412" id="svg_129" stroke-width="0.5" stroke="#000000" fill-opacity="0" xlink:href="#cbuBAJeqY"/>
     </g>
    </g>
    <g id="svg_130">
     <g id="svg_131">
      <use x="-3.41176" y="1.29412" id="svg_132" stroke-width="0.5" stroke="#000000" fill-opacity="0" xlink:href="#cN9jshUZ4"/>
     </g>
    </g>
   </g>
   <g id="svg_133">
    <g id="svg_134">
     <use x="-3.41176" y="1.29412" id="svg_135" stroke-width="0.5" stroke="#000000" fill-opacity="0" xlink:href="#b29nuScvDN"/>
    </g>
   </g>
   <g id="svg_136">
    <g id="svg_137">
     <use x="-3.41176" y="1.29412" id="svg_138" stroke-width="0.5" stroke="#000000" fill-opacity="0" xlink:href="#h1lBDPOOQ"/>
    </g>
   </g>
   <path d="m28.52941,43.58823c0.23404,0.76737 0.09621,1.71881 -0.00988,2.52737c-0.11396,0.8685 -0.10776,1.82557 -0.10776,2.6589c0,0.90188 0,1.77737 0,2.71463c0,0.84294 -0.01022,1.74132 0,2.59322c0.01004,0.83689 0.14234,1.74635 0.29167,2.66765c0.13961,0.86133 0.20886,1.79729 0.37335,2.68267c0.15976,0.85988 0.31429,1.71397 0.58502,2.56153c0.28336,0.88707 0.61063,1.68704 1.09929,2.49177c0.45098,0.74266 1.11437,1.36727 1.70792,1.76439c0.73972,0.49492 1.62879,1.00501 2.42525,1.39561c0.82816,0.40614 1.44365,0.76471 2.29643,1.16068c0.84507,0.39239 1.66928,0.66738 2.58082,0.91614c0.78453,0.2141 1.59839,0.43003 2.56275,0.65572c0.87766,0.20541 1.79811,0.3862 2.62886,0.3862c0.81137,0 1.85702,0 2.73096,0c0.93335,0 1.72583,0 2.57712,0c0.96408,0 1.85474,0.03449 2.7481,-0.15547c0.85541,-0.18189 1.70778,-0.43949 2.47427,-0.85629c0.80179,-0.436 1.41582,-1.08492 1.94923,-1.80157c0.52103,-0.70001 0.89435,-1.48804 1.41051,-2.23153c0.49871,-0.71834 1.15385,-1.39185 1.7702,-1.99043c0.6806,-0.661 1.30016,-1.04018 2.02583,-1.63927c0.72007,-0.59447 1.09112,-1.44498 1.4032,-2.19728c0.37701,-0.90884 0.35402,-1.83007 0.78274,-2.57851c0.40382,-0.70497 1.49712,-0.51233 2.3029,-0.85255c0.81973,-0.34612 1.75647,-0.61607 2.27169,-1.31702c0.51662,-0.70285 0.71468,-1.61465 1.03718,-2.44447c0.31433,-0.80878 0.56013,-1.65123 0.31649,-1.50641c-0.75032,0.446 -1.4635,0.9658 -2.17287,1.45316c-0.7614,0.5231 -1.56826,0.89613 -2.41422,1.05883c-0.82519,0.1587 -1.88223,0.44349 -2.63235,0c-0.55156,-0.3261 -0.34307,-1.47085 -0.56749,-2.30557c-0.23219,-0.86361 -0.58943,-1.66753 -1.04721,-2.43814c-0.43795,-0.73723 -0.94439,-1.5007 -1.51765,-2.19747c-0.54877,-0.667 -0.8412,-1.68707 -1.59947,-2.06281c-0.74608,-0.36969 -1.71382,0.35069 -2.17143,1.09306c-0.45453,0.73738 -0.47748,1.67327 -0.46439,2.57524c0.01303,0.89812 0.19519,1.77171 0.56863,2.59059c0.36153,0.79276 0.909,1.5049 1.52251,2.1291c0.64099,0.65216 1.14971,1.39803 1.94669,1.81853c0.75411,0.39788 1.12227,0.76123 0.72933,1.55482c-0.38391,0.77536 -0.99058,1.48577 -1.51288,2.12359c-0.58009,0.70839 -1.29857,1.28973 -2.17192,1.50057c-0.83628,0.20189 -1.71836,0.38224 -2.59985,0.51135c-0.82347,0.12062 -1.72861,0.22712 -2.65898,0.28116c-0.87843,0.05102 -1.78167,0.20551 -2.65104,-0.08043c-0.8584,-0.28233 -1.51222,-0.93201 -2.10945,-1.6121c-0.61815,-0.70391 -0.9942,-1.39519 -1.42524,-2.24622c-0.40435,-0.79833 -0.78673,-1.57155 -1.01035,-2.47057c-0.21275,-0.8553 -0.2993,-1.7103 -0.38212,-2.60345c-0.08687,-0.93689 -0.22329,-1.74585 -0.34337,-2.65145c-0.11339,-0.85518 -0.2603,-1.7669 -0.40596,-2.66228c-0.13766,-0.84621 -0.31953,-1.69459 -0.4229,-2.59541l-0.55122,-0.67565" id="svg_143" stroke-linecap="null" stroke-linejoin="null" stroke-dasharray="null" stroke-width="null" stroke="#000000" fill="#00bf5f"/>
   <ellipse ry="0.35294" rx="0.47059" id="svg_144" cy="39.35294" cx="35.47059" stroke-linecap="null" stroke-linejoin="null" stroke-dasharray="null" stroke="#000000" fill="#000000"/>
   <ellipse stroke="#000000" ry="1.64706" rx="5.58824" id="svg_148" cy="4.76471" cx="34.70588" stroke-linecap="null" stroke-linejoin="null" stroke-dasharray="null" stroke-width="null" fill="#ff7f00"/>
  </g>
 </g>
</svg>