<svg width="75" height="75" xmlns="http://www.w3.org/2000/svg" xmlns:svg="http://www.w3.org/2000/svg">
 <!-- Created with SVG-edit - http://svg-edit.googlecode.com/ -->
 <title>water</title>
 <g>
  <title>Layer 1</title>
  <path id="svg_3" d="m63.247757,69.371167c0,0 -4.357042,-2.826189 -4.368813,-2.83796c-0.011771,-0.01177 -5.405092,-0.459261 -5.416863,-0.471032c-0.011771,-0.01177 -6.111639,0.365044 -6.12341,0.353274c-0.011771,-0.01177 -3.167692,-3.403208 -3.179463,-3.414979c-0.011771,-0.01177 -1.754597,-5.051819 -1.766368,-5.063589c-0.011772,-0.011771 -0.45926,-5.876124 -0.471032,-5.887894c-0.011772,-0.011771 0.129529,-7.642492 0.117758,-7.654263c-0.011772,-0.011771 3.308992,-5.640607 3.297221,-5.652379c-0.011771,-0.011771 5.899666,-3.756481 5.887894,-3.768252c-0.011771,-0.011772 11.78756,-0.694776 11.775789,-0.706547c-0.011771,-0.011772 -2.814418,-5.405091 -2.826189,-5.416863c-0.011771,-0.011772 -13.765902,1.071593 -13.777673,1.059821c-0.011771,-0.011772 -9.173344,6.370698 -9.185115,6.358926c-0.011772,-0.011772 9.55016,-11.410743 9.538389,-11.422515c-0.011771,-0.011772 7.430518,-3.991996 7.418747,-4.003768c-0.011771,-0.011772 2.249171,-3.285449 2.2374,-3.297221c-0.011771,-0.011772 -5.051818,-6.464911 -5.063589,-6.476684c-0.011771,-0.011772 -6.464912,8.608098 -6.476684,8.596326c-0.011771,-0.011772 -6.464912,7.312761 -6.476684,7.300989c-0.011772,-0.011772 -4.34527,4.839845 -4.357042,4.828073c-0.011772,-0.011772 2.484687,-18.476216 2.472916,-18.487989c-0.011772,-0.011772 -9.408859,-0.459259 -9.420631,-0.471032c-0.011772,-0.011772 -0.341502,15.20254 -0.353274,15.190768c-0.011772,-0.011772 -8.702311,-0.694775 -8.714084,-0.706547c-0.011772,-0.011772 -6.229395,0.482803 -6.241168,0.471032c-0.011773,-0.011772 1.307109,9.432403 1.295337,9.420631c-0.011773,-0.011771 7.548277,-1.283565 7.548277,-1.283565c0,0 5.652378,1.295337 5.652378,1.295337c0,0 1.884126,5.181347 1.872354,5.169576c-0.011772,-0.011771 -8.702311,-1.872355 -8.714084,-1.884126c-0.011772,-0.011771 -5.40509,-0.45926 -5.416863,-0.471032c-0.011773,-0.011771 -1.165806,4.839845 -1.177579,4.828073c-0.011773,-0.011771 10.492224,0.600561 10.480452,0.588789c-0.011772,-0.011771 4.839846,2.013655 4.839846,2.013655c0,0 2.472916,4.121526 2.461144,4.109755c-0.011772,-0.011771 1.189351,7.195002 1.177579,7.183231c-0.011772,-0.011771 0.011772,3.662265 0,3.650495c-0.011772,-0.011771 -3.049933,4.133296 -3.061705,4.121526c-0.011772,-0.01177 -5.169575,0.60056 -5.181347,0.588789c-0.011772,-0.01177 -5.758364,-0.459261 -5.770137,-0.471032c-0.011773,-0.01177 -4.463027,3.308991 -4.4748,3.297221c-0.011773,-0.01177 -1.401322,1.895896 -1.413095,1.884126c-0.011773,-0.01177 6.252941,-1.283567 6.241168,-1.295337c-0.011772,-0.01177 5.075362,-0.694777 5.075362,-0.694777c0,0 4.357042,-0.117758 4.357042,-0.117758c0,0 3.88601,0.235516 3.874238,0.223746c-0.011772,-0.01177 -3.520965,2.955717 -3.532737,2.943947c-0.011772,-0.01177 6.370698,-1.990114 6.370698,-1.990114c0,0 2.472916,2.472916 2.461144,2.461146c-0.011772,-0.01177 3.191235,-3.520966 3.179463,-3.532737c-0.011772,-0.01177 4.486571,3.308991 4.486571,3.308991c0,0 0.588789,-4.239284 0.577018,-4.251054c-0.011771,-0.01177 4.957603,1.542623 4.945831,1.530853c-0.011771,-0.01177 8.843613,1.189349 8.831842,1.177579c-0.011771,-0.01177 4.486571,-2.22563 4.486571,-2.22563z" stroke-linecap="null" stroke-linejoin="null" stroke-dasharray="null" stroke="#000000" fill="#7f3f00"/>
  <ellipse ry="6.005652" rx="5.534621" id="svg_4" cy="35.221382" cx="64.18982" stroke-linecap="null" stroke-linejoin="null" stroke-dasharray="null" stroke-width="0" stroke="#000000" fill="#007f00"/>
  <ellipse ry="8.125294" rx="8.125294" id="svg_6" cy="24.976445" cx="60.657084" stroke-linecap="null" stroke-linejoin="null" stroke-dasharray="null" stroke-width="0" stroke="#000000" fill="#007f00"/>
  <ellipse id="svg_7" cy="4.486573" cx="43.228917" stroke-linecap="null" stroke-linejoin="null" stroke-dasharray="null" stroke-width="0" stroke="#000000" fill="#007f00"/>
  <ellipse ry="4.592558" rx="4.121526" id="svg_9" cy="13.789446" cx="58.537442" stroke-linecap="null" stroke-linejoin="null" stroke-dasharray="null" stroke-width="0" stroke="#000000" fill="#007f00"/>
  <ellipse ry="7.77202" rx="8.714084" id="svg_10" cy="11.31653" cx="51.118695" stroke-linecap="null" stroke-linejoin="null" stroke-dasharray="null" stroke-width="0" stroke="#000000" fill="#007f00"/>
  <ellipse ry="12.24682" rx="12.011304" id="svg_11" cy="12.847382" cx="35.103622" stroke-linecap="null" stroke-linejoin="null" stroke-dasharray="null" stroke-width="0" stroke="#000000" fill="#007f00"/>
  <ellipse ry="7.536505" rx="7.183231" id="svg_12" cy="15.791331" cx="20.73716" stroke-linecap="null" stroke-linejoin="null" stroke-dasharray="null" stroke-width="0" stroke="#000000" fill="#007f00"/>
  <ellipse id="svg_13" cy="9.07913" cx="60.657084" stroke-linecap="null" stroke-linejoin="null" stroke-dasharray="null" stroke-width="0" stroke="#000000" fill="#007f00"/>
  <ellipse ry="4.4748" rx="4.4748" id="svg_15" cy="12.729626" cx="14.613751" stroke-linecap="null" stroke-linejoin="null" stroke-dasharray="null" stroke-width="0" stroke="#000000" fill="#007f00"/>
  <ellipse ry="8.831841" rx="6.358926" id="svg_16" cy="18.970791" cx="13.082898" stroke-linecap="null" stroke-linejoin="null" stroke-dasharray="null" stroke-width="0" stroke="#000000" fill="#007f00"/>
  <ellipse ry="9.067357" rx="8.714084" id="svg_17" cy="30.864338" cx="10.256709" stroke-linecap="null" stroke-linejoin="null" stroke-dasharray="null" stroke-width="0" stroke="#000000" fill="#007f00"/>
  <ellipse ry="7.77202" rx="5.770136" id="svg_18" cy="42.52237" cx="11.669803" stroke-linecap="null" stroke-linejoin="null" stroke-dasharray="null" stroke-width="0" stroke="#000000" fill="#007f00"/>
  <ellipse ry="6.947715" rx="6.829957" id="svg_19" cy="26.742813" cx="23.563349" stroke-linecap="null" stroke-linejoin="null" stroke-dasharray="null" stroke-width="0" stroke="#000000" fill="#007f00"/>
  <ellipse ry="5.063589" rx="5.181347" id="svg_20" cy="21.796983" cx="47.703716" stroke-linecap="null" stroke-linejoin="null" stroke-dasharray="null" stroke-width="0" stroke="#000000" fill="#007f00"/>
  <ellipse ry="4.945831" rx="3.061705" id="svg_21" cy="21.208192" cx="54.651432" stroke-linecap="null" stroke-linejoin="null" stroke-dasharray="null" stroke-width="0" stroke="#000000" fill="#007f00"/>
 </g>
</svg>