<svg width="75" height="75" xmlns="http://www.w3.org/2000/svg" xmlns:svg="http://www.w3.org/2000/svg">
 <!-- Created with SVG-edit - http://svg-edit.googlecode.com/ -->
 <g>
  <title>Layer 1</title>
  <path d="m22.41176,25.11765c0.22102,1.17396 0.67344,1.90755 1.07059,2.70335c0.372,0.74541 -0.36553,1.32953 -0.98824,1.92637c-0.44661,0.42806 0.17133,1.1972 0.5029,2.00259c0.33444,0.81236 0.49681,1.77028 1.19122,2.32061c0.67471,0.53471 1.37625,1.0291 1.91341,1.67814c0.56599,0.68387 1.42477,0.92754 2.29051,1.31012c0.75256,0.33256 1.36769,1.04614 1.95279,1.6891c0.60219,0.66174 1.18397,1.29586 2.11339,1.48737c0.81354,0.16764 1.69339,-0.11984 2.50559,-0.05035c0.93991,0.08041 1.84193,0.69339 2.66714,0.29741c0.80424,-0.38591 1.10751,-1.45458 1.92549,-1.57992c0.81101,-0.12428 1.89986,0.46865 2.66353,-0.02008c0.62202,-0.39808 0.40639,-1.56424 0.79953,-2.35294c0.37534,-0.753 1.17288,-1.16212 1.89804,-1.68235c0.71649,-0.51402 1.45083,-0.51301 2.33725,-0.80784c0.82808,-0.27543 0.67736,-1.37135 0.56863,-2.21568c-0.11294,-0.87699 0.36669,-1.86491 0,-2.65882c-0.33477,-0.72482 -1.48538,-0.67846 -2.18823,-1.17772c-0.71539,-0.50817 -1.23126,-0.84483 -2.07185,-0.75169c-0.86282,0.09561 -1.70298,-0.22809 -2.64157,-0.42247c-0.84824,-0.17567 -1.74444,-0.21887 -2.5821,-0.3248c-0.84111,-0.10637 -1.7652,-0.20284 -2.68755,-0.44269c-0.89188,-0.23192 -1.58731,-0.38347 -2.47545,-0.5349c-0.98151,-0.16735 -1.86946,-0.3607 -2.76141,-0.42635c-0.69816,-0.05139 -1.65547,-0.12648 -2.63796,-0.25867c-0.78995,-0.10628 -1.7578,-0.296 -2.62688,-0.45514l-0.88261,-0.076l-0.91498,-0.00016l-0.83528,0.12941" id="svg_116" stroke-linecap="null" stroke-linejoin="null" stroke-dasharray="null" stroke-width="null" stroke="#000000" fill="#9eb0e5"/>
  <ellipse stroke="#000000" ry="13.63927" rx="17.39728" id="svg_93" cy="15.9334" cx="34.74224" stroke-linecap="null" stroke-linejoin="null" stroke-dasharray="null" stroke-width="null" fill="#9eb0e5"/>
  <g id="svg_114">
   <ellipse stroke="#000000" id="svg_103" ry="3.80688" rx="3.72778" cy="14.26036" cx="39.07286" stroke-linecap="null" stroke-linejoin="null" stroke-dasharray="null" stroke-width="null" fill="#dbdb4e"/>
   <ellipse stroke="#000000" id="svg_104" ry="0.141" rx="1.93292" cy="13.97837" cx="38.79673" stroke-linecap="null" stroke-linejoin="null" stroke-dasharray="null" stroke-width="null" fill="#9eb0e5"/>
  </g>
  <g id="svg_115">
   <ellipse stroke="#000000" ry="3.80688" rx="3.72778" id="svg_101" cy="14.09466" cx="28.15199" stroke-linecap="null" stroke-linejoin="null" stroke-dasharray="null" stroke-width="null" fill="#dbdb4e"/>
   <ellipse stroke="#000000" ry="0.141" rx="1.93292" id="svg_102" cy="13.81267" cx="27.87586" stroke-linecap="null" stroke-linejoin="null" stroke-dasharray="null" stroke-width="null" fill="#9eb0e5"/>
  </g>
  <path stroke="#000000" d="m23.18648,29.47222c-1.04065,0.12032 -1.98781,0.44305 -3.00059,0.74728c-1.02264,0.30719 -1.75742,1.1602 -1.96252,2.19889c-0.20506,1.03848 0.27056,2.09189 -0.19136,2.99914c-0.46944,0.92201 -1.25617,1.6393 -2.13781,2.23036c-0.88576,0.59382 -1.75015,1.13224 -2.77439,1.59719c-0.89016,0.40409 -1.99511,0.70798 -2.82796,1.23209c-0.90529,0.56969 -1.05004,1.64964 -1.05004,2.74798c0,1.07509 -0.08058,2.16518 -0.61946,2.97364c-0.63269,0.94922 -1.42065,1.56503 -2.0802,2.44373c-0.61443,0.8186 -1.37406,1.64114 -1.96661,2.48641c-0.61354,0.87521 -1.06532,1.85456 -1.65661,2.70617c-0.58323,0.84001 -1.49307,1.64499 -1.66519,2.73336c-0.14408,0.91104 1.17707,1.19436 2.2031,1.24384c1.07572,0.05188 1.97027,-0.43133 2.79427,-1.09469c0.78715,-0.63368 1.52402,-1.37248 1.84235,-2.35726c0.32341,-1.00046 0.79594,-1.89892 1.18442,-2.9485c0.35837,-0.9682 0.82063,-1.96012 1.40273,-2.86893c0.56671,-0.88478 1.24948,-1.70078 2.14562,-2.24392c0.87253,-0.52884 1.81907,-0.8735 2.76661,-1.45829c0.88737,-0.54765 1.75193,-1.09537 2.60887,-1.75657c0.81485,-0.62871 1.45918,-1.49523 2.01921,-2.41455c0.50149,-0.82321 0.83864,-1.84717 1.02765,-2.96175c0.17628,-1.03956 0.3722,-2.09173 0.55723,-3.11055c0.18999,-1.04609 0.71297,-1.98334 1.41481,-2.76241l0.86328,-0.60024" id="svg_94" stroke-linecap="null" stroke-linejoin="null" stroke-dasharray="null" stroke-width="null" fill="#9eb0e5"/>
  <path stroke="#000000" d="m24.57201,33.48923c-0.455,0.96417 -0.65141,2.03246 -0.44163,3.04531c0.21694,1.04746 0.47148,2.06631 0.44163,3.11431c-0.03011,1.05711 -0.23454,2.12814 -0.70487,3.06891c-0.48185,0.9638 -1.02626,1.85307 -1.62255,2.7339c-0.54975,0.81208 -1.3835,1.53738 -2.20574,2.27811c-0.7696,0.6933 -1.51628,1.38403 -2.43714,1.90551c-0.91002,0.51533 -1.90181,0.92234 -2.69431,1.61938c-0.77757,0.68391 -1.18922,1.63163 -1.61003,2.59431c-0.4386,1.00337 -0.66314,2.41853 0.13408,2.62188c0.99685,0.25427 1.95285,-0.6627 2.77439,-1.32536c0.82016,-0.66154 1.56211,-1.46121 2.39749,-2.0015c0.87412,-0.56534 1.89524,-0.91191 2.84939,-1.416c0.95613,-0.50513 1.85484,-0.95537 2.64988,-1.68572c0.78436,-0.72053 1.27187,-1.65318 1.73503,-2.618c0.418,-0.87076 0.83932,-1.91398 0.99721,-2.95244c0.16429,-1.08058 0.18674,-2.13997 0.0232,-3.17752c-0.15467,-0.98132 -0.57889,-2.02923 -0.62921,-3.09055l0,-1.0667l0,-1.08322l0.0602,-1.07156" id="svg_95" stroke-linecap="null" stroke-linejoin="null" stroke-dasharray="null" stroke-width="null" fill="#9eb0e5"/>
  <path stroke="#000000" d="m29.32264,37.13086c0,1.13383 0,2.16757 0,3.27673c0,1.01481 -0.00731,2.1034 0.19182,3.16563c0.19816,1.05707 0.22238,2.10492 0.22238,3.18124c0,0.9911 0.17212,2.0936 -0.12481,3.13931c-0.28378,0.99937 -0.8863,1.91612 -1.46663,2.77536c-0.60431,0.89475 -1.43708,1.55095 -2.39234,2.06854c-0.88207,0.47793 -1.87517,0.90643 -2.89228,1.17379c-0.94212,0.24765 -1.95108,0.45194 -2.88731,0.99705c-0.93279,0.54312 -2.09982,1.5217 -1.46484,2.07728c0.76987,0.6736 2.07063,0.32148 3.02241,0.28136c1.11199,-0.04687 2.07166,-0.52066 2.99482,-0.95464c0.874,-0.41087 1.81526,-0.82798 2.73629,-1.31144c0.99293,-0.5212 2.01086,-1.05156 2.69459,-1.8621c0.64451,-0.76405 1.14265,-1.83571 1.4091,-2.8088c0.26896,-0.98224 0.3045,-2.12079 0.49722,-3.16788c0.18318,-0.99525 0.26672,-2.10297 0.33596,-3.19571c0.0643,-1.01482 0.08236,-2.11683 0.02154,-3.12935c-0.06526,-1.08637 -0.23545,-2.1091 -0.27466,-3.20022l0.22682,-1.00417" id="svg_96" stroke-linecap="null" stroke-linejoin="null" stroke-dasharray="null" stroke-width="null" fill="#9eb0e5"/>
  <path stroke="#000000" d="m34.69167,38.54081c-0.76132,0.68178 -0.98116,1.67567 -1.10103,2.70148c-0.12903,1.10418 -0.19701,2.16706 -0.13862,3.18104c0.05958,1.03465 0.26566,2.11502 0.5079,3.16145c0.23936,1.03401 0.45167,2.11479 0.45562,3.20062c0.00352,0.96767 0.06349,1.93436 0,3.13163c-0.05927,1.11765 -0.44024,2.05917 -0.74206,2.97218c-0.34423,1.04131 -0.64687,2.0944 -1.07581,3.22391c-0.33833,0.89091 -0.63198,1.97782 -1.42669,2.72885c-0.7636,0.72164 -1.74406,1.09354 -2.83035,1.45401c-0.94371,0.31316 -1.98889,0.38678 -3.08348,0.24872c-1.02386,-0.12914 -2.02996,-0.41926 -2.95609,-0.65441c-0.99525,-0.2527 -2.13409,-0.38709 -3.08127,-0.83281c-0.94622,-0.44528 -1.8017,-1.12209 -2.59247,-1.75194c-0.84302,-0.67147 -1.5684,-1.63578 -2.55029,-1.42342c-1.03476,0.2238 -1.96146,0.86432 -2.69093,1.61426c-0.74263,0.76347 -1.31225,2.00243 -0.83245,2.94323c0.46281,0.90748 1.73056,1.04069 2.6794,1.2449c1.0106,0.2175 2.19262,0.20731 3.1419,0.20943c1.10078,0.00246 2.15605,0.175 3.1743,0.37338c1.03423,0.20149 2.0807,0.25622 3.08039,0.4162c0.99501,0.15923 2.07854,0.39412 3.16074,0.30714c1.01207,-0.08135 2.0053,-0.24429 3.05517,-0.48799c0.99001,-0.2298 1.74005,-1.04487 2.27017,-1.94818c0.48225,-0.82173 0.95351,-1.80504 1.61998,-2.72591c0.64093,-0.88558 1.40141,-1.58718 2.03859,-2.3879c0.67747,-0.85135 1.13641,-1.76902 1.62998,-2.72617c0.48567,-0.94183 0.83673,-2.02278 0.90564,-3.00313c0.07763,-1.10443 0.00787,-2.15197 0.00497,-3.23622c-0.00288,-1.07769 -0.28213,-2.12816 -0.49704,-3.12549c-0.22701,-1.05352 -0.48546,-2.10458 -0.46795,-3.14589c0.01797,-1.06929 0.38972,-2.09106 0.41273,-3.12796l0,-1.04912" id="svg_97" stroke-linecap="null" stroke-linejoin="null" stroke-dasharray="null" stroke-width="null" fill="#9eb0e5"/>
  <path stroke="#000000" d="m39.25271,38.23457c-0.11063,0.94373 -0.24362,2.04315 -0.37278,3.12871c-0.12542,1.05415 -0.25056,2.14658 -0.34056,3.21608c-0.08702,1.03401 0.14157,2.09822 0.46132,3.07427c0.32792,1.00099 0.89095,1.94 1.14657,2.99442c0.2289,0.94418 0.36602,2.08203 0.55226,3.08427c0.2033,1.09403 0.44077,2.11832 0.48549,3.11642c0.04714,1.05227 0.00062,2.17121 0.00062,3.16117c0,1.11367 0,2.26119 0,3.24256c0,1.04182 -0.08045,2.18935 -0.13807,3.25375c-0.05831,1.07725 0.42738,2.07743 1.41067,2.34391c0.93909,0.2545 2.12758,0.35034 3.14264,0.2595c1.02038,-0.09131 1.76529,-0.91685 2.45401,-1.65423c0.74299,-0.79549 1.73637,-1.66832 1.69085,-2.66472c-0.04251,-0.93044 -1.50453,-1.06308 -2.46411,-1.5025c-0.95684,-0.43817 -1.9265,-1.07533 -2.18082,-2.09416c-0.24712,-0.98997 -0.24831,-2.09172 -0.18676,-3.20664c0.05755,-1.04233 0.28993,-2.07833 0.47377,-3.14356c0.17922,-1.03845 0.37102,-2.01481 0.34549,-3.11739c-0.02396,-1.03439 -0.36251,-2.02084 -0.75676,-3.1156c-0.34264,-0.95146 -0.69066,-1.99583 -1.01375,-2.98379c-0.34173,-1.04494 -0.82271,-1.99717 -1.19676,-2.98835c-0.38149,-1.01089 -0.65738,-1.98277 -1.12018,-2.99418l-0.24373,-0.95125l-0.12711,-1.11471" id="svg_98" stroke-linecap="null" stroke-linejoin="null" stroke-dasharray="null" stroke-width="null" fill="#9eb0e5"/>
  <path stroke="#000000" d="m46.73844,29.94371c0.97797,-0.14099 2.01328,-0.11008 3.0056,-0.14099c1.13221,-0.03527 2.13253,-0.19577 3.16392,-0.29402c1.06889,-0.10182 2.10986,-0.12896 3.15582,-0.12896c1.0158,0 2.02986,0.13479 2.95859,0.50758c0.96534,0.38749 1.98819,0.53524 3.00347,0.98396c0.96543,0.42669 1.60777,1.30876 2.03459,2.21262c0.47818,1.01264 0.76408,2.04317 0.76466,3.09539c0.00059,1.07325 -0.41588,2.07137 -0.85141,3.04663c-0.42086,0.94241 -0.87892,1.96653 -0.65153,3.00656c0.22107,1.01114 1.15597,1.71771 2.04202,2.32706c0.84335,0.57998 1.80743,1.01264 2.6681,1.61501c0.84215,0.58942 1.62462,1.28768 2.08259,2.29221c0.4298,0.94273 0.75443,2.07216 0.64413,3.16356c-0.10461,1.03519 -0.75714,1.97466 -1.51671,2.62045c-0.87369,0.74282 -1.81205,1.02223 -2.82557,1.32085c-1.08429,0.31947 -2.35206,1.12795 -3.01308,0.50523c-0.75084,-0.70733 -0.12957,-2.08422 -0.23533,-3.18321c-0.09646,-1.00231 -0.38845,-2.04575 -0.89743,-2.99907c-0.49318,-0.92373 -1.18012,-1.74147 -1.73669,-2.66484c-0.54132,-0.89807 -1.29462,-1.66595 -1.56162,-2.73529c-0.26009,-1.04167 -0.10191,-2.13986 0.37315,-3.06148c0.48918,-0.94902 0.65018,-1.93484 0.64707,-3.05466c-0.00288,-1.03528 -0.76106,-1.79427 -1.72583,-2.25428c-0.89412,-0.42633 -1.95382,-0.57238 -2.94541,-0.82247c-1.01885,-0.25697 -2.08272,-0.34566 -3.00057,-0.53038c-1.1,-0.22138 -2.05946,-0.56939 -3.1014,-0.86774l-0.98211,-0.29233l-0.98881,-0.2835" id="svg_99" stroke-linecap="null" stroke-linejoin="null" stroke-dasharray="null" stroke-width="null" fill="#9eb0e5"/>
  <path stroke="#000000" d="m44.72383,33.77122c0.09499,0.91459 0.64864,1.84665 1.21696,2.75144c0.56429,0.89839 1.10384,1.85635 1.84608,2.61937c0.69771,0.71724 1.63347,1.31707 2.39885,1.95382c0.84018,0.69898 1.80347,1.11718 2.70414,1.56103c0.90632,0.44663 2.02464,0.62229 2.87926,1.28952c0.82481,0.64395 1.55362,1.48999 2.06802,2.38452c0.51171,0.88984 0.9307,1.88754 1.0588,2.93031c0.13161,1.07126 0.18532,2.12804 0.18676,3.1919c0.00144,1.06334 0.10371,2.1108 0.41707,3.0314c0.38456,1.12978 0.66367,2.12964 0.99617,3.1301c0.33958,1.02177 0.82692,1.98521 0.93388,3.0737c0.10569,1.07556 -0.18887,2.07335 -0.83226,2.94098c-0.61129,0.82433 -1.70474,1.25435 -2.63382,0.8995c-0.99839,-0.38132 -1.79289,-1.228 -2.35736,-2.12899c-0.56342,-0.89931 -0.75853,-1.97642 -0.95558,-3.05401c-0.17862,-0.97679 -0.19826,-2.09785 -0.58289,-3.08477c-0.37751,-0.96866 -0.92925,-1.90449 -1.58054,-2.7304c-0.6605,-0.8376 -1.16716,-1.74679 -1.53456,-2.70016c-0.38636,-1.00258 -0.82544,-1.98416 -1.25861,-2.97275c-0.39256,-0.89591 -0.91408,-1.90292 -1.21498,-2.88834c-0.30835,-1.0098 -0.60106,-2.06417 -1.0377,-2.92951c-0.52755,-1.04549 -1.15368,-1.85013 -1.8834,-2.63587c-0.68185,-0.73419 -1.43257,-1.58046 -2.0021,-2.46462l-0.55802,-0.85185l-0.84239,-0.58121" id="svg_100" stroke-linecap="null" stroke-linejoin="null" stroke-dasharray="null" stroke-width="null" fill="#9eb0e5"/>
  <ellipse stroke="#000000" ry="4.47059" rx="10.94118" id="svg_119" cy="27.58824" cx="34.64706" stroke-linecap="null" stroke-linejoin="null" stroke-dasharray="null" stroke-width="0" fill="#9eb0e5"/>
  <line id="svg_123" y2="11.11765" x2="32.64706" y1="7.47059" x1="25.47059" stroke-linecap="null" stroke-linejoin="null" stroke-dasharray="null" stroke-width="null" stroke="#000000" fill="none"/>
  <line id="svg_124" y2="11.70588" x2="34.52941" y1="6.88235" x1="40.64706" stroke-linecap="null" stroke-linejoin="null" stroke-dasharray="null" stroke-width="null" stroke="#000000" fill="none"/>
  <path d="m26.76471,21.11765c0.32941,-0.7898 1.06347,-1.3856 1.90592,-1.63276c0.82,-0.24058 1.74618,-0.13317 2.62349,-0.13194c0.87255,0.00123 1.73067,0.30588 2.55294,0.63529l0.80245,0.36471l0.78996,0.40924" id="svg_125" stroke-linecap="null" stroke-linejoin="null" stroke-dasharray="null" stroke-width="null" stroke="#000000" fill="none"/>
 </g>
</svg>