<svg width="75" height="75" xmlns="http://www.w3.org/2000/svg" xmlns:svg="http://www.w3.org/2000/svg">
 <!-- Created with SVG-edit - http://svg-edit.googlecode.com/ -->
 <g>
  <title>Layer 1</title>
  <g stroke="null" id="svg_65">
   <path stroke="#000000" id="svg_62" d="m69.42754,42.71781c0.92271,-0.23529 1.84832,-0.58095 2.7962,-0.59827c0.91661,-0.01675 1.81379,0.68563 1.88235,1.55123c0.0628,0.79288 -0.94735,1.24872 -1.85844,1.51816c-0.9056,0.26782 -0.39251,0.86437 -0.48086,1.72888c-0.0862,0.8435 -1.15833,1.32851 -2.01166,1.73873c-0.83018,0.39908 -1.84038,0.64642 -2.76527,0.44898c-0.93432,-0.19946 -1.90072,-0.33846 -2.60475,-0.90896c-0.73781,-0.59788 -1.1746,-1.44141 -1.06567,-2.32412c0.10397,-0.8424 0.63404,-1.63698 1.31262,-2.23951l0.90969,-0.23527" stroke-linecap="null" stroke-linejoin="null" stroke-dasharray="null" stroke-width="null" fill="#5fbf00"/>
   <polyline stroke="#000000" id="svg_63" points="69.55749702453613,48.24722045660019 69.3817048072815,47.388398587703705 69.29757356643677,46.51780837774277 " stroke-linecap="round" stroke-linejoin="null" stroke-dasharray="null" stroke-width="null" fill="none"/>
   <polyline stroke="#000000" id="svg_64" points="66.308513879776,48.482514798641205 66.308513879776,47.588925778865814 66.308513879776,46.689240872859955 " stroke-linecap="round" stroke-linejoin="null" stroke-dasharray="null" stroke-width="null" fill="none"/>
  </g>
  <path d="m5.23529,42.52941c-0.83529,-0.23529 -1.67321,-0.58096 -2.53129,-0.59827c-0.82977,-0.01675 -1.64195,0.68563 -1.70402,1.55124c-0.05685,0.79288 0.8576,1.24871 1.68237,1.51816c0.8198,0.26782 0.35532,0.86437 0.43529,1.72888c0.07803,0.8435 1.04859,1.32851 1.82108,1.73872c0.75153,0.39909 1.66602,0.64643 2.50329,0.44898c0.8458,-0.19946 1.72065,-0.33846 2.35798,-0.90896c0.66791,-0.59788 1.06332,-1.44141 0.96471,-2.32412c-0.09412,-0.8424 -0.57396,-1.63698 -1.18826,-2.23951l-0.82351,-0.23528" id="svg_59" stroke-linecap="null" stroke-linejoin="null" stroke-dasharray="null" stroke-width="null" stroke="#000000" fill="#5fbf00"/>
  <path d="m22.41176,30.71569c-0.70339,-0.58573 -1.36115,-1.13634 -2.16471,-1.50573c-0.8141,-0.37424 -1.72923,-0.54252 -2.57763,-0.76486c-0.8338,-0.21852 -1.71947,-0.28822 -2.62661,-0.31765c-0.88267,-0.02864 -1.78819,-0.27188 -2.66792,0c-0.79688,0.24627 -1.3932,0.98979 -1.92329,1.67906c-0.56416,0.73357 -0.86061,1.51361 -1.43796,2.27718c-0.50534,0.66833 -1.09905,1.35496 -1.62635,2.08125c-0.52727,0.72624 -1.06905,1.40076 -1.42259,2.20173c-0.37335,0.84586 -0.58718,1.71018 -0.72941,2.60392c-0.13285,0.8348 -0.21306,1.71947 -0.35296,2.60647c-0.13648,0.86528 0.50947,1.38562 1.33384,1.5672c0.9004,0.19833 1.85144,0.33498 2.6872,0.10963c0.82311,-0.22194 1.09473,-1.20635 1.41443,-2.02086c0.33997,-0.86615 0.67343,-1.63552 1.15524,-2.40214c0.48181,-0.76663 0.99259,-1.48793 1.521,-2.1268c0.60004,-0.72549 1.20332,-1.40794 1.91263,-1.86055c0.75376,-0.48097 1.51794,-1.04532 2.32618,-1.36069c0.81626,-0.3185 1.76225,-0.17892 2.65402,-0.17892l0.81902,0.23529" id="svg_57" stroke-linecap="null" stroke-linejoin="null" stroke-dasharray="null" stroke-width="null" stroke="#000000" fill="#a06936"/>
  <path stroke="#000000" id="svg_58" d="m51.8915,30.71569c0.72079,-0.58573 1.39481,-1.13634 2.21824,-1.50573c0.83423,-0.37424 1.772,-0.54252 2.64138,-0.76486c0.85441,-0.21851 1.762,-0.28822 2.69157,-0.31765c0.9045,-0.02863 1.83242,-0.27188 2.7339,0c0.81658,0.24628 1.42766,0.98979 1.97086,1.67906c0.57812,0.73357 0.8819,1.51361 1.47352,2.27718c0.51785,0.66833 1.12623,1.35496 1.66658,2.08125c0.5403,0.72624 1.09549,1.40077 1.45776,2.20173c0.38259,0.84586 0.6017,1.71018 0.74746,2.60392c0.13614,0.8348 0.21832,1.71948 0.36169,2.60647c0.13985,0.86528 -0.52207,1.38562 -1.36684,1.5672c-0.92267,0.19832 -1.89723,0.33497 -2.75365,0.10963c-0.84347,-0.22194 -1.12181,-1.20635 -1.44941,-2.02087c-0.34838,-0.86615 -0.6901,-1.63551 -1.18381,-2.40214c-0.49373,-0.76663 -1.01714,-1.48793 -1.55862,-2.1268c-0.61488,-0.72549 -1.23308,-1.40794 -1.95993,-1.86055c-0.77239,-0.48097 -1.55547,-1.04532 -2.3837,-1.36069c-0.83645,-0.31849 -1.80585,-0.17892 -2.71966,-0.17892l-0.83928,0.2353" stroke-linecap="null" stroke-linejoin="null" stroke-dasharray="null" stroke-width="null" fill="#a06936"/>
  <path stroke="#000000" id="svg_54" d="m50.43642,58.52942c0.7902,-0.18877 1.17684,-0.99433 1.72824,-1.71712c0.54098,-0.70916 1.33249,-1.15188 2.23985,-1.34171c0.84394,-0.17656 1.81398,-0.42417 2.70925,-0.184c0.89412,0.23986 1.62423,0.92494 2.14848,1.63263c0.51861,0.70007 0.61287,1.64785 0.72159,2.48094c0.11953,0.91593 0.2167,1.82231 0.09427,2.69392c-0.12143,0.86452 -0.69431,1.26388 -1.54941,1.25886c-0.93761,-0.0055 -1.87339,0 -2.75449,0c-0.96685,0 -1.88129,0 -2.77129,0c-0.89739,0 -1.80729,-0.05908 -2.70845,0.0513c-0.94549,0.11581 -1.78417,0.184 -2.75857,0.184c-0.87322,0 -1.80788,0.01967 -2.69162,0c-0.94404,-0.02102 -1.85116,-0.18958 -2.63987,-0.696c-0.65551,-0.4209 -0.59041,-1.38635 -0.47987,-2.25882l0.01722,-0.89224l0.42817,-0.76173l0.70151,-0.52619" stroke-linecap="null" stroke-linejoin="null" stroke-dasharray="null" stroke-width="null" fill="#7f3f00"/>
  <path stroke="#000000" id="svg_55" d="m49.83215,47.11765c0.14503,0.89396 0.43298,1.74094 0.48342,2.60784c0.05185,0.89113 -0.02723,1.77815 -0.08654,2.61569c-0.06359,0.89818 -0.03432,1.81161 -0.03432,2.7029c0,0.8971 0.03829,1.76417 0.12086,2.64831c0.08191,0.87719 -0.05012,1.55051 -0.94574,1.49287c-0.9281,-0.05974 -1.83394,-0.06761 -2.70765,-0.06761c-0.94956,0 -1.87813,0.23406 -2.73684,0c-0.69774,-0.19018 -0.64322,-1.33653 -0.76441,-2.14149c-0.12926,-0.85853 -0.27939,-1.77334 -0.33839,-2.70165c-0.05599,-0.88066 -0.12086,-1.7647 -0.12086,-2.61515c0,-0.9083 0,-1.77945 0,-2.68414l-0.1214,-0.8688l-0.1203,-0.87112" stroke-linecap="null" stroke-linejoin="null" stroke-dasharray="null" stroke-width="null" fill="#a06936"/>
  <path d="m23.83554,58.52941c-0.76922,-0.18876 -1.1456,-0.99432 -1.68235,-1.71712c-0.52662,-0.70916 -1.29712,-1.15188 -2.18039,-1.34171c-0.82154,-0.17656 -1.76583,-0.42417 -2.63733,-0.184c-0.87038,0.23986 -1.58111,0.92494 -2.09145,1.63263c-0.50484,0.70007 -0.5966,1.64785 -0.70243,2.48094c-0.11635,0.91593 -0.21094,1.82231 -0.09177,2.69392c0.11821,0.86452 0.67588,1.26388 1.50828,1.25886c0.91273,-0.0055 1.82367,0 2.68137,0c0.94118,0 1.83135,0 2.69773,0c0.87357,0 1.75931,-0.05908 2.63655,0.0513c0.92039,0.11581 1.7368,0.184 2.68534,0.184c0.85004,0 1.75989,0.01967 2.62018,0c0.91898,-0.02102 1.80201,-0.18958 2.56978,-0.696c0.63811,-0.4209 0.57475,-1.38635 0.46714,-2.25882l-0.01676,-0.89223l-0.41681,-0.76173l-0.68288,-0.5262" id="svg_51" stroke-linecap="null" stroke-linejoin="null" stroke-dasharray="null" stroke-width="null" stroke="#000000" fill="#7f3f00"/>
  <path d="m24.42377,47.11765c-0.14118,0.89396 -0.42149,1.74094 -0.47059,2.60785c-0.05047,0.89112 0.02651,1.77814 0.08423,2.61568c0.0619,0.89818 0.03341,1.81161 0.03341,2.7029c0,0.8971 -0.03727,1.76417 -0.11765,2.64831c-0.07975,0.87719 0.04878,1.55051 0.92063,1.49286c0.90346,-0.05973 1.78526,-0.06761 2.63577,-0.06761c0.92435,0 1.82827,0.23406 2.6642,0c0.67922,-0.19018 0.62614,-1.33653 0.74412,-2.14149c0.12583,-0.85854 0.27197,-1.77335 0.32941,-2.70165c0.05449,-0.88066 0.11765,-1.76471 0.11765,-2.61516c0,-0.90829 0,-1.77945 0,-2.68414l0.11818,-0.8688l0.11712,-0.87112" id="svg_50" stroke-linecap="null" stroke-linejoin="null" stroke-dasharray="null" stroke-width="null" stroke="#000000" fill="#a06936"/>
  <ellipse ry="11.76471" rx="16.47059" id="svg_46" cy="34.29412" cx="37.35294" stroke-linecap="null" stroke-linejoin="null" stroke-dasharray="null" stroke="#000000" fill="#7f3f00"/>
  <ellipse ry="9.76471" rx="20.70588" id="svg_27" cy="19.58824" cx="37.5" stroke-linecap="null" stroke-linejoin="null" stroke-dasharray="null" stroke-width="null" stroke="#000000" fill="#5fbf00"/>
  <path stroke="#000000" id="svg_29" d="m54.41903,14.55794c0.70617,-0.55967 1.44858,-1.11642 2.1833,-1.62353c0.74719,-0.51572 1.80099,-0.55524 2.44734,-1.16471c0.59342,-0.55956 -0.13029,-1.41334 -0.59523,-2.19076c-0.44435,-0.74302 -0.46614,-1.75077 0.20153,-2.37897c0.62892,-0.59174 1.58081,-0.68393 2.417,-0.32996c0.83024,0.35146 1.63662,0.8676 2.25099,1.52322c0.62916,0.67141 0.90374,1.5217 1.22657,2.32769c0.34087,0.85102 0.76308,1.71921 0.66236,2.58323c-0.09536,0.81785 -1.18287,0.90085 -2.09029,0.90085c-0.91122,0 -1.88605,-0.03598 -2.78052,0.03341c-0.93749,0.07272 -1.66029,0.63388 -2.44398,1.09725l-0.76179,0.42353l-0.84715,0.40173" stroke-linecap="null" stroke-linejoin="null" stroke-dasharray="null" stroke-width="null" fill="#5fbf00"/>
  <path d="m20.52941,14.76471c-0.67731,-0.55967 -1.38941,-1.11642 -2.09412,-1.62353c-0.71667,-0.51572 -1.72742,-0.55523 -2.34737,-1.16471c-0.56918,-0.55956 0.12498,-1.41334 0.57092,-2.19077c0.42621,-0.74301 0.4471,-1.75076 -0.19329,-2.37896c-0.60323,-0.59174 -1.51625,-0.68393 -2.31827,-0.32996c-0.79633,0.35146 -1.56977,0.86759 -2.15904,1.52322c-0.60346,0.67141 -0.86682,1.5217 -1.17647,2.32769c-0.32695,0.85103 -0.73191,1.71921 -0.63529,2.58323c0.09145,0.81785 1.13455,0.90084 2.0049,0.90084c0.874,0 1.80901,-0.03597 2.66694,0.03341c0.8992,0.07272 1.59247,0.63388 2.34416,1.09725l0.73067,0.42353l0.81255,0.40173" id="svg_28" stroke-linecap="null" stroke-linejoin="null" stroke-dasharray="null" stroke-width="null" stroke="#000000" fill="#5fbf00"/>
  <ellipse ry="2.94118" rx="4.11765" id="svg_30" cy="15.82353" cx="27.35294" stroke-linecap="null" stroke-linejoin="null" stroke-dasharray="null" stroke-width="null" stroke="#000000" fill="#ffffff"/>
  <ellipse ry="0.58824" rx="0.70588" id="svg_31" cy="15.82353" cx="27.23529" stroke-linecap="null" stroke-linejoin="null" stroke-dasharray="null" stroke-width="null" stroke="#000000" fill="#000000"/>
  <path stroke="#000000" d="m23.11765,15.70588c0.41992,-0.79624 0.79409,-1.63058 1.47059,-2.17647c0.68155,-0.54997 1.61192,-0.78761 2.4811,-0.64282c0.8537,0.14221 1.69537,0.584 2.48459,0.83645l0.68137,0.45588l0.77645,0.59755l0.40331,0.74118" id="svg_32" stroke-linecap="null" stroke-linejoin="null" stroke-dasharray="null" stroke-width="null" fill="#000000"/>
  <ellipse id="svg_33" ry="2.94118" rx="4.11765" cy="15.66574" cx="45.88235" stroke-linecap="null" stroke-linejoin="null" stroke-dasharray="null" stroke-width="null" stroke="#000000" fill="#ffffff"/>
  <ellipse id="svg_34" ry="0.58824" rx="0.70588" cy="15.66574" cx="45.76471" stroke-linecap="null" stroke-linejoin="null" stroke-dasharray="null" stroke-width="null" stroke="#000000" fill="#000000"/>
  <path id="svg_35" stroke="#000000" d="m41.64706,15.54809c0.41992,-0.79623 0.79409,-1.63058 1.47059,-2.17647c0.68154,-0.54997 1.61192,-0.78761 2.48109,-0.64282c0.8537,0.14221 1.69538,0.584 2.48459,0.83645l0.68137,0.45588l0.77646,0.59755l0.40331,0.74118" stroke-linecap="null" stroke-linejoin="null" stroke-dasharray="null" stroke-width="null" fill="#000000"/>
  <path d="m33.23529,20.88235c0.16769,-0.85302 0.35482,-1.75214 0.91765,-2.41365c0.58929,-0.69261 1.46786,-1.02286 2.35545,-0.87624c0.81448,0.13454 1.59278,0.74447 2.32267,1.19279l0.53365,0.69712l0.45638,0.75292l0.20298,0.84653" id="svg_36" stroke-linecap="null" stroke-linejoin="null" stroke-dasharray="null" stroke-width="null" stroke="#000000" fill="none"/>
  <ellipse ry="0.35294" rx="0.35294" id="svg_37" cy="20.17647" cx="35.23529" stroke-linecap="null" stroke-linejoin="null" stroke-dasharray="null" stroke-width="null" stroke="#000000" fill="#000000"/>
  <ellipse id="svg_38" ry="0.35294" rx="0.35294" cy="20.35294" cx="37.82353" stroke-linecap="null" stroke-linejoin="null" stroke-dasharray="null" stroke-width="null" stroke="#000000" fill="#000000"/>
  <path d="m25.70588,25c0.82353,-0.33333 1.65668,-0.64663 2.45098,-1.03922c0.78674,-0.38885 1.59345,-0.76151 2.49861,-0.82884c0.76076,-0.05659 1.7003,0.07506 2.63865,-0.0339c0.86597,-0.10056 1.77383,-0.12526 2.67981,-0.24174c0.87703,-0.11277 1.73949,-0.20924 2.61337,-0.20924c0.90886,0 1.76669,-0.01217 2.62416,0c0.91826,0.01303 1.81645,0.11157 2.70118,0.33239c0.86318,0.21544 1.71206,0.51013 2.4941,0.8799c0.79015,0.3736 1.58706,0.85917 2.16049,1.55743c0.55488,0.67567 -0.12863,1.2302 -1.06135,1.23027c-0.8588,0.00007 -1.6268,0 -2.56171,0c-0.93035,0 -1.84437,0 -2.68808,0c-0.86386,0 -1.77921,0 -2.66455,0c-0.92976,0 -1.83984,0 -2.74192,0c-0.86137,0 -1.72678,-0.15828 -2.57441,-0.23476c-0.93473,-0.08435 -1.78285,-0.10851 -2.66459,-0.23529c-0.91514,-0.13159 -1.75629,-0.12437 -2.65094,-0.23582l-0.89014,0l-0.90404,-0.00424l-0.82431,-0.29867" id="svg_39" stroke-linecap="null" stroke-linejoin="null" stroke-dasharray="null" stroke-width="null" stroke="#000000" fill="#000000"/>
  <rect id="svg_40" height="2.35294" width="1.64706" y="23.11765" x="29.35294" stroke-linecap="null" stroke-linejoin="null" stroke-dasharray="null" stroke-width="0" stroke="#000000" fill="#ffffff"/>
  <rect id="svg_41" height="2.82353" width="1.17647" y="23.11765" x="32.05882" stroke-linecap="null" stroke-linejoin="null" stroke-dasharray="null" stroke-width="0" stroke="#000000" fill="#ffffff"/>
  <rect id="svg_42" height="2.82353" width="1.17647" y="22.23529" x="40.05882" stroke-linecap="null" stroke-linejoin="null" stroke-dasharray="null" stroke-width="0" stroke="#000000" fill="#ffffff"/>
  <rect id="svg_43" height="2.35294" width="1.64706" y="22.70588" x="42.41176" stroke-linecap="null" stroke-linejoin="null" stroke-dasharray="null" stroke-width="0" stroke="#000000" fill="#ffffff"/>
  <rect id="svg_44" height="2.47059" width="1.64706" y="22.76471" x="34.76471" stroke-linecap="null" stroke-linejoin="null" stroke-dasharray="null" stroke-width="0" stroke="#000000" fill="#ffffff"/>
  <rect id="svg_45" height="2.47059" width="1.64706" y="22.29412" x="37.23529" stroke-linecap="null" stroke-linejoin="null" stroke-dasharray="null" stroke-width="0" stroke="#000000" fill="#ffffff"/>
  <rect stroke="#000000" id="svg_47" height="12.47059" width="32.94118" y="35.11765" x="20.76471" stroke-linecap="null" stroke-linejoin="null" stroke-dasharray="null" fill="#7f3f00"/>
  <rect stroke="#000000" id="svg_49" height="4.11765" width="31.76471" y="33.35294" x="21.35294" stroke-linecap="null" stroke-linejoin="null" stroke-dasharray="null" stroke-width="0" fill="#7f3f00"/>
  <polyline id="svg_60" points="5.117647022008896,48.05882263183594 5.276784271001816,47.20000076293945 5.3529413640499115,46.329410552978516 " stroke-linecap="round" stroke-linejoin="null" stroke-dasharray="null" stroke-width="null" stroke="#000000" fill="none"/>
  <polyline id="svg_61" points="8.0588239133358,48.29411697387695 8.0588239133358,47.40052795410156 8.0588239133358,46.5008430480957 " stroke-linecap="round" stroke-linejoin="null" stroke-dasharray="null" stroke-width="null" stroke="#000000" fill="none"/>
 </g>
</svg>