<svg width="75" height="75" xmlns="http://www.w3.org/2000/svg" xmlns:svg="http://www.w3.org/2000/svg">
 <!-- Created with SVG-edit - http://svg-edit.googlecode.com/ -->
 <g>
  <title>Layer 1</title>
  <ellipse stroke="#000000" ry="10.25" rx="27.3125" id="svg_1" cy="33.25" cx="33.0625" fill="#000000"/>
  <ellipse stroke="#000000" transform="rotate(24.71744155883789 56.698909759521484,34.76616287231444) " ry="5" rx="10.7179" id="svg_3" cy="34.76616" cx="56.69891" stroke-linecap="null" stroke-linejoin="null" stroke-dasharray="null" fill="#000000"/>
  <ellipse transform="rotate(35.53767776489258 66.87500000000001,40.25000000000001) " ry="0.375" rx="7.5" id="svg_4" cy="40.25" cx="66.875" stroke-linecap="null" stroke-linejoin="null" stroke-dasharray="null" stroke-width="null" stroke="#000000" fill="#000000"/>
  <ellipse stroke="#000000" ry="3.5" rx="7.875" id="svg_5" cy="39.25" cx="41.5" stroke-linecap="null" stroke-linejoin="null" stroke-dasharray="null" stroke-width="null" fill="#ffffff"/>
  <ellipse ry="1.875" rx="5.5" id="svg_6" cy="31.125" cx="15.375" stroke-linecap="null" stroke-linejoin="null" stroke-dasharray="null" stroke-width="null" stroke="#000000" fill="#ffffff"/>
  <path d="m5.875,35c0.88481,-0.13748 1.76252,-0.25 2.65017,-0.25c0.889,0 1.78578,0.04235 2.6395,0c0.90316,-0.0448 1.78533,-0.125 2.67227,-0.125c0.89223,0 1.70258,0.32211 2.5589,0.625c0.80513,0.28479 1.61087,0.67589 2.3855,1.05c0.79818,0.38548 1.56263,0.85655 2.21867,1.45c0.65548,0.59295 1.09616,1.33739 1.43033,2.19283c0.31589,0.80865 0.55102,1.64835 0.56967,2.51967c0.01867,0.87211 -0.86595,0.62917 -1.71194,0.33215c-0.82372,-0.2892 -1.70641,-0.31514 -2.52373,-0.64481c-0.8173,-0.32967 -1.71595,-0.31169 -2.57683,-0.52744c-0.82153,-0.20589 -1.57373,-0.7469 -2.40933,-1.00056c-0.83768,-0.2543 -1.72139,-0.39546 -2.52817,-0.76767c-0.77207,-0.3562 -1.57294,-0.70323 -2.36979,-1.03906c-0.8268,-0.34845 -1.56971,-0.77944 -2.26771,-1.32761l-0.36383,-0.78883l-0.24606,-0.82367l-0.2526,-0.75" id="svg_7" stroke-linecap="null" stroke-linejoin="null" stroke-dasharray="null" stroke-width="null" stroke="#000000" fill="#ffffff"/>
  <path stroke="#000000" d="m26.375,24c0.0625,-0.49125 0.33905,-0.96938 0.375,-1.47009c0.03676,-0.5121 -0.03222,-0.9949 0.05317,-1.50209c0.08424,-0.50036 0.18628,-0.9788 0.38694,-1.46523c0.20114,-0.4876 0.65812,-0.92129 1.0349,-1.37668c0.38129,-0.46085 0.86079,-0.87174 1.51908,-1.22143c0.63425,-0.33692 1.3815,-0.58231 2.23158,-0.75649c0.85121,-0.17441 1.686,-0.33688 2.56775,-0.37306c0.88912,-0.03648 1.87548,-0.13169 2.61908,0.09151c0.77999,0.23412 1.16471,0.83303 0.7625,1.25817c-0.41701,0.44078 -1.32244,0.66475 -2.1125,0.86609c-0.81857,0.20861 -1.69926,0.35608 -2.2875,0.72647c-0.59008,0.37155 -0.76484,0.88534 -0.82817,1.3691c-0.06594,0.5038 -0.1563,1.0181 -0.07183,1.51917c0.08133,0.48247 0.5125,0.94085 0.99731,1.3476l0.6954,0.286" id="svg_8" stroke-linecap="null" stroke-linejoin="null" stroke-dasharray="null" stroke-width="null" fill="#000000"/>
  <path d="m23.625,41.75c0,0.85317 -0.05309,1.75161 0,2.625c0.05501,0.90501 0.06186,1.79244 0.125,2.66842c0.06199,0.8601 0.17186,1.72358 0.375,2.58419c0.20145,0.85346 0.62677,1.75883 1.45056,1.87239c0.83388,0.11496 1.87786,0.07502 2.3101,-0.6c0.47862,-0.74744 0.48576,-1.68033 0.48933,-2.5625c0.0036,-0.88883 0,-1.775 0,-2.6625l-0.2855,-0.825l-0.38817,-0.775l-0.41567,-0.7645" id="svg_10" stroke-linecap="null" stroke-linejoin="null" stroke-dasharray="null" stroke-width="null" stroke="#000000" fill="#000000"/>
 </g>
</svg>