<?xml version="1.0" encoding="UTF-8" standalone="no"?>
<!DOCTYPE svg PUBLIC "-//W3C//DTD SVG 1.1//EN" "http://www.w3.org/Graphics/SVG/1.1/DTD/svg11.dtd">
<svg version="1.1" xmlns="http://www.w3.org/2000/svg" xmlns:xlink="http://www.w3.org/1999/xlink" preserveAspectRatio="xMidYMid meet" viewBox="0 0 75 75" width="75" height="75"><defs><path d="M44.32 19.03C45.62 19.03 46.67 20.08 46.67 21.37C46.67 27.73 46.67 44.45 46.67 50.81C46.67 52.1 45.62 53.15 44.32 53.15C40.19 53.15 30.14 53.15 26.01 53.15C24.72 53.15 23.67 52.1 23.67 50.81C23.67 44.45 23.67 27.73 23.67 21.37C23.67 20.08 24.72 19.03 26.01 19.03C30.14 19.03 40.19 19.03 44.32 19.03Z" id="a4fyo8sEyI"></path><path d="M26.09 5.31L44.22 5.31L44.22 15.06L26.09 15.06L26.09 5.31Z" id="d1sQ1JyH0b"></path><path d="M45.78 4C45.78 5.24 41.02 6.25 35.16 6.25C29.29 6.25 24.53 5.24 24.53 4C24.53 2.76 29.29 1.75 35.16 1.75C41.02 1.75 45.78 2.76 45.78 4Z" id="bfCnmh2IK"></path><path d="M29.63 10.63C29.63 14.9 28.03 18.38 26.06 18.38C24.1 18.38 22.5 14.9 22.5 10.63C22.5 6.35 24.1 2.88 26.06 2.88C28.03 2.88 29.63 6.35 29.63 10.63Z" id="aNwPKqEv0"></path><path d="M47.72 10.59C47.72 14.87 46.12 18.34 44.16 18.34C42.19 18.34 40.59 14.87 40.59 10.59C40.59 6.32 42.19 2.84 44.16 2.84C46.12 2.84 47.72 6.32 47.72 10.59Z" id="apQVI5l7j"></path><path d="M35.09 8.69L44.58 18.19L35.28 27.49L25.78 18L35.09 8.69Z" id="a1oxSGfWjH"></path><path d="M25.21 17.48C23.64 15.91 23.19 13.8 24.22 12.77C25.24 11.75 27.35 12.2 28.92 13.77C30.5 15.34 30.94 17.45 29.92 18.48C28.89 19.5 26.78 19.05 25.21 17.48Z" id="a1TyHLcdjG"></path><path d="M44.64 17.95C43.07 19.52 40.96 19.97 39.94 18.94C38.91 17.92 39.36 15.81 40.93 14.24C42.5 12.66 44.61 12.22 45.64 13.24C46.66 14.27 46.22 16.38 44.64 17.95Z" id="b4RPZJkKyL"></path><path d="M31.88 4C31.88 4.76 30.59 5.38 29 5.38C27.41 5.38 26.13 4.76 26.13 4C26.13 3.24 27.41 2.63 29 2.63C30.59 2.63 31.88 3.24 31.88 4Z" id="atLhJMj8"></path><path d="M44.22 3.97C44.22 4.73 42.93 5.34 41.34 5.34C39.76 5.34 38.47 4.73 38.47 3.97C38.47 3.21 39.76 2.59 41.34 2.59C42.93 2.59 44.22 3.21 44.22 3.97Z" id="f6OdPQA9T"></path><path d="M31.34 16.25L33.22 14.63L35.34 13.63L37.47 14.88L38.97 16.75" id="axR4Q8Zci"></path><path d="M31.34 19.47L33.22 17.84L35.34 16.84L37.47 18.09L38.97 19.97" id="a3J0iGcew1"></path><path d="M31.34 22.16L33.22 20.53L35.34 19.53L37.47 20.78L38.97 22.66" id="dUlBhBMhS"></path><path d="M19.44 17.7L19.44 17.7L21.66 15.06L25.78 19.96L23.56 22.6L21.66 20.35L16.01 27.06L13.78 24.42L19.44 17.7Z" id="b27URmliU5"></path><path d="M20.27 32.46C19.35 33.37 17.87 33.37 16.95 32.46C16.38 31.89 16.33 31.84 15.76 31.27C14.84 30.35 14.84 28.87 15.76 27.95C17.64 26.07 21.61 22.1 23.49 20.22C24.41 19.3 25.89 19.3 26.81 20.22C27.38 20.79 27.43 20.84 28 21.41C28.92 22.33 28.92 23.81 28 24.73C26.12 26.6 22.15 30.58 20.27 32.46Z" id="iRGuOiDmL"></path><path d="M50.5 17.7L50.5 17.7L48.28 15.06L44.16 19.96L46.38 22.6L48.28 20.35L53.93 27.06L56.16 24.42L50.5 17.7Z" id="a1poVPWOx"></path><path d="M54.27 27.95C55.19 28.87 55.19 30.35 54.27 31.27C53.7 31.84 53.65 31.89 53.08 32.46C52.16 33.37 50.68 33.37 49.76 32.46C47.89 30.58 43.91 26.6 42.03 24.73C41.11 23.81 41.11 22.33 42.03 21.41C42.6 20.84 42.65 20.79 43.22 20.22C44.14 19.3 45.62 19.3 46.54 20.22C48.42 22.1 52.39 26.07 54.27 27.95Z" id="aiLze81rO"></path><path d="M60.9 30.33C63.25 30.33 65.15 34.14 65.15 38.83C65.15 51.82 56.65 58.27 56.65 58.63C56.65 58.63 56.65 58.63 56.65 58.63C56.65 58.27 48.15 51.82 48.15 38.83C48.15 34.13 50.05 30.33 52.4 30.33C54.75 30.33 56.65 33.66 56.65 38.36C56.65 33.66 58.55 30.33 60.9 30.33Z" id="aHfiNpa3A"></path><path d="M62.9 33.86C62.9 38.46 60.1 42.19 56.65 42.19C53.2 42.19 50.4 38.46 50.4 33.86C50.4 29.26 53.2 25.53 56.65 25.53C60.1 25.53 62.9 29.26 62.9 33.86Z" id="bXxc30F1d"></path><path d="M61.07 38.02C61.07 43.23 58.38 47.46 55.07 47.46C51.76 47.46 49.07 43.23 49.07 38.02C49.07 32.81 51.76 28.58 55.07 28.58C58.38 28.58 61.07 32.81 61.07 38.02Z" id="caIMF5PTj"></path><path d="M63.83 36.97C63.83 42.18 61.14 46.41 57.83 46.41C54.52 46.41 51.83 42.18 51.83 36.97C51.83 31.76 54.52 27.53 57.83 27.53C61.14 27.53 63.83 31.76 63.83 36.97Z" id="h10jXFW8Ds"></path><path d="M18.07 28.88C19.37 28.88 20.42 29.92 20.42 31.22C20.42 33.75 20.42 39 20.42 41.53C20.42 42.83 19.37 43.88 18.07 43.88C17.47 43.88 18.02 43.88 17.42 43.88C16.12 43.88 15.07 42.83 15.07 41.53C15.07 39 15.07 33.75 15.07 31.22C15.07 29.92 16.12 28.88 17.42 28.88C18.02 28.88 17.47 28.88 18.07 28.88Z" id="bPs5f4bnB"></path><path d="M21.25 44.89C21.25 47.1 19.35 48.9 17 48.9C14.65 48.9 12.75 47.1 12.75 44.89C12.75 42.67 14.65 40.88 17 40.88C19.35 40.88 21.25 42.67 21.25 44.89Z" id="g352gGQr0"></path><path d="M28.48 50.61C29.69 51.05 30.32 52.39 29.88 53.61C29.09 55.78 27.52 60.08 26.74 62.24C26.29 63.46 24.95 64.09 23.73 63.64C22.81 63.31 22.25 63.1 21.32 62.77C20.11 62.33 19.48 60.98 19.92 59.76C20.71 57.6 22.28 53.3 23.07 51.13C23.51 49.91 24.85 49.29 26.07 49.73C26.99 50.07 27.56 50.27 28.48 50.61Z" id="a11kCoWQPB"></path><path d="M43.87 49.73C45.08 49.29 46.43 49.91 46.87 51.13C47.66 53.3 49.23 57.6 50.01 59.76C50.46 60.98 49.83 62.33 48.61 62.77C47.69 63.1 47.13 63.31 46.21 63.64C44.99 64.09 43.64 63.46 43.2 62.24C42.41 60.08 40.85 55.78 40.06 53.61C39.62 52.39 40.24 51.05 41.46 50.61C42.38 50.27 42.95 50.07 43.87 49.73Z" id="b4KEa2L7kH"></path><path d="M23.13 60C24.6 60 25.78 61.19 25.78 62.65C25.78 64.52 25.78 67.48 25.78 69.35C25.78 70.81 24.6 72 23.13 72C22.46 72 23.1 72 22.43 72C20.97 72 19.78 70.81 19.78 69.35C19.78 67.48 19.78 64.52 19.78 62.65C19.78 61.19 20.97 60 22.43 60C23.1 60 22.46 60 23.13 60Z" id="d76ndTuARE"></path><path d="M47.57 60C49.03 60 50.22 61.19 50.22 62.65C50.22 64.52 50.22 67.48 50.22 69.35C50.22 70.81 49.03 72 47.57 72C46.9 72 47.54 72 46.87 72C45.4 72 44.22 70.81 44.22 69.35C44.22 67.48 44.22 64.52 44.22 62.65C44.22 61.19 45.4 60 46.87 60C47.54 60 46.9 60 47.57 60Z" id="a9ZlbMP9S"></path><path d="M44.22 69.13L62.34 73.63L44.22 73.63L44.22 69.13Z" id="b12GDV83M3"></path><path d="M25.78 69.13L7.66 73.63L25.78 73.63L25.78 69.13Z" id="aIRRd0BWv"></path><path d="M26.38 28.63L27.63 30.63L29.38 32.88L31.25 34.63L33 36.25L35.25 37.38L37.38 36.25L39.38 34.63L41.13 32.88L42.13 30.63L42.75 28.25" id="eT2YUGX6K"></path><path d="M26.38 34.22L27.63 36.22L29.38 38.47L31.25 40.22L33 41.84L35.25 42.97L37.38 41.84L39.38 40.22L41.13 38.47L42.13 36.22L42.75 33.84" id="fAS7LqACF"></path><path d="M26.38 40.15L27.63 42.15L29.38 44.4L31.25 46.15L33 47.78L35.25 48.9L37.38 47.78L39.38 46.15L41.13 44.4L42.13 42.15L42.75 39.78" id="aWCPHQtSn"></path><path d="M13.87 47L15.12 44.88" id="b1ZbbAzPl"></path><path d="M16.75 48.63L17.25 46.25" id="a7Khk4Brwb"></path><path d="M19.88 47.5L19.25 45" id="e7NA0r85Fj"></path><path d="M58.27 30.99L58.28 30.99L58.28 30.99L58.29 31L58.3 31L58.31 31L58.31 31.01L58.32 31.01L58.33 31.01L58.34 31.02L58.34 31.02L58.35 31.03L58.36 31.03L58.36 31.04L58.37 31.05L58.38 31.05L58.38 31.06L58.39 31.07L58.39 31.08L58.4 31.09L58.4 31.09L58.41 31.1L58.41 31.11L58.42 31.12L58.42 31.13L58.43 31.14L58.43 31.15L58.43 31.16L58.44 31.17L58.44 31.18L58.44 31.19L58.44 31.21L58.45 31.22L58.45 31.23L58.45 31.24L58.45 31.25L58.45 31.26L58.45 31.28L58.45 31.29L58.45 37.26L62.45 37.26L62.46 37.26L62.47 37.26L62.48 37.26L62.48 37.26L62.49 37.27L62.5 37.27L62.51 37.27L62.51 37.27L62.52 37.28L62.53 37.28L62.54 37.29L62.54 37.29L62.55 37.3L62.56 37.3L62.56 37.31L62.57 37.32L62.58 37.32L62.58 37.33L62.59 37.34L62.59 37.35L62.6 37.35L62.6 37.36L62.61 37.37L62.61 37.38L62.62 37.39L62.62 37.4L62.63 37.41L62.63 37.42L62.63 37.43L62.64 37.44L62.64 37.45L62.64 37.46L62.64 37.47L62.65 37.49L62.65 37.5L62.65 37.51L62.65 37.52L62.65 37.53L62.65 37.55L62.65 37.56L62.65 42.33L62.65 42.35L62.65 42.36L62.65 42.37L62.65 42.38L62.65 42.39L62.65 42.41L62.64 42.42L62.64 42.43L62.64 42.44L62.64 42.45L62.63 42.46L62.63 42.47L62.63 42.48L62.62 42.49L62.62 42.5L62.61 42.51L62.61 42.52L62.6 42.53L62.6 42.54L62.59 42.54L62.59 42.55L62.58 42.56L62.58 42.57L62.57 42.57L62.56 42.58L62.56 42.59L62.55 42.59L62.54 42.6L62.54 42.6L62.53 42.61L62.52 42.61L62.51 42.62L62.51 42.62L62.5 42.62L62.49 42.63L62.48 42.63L62.48 42.63L62.47 42.63L62.46 42.63L62.45 42.63L58.45 42.63L58.45 48.6L58.45 48.62L58.45 48.63L58.45 48.64L58.45 48.65L58.45 48.66L58.45 48.67L58.44 48.69L58.44 48.7L58.44 48.71L58.44 48.72L58.43 48.73L58.43 48.74L58.43 48.75L58.42 48.76L58.42 48.77L58.41 48.78L58.41 48.79L58.4 48.8L58.4 48.81L58.39 48.81L58.39 48.82L58.38 48.83L58.38 48.84L58.37 48.84L58.36 48.85L58.36 48.86L58.35 48.86L58.34 48.87L58.34 48.87L58.33 48.88L58.32 48.88L58.31 48.89L58.31 48.89L58.3 48.89L58.29 48.9L58.28 48.9L58.28 48.9L58.27 48.9L58.26 48.9L58.25 48.9L55.05 48.9L55.04 48.9L55.03 48.9L55.03 48.9L55.02 48.9L55.01 48.9L55 48.89L55 48.89L54.99 48.89L54.98 48.88L54.97 48.88L54.97 48.87L54.96 48.87L54.95 48.86L54.95 48.86L54.94 48.85L54.93 48.84L54.93 48.84L54.92 48.83L54.92 48.82L54.91 48.81L54.9 48.81L54.9 48.8L54.89 48.79L54.89 48.78L54.89 48.77L54.88 48.76L54.88 48.75L54.87 48.74L54.87 48.73L54.87 48.72L54.86 48.71L54.86 48.7L54.86 48.69L54.86 48.67L54.86 48.66L54.85 48.65L54.85 48.64L54.85 48.63L54.85 48.62L54.85 48.6L54.85 42.63L50.85 42.63L50.84 42.63L50.83 42.63L50.83 42.63L50.82 42.63L50.81 42.63L50.8 42.62L50.8 42.62L50.79 42.62L50.78 42.61L50.77 42.61L50.77 42.6L50.76 42.6L50.75 42.59L50.75 42.59L50.74 42.58L50.73 42.57L50.73 42.57L50.72 42.56L50.72 42.55L50.71 42.54L50.7 42.54L50.7 42.53L50.69 42.52L50.69 42.51L50.69 42.5L50.68 42.49L50.68 42.48L50.67 42.47L50.67 42.46L50.67 42.45L50.66 42.44L50.66 42.43L50.66 42.42L50.66 42.41L50.66 42.39L50.65 42.38L50.65 42.37L50.65 42.36L50.65 42.35L50.65 42.33L50.65 37.56L50.65 37.55L50.65 37.53L50.65 37.52L50.65 37.51L50.66 37.5L50.66 37.49L50.66 37.47L50.66 37.46L50.66 37.45L50.67 37.44L50.67 37.43L50.67 37.42L50.68 37.41L50.68 37.4L50.69 37.39L50.69 37.38L50.69 37.37L50.7 37.36L50.7 37.35L50.71 37.35L50.72 37.34L50.72 37.33L50.73 37.32L50.73 37.32L50.74 37.31L50.75 37.3L50.75 37.3L50.76 37.29L50.77 37.29L50.77 37.28L50.78 37.28L50.79 37.27L50.8 37.27L50.8 37.27L50.81 37.27L50.82 37.26L50.83 37.26L50.83 37.26L50.84 37.26L50.85 37.26L54.85 37.26L54.85 31.29L54.85 31.28L54.85 31.26L54.85 31.25L54.85 31.24L54.86 31.23L54.86 31.22L54.86 31.21L54.86 31.19L54.86 31.18L54.87 31.17L54.87 31.16L54.87 31.15L54.88 31.14L54.88 31.13L54.89 31.12L54.89 31.11L54.89 31.1L54.9 31.09L54.9 31.09L54.91 31.08L54.92 31.07L54.92 31.06L54.93 31.05L54.93 31.05L54.94 31.04L54.95 31.03L54.95 31.03L54.96 31.02L54.97 31.02L54.97 31.01L54.98 31.01L54.99 31.01L55 31L55 31L55.01 31L55.02 30.99L55.03 30.99L55.03 30.99L55.04 30.99L55.05 30.99L58.25 30.99L58.26 30.99L58.27 30.99Z" id="a1gN0vpeOM"></path><path d="M29.07 13.63L27.82 16.38L27.07 19.13" id="goixEJ2fG"></path><path d="M41.09 13.63L42.34 16.38L43.09 19.13" id="a1dkCLQxY4"></path></defs><g><g><g><use xlink:href="#a4fyo8sEyI" opacity="1" fill="#466177" fill-opacity="1"></use><g><use xlink:href="#a4fyo8sEyI" opacity="1" fill-opacity="0" stroke="#000000" stroke-width="1" stroke-opacity="1"></use></g></g><g><use xlink:href="#d1sQ1JyH0b" opacity="1" fill="#000000" fill-opacity="1"></use></g><g><use xlink:href="#bfCnmh2IK" opacity="1" fill="#466177" fill-opacity="1"></use><g><use xlink:href="#bfCnmh2IK" opacity="1" fill-opacity="0" stroke="#000000" stroke-width="1" stroke-opacity="1"></use></g></g><g><use xlink:href="#aNwPKqEv0" opacity="1" fill="#466177" fill-opacity="1"></use><g><use xlink:href="#aNwPKqEv0" opacity="1" fill-opacity="0" stroke="#000000" stroke-width="1" stroke-opacity="1"></use></g></g><g><use xlink:href="#apQVI5l7j" opacity="1" fill="#466177" fill-opacity="1"></use><g><use xlink:href="#apQVI5l7j" opacity="1" fill-opacity="0" stroke="#000000" stroke-width="1" stroke-opacity="1"></use></g></g><g><use xlink:href="#a1oxSGfWjH" opacity="1" fill="#466177" fill-opacity="1"></use><g><use xlink:href="#a1oxSGfWjH" opacity="1" fill-opacity="0" stroke="#000000" stroke-width="1" stroke-opacity="1"></use></g></g><g><use xlink:href="#a1TyHLcdjG" opacity="1" fill="#466177" fill-opacity="1"></use></g><g><use xlink:href="#b4RPZJkKyL" opacity="1" fill="#466177" fill-opacity="1"></use></g><g><use xlink:href="#atLhJMj8" opacity="1" fill="#466177" fill-opacity="1"></use></g><g><use xlink:href="#f6OdPQA9T" opacity="1" fill="#466177" fill-opacity="1"></use></g><g><g><use xlink:href="#axR4Q8Zci" opacity="1" fill-opacity="0" stroke="#000000" stroke-width="1" stroke-opacity="1"></use></g></g><g><g><use xlink:href="#a3J0iGcew1" opacity="1" fill-opacity="0" stroke="#000000" stroke-width="1" stroke-opacity="1"></use></g></g><g><g><use xlink:href="#dUlBhBMhS" opacity="1" fill-opacity="0" stroke="#000000" stroke-width="1" stroke-opacity="1"></use></g></g><g><use xlink:href="#b27URmliU5" opacity="1" fill="#466177" fill-opacity="1"></use><g><use xlink:href="#b27URmliU5" opacity="1" fill-opacity="0" stroke="#000000" stroke-width="1" stroke-opacity="1"></use></g></g><g><use xlink:href="#iRGuOiDmL" opacity="1" fill="#466177" fill-opacity="1"></use><g><use xlink:href="#iRGuOiDmL" opacity="1" fill-opacity="0" stroke="#000000" stroke-width="1" stroke-opacity="1"></use></g></g><g><use xlink:href="#a1poVPWOx" opacity="1" fill="#466177" fill-opacity="1"></use><g><use xlink:href="#a1poVPWOx" opacity="1" fill-opacity="0" stroke="#000000" stroke-width="1" stroke-opacity="1"></use></g></g><g><use xlink:href="#aiLze81rO" opacity="1" fill="#466177" fill-opacity="1"></use><g><use xlink:href="#aiLze81rO" opacity="1" fill-opacity="0" stroke="#000000" stroke-width="1" stroke-opacity="1"></use></g></g><g><g><g><use xlink:href="#aHfiNpa3A" opacity="1" fill="#466177" fill-opacity="1"></use><g><use xlink:href="#aHfiNpa3A" opacity="1" fill-opacity="0" stroke="#000000" stroke-width="1" stroke-opacity="1"></use></g></g><g><use xlink:href="#bXxc30F1d" opacity="1" fill="#466177" fill-opacity="1"></use><g><use xlink:href="#bXxc30F1d" opacity="1" fill-opacity="0" stroke="#000000" stroke-width="1" stroke-opacity="1"></use></g></g></g><g><use xlink:href="#caIMF5PTj" opacity="1" fill="#466177" fill-opacity="1"></use></g><g><use xlink:href="#h10jXFW8Ds" opacity="1" fill="#466177" fill-opacity="1"></use></g></g><g><use xlink:href="#bPs5f4bnB" opacity="1" fill="#466177" fill-opacity="1"></use><g><use xlink:href="#bPs5f4bnB" opacity="1" fill-opacity="0" stroke="#000000" stroke-width="1" stroke-opacity="1"></use></g></g><g><use xlink:href="#g352gGQr0" opacity="1" fill="#466177" fill-opacity="1"></use><g><use xlink:href="#g352gGQr0" opacity="1" fill-opacity="0" stroke="#000000" stroke-width="1" stroke-opacity="1"></use></g></g><g><use xlink:href="#a11kCoWQPB" opacity="1" fill="#466177" fill-opacity="1"></use><g><use xlink:href="#a11kCoWQPB" opacity="1" fill-opacity="0" stroke="#000000" stroke-width="1" stroke-opacity="1"></use></g></g><g><use xlink:href="#b4KEa2L7kH" opacity="1" fill="#466177" fill-opacity="1"></use><g><use xlink:href="#b4KEa2L7kH" opacity="1" fill-opacity="0" stroke="#000000" stroke-width="1" stroke-opacity="1"></use></g></g><g><use xlink:href="#d76ndTuARE" opacity="1" fill="#466177" fill-opacity="1"></use><g><use xlink:href="#d76ndTuARE" opacity="1" fill-opacity="0" stroke="#000000" stroke-width="1" stroke-opacity="1"></use></g></g><g><use xlink:href="#a9ZlbMP9S" opacity="1" fill="#466177" fill-opacity="1"></use><g><use xlink:href="#a9ZlbMP9S" opacity="1" fill-opacity="0" stroke="#000000" stroke-width="1" stroke-opacity="1"></use></g></g><g><use xlink:href="#b12GDV83M3" opacity="1" fill="#466177" fill-opacity="1"></use><g><use xlink:href="#b12GDV83M3" opacity="1" fill-opacity="0" stroke="#000000" stroke-width="1" stroke-opacity="1"></use></g></g><g><use xlink:href="#aIRRd0BWv" opacity="1" fill="#466177" fill-opacity="1"></use><g><use xlink:href="#aIRRd0BWv" opacity="1" fill-opacity="0" stroke="#000000" stroke-width="1" stroke-opacity="1"></use></g></g><g><g><use xlink:href="#eT2YUGX6K" opacity="1" fill-opacity="0" stroke="#000000" stroke-width="1" stroke-opacity="1"></use></g></g><g><g><use xlink:href="#fAS7LqACF" opacity="1" fill-opacity="0" stroke="#000000" stroke-width="1" stroke-opacity="1"></use></g></g><g><g><use xlink:href="#aWCPHQtSn" opacity="1" fill-opacity="0" stroke="#000000" stroke-width="1" stroke-opacity="1"></use></g></g><g><g><use xlink:href="#b1ZbbAzPl" opacity="1" fill-opacity="0" stroke="#000000" stroke-width="1" stroke-opacity="1"></use></g></g><g><g><use xlink:href="#a7Khk4Brwb" opacity="1" fill-opacity="0" stroke="#000000" stroke-width="1" stroke-opacity="1"></use></g></g><g><g><use xlink:href="#e7NA0r85Fj" opacity="1" fill-opacity="0" stroke="#000000" stroke-width="1" stroke-opacity="1"></use></g></g><g><use xlink:href="#a1gN0vpeOM" opacity="1" fill="#ef0000" fill-opacity="1"></use></g><g><g><use xlink:href="#goixEJ2fG" opacity="1" fill-opacity="0" stroke="#000000" stroke-width="0.5" stroke-opacity="1"></use></g></g><g><g><use xlink:href="#a1dkCLQxY4" opacity="1" fill-opacity="0" stroke="#000000" stroke-width="0.5" stroke-opacity="1"></use></g></g></g></g></svg>