<svg width="75" height="75" xmlns="http://www.w3.org/2000/svg" xmlns:svg="http://www.w3.org/2000/svg">
 <!-- Created with SVG-edit - http://svg-edit.googlecode.com/ -->
 <g>
  <title>Layer 1</title>
  <path d="m45.94118,27.58824c0.72517,-0.49114 1.41162,-1.0786 2.08855,-1.61849c0.69766,-0.55643 1.44387,-1.00171 2.09294,-1.62182c0.63738,-0.60894 1.11166,-1.34159 1.68126,-2.09302c0.47967,-0.6328 0.69394,-0.32411 1.32032,0.03922c0.79245,0.45966 1.73952,0.02468 2.60537,-0.08298c0.90543,-0.11258 1.76282,-0.25281 2.68216,-0.38761c0.84452,-0.12383 1.86238,-0.09024 1.76847,0.05694c-0.47166,0.7392 -1.39592,0.76659 -0.52314,0.76659c0.85271,0 1.70541,0 2.58155,0c0.97374,0 1.89861,0 2.7132,0c0.88659,0 2.4634,-0.42787 2.51872,0.36471c0.05865,0.84028 -1.52537,0.71822 -2.35292,1.04461c-0.82635,0.32591 -1.27541,0.54552 -0.40955,0.77892c0.86188,0.23232 1.77347,0.38026 2.51637,0.60878c0.89571,0.27552 2.51752,0.18302 2.5022,1.12063c-0.01237,0.7574 -1.49336,0.40368 -2.39673,0.54675c-0.87823,0.13908 -1.48661,0.49723 -0.68555,0.78282c0.78923,0.28138 1.73597,0.27526 2.57506,0.83718c0.47917,0.32089 -0.47584,0.58338 -1.36643,0.62149c-0.89925,0.03848 -1.78151,-0.16914 -2.64126,-0.23529c-0.89023,-0.0685 -1.75641,0.02618 -2.62274,0.08423c-0.81262,0.05446 -1.76549,0.03372 -2.71467,0.03341c-0.83012,-0.00027 -1.73328,-0.15883 -2.65866,-0.23529c-0.83652,-0.06912 -1.7188,-0.01204 -2.62839,-0.12063c-0.80416,-0.096 -1.73962,-0.24568 -2.64161,-0.38472c-0.83593,-0.12886 -1.74271,-0.20179 -2.59949,-0.393l-0.87473,-0.24953l-0.84402,-0.14623l-0.89132,-0.11092" id="svg_32" stroke-linecap="null" stroke-linejoin="null" stroke-dasharray="null" stroke-width="null" stroke="#000000" fill="#ff7f00"/>
  <path d="m6.05882,28.64706c0.79576,-0.63106 1.56368,-1.19224 2.39318,-1.36975c0.89722,-0.192 1.7057,-0.45862 2.58333,-0.51261c0.91083,-0.05603 2.20806,-0.13758 2.17988,0.54133c-0.03737,0.90053 0.05818,0.84494 0.93051,0.94227c0.8806,0.09826 1.83357,0.3055 2.6778,0.49678c0.82875,0.18777 2.06142,-0.17229 2.15169,0.25914c0.18655,0.8916 -0.60325,0.70568 0.27696,0.8311c0.74248,0.10579 1.62658,0.28794 2.59045,0.48116c0.88408,0.17722 1.72293,0.45371 2.60835,0.6639c0.85781,0.20364 0.93681,0.28096 0.15498,0.67843c-0.7756,0.3943 -1.17872,1.42262 -0.82353,1.57647c0.81384,0.35251 1.85907,-0.14777 2.63178,0.23774c0.59241,0.29556 -0.25046,0.9673 -1.08904,1.177c-0.85942,0.21491 -1.71169,0.11467 -2.58274,0.11467c-0.94077,0 -1.86498,0 -2.74792,0c-0.91608,0 -1.64762,0.02013 -2.58479,-0.00126c-0.92025,-0.021 -1.85815,-0.15647 -2.68831,-0.24392c-0.9097,-0.09583 -1.75088,-0.25925 -2.65504,-0.57584c-0.81592,-0.28569 -1.70249,-0.58293 -2.33273,-1.15545c-0.68505,-0.62232 -1.20424,-1.31765 -1.8328,-1.94621l-0.62973,-0.62973l-0.49214,-0.75347" id="svg_31" stroke-linecap="null" stroke-linejoin="null" stroke-dasharray="null" stroke-width="null" stroke="#000000" fill="#ff7f00"/>
  <path d="m22.76471,14.64706c0.82353,-0.37255 1.33192,-1.09663 1.95914,-1.72384c0.60855,-0.60855 1.36282,-1.16834 2.20008,-1.33671c0.86117,-0.17317 1.7375,-0.19729 2.65255,-0.23357c0.87157,-0.03455 -0.66155,0.32765 -0.29757,1.1429c0.34782,0.77904 1.71102,-0.20173 2.56178,-0.20173c0.83904,0 1.76715,0.00007 2.59727,0c0.98886,-0.00008 2.04442,-0.00861 1.62337,0.46806c-0.57421,0.65005 -0.77934,0.49983 0.133,0.32071c0.84497,-0.1659 1.73493,-0.08618 2.62324,-0.08288c0.90682,0.00336 1.59172,0.47695 0.82776,0.90761c-0.76869,0.43333 -1.48104,0.70502 -0.6022,0.74369c0.8663,0.03811 1.72202,0.22514 2.65049,0.34626c0.89505,0.11676 1.73774,0.37502 2.56128,0.59069c0.87105,0.2281 0.76978,0.78192 -0.0549,1.00753c-0.86407,0.23639 -2.34953,-0.21055 -2.32471,0.38494c0.03394,0.81408 1.76177,0.35347 2.60926,0.63663c0.848,0.28333 2.36738,0.37111 2.22459,1.06449c-0.17836,0.86605 -1.66359,0.20847 -2.59884,0.25935c-0.9284,0.05051 -2.50864,-0.76469 -2.68628,0.05882c-0.0893,0.414 1.1671,0.54065 1.90116,1.03404c0.71208,0.47861 1.97712,1.12327 1.58416,1.66196c-0.52166,0.71511 -2.13377,-0.56428 -2.64204,0.24518c-0.33331,0.53083 0.63836,1.37952 0.94463,2.17835c0.28216,0.73596 -1.12,-0.03864 -1.51921,0.76298c-0.35611,0.71508 0.90227,1.39328 1.14816,2.23398c0.24792,0.84768 0.908,1.68118 0.21969,1.88351c-0.85948,0.25265 -1.77904,-0.0384 -2.67841,0.00053c-0.87416,0.03784 -1.88205,-0.11655 -2.08802,-0.95347c-0.21086,-0.85679 0.2235,-1.80078 -0.10777,-2.6c-0.33265,-0.80256 -0.99759,-1.42002 -1.48235,-2.12141c-0.50369,-0.72876 -0.97948,-1.50546 -1.55778,-2.17943c-0.56689,-0.66069 -1.39368,-1.0671 -2.20692,-1.40692c-0.79412,-0.33183 -1.64967,-0.67751 -2.32753,-1.24518c-0.6988,-0.5852 -1.41584,-1.06932 -2.12016,-1.62353c-0.6734,-0.52987 -1.30961,-1.18855 -2.17788,-1.49804c-0.81268,-0.28967 -1.73725,-0.2549 -2.63137,-0.2549l-0.76643,-0.32941" id="svg_30" stroke-linecap="null" stroke-linejoin="null" stroke-dasharray="null" stroke-width="null" stroke="#000000" fill="#ff7f00"/>
  <path d="m35.11765,27.94118c0,-0.8971 -0.12957,-1.76206 -0.72941,-2.40251c-0.59136,-0.6314 -1.39546,-1.09543 -2.04722,-1.67827c-0.62585,-0.55968 -1.25178,-1.23487 -2.12767,-1.57194c-0.79256,-0.30501 -1.74491,-0.26484 -2.55702,0.01743c-0.81422,0.283 -1.94629,0.3753 -2.37398,1.11765c-0.34064,0.59125 0.80014,1.49308 0.30588,2.16471c-0.50284,0.68328 -1.58636,0.47273 -2.48235,0.47059c-0.8866,-0.00212 -1.67145,-0.45348 -2.51765,-0.58578c-0.88386,-0.1382 -1.66902,-0.56115 -2.05935,-1.33239c-0.38757,-0.76578 -0.45289,-1.67023 -0.52888,-2.55241c-0.07484,-0.86883 -0.07256,-1.80083 0.36894,-2.56722c0.45244,-0.78538 1.07812,-1.40925 1.71341,-2.04455c0.62353,-0.62353 1.31169,-1.1715 2.12269,-1.49916c0.80621,-0.32572 1.67339,-0.56553 2.55463,-0.59496c0.882,-0.02945 1.74754,0.06312 2.58571,0.35041c0.86304,0.29581 1.6201,0.67443 2.45443,0.94928c0.84753,0.27919 1.69163,0.67283 2.49431,0.99443c0.807,0.32333 1.64568,0.75419 2.18808,1.42337c0.54348,0.67053 0.99611,1.49932 1.43937,2.2629c0.43747,0.7536 0.9223,1.52358 1.2549,2.31618c0.35165,0.83799 0.86699,1.52911 1.09804,2.40932c0.22208,0.84604 -0.03027,1.76686 0.13726,2.64706c0.16195,0.85085 1.07948,1.19382 1.97615,1.23529c0.89602,0.04144 1.76578,-0.13809 2.63169,-0.35294c0.84138,-0.20877 1.68143,-0.42934 2.51086,-0.75347c0.85541,-0.33428 1.60439,-0.71173 2.40825,-1.18771c0.76212,-0.45126 1.44759,-1.00419 2.09037,-1.55178c0.72364,-0.61647 1.50526,-1.12302 2.37931,-1.25441c0.83542,-0.12559 1.76492,-0.07618 2.62849,-0.07616c0.94621,0.00002 1.72979,0.14097 2.51714,0.43984c0.92057,0.34945 1.77217,0.59437 2.52439,0.99153c0.79611,0.42034 1.54122,0.90002 2.17647,1.58823c0.57558,0.62357 1.0654,1.42248 1.47451,2.21828c0.37034,0.72039 0.6771,1.62991 0.78571,2.50835c0.10865,0.87872 0.33485,2.21213 -0.43277,2.4889c-0.79684,0.2873 -1.53646,-0.81596 -2.2638,-1.19732c-0.8507,-0.44603 -1.78607,-0.82615 -1.6219,0.00526c0.17173,0.86972 0.8198,1.61183 1.08445,2.4628c0.26119,0.83984 0.37838,1.96508 -0.43404,2.41177c-0.67706,0.37226 -1.53145,-0.06271 -2.47845,-0.31092c-0.89586,-0.23481 -1.5625,-0.84601 -1.17531,-0.27985c0.51857,0.75829 1.40907,1.30199 1.57094,2.12159c0.17705,0.89641 -0.25445,1.77077 -1.00443,2.13731c-0.85346,0.41712 -1.77278,0.44228 -2.64706,0.28922c-0.85707,-0.15005 -1.71827,-0.48074 -2.5741,-0.87753c-0.65108,-0.30186 -1.42955,-0.79966 -2.34315,-1.18518c-0.69862,-0.2948 -0.41549,0.61077 -0.37196,1.46378c0.0458,0.89757 -0.43575,1.94665 -1.29412,1.90039c-0.83219,-0.04484 -1.4562,-0.93177 -2,-1.41177c-0.78091,-0.6893 -1.21808,-2.21095 -2.08076,-1.846c-0.51391,0.2174 -0.00245,1.44493 0.20086,2.31904c0.19482,0.83762 0.41948,1.70158 0.77826,2.50563c0.36017,0.80717 0.96648,1.51487 1.47388,2.19529c0.54519,0.73111 1.04554,1.44057 1.40424,2.28739c0.34153,0.80629 0.61883,1.67202 1.13741,2.38382c0.5183,0.71142 0.9449,1.44865 1.43906,2.15482c0.50396,0.72018 1.45196,0.99733 2.30651,1.17028c0.8565,0.17335 1.7457,0.3392 2.54214,0.44202c0.93727,0.12099 1.82194,0.17554 2.70508,0.32135c0.86354,0.14258 1.76451,0.27725 2.68157,0.4389c0.80621,0.14211 1.70811,0.23681 2.53694,0.40392c0.93293,0.1881 1.78374,0.57801 2.3978,1.13302c0.67606,0.61104 0.62234,1.71346 -0.19757,1.85521c-0.80589,0.13934 -1.74359,0.00234 -2.62704,-0.2588c-0.82313,-0.24332 -0.51297,-0.23191 0.37598,0.02006c0.63347,0.17955 1.60996,0.43578 2.4207,0.73286c0.84402,0.30928 1.85239,0.56876 2.45412,1.29036c0.31915,0.38273 -0.68634,0.45082 -1.46526,0.45082c-0.95608,0 -1.66293,0.04012 -2.70206,-0.0049c-0.96012,-0.0416 -1.8722,-0.23918 -2.65888,-0.32435c-0.87906,-0.09517 -1.76677,-0.17155 -2.68063,-0.30604c-0.84747,-0.12471 -1.85225,-0.20807 -1.47623,0.00721c0.72939,0.41761 1.74597,0.48071 2.56329,0.76534c0.78279,0.27259 2.09389,0.42751 2.33865,1.28627c0.23253,0.81586 -1.01289,1.19595 -1.86116,1.27232c-0.89682,0.08073 -2.36578,-0.89413 -2.58043,-0.15908c-0.25362,0.86851 1.56146,0.60342 2.4962,0.89555c0.86252,0.26955 1.63826,0.51204 2.39623,0.97757c0.83899,0.51529 1.13335,1.53558 0.37898,1.77412c-0.8911,0.28178 -1.78778,0.0513 -2.65867,0.0513c-0.98039,0 -1.76746,0.0099 -2.64088,-0.0415c-0.88133,-0.05186 -1.83538,-0.04072 -2.66814,-0.12619c-0.92306,-0.09474 -1.67089,-0.49754 -2.44785,-1.05585c-0.69526,-0.4996 -1.34954,-1.14403 -1.76471,-1.84894c-0.45632,-0.77478 -0.72948,-1.64379 -1.21004,-2.40957c-0.47997,-0.76485 -1.21724,-1.29065 -1.62337,-2.04753c-0.43538,-0.81137 -0.8553,-1.64471 -1.13584,-2.46745c-0.26479,-0.77657 -0.49191,-1.62866 -0.88173,-2.53239c-0.34398,-0.79747 -0.94816,-2.02414 -1.54647,-1.68237c-0.75743,0.43265 -0.38104,1.68759 -0.47738,2.59422c-0.09024,0.84929 -0.11208,1.75483 -0.11341,2.6342c-0.00122,0.81181 -0.0385,1.78987 -0.15966,2.6628c-0.12165,0.87642 -0.23759,1.77536 -0.29663,2.66845c-0.0578,0.87438 0.21868,1.71513 0.221,2.61291c0.00228,0.88098 -0.4666,1.69138 -1.27733,1.93035c-0.87575,0.25814 -1.74388,0.16742 -2.67667,0.16769c-0.85321,0.00024 -1.91065,-0.06741 -1.59643,-0.37349c0.64907,-0.63228 1.6752,-0.73312 2.36016,-1.25005c0.42913,-0.32386 -0.48513,-0.175 -1.37433,-0.14117c-0.83353,0.03171 -1.85909,0.19196 -2.6068,-0.20673c-0.67362,-0.35918 0.19178,-0.96333 1.02663,-1.08723c0.91157,-0.13528 1.60289,-0.46437 1.79429,-1.29672c0.19822,-0.86198 0.5626,-1.62853 0.72304,-2.54657c0.14558,-0.83298 0.32864,-1.69741 0.52941,-2.56863c0.20538,-0.8912 0.32905,-1.74792 0.50855,-2.6c0.18112,-0.8598 0.17971,-2.09726 -0.29129,-1.98933c-0.77684,0.178 -0.88279,1.53154 -1.44863,2.15404c-0.61055,0.6717 -1.16256,1.37048 -1.90588,1.98431c-0.63621,0.52538 -1.31026,1.10685 -1.75749,1.89678c-0.42173,0.7449 -0.85601,1.52204 -1.36016,2.26253c-0.4927,0.72369 -1.0158,1.54043 -1.84314,1.6446c-0.84727,0.10668 -1.88036,0.27429 -2.61818,-0.23531c-0.41904,-0.28943 0.66027,-0.61577 1.24563,-1.29409c0.23848,-0.27636 -0.80073,-0.44069 -1.56204,-0.76643c-0.86742,-0.37115 -1.66514,-0.83912 -0.94665,-0.88063c0.88039,-0.05087 1.80626,0.0603 2.701,-0.00016c0.87245,-0.05895 1.19388,-0.88315 1.53318,-1.74494c0.3042,-0.77265 0.6988,-1.59414 1.28298,-2.22416c0.62913,-0.67849 1.16684,-1.34938 1.71563,-2.05428c0.53171,-0.68297 1.74189,-1.45035 1.35433,-2.21177c-0.3768,-0.7403 -1.57314,-0.65014 -2.32051,-1.1356c-0.73886,-0.47993 -1.4357,-1.05597 -1.96577,-1.76275c-0.52977,-0.70638 -1.04103,-1.44818 -1.41176,-2.23702c-0.38656,-0.82254 -0.65939,-1.64423 -0.91765,-2.4767c-0.27004,-0.87045 -0.25529,-2.19995 -0.9749,-2.24016c-0.91204,-0.05095 -1.27112,1.20119 -1.98361,1.79845c-0.66229,0.55517 -1.59044,0.87524 -2.44604,0.75967c-0.80502,-0.10875 -1.69927,-0.60562 -2.24447,-1.29167c-0.55091,-0.69323 0.07852,-2.08466 -0.65686,-2.54362c-0.35032,-0.21865 -0.76688,0.86522 -1.22604,1.63274c-0.45048,0.75301 -1.1257,1.49978 -1.97396,1.77353c-0.81888,0.26427 -1.77319,0.19095 -2.64878,-0.09867c-0.79501,-0.26296 -1.59604,-0.8036 -2.07059,-1.496c-0.51246,-0.74772 -0.76082,-1.6769 -0.85286,-2.50478c-0.10074,-0.90614 -0.46892,-1.04777 -1.16404,-0.53281c-0.70672,0.52356 -1.58665,0.73531 -2.42624,0.70583c-0.96378,-0.03385 -1.77987,-0.23676 -2.57224,-0.50526c-0.94647,-0.32072 -1.63968,-0.83778 -2.11126,-1.63288c-0.43607,-0.73523 -0.48341,-1.65935 -0.48341,-2.54594c0,-0.88565 0.0047,-1.75463 -0.06761,-2.66918c-0.07143,-0.90342 -0.19689,-1.75991 -0.16769,-2.64178c0.02943,-0.88872 0.45441,-1.64801 1.023,-2.32629c0.57742,-0.68882 1.33444,-1.14702 2.20725,-1.32269c0.87763,-0.17664 1.73772,-0.07875 2.44818,0.31304c0.82827,0.45677 1.71503,0.74175 2.53794,1.05061c0.83823,0.31461 1.64819,0.62379 2.42149,1.01229c0.75864,0.38113 1.61238,0.7402 2.39618,1.10463c0.84349,0.39218 1.66731,0.66734 2.4447,0.97585c0.84342,0.33471 1.67104,0.71902 2.4911,1.07814c0.78758,0.34489 1.56633,0.8621 2.41024,1.01974c0.89428,0.16705 1.82072,0.00906 2.5611,-0.45678c0.74387,-0.46803 1.34197,-1.16042 1.88235,-1.84314c0.54279,-0.68577 1.03031,-1.46125 1.68235,-2.0549c0.64385,-0.58619 1.37892,-1.08235 2.2,-1.39608l0.82353,-0.35294l0.72939,-0.46275" id="svg_14" stroke-linecap="null" stroke-linejoin="null" stroke-dasharray="null" stroke-width="null" stroke="#000000" fill="#ff0000"/>
  <path transform="rotate(106.29072570800781 19.591547012329098,24.368558883667) " d="m17.11765,25.58824c-0.66386,-0.55294 -0.98878,-1.41219 -0.58204,-2.15851c0.42264,-0.7755 1.11094,-1.40431 1.97326,-1.48855c0.88816,-0.08677 1.80626,0.0879 2.45584,0.66386c0.64391,0.57093 0.96056,1.43121 1.48235,2.08404c0.54695,0.6843 0.54494,1.63334 -0.28408,1.94794c-0.81018,0.30745 -1.75121,0.12769 -2.63357,0.12769l-0.8799,0l-0.88292,-0.15106l-0.76596,-0.39516" id="svg_15" stroke-linecap="null" stroke-linejoin="null" stroke-dasharray="null" stroke-width="null" stroke="#000000" fill="#ffff00"/>
  <ellipse ry="1.52941" rx="0.70588" id="svg_16" cy="19" cx="24.17647" stroke-linecap="null" stroke-linejoin="null" stroke-dasharray="null" stroke-width="null" stroke="#000000" fill="#ffff00"/>
  <ellipse ry="1.64706" rx="0.82353" id="svg_17" cy="18.05882" cx="20.05882" stroke-linecap="null" stroke-linejoin="null" stroke-dasharray="null" stroke-width="null" stroke="#000000" fill="#ffff00"/>
  <path d="m7,35.11765c0.67006,0.44822 1.18062,1.22795 2.04033,1.29412c0.86478,0.06656 1.78124,-0.17012 2.67733,0c0.79502,0.15093 1.17483,1.09212 1.67614,1.76355c0.54484,0.72973 1.25226,1.18667 2.11255,1.50343c0.85711,0.31559 1.6564,0.69919 2.53394,0.73302c0.8516,0.03283 1.79731,0.0774 2.58622,-0.28235c0.81267,-0.37059 1.469,-0.13742 2.31292,0.19998c0.7011,0.2803 1.66768,0.63253 2.55076,0.67061c0.82668,0.03564 1.75859,0 2.67263,0l0.87698,0" id="svg_18" fill-opacity="0" stroke-linecap="null" stroke-linejoin="null" stroke-dasharray="null" stroke-width="null" stroke="#000000" fill="none"/>
  <path d="m43.47059,37.35294c0.83372,-0.23529 1.72356,-0.20441 2.59751,-0.33867c0.87664,-0.13467 1.67843,-0.62918 2.34977,-0.12582c0.71717,0.53772 1.54857,0.7519 2.40812,0.69733c0.87996,-0.05585 1.78927,-0.15052 2.6512,-0.28414c0.86761,-0.1345 1.85915,-0.35266 2.39325,-1.05459c0.51637,-0.67862 1.31142,-1.04903 1.8573,-1.75294c0.50044,-0.64532 -0.19826,-1.63474 -0.13896,-2.51712c0.05397,-0.80305 1.05945,-1.17143 1.83351,-1.63582l0.51323,-0.70694l0.24269,-0.84051" id="svg_19" fill-opacity="0" stroke-linecap="null" stroke-linejoin="null" stroke-dasharray="null" stroke-width="null" stroke="#000000" fill="none"/>
  <path d="m53.58823,56.76471c0.72543,0.51818 1.54069,0.85642 2.34533,1.30333c0.77621,0.43112 2.07998,0.43842 2.00516,0.87314c-0.1413,0.82089 -1.76294,-0.03836 -2.68382,0.05882c-0.85238,0.08996 -1.07773,0.79037 -0.53053,1.48908c0.54177,0.69177 0.27697,1.11414 -0.55873,1.387c-0.84208,0.27494 -0.81165,1.34745 -0.4127,2.11835l0.51043,0.68823l0.32241,0.78793l-0.58578,-0.05882" id="svg_20" fill-opacity="0" stroke-linecap="null" stroke-linejoin="null" stroke-dasharray="null" stroke-width="null" stroke="#000000" fill="none"/>
  <polyline id="svg_21" points="34.1764705882353,29 34.85882352941176,28.43529411764706 35.37615686274509,27.823686274509804 " fill-opacity="0" stroke-linecap="round" stroke-linejoin="null" stroke-dasharray="null" stroke-width="null" stroke="#000000" fill="none"/>
  <line id="svg_22" y2="17.58824" x2="22.76471" y1="15.58824" x1="26.05882" stroke-linecap="null" stroke-linejoin="null" stroke-dasharray="null" stroke-width="null" stroke="#000000" fill="none"/>
  <line id="svg_23" y2="17.35294" x2="22.05882" y1="14.52941" x1="20.05882" stroke-linecap="null" stroke-linejoin="null" stroke-dasharray="null" stroke-width="null" stroke="#000000" fill="none"/>
  <path d="m41.47059,55.11765c-0.4353,-0.75241 -0.81475,-1.55082 -1.00879,-2.42353c-0.19242,-0.86546 -0.16769,-1.75294 0.19702,-2.52941l0.63529,-0.6353" id="svg_24" stroke-linecap="null" stroke-linejoin="null" stroke-dasharray="null" stroke-width="null" stroke="#000000" fill="none"/>
  <path d="m37.58823,53.94118c0.744,0.25286 1.61757,0.5382 2.44706,0.82353l0.82353,0.24533" id="svg_26" stroke-linecap="null" stroke-linejoin="null" stroke-dasharray="null" stroke-width="null" stroke="#000000" fill="none"/>
  <path d="m30.29412,44.17647c-0.1201,-0.8848 -0.31259,-1.74116 -0.58823,-2.56471c-0.27857,-0.83228 -0.69262,-1.5904 -1.05882,-2.41568c-0.36063,-0.81273 -0.59122,-1.63561 -0.73192,-2.533l-0.09161,-0.86684l0,-0.89427l0.06761,-0.86243" id="svg_27" stroke-linecap="null" stroke-linejoin="null" stroke-dasharray="null" stroke-width="null" stroke="#000000" fill="none"/>
  <path d="m41.11765,29.70588c-0.92516,0 -1.76961,0.06372 -2.56455,0.48047l-0.84361,0.23545l-0.83059,0.33302l-0.78479,0.36229" id="svg_28" stroke-linecap="null" stroke-linejoin="null" stroke-dasharray="null" stroke-width="null" stroke="#000000" fill="none"/>
  <path d="m44.05882,40.52941c-0.79496,0.31765 -1.54996,0.77647 -2.23529,1.35294l-0.69978,0.45325" id="svg_29" stroke-linecap="null" stroke-linejoin="null" stroke-dasharray="null" stroke-width="null" stroke="#000000" fill="none"/>
 </g>
</svg>