<svg width="75" height="75" xmlns="http://www.w3.org/2000/svg" xmlns:svg="http://www.w3.org/2000/svg" stroke="null" style="vector-effect: non-scaling-stroke;">
 <!-- Created with SVG-edit - http://svg-edit.googlecode.com/ -->
 <g stroke="null">
  <title stroke="null">Layer 1</title>
  <path d="m25.125,28.25c0.7526,-0.4375 1.58144,-0.88669 2.10417,-1.625c0.49245,-0.69556 0.62976,-1.60343 0.93992,-2.4125c0.31661,-0.82591 0.76949,-1.58805 1.29342,-2.29944c0.52703,-0.71559 1.02638,-1.41588 1.50183,-2.1379c0.48955,-0.74342 1.21908,-1.22247 1.98567,-1.65333c0.75264,-0.42302 1.52962,-1.12627 2.41852,-1.03377c0.61917,0.06443 0.50648,1.2446 0.50648,2.13102c0,0.90592 -0.18734,1.7538 -0.25,2.64158c-0.06256,0.88646 -0.06755,1.76681 0.00714,2.64581c0.07665,0.90204 0.27835,1.75802 0.49269,2.59352l0.33823,0.77433" id="svg_56" stroke-linecap="null" stroke-linejoin="null" stroke-dasharray="null" stroke-width="null" stroke="#000000" fill="#b2b2b2"/>
  <path d="m67.5,36.875c0.7875,-0.41908 1.5677,-0.78992 2.32516,-1.225c0.77831,-0.44704 1.53636,-0.96249 2.01234,-1.69342c0.47741,-0.73314 0.64841,-1.64627 0.78767,-2.49575c0.14564,-0.88837 0.24983,-1.74033 0.24983,-2.62331c0,-0.88569 0.04655,-1.81491 0.21307,-1.49298c0.40756,0.78799 0.55009,1.68545 0.74285,2.53638c0.20218,0.89249 0.16908,1.76508 0.16908,2.68694c0,0.88214 0.00304,1.76011 -0.1901,2.61964c-0.19855,0.88363 -0.55253,1.71125 -0.68507,2.56617c-0.13265,0.85566 -0.24983,1.73183 -0.24983,2.63383c0,0.8875 -0.1174,1.77492 -0.125,2.66248c-0.00743,0.86866 0.00542,1.75003 0,2.63919c-0.00533,0.87522 0.62828,2.17062 -0.13215,2.64833c-0.42021,0.26398 -0.7446,-1.03977 -0.98835,-1.88433c-0.24238,-0.83979 -0.19755,-1.73019 -0.2545,-2.6045c-0.05729,-0.87942 -0.52084,-1.6195 -1.13481,-2.23348l-0.64019,-0.64002l-0.7875,0.14983l-0.8125,0" id="svg_57" stroke-linecap="null" stroke-linejoin="null" stroke-dasharray="null" stroke-width="null" stroke="#000000" fill="#b2b2b2"/>
  <path d="m2.875,33.5c0.71965,-0.33806 1.52002,-0.71614 2.3375,-1.00658c0.82338,-0.29255 1.67911,-0.52938 2.51963,-0.7559c0.8036,-0.21656 1.72416,-0.39162 2.54165,-0.73094c0.79714,-0.33087 1.64676,-0.44889 2.5154,-0.64208c0.90254,-0.20073 1.70961,-0.56505 2.5739,-0.77644c0.8511,-0.20817 1.73728,-0.22403 2.5726,-0.34856c0.8845,-0.13186 1.79171,-0.37393 2.6685,-0.4895c0.88282,-0.11637 1.72528,-0.0017 2.60667,-0.125c0.8831,-0.12354 1.73683,-0.36326 2.6035,-0.5c0.87638,-0.13827 1.75117,-0.125 2.63883,-0.125c0.8725,0 1.79423,0 2.66923,0c0.9066,0 1.8151,0 2.65844,0c0.90019,0 1.80184,-0.00217 2.67233,0c0.90134,0.00225 1.77101,0.1245 2.668,0.25017c0.86467,0.12114 1.73143,0.10042 2.6044,0.20575c0.89038,0.10743 1.79069,0.36558 2.65077,0.41775c0.87915,0.05333 1.74467,0.14293 2.60266,0.3745c0.89341,0.24113 1.70423,0.30837 2.6055,0.42683c0.86656,0.1139 1.79229,0.15456 2.67071,0.2625c0.87215,0.10717 1.6665,0.48584 2.50731,0.79733c0.80337,0.29762 1.6885,0.40995 2.53732,0.75467c0.80069,0.32518 1.57949,0.79554 2.33879,1.17892c0.76236,0.38492 1.70253,0.52041 2.53637,0.85659c0.81892,0.33016 1.65018,0.6145 2.42613,0.90112c0.8689,0.32096 1.74715,0.60431 2.46137,1.13638c0.70882,0.52803 1.42772,1.0346 2.21433,1.3625c0.83003,0.34599 1.57368,0.80618 2.40807,1.0125c0.87205,0.21564 1.3952,0.95435 0.8901,1.6125c-0.52957,0.69004 -1.44835,0.91873 -2.33749,0.95c-0.88696,0.03119 -1.74496,0.05143 -2.65167,0.11433c-0.85883,0.05958 -1.79417,0.01067 -2.6595,0.01067c-0.89366,0 -1.78868,0.05717 -2.67373,0c-0.88681,-0.05729 -1.76399,-0.13343 -2.62761,-0.24739c-0.87392,-0.11532 -1.72945,-0.04467 -2.625,0.14323c-0.84248,0.17676 -1.73984,0.15718 -2.62231,0.22917c-0.85474,0.06972 -1.7289,0.25967 -2.55325,0.50658c-0.84652,0.25355 -1.6415,0.54407 -2.51194,0.62102c-0.92121,0.08144 -1.792,0.12239 -2.66567,0.12239c-0.86733,0 -1.79683,0 -2.67719,0c-0.87365,0 -1.77954,0 -2.65531,0c-0.9185,0 -1.78822,-0.05969 -2.65667,0c-0.91144,0.06265 -1.78267,0.125 -2.6785,0.125c-0.8965,0 -1.74587,0.14423 -2.625,0.27083c-0.84947,0.12233 -1.74894,0.13425 -2.62917,0.22917c-0.86234,0.09298 -1.74877,0.25 -2.63748,0.25c-0.88735,0 -1.7557,0.06234 -2.63885,0.125c-0.87148,0.06183 -1.7655,0 -2.63096,0c-0.91638,0 -1.78563,-0.054 -2.67088,-0.17817c-0.86643,-0.12153 -1.66174,-0.46705 -2.50133,-0.77184c-0.83239,-0.30217 -1.64873,-0.61324 -2.56217,-0.77917c-0.86078,-0.15636 -1.7842,0.07905 -2.63317,-0.1815c-0.82994,-0.25471 -1.41971,-0.99015 -2.16267,-1.47092c-0.73946,-0.47851 -2.10202,-0.40985 -2.28479,-1.25592c-0.14761,-0.68329 1.18299,-0.84914 2.05979,-0.9875c0.69023,-0.10892 -0.1875,-0.125 -1.08752,-0.125c-0.88804,0 -1.77202,-0.02832 -2.64015,-0.15267c-0.86888,-0.12446 -1.75775,-0.18197 -2.5205,-0.62233c-0.75512,-0.43596 -1.17883,-1.23933 -1.31433,-2.1l0.2,-0.82367" id="svg_49" stroke-linecap="null" stroke-linejoin="null" stroke-dasharray="null" stroke-width="null" stroke="#000000" fill="#b2b2b2"/>
  <path d="m27.625,39.625c-0.25,0.84367 -0.32232,1.71005 -0.3776,2.56511c-0.05913,0.9146 -0.1224,1.81704 -0.1224,2.67956c0,0.89817 0.02671,1.79301 0.22517,2.6265c0.20336,0.85406 0.64108,1.63421 1.11417,2.35383c0.4911,0.74702 0.99228,1.4739 1.67317,2.0375c0.68468,0.56674 1.5345,1.01025 2.3651,0.92239c0.86778,-0.09179 1.2052,-1.13882 1.12239,-2.01006c-0.08492,-0.89346 -0.33905,-1.72265 -0.375,-2.60973c-0.03545,-0.87489 0,-1.76561 0,-2.66377c0,-0.876 0,-1.74367 -0.02083,-2.67216l-0.18509,-0.85294l-0.0441,-0.88873l-0.12498,-0.8625" id="svg_51" stroke-linecap="null" stroke-linejoin="null" stroke-dasharray="null" stroke-width="null" stroke="#000000" fill="#b2b2b2"/>
  <path d="m25.625,33.25c0,0.879 0,1.76306 0,2.6875c0,0.87239 0,1.76117 0,2.65658l0,0.88509l0,0.89583l0,0.8875" id="svg_52" stroke-linecap="null" stroke-linejoin="null" stroke-dasharray="null" stroke-width="null" stroke="#000000" fill="none"/>
  <path d="m23.125,33.5c-0.04408,0.86964 -0.0882,1.75521 -0.27767,2.65c-0.18044,0.85218 -0.358,1.7 -0.53483,2.5375l-0.0625,0.90715l0.2395,0.80536" id="svg_53" stroke-linecap="null" stroke-linejoin="null" stroke-dasharray="null" stroke-width="null" stroke="#000000" fill="none"/>
  <path d="m20,34.25c-0.375,0.575 -0.31196,1.45881 -0.375,2.35c-0.06266,0.8858 -0.125,1.75317 -0.11433,2.6355l0.40183,0.802" id="svg_54" stroke-linecap="null" stroke-linejoin="null" stroke-dasharray="null" stroke-width="null" stroke="#000000" fill="none"/>
  <ellipse stroke="#000000" ry="1.375" rx="1.125" id="svg_55" cy="33.5" cx="10" stroke-linecap="null" stroke-linejoin="null" stroke-dasharray="null" stroke-width="null" fill="#000000"/>
 </g>
</svg>