<svg width="75" height="75" xmlns="http://www.w3.org/2000/svg" xmlns:svg="http://www.w3.org/2000/svg">
 <!-- Created with SVG-edit - http://svg-edit.googlecode.com/ -->
 <g>
  <title>Layer 1</title>
  <path d="m35.58823,56.82353c-0.89359,0 -1.79768,0.01767 -2.63582,-0.20053c-0.84128,-0.21901 -1.65981,-0.55811 -2.47006,-0.90833c-0.80194,-0.34663 -1.65154,-0.65692 -2.51765,-0.77349c-0.88998,-0.11978 -1.95709,-0.10258 -2.37945,0.65882c-0.4279,0.77139 -0.44479,1.73266 -0.23357,2.58698c0.20726,0.83831 0.64431,1.63506 1.27576,2.264c0.62104,0.61857 1.39451,1.04085 2.27451,1.33333c0.80872,0.2688 1.65054,0.55507 2.45602,0.76916c0.89366,0.23752 1.70405,0.58152 2.59684,0.623c0.85429,0.0397 1.78008,0 2.64486,0c0.91812,0 1.79528,0 2.67482,0c0.872,0 1.78572,0 2.66422,0c0.88637,0 1.74574,-0.18016 2.59069,-0.47058c0.83835,-0.28815 1.63133,-0.59755 2.49773,-0.81365c0.85905,-0.21427 1.73065,-0.53017 2.28998,-1.2749c0.53644,-0.71425 0.88314,-1.68027 0.58626,-2.44588c-0.31461,-0.81134 -0.88824,-1.54061 -1.40979,-2.24876c-0.52104,-0.70747 -1.39042,-1.25846 -2.25829,-1.2168c-0.86058,0.04131 -1.64357,0.54535 -2.39559,1.03025c-0.76537,0.49351 -1.50841,0.99327 -2.32222,1.20504l-0.91749,0l-0.89412,0" id="svg_73" stroke-linecap="null" stroke-linejoin="null" stroke-dasharray="null" stroke-width="null" stroke="#000000" fill="#ffffff"/>
  <path id="svg_48" d="m36.8382,40.56063c-0.8491,0 -1.73098,-0.00008 -2.64653,0c-0.90986,0.00008 -1.80206,0.2108 -2.55347,0.63232c-0.77112,0.43257 -1.41278,1.03786 -2.10776,1.61662c-0.66928,0.55736 -1.31723,1.20052 -1.77584,1.96408c-0.44427,0.73967 -0.57514,1.87036 0.20125,2.23796c0.76551,0.36246 1.69712,0.17027 2.48571,-0.22188c0.78227,-0.38901 0.6538,-1.46619 0.95011,-2.26996c0.30536,-0.8283 0.9887,-1.50611 1.66253,-2.01043c0.70471,-0.52742 1.47812,-0.88988 2.34746,-0.94118l0.84831,-0.184" stroke-linecap="null" stroke-linejoin="null" stroke-dasharray="null" stroke-width="null" stroke="#000000" fill="#ffffff"/>
  <path stroke="#000000" id="svg_56" d="m37.77211,40.988c0.8491,0 1.73098,-0.00008 2.64653,0c0.90986,0.00008 1.80206,0.2108 2.55347,0.63232c0.77112,0.43257 1.41278,1.03786 2.10776,1.61662c0.66928,0.55736 1.31723,1.20052 1.77584,1.96408c0.44427,0.73967 0.57514,1.87036 -0.20125,2.23796c-0.76551,0.36246 -1.69712,0.17027 -2.48571,-0.22188c-0.78227,-0.38901 -0.6538,-1.46619 -0.95011,-2.26996c-0.30536,-0.8283 -0.9887,-1.50611 -1.66253,-2.01043c-0.70471,-0.52742 -1.47812,-0.88988 -2.34746,-0.94118l-0.84831,-0.184" stroke-linecap="null" stroke-linejoin="null" stroke-dasharray="null" stroke-width="null" fill="#ffffff"/>
  <path stroke="#000000" id="svg_55" d="m37.77211,36.988c0.8491,0 1.73098,-0.00008 2.64653,0c0.90986,0.00008 1.80206,0.2108 2.55347,0.63232c0.77112,0.43257 1.41278,1.03786 2.10776,1.61662c0.66928,0.55736 1.31723,1.20052 1.77584,1.96408c0.44427,0.73967 0.57514,1.87036 -0.20125,2.23796c-0.76551,0.36246 -1.69712,0.17027 -2.48571,-0.22188c-0.78227,-0.38901 -0.6538,-1.46619 -0.95011,-2.26996c-0.30536,-0.8283 -0.9887,-1.50611 -1.66253,-2.01043c-0.70471,-0.52742 -1.47812,-0.88988 -2.34746,-0.94118l-0.84831,-0.184" stroke-linecap="null" stroke-linejoin="null" stroke-dasharray="null" stroke-width="null" fill="#ffffff"/>
  <path id="svg_46" d="m36.8382,36.56063c-0.8491,0 -1.73098,-0.00008 -2.64653,0c-0.90986,0.00008 -1.80206,0.2108 -2.55347,0.63232c-0.77112,0.43257 -1.41278,1.03786 -2.10776,1.61662c-0.66928,0.55736 -1.31723,1.20052 -1.77584,1.96408c-0.44427,0.73967 -0.57514,1.87036 0.20125,2.23796c0.76551,0.36246 1.69712,0.17027 2.48571,-0.22188c0.78227,-0.38901 0.6538,-1.46619 0.95011,-2.26996c0.30536,-0.8283 0.9887,-1.50611 1.66253,-2.01043c0.70471,-0.52742 1.47812,-0.88988 2.34746,-0.94118l0.84831,-0.184" stroke-linecap="null" stroke-linejoin="null" stroke-dasharray="null" stroke-width="null" stroke="#000000" fill="#ffffff"/>
  <ellipse ry="10" rx="7" id="svg_26" cy="20" cx="38" stroke-linecap="null" stroke-linejoin="null" stroke-dasharray="null" stroke-width="null" stroke="#000000" fill="#ffffff"/>
  <ellipse ry="8" rx="15" id="svg_23" cy="11" cx="38" stroke-linecap="null" stroke-linejoin="null" stroke-dasharray="null" stroke-width="null" stroke="#000000" fill="#ffffff"/>
  <ellipse id="svg_25" cy="4" cx="20" stroke-linecap="null" stroke-linejoin="null" stroke-dasharray="null" stroke-width="null" stroke="#000000" fill="#ffaa56"/>
  <ellipse id="svg_28" cy="27" cx="36" stroke-linecap="null" stroke-linejoin="null" stroke-dasharray="null" stroke-width="null" stroke="#000000" fill="#ffaa56"/>
  <ellipse ry="4" rx="4" id="svg_30" cy="10" cx="32" stroke-linecap="null" stroke-linejoin="null" stroke-dasharray="null" stroke-width="null" stroke="#000000" fill="#000000"/>
  <ellipse id="svg_31" ry="4" rx="4" cy="10" cx="44" stroke-linecap="null" stroke-linejoin="null" stroke-dasharray="null" stroke-width="null" stroke="#000000" fill="#000000"/>
  <polygon strokeWidth="null" strokecolor="#000000" fill="#000000" edge="0" orient="x" sides="3" shape="regularPoly" id="svg_33" cy="59" cx="102"/>
  <path stroke="#000000" id="svg_34" d="m38.16135,13c0,0.03361 1.91176,4 1.83824,4c-0.07353,0 -4.92647,0 -5,0c-0.07353,0 3.16176,-4 3.16176,-4z" stroke-linecap="null" stroke-linejoin="null" stroke-dasharray="null" stroke-width="null" fill="#000000"/>
  <rect id="svg_35" height="3" width="2" y="19" x="33" stroke-linecap="null" stroke-linejoin="null" stroke-dasharray="null" stroke-width="null" stroke="#000000" fill="#ffffff"/>
  <rect id="svg_36" height="3" width="2" y="19" x="37" stroke-linecap="null" stroke-linejoin="null" stroke-dasharray="null" stroke-width="null" stroke="#000000" fill="#ffffff"/>
  <rect id="svg_37" height="3" width="2" y="19" x="41" stroke-linecap="null" stroke-linejoin="null" stroke-dasharray="null" stroke-width="null" stroke="#000000" fill="#ffffff"/>
  <path stroke="#000000" d="m31.06952,23.82353c0.75143,0.63582 1.48705,1.25832 2.29412,1.82353c0.80639,0.56473 1.49594,1.32472 2.44185,1.64461c0.96162,0.3252 2.04405,0.4121 3.06466,0.41422c1.07133,0.00222 2.09534,-0.17543 2.98868,-0.58698c0.88866,-0.4094 1.49502,-1.13686 1.65454,-1.9988l0.50054,-0.69406" id="svg_38" stroke-linecap="null" stroke-linejoin="null" stroke-dasharray="null" stroke-width="null" fill="none"/>
  <rect id="svg_39" height="3" width="2" y="23" x="33" stroke-linecap="null" stroke-linejoin="null" stroke-dasharray="null" stroke-width="null" stroke="#000000" fill="#ffffff"/>
  <rect id="svg_40" height="3" width="2" y="24" x="37" stroke-linecap="null" stroke-linejoin="null" stroke-dasharray="null" stroke-width="null" stroke="#000000" fill="#ffffff"/>
  <rect id="svg_41" height="3" width="2" y="24" x="41" stroke-linecap="null" stroke-linejoin="null" stroke-dasharray="null" stroke-width="null" stroke="#000000" fill="#ffffff"/>
  <rect id="svg_42" height="28" width="3" y="30" x="36" stroke-linecap="null" stroke-linejoin="null" stroke-dasharray="null" stroke-width="null" stroke="#000000" fill="#ffffff"/>
  <path d="m36.05882,33.70588c-0.8491,0 -1.73098,-0.00008 -2.64653,0c-0.90986,0.00008 -1.80206,0.2108 -2.55347,0.63231c-0.77112,0.43257 -1.41279,1.03786 -2.10777,1.61663c-0.66928,0.55736 -1.31722,1.20052 -1.77584,1.96408c-0.44426,0.73966 -0.57513,1.87036 0.20125,2.23796c0.76551,0.36245 1.69712,0.17027 2.48571,-0.22188c0.78228,-0.38902 0.65381,-1.46619 0.95012,-2.26996c0.30536,-0.8283 0.9887,-1.50611 1.66253,-2.01043c0.7047,-0.52742 1.47812,-0.88988 2.34745,-0.94117l0.84831,-0.184" id="svg_45" stroke-linecap="null" stroke-linejoin="null" stroke-dasharray="null" stroke-width="null" stroke="#000000" fill="#ffffff"/>
  <path stroke="#000000" id="svg_54" d="m38.55149,34.13325c0.8491,0 1.73098,-0.00008 2.64653,0c0.90986,0.00008 1.80206,0.2108 2.55347,0.63232c0.77112,0.43257 1.41278,1.03786 2.10776,1.61662c0.66928,0.55736 1.31723,1.20052 1.77584,1.96408c0.44427,0.73967 0.57514,1.87036 -0.20125,2.23796c-0.76551,0.36246 -1.69712,0.17027 -2.48571,-0.22188c-0.78227,-0.38901 -0.6538,-1.46619 -0.95011,-2.26996c-0.30536,-0.8283 -0.9887,-1.50611 -1.66253,-2.01043c-0.70471,-0.52742 -1.47812,-0.88988 -2.34746,-0.94118l-0.84831,-0.184" stroke-linecap="null" stroke-linejoin="null" stroke-dasharray="null" stroke-width="null" fill="#ffffff"/>
  <g id="svg_63">
   <rect id="svg_43" height="3" width="18" y="30" x="17" stroke-linecap="null" stroke-linejoin="null" stroke-dasharray="null" stroke-width="null" stroke="#000000" fill="#ffffff"/>
   <rect id="svg_44" height="16" width="3" y="30" x="16" stroke-linecap="null" stroke-linejoin="null" stroke-dasharray="null" stroke-width="null" stroke="#000000" fill="#ffffff"/>
   <ellipse ry="2" rx="4" id="svg_57" cy="48" cx="17" stroke-linecap="null" stroke-linejoin="null" stroke-dasharray="null" stroke-width="null" stroke="#000000" fill="#ffffff"/>
   <rect transform="rotate(24 13.000000000000021,51.499999999999986) " id="svg_58" height="5" width="2" y="49" x="12" stroke-linecap="null" stroke-linejoin="null" stroke-dasharray="null" stroke-width="null" stroke="#000000" fill="#ffffff"/>
   <rect id="svg_59" transform="rotate(10 16.000000000000117,52.499999999999986) " height="5" width="2" y="50" x="15" stroke-linecap="null" stroke-linejoin="null" stroke-dasharray="null" stroke-width="null" stroke="#000000" fill="#ffffff"/>
   <rect transform="rotate(-10 18.99999999999992,52.49999999999999) " id="svg_60" height="5" width="2" y="50" x="18" stroke-linecap="null" stroke-linejoin="null" stroke-dasharray="null" stroke-width="null" stroke="#000000" fill="#ffffff"/>
   <rect transform="rotate(-34 21.999999999999996,51.5) " id="svg_61" height="5" width="2" y="49" x="21" stroke-linecap="null" stroke-linejoin="null" stroke-dasharray="null" stroke-width="null" stroke="#000000" fill="#ffffff"/>
   <rect stroke="#000000" id="svg_62" transform="rotate(94 22.000000000000007,47.49999999999999) " height="3" width="2" y="46" x="21" stroke-linecap="null" stroke-linejoin="null" stroke-dasharray="null" stroke-width="null" fill="#ffffff"/>
  </g>
  <g stroke="null" id="svg_64">
   <rect stroke="#000000" id="svg_65" height="3" width="18" y="30.31452" x="39.91716" stroke-linecap="null" stroke-linejoin="null" stroke-dasharray="null" stroke-width="null" fill="#ffffff"/>
   <rect stroke="#000000" id="svg_66" height="16" width="3" y="30.31452" x="55.91716" stroke-linecap="null" stroke-linejoin="null" stroke-dasharray="null" stroke-width="null" fill="#ffffff"/>
   <ellipse stroke="#000000" id="svg_67" ry="2" rx="4" cy="48.31452" cx="57.91716" stroke-linecap="null" stroke-linejoin="null" stroke-dasharray="null" stroke-width="null" fill="#ffffff"/>
   <rect stroke="#000000" id="svg_68" transform="matrix(-0.9135454576426009,0.40673664307580015,0.40673664307580015,0.9135454576426009,45.719156937759706,-10.603349404429679) " height="5" width="2" y="61.10988" x="9.59002" stroke-linecap="null" stroke-linejoin="null" stroke-dasharray="null" stroke-width="null" fill="#ffffff"/>
   <rect stroke="#000000" id="svg_69" transform="matrix(-0.984807753012208,0.17364817766693033,0.17364817766693033,0.984807753012208,60.219906794576474,-6.157940914164747) " height="5" width="2" y="55.35032" x="10.52342" stroke-linecap="null" stroke-linejoin="null" stroke-dasharray="null" stroke-width="null" fill="#ffffff"/>
   <rect stroke="#000000" id="svg_70" transform="matrix(-0.984807753012208,-0.17364817766693033,-0.17364817766693033,0.984807753012208,78.5166196549944,8.283627850395845) " height="5" width="2" y="45.27872" x="13.52342" stroke-linecap="null" stroke-linejoin="null" stroke-dasharray="null" stroke-width="null" fill="#ffffff"/>
   <rect stroke="#000000" id="svg_71" transform="matrix(-0.8290375725550416,-0.5591929034707469,-0.5591929034707469,0.8290375725550416,91.095878697333,34.62753350270613) " height="5" width="2" y="33.09793" x="21.04075" stroke-linecap="null" stroke-linejoin="null" stroke-dasharray="null" stroke-width="null" fill="#ffffff"/>
   <rect stroke="#000000" id="svg_72" transform="matrix(0.06975647374412533,0.9975640502598242,0.9975640502598242,-0.06975647374412533,-26.995464399571688,5.179309739572481) " height="3" width="2" y="75.24388" x="47.10578" stroke-linecap="null" stroke-linejoin="null" stroke-dasharray="null" stroke-width="null" fill="#ffffff"/>
  </g>
  <rect id="svg_75" height="13" width="3" y="59" x="28" stroke-linecap="null" stroke-linejoin="null" stroke-dasharray="null" stroke-width="null" stroke="#000000" fill="#ffffff"/>
  <rect id="svg_76" height="13" width="3" y="59" x="44" stroke-linecap="null" stroke-linejoin="null" stroke-dasharray="null" stroke-width="null" stroke="#000000" fill="#ffffff"/>
  <ellipse ry="2" rx="6" id="svg_77" cy="71" cx="26" stroke-linecap="null" stroke-linejoin="null" stroke-dasharray="null" stroke-width="null" stroke="#000000" fill="#ffffff"/>
  <ellipse id="svg_78" ry="2" rx="6" cy="71" cx="49" stroke-linecap="null" stroke-linejoin="null" stroke-dasharray="null" stroke-width="null" stroke="#000000" fill="#ffffff"/>
 </g>
</svg>