<svg width="75" height="75" xmlns="http://www.w3.org/2000/svg" xmlns:svg="http://www.w3.org/2000/svg">
 <!-- Created with SVG-edit - http://svg-edit.googlecode.com/ -->
 <g>
  <title>Layer 1</title>
  <ellipse ry="4.23529" rx="32.47059" id="svg_7" cy="60.29412" cx="37.82353" stroke-linecap="null" stroke-linejoin="null" stroke-dasharray="null" stroke-width="null" stroke="#000000" fill="#bf5f00"/>
  <ellipse stroke="#000000" ry="3.76471" rx="28.52941" id="svg_8" cy="55.23529" cx="37.29412" stroke-linecap="null" stroke-linejoin="null" stroke-dasharray="null" stroke-width="null" fill="#bf5f00"/>
  <path d="m18.17647,51.94118c-0.59443,-0.67059 -0.9227,-1.46811 -1.15294,-2.31561c-0.23248,-0.85574 -0.469,-1.77335 -0.16455,-2.56831c0.32263,-0.84243 0.95453,-1.57106 1.76078,-1.96298c0.79303,-0.3855 1.70635,-0.32957 2.61553,-0.32957c0.88078,0 1.76298,0 2.66608,0c0.89863,0 1.74726,0 2.62804,0c0.89412,0 1.80455,0 2.67812,0c0.89663,0 1.79492,0 2.71512,0c0.84551,0 1.72931,0 2.62357,0c0.90694,0 1.79841,0 2.67826,0c0.9049,0 1.77553,0.00065 2.6831,0c0.87518,-0.00063 1.75023,-0.08561 2.60223,-0.35294c0.84508,-0.26515 1.63026,-0.62019 2.47608,-0.96094c0.7826,-0.31529 1.6526,-0.5455 2.48094,-0.81365c0.87704,-0.28391 1.65847,-0.76254 2.30033,-1.34551c0.64888,-0.58934 1.30459,-1.21628 1.76022,-1.98563c0.43398,-0.73281 0.59649,-1.62018 0.83733,-2.46478c0.24632,-0.86381 0.47044,-1.74703 0.51765,-2.60841c0.04905,-0.89487 0.0595,-1.77159 0,-2.66421c-0.05773,-0.86605 -0.21158,-1.75664 -0.58824,-2.56618c-0.36552,-0.7856 -1.09188,-1.39114 -1.87961,-1.72408c-0.80885,-0.34186 -1.63997,-0.67202 -2.41608,-1.07539c-0.82066,-0.42652 -1.7094,-0.43081 -2.57475,-0.53051c-0.87434,-0.10073 -1.73244,-0.29978 -2.61865,-0.36102c-0.8605,-0.05946 -1.78009,0.22691 -2.60896,-0.07616c-0.68578,-0.25075 -0.47195,-1.78239 -0.69943,-1.62353c-0.70853,0.49481 0.78906,1.61909 0.73865,2.44951c-0.0547,0.9011 -0.44965,1.75534 -1.1382,2.30343c-0.70035,0.55749 -1.4532,1.08747 -2.30467,1.22353c-0.86942,0.13893 -1.78638,0.05869 -2.64671,0.11765c-0.9083,0.06225 -1.78988,0.18859 -2.66165,0.11765c-0.87709,-0.07138 -1.73142,-0.25863 -2.56528,-0.4291c-0.90642,-0.18531 -1.76869,-0.4852 -2.56869,-0.70031c-0.90163,-0.24245 -1.76976,-0.46878 -2.37365,-1.07112c-0.63594,-0.63432 -0.88593,-1.5106 -1.23514,-2.327c-0.34374,-0.80362 -0.6825,-1.63455 -0.68251,-2.50651c-0.00001,-0.87432 0.93748,-0.90462 1.82855,-0.992c0.85862,-0.08419 1.67872,-0.34334 2.56222,-0.58824c0.85028,-0.23569 1.56523,-0.79467 2.31512,-1.26808c0.72827,-0.45976 1.54551,-0.78324 2.27563,-1.25883c0.74343,-0.48425 1.39878,-1.06047 2.19496,-1.44706c0.80309,-0.38994 1.64493,-0.59095 2.49584,-0.87357c0.81515,-0.27075 1.64111,-0.65952 2.4822,-0.91451c0.81993,-0.24858 1.68323,-0.51156 2.52837,-0.68198c0.86574,-0.17458 1.70723,-0.23583 2.61123,-0.23582c0.86547,0.00001 1.7616,0.07523 2.57491,0.22196c0.8579,0.15478 1.8366,0.32091 2.67392,0.51249c0.89371,0.20449 1.69347,0.58327 2.48514,0.95543c0.84084,0.39528 1.57736,0.85223 2.28894,1.39804c0.71366,0.54741 1.48317,1.00051 2.02165,1.66816c0.50661,0.62814 0.9767,1.67446 1.21388,2.14571c0.26656,0.5296 0.84437,1.71083 1.14353,2.33106c0.29848,0.61883 0.59314,1.21931 1.32353,2.78676c0.33288,0.71439 0.60386,1.48365 0.84769,2.34306c0.24206,0.85318 0.4657,1.76986 0.8011,2.60126c0.32,0.79321 0.39043,1.66067 0.39043,2.55319c0,0.83112 0.0337,1.73021 -0.09427,2.57716c-0.13964,0.92421 -0.40412,1.81905 -0.82933,2.58682c-0.41401,0.74754 -1.01111,1.44664 -1.42688,2.1988c-0.43444,0.78593 -0.77416,1.62404 -1.19073,2.42349c-0.4099,0.78666 -0.87033,1.50784 -1.38066,2.25676c-0.49486,0.7262 -0.90749,1.519 -1.36979,2.26582c-0.4621,0.74652 -0.92724,1.46583 -1.51226,2.19363c-0.53604,0.66686 -1.27829,1.04028 -2.13971,1.15686c-0.87723,0.11873 -1.7738,0.48492 -2.62092,0.23529c-0.79082,-0.23303 -1.58039,-0.55544 -2.44439,-0.67112c-0.87357,-0.11696 -1.78034,-0.15607 -2.60849,0.08236c-0.84059,0.242 -1.72161,0.47585 -2.5498,0.34171c-0.87749,-0.14214 -1.71512,-0.45882 -2.59747,-0.45882c-0.85368,0 -1.77416,-0.05577 -2.64769,0.04149c-0.8717,0.09705 -1.76458,0.13358 -2.64398,0.25263c-0.86571,0.1172 -1.68734,0.41194 -2.56088,0.52941c-0.86749,0.11665 -1.79279,0 -2.67686,0c-0.86886,0 -1.73498,0 -2.6673,0c-0.8789,0 -1.80329,0 -2.66882,0c-0.873,0 -1.76992,0 -2.63863,0l-0.89584,-0.05004l-0.83775,-0.12398" id="svg_9" stroke-linecap="null" stroke-linejoin="null" stroke-dasharray="null" stroke-width="null" stroke="#000000" fill="#bf5f00"/>
  <ellipse ry="2" rx="0.94118" id="svg_10" cy="21.47059" cx="32.05882" stroke-linecap="null" stroke-linejoin="null" stroke-dasharray="null" stroke-width="null" stroke="#000000" fill="#5fbf00"/>
  <line id="svg_11" y2="20.05882" x2="30.29412" y1="16.88235" x1="34.64706" stroke-linecap="null" stroke-linejoin="null" stroke-dasharray="null" stroke-width="null" stroke="#000000" fill="none"/>
  <path d="m23.58824,26.76471c0.87059,-0.11765 1.74401,-0.11987 2.59804,-0.17647c0.92386,-0.06123 1.81618,-0.05882 2.69363,-0.05882c0.9008,0 1.74926,0.01123 2.65876,-0.11765c0.82839,-0.11739 1.63937,-0.47043 2.4731,-0.77349l0.79074,-0.31139" id="svg_12" stroke-linecap="null" stroke-linejoin="null" stroke-dasharray="null" stroke-width="null" stroke="#000000" fill="none"/>
 </g>
</svg>