<svg width="75" height="75" xmlns="http://www.w3.org/2000/svg" xmlns:svg="http://www.w3.org/2000/svg">
 <!-- Created with SVG-edit - http://svg-edit.googlecode.com/ -->
 <g>
  <title>Layer 1</title>
  <path id="svg_2" d="m16,47c0,0.05882 -8,-2.05882 -7,-14c1,-11.94118 -8.05882,-3 -7,2c1.05882,5 10.94118,15.94118 13,15c2.05882,-0.94118 1,-3 1,-3z" stroke-linecap="null" stroke-linejoin="null" stroke-dasharray="null" stroke-width="null" stroke="#000000" fill="#d4ffaa"/>
  <rect id="svg_11" height="13" width="5" y="49" x="47" stroke-linecap="null" stroke-linejoin="null" stroke-dasharray="null" stroke-width="null" stroke="#000000" fill="#d4ffaa"/>
  <rect id="svg_10" height="13" width="5" y="49" x="21" stroke-linecap="null" stroke-linejoin="null" stroke-dasharray="null" stroke-width="null" stroke="#000000" fill="#d4ffaa"/>
  <path stroke="#000000" id="svg_1" d="m69,50.77778c-0.90756,3.26798 -51.42857,2.22222 -54,0c-2.57143,-2.22222 16.28571,-18.95425 27.47899,-17.77778c11.19328,1.17647 27.42857,14.5098 26.52101,17.77778z" stroke-linecap="null" stroke-linejoin="null" stroke-dasharray="null" stroke-width="null" fill="#7f3f00"/>
  <ellipse stroke="#000000" ry="1" rx="1" id="svg_3" cy="30" cx="6" stroke-linecap="null" stroke-linejoin="null" stroke-dasharray="null" stroke-width="null" fill="#000000"/>
  <path d="m2.52941,36.05882c0.87059,-0.11765 1.76471,-0.11765 2.57475,-0.33961l0.63702,-0.63686l0.50714,-0.69114l0.2811,-0.85004" id="svg_6" stroke-linecap="null" stroke-linejoin="null" stroke-dasharray="null" stroke-width="null" stroke="#000000" fill="none"/>
  <rect id="svg_8" height="13" width="5" y="50" x="18" stroke-linecap="null" stroke-linejoin="null" stroke-dasharray="null" stroke-width="null" stroke="#000000" fill="#d4ffaa"/>
  <rect id="svg_12" height="13" width="5" y="50" x="51" stroke-linecap="null" stroke-linejoin="null" stroke-dasharray="null" stroke-width="null" stroke="#000000" fill="#d4ffaa"/>
  <path id="svg_13" d="m68,49c0,0.05882 6,0.05882 6,-0.05882c0,-0.11765 -5.05882,2 -5,2.05882c0.05882,0.05882 -1,-2 -1,-2z" stroke-linecap="null" stroke-linejoin="null" stroke-dasharray="null" stroke-width="null" stroke="#000000" fill="#d4ffaa"/>
 </g>
</svg>