<svg width="75" height="75" xmlns="http://www.w3.org/2000/svg" xmlns:svg="http://www.w3.org/2000/svg">
 <!-- Created with SVG-edit - http://svg-edit.googlecode.com/ -->
 <g>
  <title>Layer 1</title>
  <path d="m20.41176,19.58824c0.17647,-0.76716 0.68695,-1.54754 1.50031,-1.84759c0.8419,-0.31057 2.08547,-0.65433 2.38204,-0.03476c0.21488,0.44892 0.71716,0.49752 1.5382,0.68533c0.92982,0.2127 0.39246,0.79338 0.41978,0.83231c0.37738,0.53778 0.19049,0.78277 1.06163,0.83529c0.82178,0.04954 2.31654,-0.08747 2.38118,0.72941c0.0667,0.843 0.90925,-0.13953 1.28549,0.70196c0.29515,0.66012 -0.58284,0.5456 0.14392,1.05098c0.59481,0.41363 -0.68535,1.27343 -0.3789,1.91639c0.37191,0.78031 1.41216,0.51881 1.37469,1.36596c-0.03526,0.79724 1.45222,0.91002 1.56618,1.84314c0.09856,0.80702 -1.65565,1.39318 -1.15683,2.12575c0.41462,0.6089 1.62131,0.12967 2.49659,0.26657c0.76126,0.11906 0.32439,0.98761 -0.00643,1.80376l0,0.90196" id="svg_26" stroke-linecap="null" stroke-linejoin="null" stroke-dasharray="null" stroke-width="null" stroke="#000000" fill="#aaffff"/>
  <path d="m63.47059,36.29412c0.83334,-0.17647 1.67753,-0.33615 2.64959,-0.35294c0.8731,-0.01508 1.76929,-0.02975 2.61169,0.2588c0.85075,0.29142 1.5011,0.89118 1.92868,1.65053c0.45395,0.80617 0.92078,1.53255 1.32769,2.30792c0.41378,0.78845 0.67639,1.64244 0.91373,2.48863c0.23993,0.85543 0.5943,1.64973 0.75812,2.47309c0.18803,0.94502 0.39874,1.80002 0.39874,2.66133c0,0.87786 -0.00235,1.73301 0.05882,2.67929c0.0568,0.87865 0.17464,1.75531 0.05585,2.63631c-0.11346,0.84146 -0.13629,1.73214 -0.23357,2.62808c-0.0985,0.90714 -0.29372,1.7599 -0.50274,2.63921c-0.198,0.83294 -0.89438,1.27555 -1.56236,0.96125c-0.78033,-0.36716 0.09721,-1.81397 0.09996,-1.50663c0.00779,0.8721 -0.56174,0.61553 -1.02237,0.88182c-0.50847,0.29395 -0.42908,0.20314 -1.30536,0.29916c-0.60604,0.06641 -0.4642,-1.30618 -0.56737,-0.9498c-0.24989,0.86319 0.18925,-0.96167 -0.78504,-0.93714c-0.87646,0.02207 -0.40607,1.69373 -0.93449,1.21306c-0.32076,-0.29177 -0.52634,-1.19835 -0.35984,-2.06165c0.16709,-0.86634 0.87231,-1.53524 1.45129,-2.17788c0.59315,-0.65835 1.04816,-1.37388 1.45596,-2.2098c0.37749,-0.77379 0.81779,-1.54025 0.99439,-2.4258c0.1678,-0.8414 0.21568,-1.74394 0.21568,-2.63796c0,-0.89539 0.07769,-1.81033 -0.29657,-2.58018c-0.38937,-0.80092 -0.90234,-1.53001 -1.32192,-2.30449c-0.42747,-0.78902 -0.8008,-1.58592 -1.30339,-2.31659l-0.64282,-0.60504l-0.82604,-0.26808" id="svg_25" stroke-linecap="null" stroke-linejoin="null" stroke-dasharray="null" stroke-width="null" stroke="#000000" fill="#aaffff"/>
  <path id="svg_23" d="m55.47787,67.23163c-0.55967,0.66387 -1.42495,0.83172 -2.18824,1.24707c-0.77394,0.42113 -1.71801,1.23149 -1.45882,2.07058c0.2209,0.71516 1.50006,0.48505 2.35294,0.66275c0.84007,0.17502 1.76471,0.13725 2.64518,0.13725c0.87688,0 1.80914,0.06972 2.65817,-0.221c0.7348,-0.25161 0.68661,-1.17727 0.46136,-2.0339l-0.18949,-0.8287l-0.24634,-0.83961" stroke-linecap="null" stroke-linejoin="null" stroke-dasharray="null" stroke-width="null" stroke="#000000" fill="#ffcc00"/>
  <path id="svg_22" d="m52.71276,44.0704c0,0.89725 -0.04433,1.78046 0.00673,2.64484c0.05945,1.00658 0.22094,1.80415 0.28739,2.70075c0.06537,0.88203 0.0101,1.79543 0.06128,2.64951c0.05593,0.93334 0.3235,1.78792 0.43456,2.61666c0.11974,0.89349 0.03357,1.79948 0.03357,2.72157c0,0.89355 0,1.63791 0,2.60295c0,0.89186 0,1.81133 0,2.73039c0,0.86765 0.04441,1.75711 -0.03341,2.65098c-0.07502,0.86172 0.23449,1.65478 0.15106,2.50776c-0.0834,0.8528 0.45719,1.03114 1.30588,0.85443c0.84781,-0.17653 1.71219,-0.47011 2.54781,-0.36166c0.90885,0.11795 1.38148,-0.37115 1.44043,-1.25936c0.05905,-0.88965 -0.53015,-1.5008 -1.1479,-2.08908c-0.64261,-0.61195 -1.13401,-1.39016 -1.26387,-2.26386c-0.12975,-0.87301 -0.25599,-1.75771 -0.29411,-2.63423c-0.03974,-0.91392 0,-1.77998 0,-2.6351c0,-0.94635 0.04226,-1.75506 0.15913,-2.68423c0.10871,-0.86426 0.17292,-1.73177 0.33107,-2.65428c0.14795,-0.86304 0.32305,-1.72914 0.62117,-2.5531c0.29983,-0.82873 0.68827,-1.62768 0.77098,-2.52533c0.08149,-0.88457 0,-1.79608 0,-2.66667l0,-0.91094l0,-0.84953l-0.06618,-0.88659" stroke-linecap="null" stroke-linejoin="null" stroke-dasharray="null" stroke-width="null" stroke="#000000" fill="#e5e5e5"/>
  <path id="svg_21" d="m62.88963,68.29045c-0.55967,0.66387 -1.42495,0.83172 -2.18824,1.24707c-0.77394,0.42113 -1.71801,1.23149 -1.45882,2.07058c0.2209,0.71516 1.50006,0.48505 2.35294,0.66275c0.84007,0.17502 1.76471,0.13725 2.64518,0.13725c0.87688,0 1.80914,0.06972 2.65817,-0.221c0.7348,-0.25161 0.68661,-1.17727 0.46136,-2.0339l-0.18949,-0.8287l-0.24634,-0.83961" stroke-linecap="null" stroke-linejoin="null" stroke-dasharray="null" stroke-width="null" stroke="#000000" fill="#ffcc00"/>
  <path d="m20.64706,68.41176c-0.55967,0.66386 -1.42494,0.83172 -2.18823,1.24706c-0.77394,0.42113 -1.71801,1.23149 -1.45882,2.07059c0.2209,0.71516 1.50006,0.48505 2.35294,0.66274c0.84007,0.17503 1.76471,0.13725 2.64518,0.13725c0.87688,0 1.80914,0.06973 2.65818,-0.221c0.7348,-0.25161 0.68661,-1.17727 0.46135,-2.0339l-0.18949,-0.8287l-0.24633,-0.83961" id="svg_15" stroke-linecap="null" stroke-linejoin="null" stroke-dasharray="null" stroke-width="null" stroke="#000000" fill="#ffcc00"/>
  <path transform="rotate(-62.46802520751953 35.235294342041016,68) " id="svg_17" d="m34.77199,65.93751c-0.55966,0.66387 -1.42494,0.83172 -2.18823,1.24706c-0.77395,0.42114 -1.71801,1.2315 -1.45883,2.07059c0.22091,0.71516 1.50006,0.48505 2.35294,0.66274c0.84007,0.17503 1.76471,0.13726 2.64518,0.13726c0.87688,0 1.80914,0.06972 2.65818,-0.221c0.73479,-0.25161 0.6866,-1.17727 0.46135,-2.0339l-0.18949,-0.82871l-0.24633,-0.8396" stroke-linecap="null" stroke-linejoin="null" stroke-dasharray="null" stroke-width="null" stroke="#000000" fill="#ffcc00"/>
  <path d="m25.70588,44.76471c-0.85255,0.18949 -1.65848,0.56099 -2.48988,0.88988c-0.76294,0.30181 -1.6869,0.6215 -2.49051,1.0709c-0.74557,0.41695 -1.37741,1.14924 -1.2549,2.03922c0.11679,0.84848 0.65911,1.60234 1.10588,2.3647c0.44403,0.75767 0.87291,1.53525 1.42108,2.16471c0.63302,0.72688 1.07922,1.4607 1.68873,2.15686c0.57546,0.65727 1.15789,1.33612 1.65437,2.01414c0.54001,0.73746 1.07398,1.4326 1.52488,2.22141c0.45239,0.79141 0.90239,1.49123 1.41494,2.21763c0.53013,0.7513 1.02942,1.43731 1.50776,2.20173c0.47705,0.76236 0.87224,1.54897 1.25882,2.32816c0.4028,0.81187 1.04018,1.69072 1.89412,1.62479c0.83973,-0.06483 1.21357,-1.07799 1.65585,-1.8353c0.43897,-0.75165 0.88652,-1.50421 1.23827,-2.29414c0.34047,-0.76459 -0.40863,-1.49456 -1.24951,-1.75047c-0.83012,-0.25264 -1.85516,0.21201 -2.50343,-0.33186c-0.67642,-0.56749 -0.87764,-1.48095 -1.33725,-2.25882c-0.44144,-0.74712 -0.81868,-1.49595 -1.31537,-2.23414c-0.49651,-0.73791 -0.95268,-1.50097 -1.36845,-2.29772c-0.39716,-0.76108 -0.71989,-1.526 -1.24898,-2.23788c-0.52565,-0.70725 -0.96037,-1.53511 -1.06492,-2.3708c-0.11411,-0.9121 0.07364,-1.78287 0.46439,-2.58382c0.38049,-0.77994 0.86502,-1.52216 1.51373,-2.17759l0.61569,-0.61569" id="svg_16" stroke-linecap="null" stroke-linejoin="null" stroke-dasharray="null" stroke-width="null" stroke="#000000" fill="#e5e5e5"/>
  <path d="m17.70588,20.17647c-0.84314,-0.62745 -1.48679,-1.18756 -2.20878,-1.66761c-0.74818,-0.49746 -1.56734,-0.86421 -2.40329,-1.13239c-0.84589,-0.27137 -1.74704,-0.45156 -2.47325,-0.92063c-0.76605,-0.49479 -1.5322,-0.90029 -2.34745,-1.22227c-0.79226,-0.31291 -1.64788,-0.61237 -2.37475,-1.10416c-0.72021,-0.48728 -1.52282,-0.80903 -2.19639,-1.3178c-0.75538,-0.57057 -1.43769,-1.11062 -2.26667,-1.45194c-0.80448,-0.33123 -0.81297,0.19106 -0.28031,0.86402c0.59466,0.7513 1.25316,1.36334 1.90941,1.899c0.69359,0.56613 1.53828,0.87225 2.28604,1.35967c0.73648,0.48006 1.50299,0.90491 2.2058,1.48988c0.68265,0.56819 1.37369,1.08226 2.11247,1.61427c0.6942,0.49991 1.50566,0.80075 2.35482,1.11884c0.81209,0.3042 1.72219,0.4177 2.5542,0.70767c0.84082,0.29303 1.54181,0.79875 1.89532,0.58698l0.53872,-0.71765" id="svg_12" stroke-linecap="null" stroke-linejoin="null" stroke-dasharray="null" stroke-width="null" stroke="#000000" fill="#aaffff"/>
  <path d="m20.05882,19.58824c-0.1602,-0.90137 -0.49535,-1.69729 -0.73929,-2.56094c-0.23532,-0.83315 -0.87541,-1.45862 -1.73129,-1.69396c-0.83182,-0.22873 -1.2478,0.00927 -0.72957,0.712c0.50861,0.68968 0.50431,1.64706 0.86682,2.48408l0.22743,0.821" id="svg_11" stroke-linecap="null" stroke-linejoin="null" stroke-dasharray="null" stroke-width="null" stroke="#000000" fill="#e5e5e5"/>
  <path d="m18.41176,18.88235c1.3313,0.19496 2.14985,0.40308 2.96784,0.69255c0.85266,0.30174 1.73035,0.5594 2.49867,0.97976c0.79353,0.43416 1.47397,0.92906 2.29059,1.39573c0.74841,0.42768 1.4076,1.00409 2.08943,1.59529c0.65389,0.56698 1.10271,1.31324 1.47365,2.10639c0.3708,0.79284 0.74822,1.55566 1.09661,2.42853c0.30787,0.77135 0.68551,1.58679 1.14996,2.3448c0.46012,0.75096 0.98874,1.49929 1.69712,2.02163c0.69242,0.51058 1.61575,0.72767 2.477,0.88221c0.88367,0.15856 1.78446,0.29848 2.69051,0.47467c0.86434,0.16808 1.70551,0.25834 2.54353,0.34902c0.90408,0.09783 1.7877,0.22235 2.68747,0.25829c0.90459,0.03614 1.7886,0.00053 2.69984,0.00053c0.86818,0 1.76563,0 2.64939,0c0.88055,0 1.72593,-0.00595 2.57851,0.09427c0.98929,0.11629 1.85067,0.14102 2.78243,0.14102c0.8847,0 1.7638,-0.15916 2.64706,0.03922c0.8373,0.18805 1.62119,0.6119 2.493,0.92802c0.83051,0.30115 1.62608,0.54823 2.45492,0.75339c0.86999,0.21535 1.82809,0.43493 2.55453,0.80878c0.82925,0.42677 1.31916,1.23204 1.6897,2.02196c0.37047,0.78976 0.69023,1.61966 1.02599,2.44863c0.32734,0.80818 0.7234,1.61637 0.86029,2.5098c0.1318,0.86015 0.24066,1.77853 0,2.60784c-0.24251,0.83569 -0.77393,1.56305 -1.39706,2.17892c-0.66796,0.66018 -1.41801,1.04377 -2.28922,1.23285c-0.92352,0.20043 -1.7549,0.35049 -2.62406,0.35294c-0.89343,0.00252 -1.81206,-0.00676 -2.68688,0.10337c-0.81238,0.10228 -1.80196,0.19014 -2.63023,0.31084c-0.87093,0.12691 -1.74327,0.31742 -2.57145,0.45763c-0.92752,0.15702 -1.78119,0.33533 -2.66143,0.46261c-0.88062,0.12734 -1.79661,0.24458 -2.65192,0.31261c-0.90046,0.07162 -1.80931,0.11765 -2.70343,0.11765c-0.864,0 -1.69529,0.06312 -2.62306,-0.00126c-0.93472,-0.06486 -1.77715,-0.29945 -2.61317,-0.51765c-0.81998,-0.21401 -1.76106,-0.40408 -2.60526,-0.58141c-0.87209,-0.18319 -1.70797,-0.52435 -2.56783,-0.66194c-0.89539,-0.14328 -1.69736,-0.25661 -2.56512,-0.49281c-0.88819,-0.24175 -1.74644,-0.49276 -2.58682,-0.75247c-0.81867,-0.253 -1.5932,-0.69666 -2.37804,-1.06306c-0.84915,-0.39642 -1.6003,-0.77832 -2.3313,-1.37594c-0.69288,-0.56646 -1.18921,-1.24964 -1.50745,-2.10986c-0.31256,-0.84486 -0.26547,-1.74078 -0.33961,-2.63968c-0.07075,-0.85781 -0.23529,-1.70588 -0.23529,-2.60094c0,-0.90717 0,-1.81474 0,-2.69206c0,-0.88865 0,-1.78543 -0.11765,-2.64817c-0.11765,-0.86275 -0.52991,-1.60239 -1.2,-2.17161c-0.67107,-0.57005 -1.39031,-1.16523 -1.97584,-1.80816c-0.6007,-0.65958 -1.16578,-1.32566 -1.7418,-1.97835c-0.6,-0.67986 -1.19627,-1.33425 -1.69412,-2.07937c-0.50402,-0.75436 -0.90581,-1.47859 -1.28408,-2.30259c-0.37064,-0.80737 -0.62821,-1.70956 -0.16486,-2.43655c0.46638,-0.73175 1.07263,-1.38212 1.80173,-1.88612l0.80016,-0.32643" id="svg_6" stroke-linecap="null" stroke-linejoin="null" stroke-dasharray="null" stroke="#000000" fill="#e5e5e5"/>
  <path d="m18.17647,19.47059c-0.86996,0.51765 -1.62201,1.00393 -2.40253,1.55294c-0.69844,0.49127 -1.5078,0.86674 -2.1388,1.45914c-0.6581,0.61784 -1.12524,1.42812 -1.64816,2.12157c-0.52513,0.69639 -1.17116,1.32033 -1.7332,1.96551c-0.57074,0.65518 -1.02781,1.42737 -1.56092,2.1479c-0.51649,0.69806 -0.57377,1.39195 0.16092,1.777c0.76805,0.40253 1.40926,1.07585 2.20749,1.44653c0.79428,0.36884 1.51709,0.86343 2.30343,1.20251c0.79806,0.34414 1.50127,-0.34282 1.8,-1.17898c0.29669,-0.83044 0.51306,-1.6581 0.89835,-2.44706c0.38635,-0.79113 0.41924,-1.88051 1.17098,-2.35294c0.47919,-0.30115 1.33555,0.5718 2.21302,0.54118c0.85187,-0.02973 1.44233,-0.79477 1.76486,-1.59012c0.32993,-0.81358 0.50178,-1.67434 0.61833,-2.53363c0.11947,-0.88077 0.42758,-1.78358 0.22857,-2.65147c-0.19312,-0.84219 -1.1152,-1.22478 -1.92941,-1.57349l-0.87043,-0.12173" id="svg_7" stroke-linecap="null" stroke-linejoin="null" stroke-dasharray="null" stroke-width="null" stroke="#000000" fill="#e5e5e5"/>
  <ellipse transform="rotate(-30.96377944946289 16.176469802856438,23.23529243469238) " ry="0.23529" rx="1.29412" id="svg_8" cy="23.23529" cx="16.17647" stroke-linecap="null" stroke-linejoin="null" stroke-dasharray="null" stroke-width="null" stroke="#000000" fill="#000000"/>
  <ellipse stroke="#000000" transform="rotate(-40.42606735229492 9.837182998657227,29.71168327331543) " ry="0.70588" rx="0.64307" id="svg_9" cy="29.71168" cx="9.83718" stroke-linecap="null" stroke-linejoin="null" stroke-dasharray="null" stroke-width="null" fill="#000000"/>
  <path d="m12.17647,32.52941c0.39576,-0.75121 0.70833,-1.58824 1.0521,-2.38824l0.28404,-0.82353" id="svg_10" stroke-linecap="null" stroke-linejoin="null" stroke-dasharray="null" stroke-width="null" stroke="#000000" fill="none"/>
  <path d="m28.05882,45.94118c-0.02606,0.88488 -0.12751,1.79889 -0.29412,2.64215c-0.16743,0.8474 -0.47467,1.68525 -0.75851,2.54996c-0.28142,0.85734 -0.69066,1.59735 -1.01796,2.42294c-0.33008,0.83261 -0.56142,1.70694 -0.87059,2.50504c-0.33989,0.87739 -0.66366,1.64064 -0.98824,2.505c-0.30744,0.81872 -0.57353,1.65215 -0.9709,2.42816c-0.40765,0.79609 -0.85719,1.55661 -1.31537,2.3389c-0.45075,0.7696 -1.04011,1.43018 -1.36251,2.20784c-0.32077,0.77374 -1.25624,1.40914 -1.21004,2.24706c0.02632,0.47739 1.16387,0.36746 2.02353,0.46667c0.87264,0.1007 1.60766,0.31989 2.66043,0.36525c0.87962,0.0379 1.85946,-0.4939 1.98663,-1.32603c0.1315,-0.86048 -0.94023,-1.46498 -1.05882,-2.29657c-0.12597,-0.88326 0.19011,-1.73336 0.54118,-2.54594c0.35548,-0.8228 0.91686,-1.48556 1.4298,-2.24188c0.48375,-0.71328 0.94262,-1.48644 1.32643,-2.29537c0.36936,-0.77848 0.6967,-1.58995 1.0673,-2.453c0.34835,-0.81125 0.71243,-1.6078 0.91514,-2.47059c0.20711,-0.88149 0.29837,-1.75459 0.56722,-2.59076c0.27449,-0.85373 0.74118,-1.6353 0.97647,-2.47059l0.26871,-0.82526" id="svg_14" stroke-linecap="null" stroke-linejoin="null" stroke-dasharray="null" stroke-width="null" stroke="#000000" fill="#e5e5e5"/>
  <path d="m61.23529,45c0,0.89725 -0.04433,1.78046 0.00673,2.64484c0.05945,1.00658 0.22094,1.80415 0.28739,2.70074c0.06537,0.88203 0.01009,1.79543 0.06128,2.64951c0.05593,0.93335 0.32351,1.78792 0.43457,2.61666c0.11974,0.89348 0.03357,1.79947 0.03357,2.72157c0,0.89355 0,1.63791 0,2.60294c0,0.89186 0,1.81133 0,2.73039c0,0.86765 0.04441,1.75711 -0.03341,2.65098c-0.07502,0.86172 0.23448,1.65478 0.15106,2.50776c-0.0834,0.8528 0.45719,1.03114 1.30588,0.85443c0.84781,-0.17653 1.71219,-0.47011 2.54781,-0.36166c0.90885,0.11795 1.38148,-0.37115 1.44043,-1.25935c0.05905,-0.88965 -0.53015,-1.5008 -1.1479,-2.08908c-0.64261,-0.61195 -1.134,-1.39016 -1.26386,-2.26386c-0.12975,-0.87301 -0.256,-1.75771 -0.29411,-2.63424c-0.03974,-0.91392 0,-1.77998 0,-2.6351c0,-0.94635 0.04226,-1.75506 0.15913,-2.68423c0.10871,-0.86425 0.17291,-1.73176 0.33106,-2.65428c0.14796,-0.86303 0.32306,-1.72913 0.62117,-2.5531c0.29984,-0.82873 0.68828,-1.62769 0.77098,-2.52533c0.0815,-0.88457 0,-1.79608 0,-2.66667l0,-0.91094l0,-0.84953l-0.06618,-0.88659" id="svg_20" stroke-linecap="null" stroke-linejoin="null" stroke-dasharray="null" stroke-width="null" stroke="#000000" fill="#e5e5e5"/>
 </g>
</svg>