<svg width="75" height="75" xmlns="http://www.w3.org/2000/svg" xmlns:svg="http://www.w3.org/2000/svg">
 <!-- Created with SVG-edit - http://svg-edit.googlecode.com/ -->
 <g>
  <title>Layer 1</title>
  <path d="m31.58824,8.76471c-0.56471,-0.69239 -1.13778,-1.41424 -1.40932,-2.23284c-0.27801,-0.83812 -0.37143,-1.76149 -0.23774,-2.65196c0.13086,-0.87166 0.66916,-1.65023 1.33498,-2.21488c0.6621,-0.5615 1.5433,-0.85123 2.4291,-0.90031c0.90929,-0.05039 1.68792,0.37057 2.29647,1.00188c0.63173,0.65536 0.78067,-0.22594 1.52769,-0.70776c0.71628,-0.462 1.64951,-0.29412 2.58898,-0.29412c0.85839,0 1.7309,0.21729 2.33265,0.86333c0.59262,0.63625 0.84144,1.57187 0.9019,2.43078c0.06179,0.87773 -0.06445,1.78091 -0.33867,2.62604c-0.2686,0.8278 -0.70667,1.57239 -1.20249,2.33865l-0.22302,0.83531" id="svg_192" stroke-linecap="null" stroke-linejoin="null" stroke-dasharray="null" stroke-width="null" stroke="#000000" fill="#000000"/>
  <rect id="svg_172" height="32.82353" width="21.64706" y="23.47059" x="25.35294" stroke-linecap="null" stroke-linejoin="null" stroke-dasharray="null" stroke-width="null" stroke="#000000" fill="#000000"/>
  <path d="m28.64706,23c0.06618,0.77696 0.43241,1.60288 0.87059,2.35279c0.47231,0.80833 1.01761,1.52827 1.66149,2.17929c0.57806,0.58447 1.2737,1.22267 1.75959,1.94096c0.48132,0.71155 0.90298,1.5092 1.36889,2.27975c0.45399,0.75084 1.07594,1.83096 1.67141,1.56226c0.79333,-0.35799 1.04594,-1.42023 1.53988,-2.17935c0.47106,-0.72396 0.87175,-1.52642 1.38306,-2.27294c0.49644,-0.72482 1.05965,-1.37731 1.6299,-2.04167c0.5952,-0.69342 1.11331,-1.441 1.52398,-2.2181l0.40173,-0.7589" id="svg_191" stroke-linecap="null" stroke-linejoin="null" stroke-dasharray="null" stroke-width="null" stroke="#000000" fill="#ffffff"/>
  <ellipse ry="10.82353" rx="5.76471" id="svg_171" cy="15.94118" cx="36.29412" stroke-linecap="null" stroke-linejoin="null" stroke-dasharray="null" stroke-width="null" stroke="#000000" fill="#cccccc"/>
  <ellipse transform="rotate(29.054609298706055 32.64706039428711,11.000000000000002) " ry="0.94118" rx="1.88235" id="svg_173" cy="11" cx="32.64706" stroke-linecap="null" stroke-linejoin="null" stroke-dasharray="null" stroke-width="null" stroke="#000000" fill="#cccccc"/>
  <ellipse id="svg_174" transform="rotate(-24.943891525268555 39.705883026123054,11.000000000000002) " ry="0.94118" rx="1.88235" cy="11" cx="39.70588" stroke-linecap="null" stroke-linejoin="null" stroke-dasharray="null" stroke-width="null" stroke="#000000" fill="#cccccc"/>
  <path d="m35.35294,13.58823c-0.64894,0.49788 -1.11765,1.29657 -1.37027,2.11702l-0.06333,0.70598l0.87863,0.00053l0.89443,-0.01004" id="svg_175" stroke-linecap="null" stroke-linejoin="null" stroke-dasharray="null" stroke-width="null" stroke="#000000" fill="none"/>
  <path d="m30.64706,18.52941c0.8273,0.26886 1.64648,0.57879 2.448,0.75655c0.92711,0.20561 1.8567,0.14923 2.70918,0.35231c0.86502,0.20607 1.67445,0.40253 2.60753,0.5578c0.87815,0.14613 1.83932,-0.08808 2.62406,0.33386c0.56371,0.3031 -0.12642,1.22911 -0.78876,1.81124c-0.65826,0.57853 -1.40648,1.02764 -2.22353,1.28855c-0.80686,0.25765 -1.68729,0.53716 -2.57647,0.54674c-0.88383,0.00952 -1.72724,-0.35733 -2.42322,-0.91749c-0.70016,-0.56353 -1.23561,-1.27694 -1.68266,-2.0472l-0.22598,-0.80247l-0.23286,-0.85888" id="svg_177" stroke-linecap="null" stroke-linejoin="null" stroke-dasharray="null" stroke-width="null" stroke="#000000" fill="#000000"/>
  <path d="m31.82353,18.76471c0,0.88078 0.02111,1.77885 0.22857,2.62353c0.20683,0.84214 0.17035,2.10934 0.71261,2.11765c0.89565,0.01372 0.48233,-1.70588 0.70588,-2.54118l0,-0.88235l-0.2,-0.72888l-0.89412,-0.00053" id="svg_178" stroke-linecap="null" stroke-linejoin="null" stroke-dasharray="null" stroke-width="null" stroke="#000000" fill="#ffffff"/>
  <path id="svg_179" d="m36.52941,19.51172c0,0.88079 0.02112,1.77885 0.22857,2.62353c0.20683,0.84214 0.17035,2.10934 0.71261,2.11765c0.89565,0.01372 0.48233,-1.70588 0.70588,-2.54118l0,-0.88235l-0.2,-0.72888l-0.89412,-0.00053" stroke-linecap="null" stroke-linejoin="null" stroke-dasharray="null" stroke-width="null" stroke="#000000" fill="#ffffff"/>
  <path d="m25.23529,24.41176c-0.35294,-0.72549 -0.60257,-1.73786 -1.38463,-2c-0.86471,-0.28985 -1.78655,0.00924 -2.51153,0.42369c-0.81279,0.46464 -1.60805,0.49167 -2.46855,0.2822c-0.8221,-0.20013 -1.05826,-0.99042 -0.92941,-1.86275c0.12128,-0.82107 -0.50578,-1.82725 -1.29349,-1.70816c-0.86463,0.13073 -1.48932,0.95404 -2.25945,1.35914c-0.76365,0.40169 -1.69803,0.59776 -2.46608,0.28129c-0.85069,-0.35052 -1.35765,-1.20652 -1.39275,-2.09008c-0.0354,-0.89129 0.16354,-1.9692 -0.61553,-2.21459c-0.88289,-0.27809 -1.76529,-0.41338 -2.21976,-1.18839c-0.4159,-0.70923 0.02155,-1.62187 0.24951,-2.46127c0.23259,-0.85644 0.46408,-1.66821 0.82406,-2.48869c0.34328,-0.78242 0.42268,-1.87902 -0.37943,-2.22649c-0.80428,-0.34841 -1.77952,0.12191 -2.13563,0.91206c-0.3619,0.80299 -0.45592,1.64943 -0.65767,2.58151c-0.18017,0.8324 -0.07755,1.7242 -0.13441,2.5988c-0.05911,0.90909 -0.02429,1.77299 0.56298,2.43082c0.58954,0.66038 1.68316,0.71462 2.20931,1.43218c0.51283,0.69939 0.14841,1.75773 0.29657,2.61604c0.14851,0.86036 0.61915,1.67391 1.39671,1.98574c0.86158,0.34554 1.69388,0.02219 2.53396,-0.07482c0.8611,-0.09944 1.70848,-0.69152 2.55953,-0.58824c0.80591,0.09781 1.46598,0.95189 1.91404,1.69663c0.45736,0.76019 0.99311,1.38271 1.84471,1.70149c0.85038,0.31832 1.66001,-0.05315 2.48471,-0.40988c0.79779,-0.34509 1.73137,-0.28235 2.57224,-0.06135l0.87231,0.00425l0.54729,-0.67624" id="svg_182" stroke-linecap="null" stroke-linejoin="null" stroke-dasharray="null" stroke-width="null" stroke="#000000" fill="#000000"/>
  <ellipse ry="2.70588" rx="2.11765" id="svg_183" cy="8.17647" cx="7.58824" stroke-linecap="null" stroke-linejoin="null" stroke-dasharray="null" stroke-width="null" stroke="#000000" fill="#cccccc"/>
  <path d="m10.17647,8.76471c0.94055,0.07616 2.03236,-0.07971 2,-0.94118c-0.03133,-0.83396 -1.11541,-1.11315 -1.92322,-1.41796c-0.82104,-0.3098 -0.78616,-1.20508 -0.66747,-2.05263c0.124,-0.88548 -0.48575,-2.03232 -1.28922,-1.8799c-0.82984,0.15742 -0.01571,1.6141 -0.47304,2.35049c-0.29319,0.47209 -0.83454,-0.59227 -1.20988,-1.37647c-0.38628,-0.80707 -1.52394,-1.20726 -1.84894,-0.41176c-0.33181,0.81215 0.17099,1.74857 0.64706,2.49167c0.4719,0.73658 0.08139,0.62148 -0.71639,0.22598c-0.76059,-0.37707 -2.21571,-0.69652 -2.16543,0.10641c0.05041,0.80499 1.34065,1.02002 2.08129,1.45157l0.80053,0.39251" id="svg_184" stroke-linecap="null" stroke-linejoin="null" stroke-dasharray="null" stroke-width="null" stroke="#000000" fill="#cccccc"/>
  <g stroke="null" id="svg_188">
   <path stroke="#000000" id="svg_185" d="m46.38219,26.56968c0.34317,-0.72549 0.58589,-1.73786 1.3463,-2c0.84079,-0.28984 1.73711,0.00925 2.44202,0.42369c0.7903,0.46464 1.56355,0.49168 2.40023,0.2822c0.79935,-0.20013 1.02897,-0.99042 0.90369,-1.86275c-0.11792,-0.82107 0.49178,-1.82725 1.25769,-1.70815c0.8407,0.13072 1.44811,0.95403 2.19692,1.35913c0.74252,0.4017 1.65105,0.59776 2.39783,0.2813c0.82716,-0.35052 1.32009,-1.20653 1.35421,-2.09008c0.03442,-0.8913 -0.15902,-1.9692 0.5985,-2.21459c0.85845,-0.27809 1.71644,-0.41338 2.15833,-1.18839c0.4044,-0.70924 -0.02095,-1.62188 -0.2426,-2.46128c-0.22614,-0.85644 -0.45124,-1.6682 -0.80125,-2.48868c-0.33377,-0.78242 -0.41098,-1.87902 0.36893,-2.22649c0.78202,-0.34841 1.73027,0.12191 2.07653,0.91206c0.35188,0.80299 0.4433,1.64942 0.63947,2.58151c0.17518,0.8324 0.0754,1.7242 0.13069,2.5988c0.05747,0.90908 0.02363,1.77298 -0.5474,2.43082c-0.57322,0.66038 -1.63658,0.71462 -2.14817,1.43218c-0.49864,0.69939 -0.14431,1.75773 -0.28836,2.61604c-0.1444,0.86035 -0.60202,1.67391 -1.35806,1.98574c-0.83774,0.34554 -1.647,0.0222 -2.46383,-0.07482c-0.83727,-0.09944 -1.66119,-0.69152 -2.4887,-0.58824c-0.78361,0.09781 -1.42541,0.95189 -1.86107,1.69663c-0.44469,0.76019 -0.96563,1.38272 -1.79365,1.70149c-0.82685,0.31833 -1.61407,-0.05315 -2.41595,-0.40988c-0.77571,-0.34509 -1.68346,-0.28235 -2.50104,-0.06135l-0.84818,0.00425l-0.53214,-0.67623" stroke-linecap="null" stroke-linejoin="null" stroke-dasharray="null" stroke-width="null" fill="#000000"/>
   <ellipse stroke="#000000" id="svg_186" ry="2.70588" rx="2.05904" cy="10.33439" cx="63.54087" stroke-linecap="null" stroke-linejoin="null" stroke-dasharray="null" stroke-width="null" fill="#cccccc"/>
   <path stroke="#000000" id="svg_187" d="m61.02426,10.92263c-0.91452,0.07615 -1.97612,-0.07971 -1.94465,-0.94118c0.03046,-0.83396 1.08453,-1.11316 1.87,-1.41796c0.79831,-0.3098 0.76439,-1.20509 0.649,-2.05263c-0.12057,-0.88548 0.47231,-2.03232 1.25353,-1.8799c0.80687,0.15742 0.01528,1.6141 0.45995,2.35049c0.28508,0.47209 0.81144,-0.59227 1.1764,-1.37647c0.3756,-0.80707 1.48177,-1.20726 1.79777,-0.41177c0.32263,0.81215 -0.16625,1.74857 -0.62914,2.49167c-0.45884,0.73658 -0.07914,0.62148 0.69656,0.22598c0.73954,-0.37706 2.15439,-0.69652 2.1055,0.10641c-0.04901,0.805 -1.30355,1.02002 -2.0237,1.45157l-0.77837,0.39251" stroke-linecap="null" stroke-linejoin="null" stroke-dasharray="null" stroke-width="null" fill="#cccccc"/>
  </g>
  <path d="m25.35294,55.58823c-0.92847,-1.06525 -1.19626,-1.9831 -1.78996,-2.7269c-0.53592,-0.67141 -1.38847,-1.02116 -2.17855,-1.28592c-0.85052,-0.28502 -1.75665,-0.56525 -2.5548,-0.76312c-0.92721,-0.22987 -1.73222,-0.39485 -2.70367,-0.53151c-0.86326,-0.12144 -1.75658,-0.12954 -2.6329,-0.10379c-0.87283,0.02566 -1.75407,0.19946 -2.50986,0.6521c-0.78784,0.47184 -1.59193,1.02037 -1.86065,1.87433c-0.27062,0.86 -0.2402,1.73312 -0.2402,2.6012c0,0.88361 -0.00645,1.78404 0.10777,2.65647c0.12072,0.92217 0.32481,1.77713 0.63733,2.64674c0.2834,0.78857 0.69721,1.59831 1.01961,2.41177c0.3253,0.82078 0.68499,1.60715 1.05882,2.45098c0.34593,0.78086 0.91227,1.53646 1.33392,2.23981c0.47973,0.80022 0.63764,1.70692 0.43094,2.55988c-0.18238,0.75259 -1.1429,0.72973 -1.98584,0.72973c-0.82765,0 -1.79571,-0.06046 -2.66608,0c-0.93401,0.06487 -1.91711,0.55682 -1.56392,0.94608c0.57818,0.63721 1.70658,0.67864 2.57773,0.86553c0.89224,0.19142 1.67977,0.43136 2.62628,0.52704c0.80785,0.08167 1.71364,0.10969 2.64886,-0.01943c0.84467,-0.11662 1.9691,-0.13388 2.49679,-0.86165c0.51376,-0.70856 0.17058,-1.76899 0.01729,-2.59811c-0.16731,-0.90498 -0.40751,-1.7223 -0.6919,-2.57878c-0.26689,-0.80376 -0.49797,-1.69003 -0.73386,-2.55518c-0.23521,-0.86269 -0.41292,-1.69109 -0.48967,-2.58043c-0.07904,-0.91593 0.00759,-1.92529 0.73265,-2.44278c0.70498,-0.50317 1.6726,-0.64332 2.54133,-0.70227c0.82148,-0.05575 1.73715,0.01089 2.61029,0.1201c0.89407,0.11183 1.72455,0.17646 2.64216,0.23039c0.88778,0.05217 1.73908,-0.14547 2.43524,-0.72571l0.64078,-0.63953l0.62871,-0.62871l0.55263,-0.68988" id="svg_189" stroke-linecap="null" stroke-linejoin="null" stroke-dasharray="null" stroke-width="null" stroke="#000000" fill="#000000"/>
  <path stroke="#000000" id="svg_190" d="m46.05043,54.74287c0.95281,-1.06525 1.22762,-1.9831 1.83689,-2.7269c0.54997,-0.67141 1.42487,-1.02115 2.23567,-1.28592c0.87282,-0.28502 1.80271,-0.56524 2.62178,-0.76312c0.95152,-0.22986 1.77764,-0.39484 2.77456,-0.53151c0.88589,-0.12144 1.80262,-0.12954 2.70193,-0.10378c0.89571,0.02566 1.80006,0.19945 2.57566,0.6521c0.8085,0.47184 1.63368,1.02037 1.90943,1.87433c0.27772,0.86 0.2465,1.73312 0.2465,2.6012c0,0.88361 0.00661,1.78404 -0.1106,2.65647c-0.12389,0.92217 -0.33333,1.77713 -0.65404,2.64674c-0.29083,0.78857 -0.71549,1.59831 -1.04634,2.41177c-0.33383,0.82078 -0.70295,1.60715 -1.08658,2.45098c-0.35501,0.78086 -0.93619,1.53646 -1.36889,2.23981c-0.49231,0.80021 -0.65436,1.70691 -0.44225,2.55987c0.18716,0.7526 1.17288,0.72973 2.03792,0.72973c0.84934,0 1.84278,-0.06046 2.73598,0c0.9585,0.06487 1.96737,0.55682 1.60492,0.94608c-0.59334,0.63721 -1.75133,0.67864 -2.64531,0.86553c-0.91562,0.19142 -1.7238,0.43136 -2.69513,0.52704c-0.82903,0.08166 -1.75857,0.10968 -2.71831,-0.01944c-0.86682,-0.11661 -2.02073,-0.13388 -2.56225,-0.86164c-0.52723,-0.70856 -0.17505,-1.76899 -0.01774,-2.59812c0.1717,-0.90497 0.41819,-1.7223 0.71004,-2.57878c0.27389,-0.80376 0.51103,-1.69003 0.7531,-2.55518c0.24138,-0.86269 0.42376,-1.6911 0.50251,-2.58043c0.08111,-0.91593 -0.00779,-1.92529 -0.75186,-2.44279c-0.72346,-0.50316 -1.71645,-0.64331 -2.60796,-0.70227c-0.84302,-0.05575 -1.7827,0.01089 -2.67874,0.1201c-0.9175,0.11183 -1.76977,0.17646 -2.71142,0.23039c-0.91107,0.05217 -1.78468,-0.14547 -2.49909,-0.72571l-0.65758,-0.63952l-0.64519,-0.62871l-0.56712,-0.68988" stroke-linecap="null" stroke-linejoin="null" stroke-dasharray="null" stroke-width="null" fill="#000000"/>
 </g>
</svg>