<svg width="75" height="75" xmlns="http://www.w3.org/2000/svg" xmlns:svg="http://www.w3.org/2000/svg">
 <!-- Created with SVG-edit - http://svg-edit.googlecode.com/ -->
 <title>water</title>
 <g>
  <title>Layer 1</title>
  <path id="svg_1" d="m42.169096,4.133299c0,0 -3.414979,5.887893 -3.662266,7.64249c-0.247287,1.754597 -0.577019,1.660383 0.942063,5.534621c1.519082,3.874238 3.191234,5.664151 5.181347,8.714084c1.990113,3.049933 3.780024,3.426751 6.005653,6.12341c2.225629,2.696659 4.604328,5.66415 6.370696,8.725855c1.766368,3.061705 5.299104,10.127179 5.52285,12.941597c0.223746,2.814418 -0.341502,8.019306 -2.472915,11.069241c-2.131413,3.049935 -4.698545,3.89778 -8.125295,5.181347c-3.42675,1.283567 -7.524734,2.366928 -11.775789,2.82619c-4.251055,0.459262 -5.051817,0.600559 -9.773904,0.588789c-4.722087,-0.01177 -7.17146,-0.223746 -12.129063,-1.177579c-4.957603,-0.953833 -5.876122,-1.401324 -9.762132,-7.524734c-3.88601,-6.12341 -3.532737,-12.364578 5.522848,-29.333485c9.055585,-16.968907 10.963256,-16.709848 14.837494,-23.198304c3.874239,-6.488456 13.318413,-8.113522 13.318413,-8.113522z" stroke-linecap="null" stroke-linejoin="null" stroke-dasharray="null" stroke="#000000" fill="#0000ff"/>
  <path id="svg_2" d="m45.937348,38.754117c0,0 2.601253,2.20934 3.532737,3.88601c0.931483,1.67667 1.784308,3.392899 2.119642,5.181347c0.335334,1.788448 0.582809,2.520755 0.471031,3.414979c-0.111778,0.894224 -0.327974,2.583314 -0.588789,3.179463c-0.260815,0.596149 -1.790288,2.298578 -2.2374,2.708431c-0.447112,0.409853 -2.347798,1.387796 -2.943947,1.648611c-0.596149,0.260815 -2.78157,0.248855 -3.414979,-0.235516c-0.633409,-0.484371 -1.448974,-1.075 -2.131413,-2.83796c-0.682439,-1.76296 0.797436,-3.315349 1.530852,-3.88601c0.733416,-0.570661 1.411528,-1.286787 2.219461,-2.677153c0.807933,-1.390366 1.022373,-1.546221 1.345936,-3.495477c0.323562,-1.949257 0.196687,-4.102395 0.259435,-4.710315c0.062747,-0.607921 -0.162566,-2.17641 -0.162566,-2.17641z" stroke-linecap="null" stroke-linejoin="null" stroke-dasharray="null" stroke-width="0" stroke="#000000" fill="#ffffff"/>
 </g>
</svg>