<svg width="75" height="75" xmlns="http://www.w3.org/2000/svg" xmlns:svg="http://www.w3.org/2000/svg">
 <!-- Created with SVG-edit - http://svg-edit.googlecode.com/ -->
 <g>
  <title>Layer 1</title>
  <ellipse stroke="#000000" id="svg_67" cy="25.58824" cx="7.11765" stroke-linecap="null" stroke-linejoin="null" stroke-dasharray="null" stroke-width="null" fill="#000000"/>
  <g stroke="null" id="svg_70">
   <path stroke="#000000" id="svg_69" d="m30.21874,27.79657c-1.07879,0.62456 -2.42247,0.64423 -3.74763,0.65892c-1.36034,0.01508 -2.73136,0.40583 -4.03504,0.61131c-1.33471,0.21037 -2.67869,0.10411 -4.04136,0.02145c-1.32033,-0.08009 -2.66587,-0.27071 -3.88533,-0.80439c-1.24758,-0.54598 -2.73186,-0.61621 -3.68836,-1.52058c-0.9192,-0.86909 -0.24861,-2.59908 -0.8475,-3.75213c-0.63466,-1.22196 -1.71273,-2.21349 -2.96362,-2.66756c-1.28554,-0.46663 -2.67078,-0.02881 -2.09781,0.71537c0.80347,1.04355 1.65785,2.09063 2.31162,3.22815c0.67247,1.17007 0.40582,1.56436 -0.59273,0.67885c-1.01282,-0.89815 -2.04676,-1.95834 -3.40945,-2.10732c-1.31887,-0.14417 -2.21182,1.25422 -1.22397,1.75105c1.16681,0.58683 2.72901,0.79864 3.58998,1.84753c0.64542,0.78629 -0.7584,1.87256 -2.08006,2.14478c-1.32718,0.27337 -2.64289,-0.20251 -2.11187,0.10978c1.14535,0.67355 2.44595,1.31053 3.72139,1.19377c1.37493,-0.12589 2.41102,-1.49001 3.70535,-1.35781c1.31292,0.13411 2.32856,1.21426 3.56292,1.85794c1.17049,0.61037 2.29543,1.19699 3.50409,1.82726c1.23712,0.64512 2.37919,1.24066 3.64263,1.89951c1.19294,0.62208 2.35764,1.28771 3.72709,0.93435c1.30819,-0.33757 2.22897,-0.8603 3.175,-1.26645l1.73168,-0.76181" stroke-linecap="null" stroke-linejoin="null" stroke-dasharray="null" stroke-width="null" fill="#666666"/>
   <path stroke="#000000" id="svg_63" d="m39.15541,49.51809c0.51229,-0.12829 1.08481,-0.14469 1.61843,-0.19447c0.55704,-0.05197 1.12321,-0.27668 1.67521,-0.1639c0.51969,0.10617 1.03315,0.76723 1.44663,1.57229c0.46045,0.89651 0.84701,1.87722 1.05535,3.06073c0.21826,1.23986 0.38178,2.58853 0.51767,3.79616c0.15262,1.35624 0.3836,2.60796 0.48496,3.91685c0.10639,1.37404 0.09392,2.76527 0.09392,4.09866c0,1.28487 0.00702,2.82269 0.40627,2.62518c0.53332,-0.26383 1.02551,-0.84509 1.54765,-0.9619c0.53012,-0.11857 1.12942,-0.01024 1.58774,-0.01024c0.47457,0 1.12114,0 1.69224,0c0.564,0 1.35188,0.22389 1.15866,1.31116c-0.21981,1.23694 -0.90465,1.50931 -1.36865,2.09242c-0.51504,0.64725 -1.08188,0.76812 -1.63827,1.07607c-0.46336,0.25644 -1.00781,0.6262 -1.50941,0.73155c-0.54219,0.11387 -1.14944,0.20379 -1.70515,0.16437c-0.53738,-0.03812 -1.07598,-0.15222 -1.62602,-0.58868c-0.50059,-0.39722 -0.93882,-1.07774 -0.93917,-2.35186c-0.00039,-1.36253 -0.0456,-2.79533 -0.2902,-4.01783c-0.24042,-1.20162 -0.53315,-2.43442 -0.96108,-3.28846c-0.42037,-0.83893 -0.99672,-1.01799 -1.48797,-1.52646c-0.5073,-0.52505 -1.0559,-0.61811 -1.57591,-1.04221c-0.52655,-0.42942 -0.9129,-1.32168 -1.40355,-2.09082c-0.45296,-0.71004 -0.88327,-1.57875 -1.18788,-2.71048l-0.12449,-1.32048l-0.00619,-1.34699l-0.02559,-1.3247" stroke-linecap="null" stroke-linejoin="null" stroke-dasharray="null" stroke-width="null" fill="#666666"/>
   <path stroke="#000000" d="m3.19414,11.69903c1.49024,-0.17919 2.81513,-0.35837 4.16925,-0.35837c1.30375,0 2.72563,0.1617 4.04453,-0.00003c1.26301,-0.15488 1.96971,-0.70368 1.57054,-1.93517c-0.41409,-1.27752 -0.39647,-2.70731 0.03302,-4.01373c0.40041,-1.21796 1.64789,-2.02035 2.89329,-2.50409c1.21933,-0.47361 2.4604,-0.68856 3.90508,-0.85364c1.27961,-0.14622 2.66511,-0.39493 3.94546,-0.54831c1.33603,-0.16004 3.67952,-1.43899 4.10095,-0.17942c0.30078,0.89898 -3.33743,0.69798 -3.05587,2.12457c0.18692,0.94709 2.27138,0.20484 3.78341,0.20484c1.24721,0 2.49442,-0.00013 3.86065,0c1.28807,0.00012 2.56218,-0.16226 4.01293,0.10297c1.2208,0.2232 -0.01558,0.96327 -1.26262,1.32678c-1.30863,0.38145 -1.88482,0.81967 -0.5556,0.97904c1.15668,0.13868 2.49536,0.35683 3.84583,0.74941c1.37993,0.40115 1.31526,1.75049 -0.07198,2.03817c-1.22622,0.25429 -2.59159,0.51637 -1.48478,0.77647c1.06452,0.25016 2.47904,0.47282 3.71262,0.78149c1.45181,0.36328 3.29432,0.7833 2.88147,1.5949c-0.58564,1.1513 -2.4643,1.03507 -3.67918,1.42593c-1.3244,0.42609 -0.44181,0.8622 0.69559,1.67192c1.1026,0.78495 1.88392,1.95943 2.36637,3.24227c0.45702,1.21522 1.16774,2.32109 2.07061,3.31878c0.89888,0.99328 1.91361,1.96542 2.17656,3.27909c0.2654,1.32593 0.28589,2.66345 0.40695,4.01373c0.11938,1.33153 0.14768,2.68175 0,3.97532c-0.15737,1.37846 -0.28336,2.69804 -0.50483,4.02235c-0.22215,1.32836 -0.35461,2.67046 -0.38604,4.0257c-0.0322,1.38843 -0.03654,2.7054 0,4.03167c0.03886,1.41026 0.29422,2.78254 1.07165,3.90243c0.75013,1.08055 2.13339,1.19167 3.52771,1.15061c1.3272,-0.03908 2.60342,-0.24751 4.04203,-0.44796c1.2621,-0.17586 2.59522,-0.62871 3.8981,-0.98167c1.32891,-0.36001 2.53686,-0.78071 3.76334,-1.43734c1.14767,-0.61443 2.26516,-1.43108 3.389,-2.15396c1.13861,-0.73238 2.48666,-0.97372 3.74534,-1.07138c1.31314,-0.10188 3.1612,-0.58128 3.63871,0.30342c0.57326,1.06211 -0.10666,2.54774 -0.48345,3.91771c-0.39212,1.42572 -0.74532,2.7764 -1.77056,3.59159c-1.06939,0.85029 -2.47569,1.00547 -3.80863,1.36157c-1.31947,0.3525 -2.56257,0.61726 -3.93233,1.02984c-1.26715,0.38167 -2.51105,0.92435 -3.86238,1.0781c-1.29338,0.14715 -2.59443,0.00645 -3.98846,0.00645c-1.40445,0 -2.72937,0 -4.05563,0c-1.36178,0 -2.68154,0.14642 -3.98377,0.37343c-1.33369,0.23249 -2.54364,0.82127 -3.86327,1.06006c-1.2995,0.23515 -2.63886,0.17919 -3.92527,0.17919c-1.44961,0 -2.75284,0.20669 -4.09623,-0.00374c-1.35021,-0.21149 -2.4877,-1.00784 -3.62009,-1.63832c-1.21802,-0.67815 -2.39228,-1.34107 -3.40002,-2.21811c-1.01535,-0.88366 -1.96318,-1.87726 -2.84616,-2.84056c-0.90574,-0.98812 -1.58502,-2.20726 -2.1847,-3.38917c-0.61992,-1.22181 -1.0264,-2.4928 -1.36175,-3.81665c-0.34219,-1.35087 -0.65218,-2.65966 -0.87281,-3.96063c-0.22558,-1.33016 -0.37341,-2.66289 -0.73075,-3.96528c-0.3558,-1.29679 -0.76623,-2.62948 -1.14031,-3.92577c-0.36749,-1.27345 -0.69464,-2.60018 -1.09279,-3.92682c-0.37437,-1.2474 -0.62212,-2.57792 -0.99634,-3.88522c-0.36164,-1.26331 -0.51254,-2.55418 -0.81588,-3.88125c-0.27819,-1.21703 -1.82089,-1.38644 -3.17258,-1.60446c-1.2953,-0.20892 -2.60583,-0.54569 -3.95924,-0.77408c-1.27979,-0.21597 -2.5849,-0.62234 -3.85828,-0.97334c-1.31659,-0.36291 -2.54381,-0.78555 -3.86232,-1.12146l-0.82601,-0.99006l0.68157,-1.05528l1.20706,-0.47424" id="svg_60" stroke-linecap="null" stroke-linejoin="null" stroke-dasharray="null" stroke-width="null" fill="#666666"/>
   <path stroke="#000000" d="m29.56374,28.1841c-0.67183,1.05385 -1.85568,1.69335 -3.02538,2.31986c-1.20075,0.64313 -2.23903,1.6247 -3.30232,2.41064c-1.0886,0.80465 -2.33037,1.33248 -3.57792,1.88993c-1.20879,0.54013 -2.49056,0.99379 -3.81742,1.08455c-1.35745,0.09285 -2.70726,0.71763 -3.97035,0.35756c-1.21381,-0.34602 -1.41035,-2.19225 -2.46977,-2.93864c-1.12274,-0.791 -2.53364,-1.17216 -3.85195,-0.99618c-1.35483,0.18086 -2.38419,1.21081 -1.5349,1.60622c1.19093,0.55446 2.42868,1.08849 3.52973,1.79567c1.13255,0.72742 1.07631,1.2009 -0.21547,0.87705c-1.31023,-0.32847 -2.71339,-0.79102 -3.99131,-0.29243c-1.23682,0.48255 -1.38948,2.13736 -0.28511,2.12111c1.30445,-0.01919 2.78825,-0.55436 4.03268,-0.02177c0.93286,0.39925 0.18382,2.01347 -0.86488,2.86697c-1.0531,0.85708 -2.43894,1.04371 -1.82458,1.07511c1.32509,0.06773 2.77125,0.03112 3.85008,-0.66299c1.16298,-0.74825 1.4584,-2.4389 2.66796,-2.92073c1.22692,-0.48874 2.62297,0 4.0134,0c1.31848,0 2.58565,0 3.94713,0c1.39355,0 2.68002,0 4.1032,0c1.34378,0 2.68241,0.05174 3.7364,-0.89593c1.00684,-0.90527 1.585,-1.79559 2.23895,-2.5941l1.18862,-1.47795" id="svg_61" stroke-linecap="null" stroke-linejoin="null" stroke-dasharray="null" stroke-width="null" fill="#666666"/>
   <path stroke="#000000" d="m34.78659,50.94066c-0.67757,-0.1283 -1.4348,-0.14469 -2.14058,-0.19447c-0.73676,-0.05197 -1.48558,-0.27668 -2.21568,-0.1639c-0.68736,0.10618 -1.36647,0.76724 -1.91336,1.57229c-0.60901,0.89651 -1.12028,1.87722 -1.39583,3.06073c-0.28868,1.23986 -0.50495,2.58853 -0.68469,3.79616c-0.20186,1.35623 -0.50737,2.60797 -0.64142,3.91685c-0.14072,1.37405 -0.12423,2.76528 -0.12423,4.09866c0,1.28488 -0.0093,2.82269 -0.53735,2.62518c-0.70538,-0.26384 -1.35636,-0.8451 -2.04696,-0.9619c-0.70116,-0.11858 -1.49381,-0.01024 -2.09999,-0.01024c-0.62768,0 -1.48285,0 -2.2382,0c-0.74596,0 -1.78803,0.22389 -1.53248,1.31116c0.29073,1.23694 1.19651,1.5093 1.81022,2.09241c0.68121,0.64725 1.43093,0.76813 2.16682,1.07607c0.61285,0.25645 1.33297,0.62621 1.99639,0.73155c0.71712,0.11387 1.52029,0.20379 2.25528,0.16437c0.71076,-0.03812 1.42313,-0.15222 2.15062,-0.58868c0.66209,-0.39722 1.2417,-1.07774 1.24218,-2.35187c0.00051,-1.36253 0.06031,-2.79533 0.38382,-4.01782c0.31799,-1.20162 0.70515,-2.43443 1.27116,-3.28847c0.55599,-0.83892 1.31829,-1.018 1.96803,-1.52645c0.67096,-0.52506 1.39655,-0.6181 2.08435,-1.04221c0.69643,-0.42943 1.20742,-1.32169 1.85637,-2.09083c0.5991,-0.71005 1.16823,-1.57874 1.57112,-2.71048l0.16466,-1.32048l0.00819,-1.347l0.03384,-1.32469" id="svg_62" stroke-linecap="null" stroke-linejoin="null" stroke-dasharray="null" stroke-width="null" fill="#666666"/>
   <ellipse stroke="#000000" ry="1.2543" rx="3.56346" id="svg_64" cy="8.11532" cx="17.98249" stroke-linecap="null" stroke-linejoin="null" stroke-dasharray="null" stroke-width="null" fill="#000000"/>
   <line stroke="#000000" id="svg_65" y2="6.14428" x2="15.3099" y1="3.99406" x1="22.08047" stroke-linecap="null" stroke-linejoin="null" stroke-dasharray="null" stroke-width="null" fill="none"/>
   <ellipse stroke="#000000" ry="1.2543" rx="1.78173" id="svg_66" cy="11.69903" cx="2.83779" stroke-linecap="null" stroke-linejoin="null" stroke-dasharray="null" stroke-width="null" fill="#000000"/>
   <line stroke="#000000" id="svg_68" y2="14.74519" x2="13.35" y1="14.20763" x1="1.76875" stroke-linecap="null" stroke-linejoin="null" stroke-dasharray="null" stroke-width="null" fill="none"/>
  </g>
 </g>
</svg>