<svg width="75" height="75" xmlns="http://www.w3.org/2000/svg" xmlns:svg="http://www.w3.org/2000/svg">
 <!-- Created with SVG-edit - http://svg-edit.googlecode.com/ -->
 <g>
  <title>Layer 1</title>
  <path d="m57.82353,33.70588c0.85004,-0.2811 1.69606,-0.47068 2.49773,-0.80016c0.83013,-0.34117 1.62794,-0.82039 2.22447,-1.45569c0.60006,-0.63906 -0.50742,0.56269 0.33663,0.87265c0.50647,0.18599 0.89946,-1.08102 1.35121,-1.90747c0.42244,-0.77283 0.63155,-1.64729 0.8698,-2.49757c0.23314,-0.83204 0.57356,-1.24211 0.82447,-0.45663c0.2845,0.89065 0.7273,1.69785 0.86291,0.88941c0.14394,-0.85814 0.22195,-1.72554 0.33363,-2.62049c0.11127,-0.89166 0.22857,-1.75682 0.22857,-2.6221c0,-0.85467 -0.06429,-2.06 0.24517,-1.99365c0.85246,0.18277 0.96751,1.521 1.04894,0.9451c0.13086,-0.92551 0.1821,-1.80565 0.30165,-2.67859c0.11931,-0.87117 -0.38274,-1.89276 0.05129,-2.66253c0.15677,-0.27804 0.59277,0.68974 1.26086,1.29892c0.33001,0.30091 0.52828,-0.63117 0.62572,-1.53176c0.09418,-0.8705 0.35351,-1.84343 0.71529,-1.26369c0.4629,0.74176 0.74387,1.6048 1.11576,2.39435c0.37776,0.80201 0.63318,1.65913 0.6353,2.54118c0.00216,0.90008 0.5241,2.45857 -0.36469,2.60496c-0.69704,0.11481 -0.98566,-1.61616 -1.28239,-1.35959c-0.64545,0.55808 -0.22758,1.74228 -0.35292,2.59745c-0.1323,0.9027 -0.24303,1.7635 -0.4353,2.61733c-0.19994,0.88795 -0.2089,1.84483 -0.65829,2.60514c-0.22915,0.38769 -0.39239,-0.59807 -0.63635,0.06704c-0.29796,0.81232 -0.47897,1.71657 -0.74488,2.55457c-0.26539,0.83637 -0.75323,1.6024 -1.52518,2.07749c-0.74764,0.46013 -1.12405,-0.02279 -1.80502,0.55059c-0.69447,0.58474 -1.34507,1.19397 -2.10212,1.65726c-0.74261,0.45446 -1.59718,1.12522 -2.41051,0.86386c-0.85888,-0.27599 -1.32941,-1.16975 -2.13696,-1.56049l-0.76861,-0.31153l-0.77287,-0.53114" id="svg_146" stroke-linecap="null" stroke-linejoin="null" stroke-dasharray="null" stroke-width="null" stroke="#000000" fill="#7f3f00"/>
  <path id="svg_144" d="m50.18983,40.62973c-0.58353,0.68487 -1.01074,1.43222 -1.33333,2.27451c-0.31519,0.82298 -0.55764,1.66742 -0.79608,2.51871c-0.23785,0.84919 -0.37026,1.7328 -0.45882,2.61855c-0.08774,0.87749 -0.281,1.72189 -0.3429,2.61192c-0.06069,0.87258 0.94662,1.71897 0.5727,2.49396c-0.36477,0.75602 -1.68364,0.18824 -2.52215,0.18824c-0.88412,0 -1.83174,-0.21154 -2.67534,0.07184c-0.84865,0.28508 -1.12726,1.45661 -0.72972,2.23388c0.39425,0.77085 1.54856,0.74595 2.41302,0.7531c0.83783,0.00693 1.79473,0.01487 2.67655,0.11765c0.84783,0.09882 1.76616,0.36431 2.62588,0.23529c0.85891,-0.1289 0.98333,-1.07785 0.92439,-1.95592c-0.05997,-0.89336 -0.00191,-1.74751 -0.00125,-2.66763c0.00062,-0.87386 0.17421,-1.74171 0.31937,-2.59998c0.1503,-0.88869 0.28629,-1.7656 0.52753,-2.60172c0.24803,-0.85967 0.74584,-1.56802 1.19396,-2.33892l0.42353,-0.8123l0.47433,-0.72696l0.43947,-0.74363" stroke-linecap="null" stroke-linejoin="null" stroke-dasharray="null" stroke-width="null" stroke="#000000" fill="#844001"/>
  <path id="svg_143" d="m16.19045,40.09498c0.43137,0.78431 0.9619,1.46047 1.42165,2.21177c0.4493,0.73422 0.8554,1.53974 1.07498,2.41427c0.21388,0.85185 -0.33295,1.71364 -1.02604,2.25631c-0.6827,0.53454 -1.50458,0.82339 -2.08879,1.46714c-0.60143,0.66274 -0.99093,1.55383 -1.74651,2.0152c-0.72071,0.44007 -1.75811,0.09896 -2.60125,0.29115c-0.85989,0.19601 -1.78439,1.28863 -1.23153,1.81475c0.63759,0.60675 1.73367,0.02627 2.63906,0.12063c0.88605,0.09234 1.64205,-0.36737 2.5089,-0.60298c0.82408,-0.224 1.66322,-0.52598 2.32404,-1.1451c0.65184,-0.61071 1.19608,-1.31373 1.81961,-1.93726c0.62353,-0.62353 1.1325,-1.32726 1.52768,-2.12941c0.38024,-0.77182 0.6885,-1.67114 0.4604,-2.49412c-0.24215,-0.87364 -0.69449,-1.62406 -1.11697,-2.42184l-0.43582,-0.78208l-0.27678,-0.80227" stroke-linecap="null" stroke-linejoin="null" stroke-dasharray="null" stroke-width="null" stroke="#000000" fill="#7f3f00"/>
  <path d="m23,27.58824c-0.58808,0.56455 -0.69916,1.44033 -0.47059,2.27059l0,0.88235" id="svg_137" stroke-linecap="null" stroke-linejoin="null" stroke-dasharray="null" stroke-width="null" stroke="#000000" fill="none"/>
  <g stroke="null" id="svg_141">
   <path stroke="#000000" d="m0.8824,34.9205c-0.00827,-1.38497 0.17275,-2.64828 0.84402,-3.67069c0.65543,-0.99828 1.73876,-1.22605 2.82921,-1.20191c1.08295,0.02398 2.18169,0.3378 3.26867,0.33604c1.08468,-0.00175 2.11341,-0.28934 3.15644,-0.16802c1.09775,0.12768 1.84031,-0.50602 1.90536,-1.76422c0.0636,-1.23021 0.43736,-2.59355 1.38838,-3.20314c0.95763,-0.61383 2.06657,-0.75808 3.0475,-1.25366c0.98978,-0.50005 2.24871,-1.39741 2.65065,-0.74464c0.61782,1.00339 -0.07143,2.52039 -0.43688,3.69275c-0.37075,1.18938 -0.08079,1.37487 0.79844,0.74909c0.94935,-0.67568 1.56208,-2.33264 2.57776,-2.30667c0.3922,0.01003 -0.17868,1.49598 -0.47772,2.72672c-0.20474,0.84264 0.3186,-0.25925 1.14144,-0.97752c0.89622,-0.78233 1.15568,0.51847 0.82242,1.76466c-0.33004,1.23415 0.00862,1.05262 0.95027,0.36158c0.9347,-0.68594 2.09484,-1.00727 1.88434,0.09073c-0.24194,1.26202 -0.07844,1.50782 0.25205,2.59491c0.34937,1.14915 1.55755,1.38241 2.64038,1.46178c1.06746,0.07824 2.18466,0.04926 3.26993,0c1.06447,-0.04831 2.12572,-0.39558 3.14982,-0.84436c1.02216,-0.44793 2.07629,-1.20927 3.16879,-0.83585c0.2456,0.08395 -0.62776,1.599 -0.23352,1.88183c0.90101,0.64638 2.07506,-0.50426 3.12386,-0.53766c1.12219,-0.03574 2.12152,-0.5808 3.18383,-0.8366c1.05916,-0.25505 1.10484,0.42946 0.49174,1.50507c-0.30709,0.53876 0.53528,0.00365 1.61279,-0.16365c1.09164,-0.16949 2.13709,-0.41214 3.24305,-0.57628c1.07679,-0.15981 2.16984,-0.39886 1.78233,0.10507c-0.72539,0.94335 -1.6346,1.59849 -0.7665,1.05853c0.9294,-0.57809 2.03028,-0.66947 3.12388,-0.75609c1.06311,-0.08421 2.11449,0.03647 3.0467,0.67208c0.91951,0.62696 1.82498,1.40712 2.55,2.31868c0.71884,0.9038 0.88185,2.22563 1.2554,3.39051c0.38987,1.21579 0.69792,2.48455 0.5092,3.73356c-0.1762,1.16615 -1.04512,2.12843 -2.05362,2.67153c-0.95919,0.51654 -2.0297,0.77499 -3.12388,0.8233c-1.11049,0.04903 -2.17831,-0.11296 -3.17747,-0.55223c-1.00588,-0.44222 -2.11083,-0.55718 -3.14859,-0.79194c-1.08886,-0.24632 -2.11993,-0.16802 -3.22389,-0.16802c-1.07985,0 -2.17228,-0.08479 -3.26366,0.00179c-1.06102,0.08417 -2.12822,0.32708 -3.21063,0.33425c-1.09931,0.00728 -2.19552,-0.08381 -3.23336,-0.16802c-1.11226,-0.09026 -2.19964,0 -3.28509,0c-1.06664,0 -2.19461,0 -3.27795,0c-1.10393,0 -2.16996,-0.18406 -3.24339,-0.33783c-1.07674,-0.15425 -2.1469,-0.32495 -3.19366,-0.50831c-1.13491,-0.1988 -2.14627,-0.59143 -3.17561,-0.95167c-1.06221,-0.37175 -2.13688,-0.566 -3.18588,-1.03053c-0.99994,-0.4428 -2.02007,-0.64749 -3.08645,-0.96466c-1.03277,-0.30717 -1.94865,-1.11957 -2.47607,-2.19737c-0.52677,-1.07647 -0.7839,-2.32888 -1.44623,-3.14274c-0.66499,-0.81712 -1.76869,-0.84307 -2.87884,-0.7801c-1.06166,0.06022 -2.14023,0.16802 -3.24303,0.16802c-1.11302,0 -2.19943,0 -3.26636,0l-1.03955,-0.36964" id="svg_133" stroke-linecap="null" stroke-linejoin="null" stroke-dasharray="null" stroke-width="null" fill="#7f3f00"/>
   <ellipse stroke="#000000" ry="0.94118" rx="2.32908" id="svg_134" cy="30.17647" cx="14.85679" stroke-linecap="null" stroke-linejoin="null" stroke-dasharray="null" stroke-width="null" fill="#000000"/>
   <line stroke="#000000" id="svg_135" y2="34.29412" x2="11.31254" y1="33.70588" x1="1.08485" stroke-linecap="null" stroke-linejoin="null" stroke-dasharray="null" stroke-width="null" fill="none"/>
   <ellipse stroke="#000000" ry="2" rx="0.70885" id="svg_136" cy="29.47059" cx="2.19876" stroke-linecap="null" stroke-linejoin="null" stroke-dasharray="null" stroke-width="null" fill="#000000"/>
  </g>
  <path d="m53.58823,42.41176c-0.58353,0.68486 -1.01075,1.43221 -1.33333,2.27451c-0.31519,0.82298 -0.55764,1.66742 -0.79608,2.51871c-0.23785,0.84919 -0.37026,1.7328 -0.45882,2.61855c-0.08773,0.87749 -0.281,1.72189 -0.3429,2.61192c-0.06069,0.87258 0.94662,1.71898 0.57271,2.49396c-0.36477,0.75602 -1.68365,0.18824 -2.52216,0.18824c-0.88412,0 -1.83173,-0.21154 -2.67533,0.07184c-0.84865,0.28508 -1.12726,1.45662 -0.72973,2.23388c0.39425,0.77084 1.54856,0.74595 2.41302,0.7531c0.83783,0.00693 1.79473,0.01487 2.67655,0.11765c0.84784,0.09882 1.76617,0.36431 2.62588,0.23529c0.85891,-0.1289 0.98333,-1.07785 0.92439,-1.95592c-0.05997,-0.89336 -0.00191,-1.74751 -0.00126,-2.66763c0.00063,-0.87386 0.17422,-1.74171 0.31937,-2.59998c0.1503,-0.88869 0.28629,-1.7656 0.52753,-2.60173c0.24803,-0.85967 0.74584,-1.56802 1.19396,-2.33892l0.42353,-0.81229l0.47433,-0.72696l0.43947,-0.74363" id="svg_138" stroke-linecap="null" stroke-linejoin="null" stroke-dasharray="null" stroke-width="null" stroke="#000000" fill="#844001"/>
  <path d="m19.82353,41c0.43137,0.78431 0.9619,1.46047 1.42165,2.21177c0.4493,0.73423 0.8554,1.53975 1.07498,2.41427c0.21389,0.85185 -0.33295,1.71365 -1.02604,2.25632c-0.6827,0.53454 -1.50458,0.82338 -2.08878,1.46714c-0.60144,0.66274 -0.99094,1.55383 -1.74651,2.01519c-0.72071,0.44007 -1.75812,0.09897 -2.60126,0.29116c-0.85989,0.19601 -1.78439,1.28862 -1.23153,1.81475c0.63759,0.60675 1.73367,0.02627 2.63906,0.12063c0.88605,0.09234 1.64206,-0.36736 2.5089,-0.60298c0.82408,-0.22399 1.66322,-0.52597 2.32404,-1.1451c0.65184,-0.61071 1.19608,-1.31372 1.81961,-1.93725c0.62353,-0.62353 1.1325,-1.32726 1.52769,-2.12941c0.38024,-0.77182 0.68849,-1.67114 0.46039,-2.49412c-0.24214,-0.87365 -0.69449,-1.62406 -1.11696,-2.42184l-0.43582,-0.78208l-0.27678,-0.80227" id="svg_142" stroke-linecap="null" stroke-linejoin="null" stroke-dasharray="null" stroke-width="null" stroke="#000000" fill="#7f3f00"/>
  <path d="m53.23529,42.76471c0.16345,-0.60878 -0.53293,-1.3365 -0.47059,-2.2c0.06138,-0.85014 0.85935,-1.48288 1.54118,-2.04704l0.78823,-0.35108l0.8,-0.34306" id="svg_147" stroke-linecap="null" stroke-linejoin="null" stroke-dasharray="null" stroke-width="null" stroke="#000000" fill="none"/>
  <line id="svg_148" y2="29.47059" x2="13.11765" y1="26.29412" x1="17.11765" stroke-linecap="null" stroke-linejoin="null" stroke-dasharray="null" stroke-width="null" stroke="#000000" fill="none"/>
 </g>
</svg>