<svg width="75" height="75" xmlns="http://www.w3.org/2000/svg" xmlns:svg="http://www.w3.org/2000/svg" preserveAspectRatio="xMidYMid meet">
 <defs>
  <path id="g1e0ZlNLMz" d="m51.08,60.08c0,4.3 -6.18,7.8 -13.79,7.8c-7.61,0 -13.79,-3.5 -13.79,-7.8c0,-4.3 6.18,-7.79 13.79,-7.79c7.61,0 13.79,3.49 13.79,7.79z"/>
  <path id="byp6X0sKK" d="m55.85,61.81l-8.23,2.99l-13.99,-38.44l8.22,-3l14,38.45z"/>
  <path id="abDE8ZK32" d="m32.12,23.36l8.22,3l-13.99,38.44l-8.23,-2.99l14,-38.45z"/>
  <path id="cGwwXl3C" d="m40.86,53.71c1.29,0 2.34,1.05 2.34,2.35c0,2.6 0,8.05 0,10.65c0,1.29 -1.05,2.34 -2.34,2.34c-0.56,0 0.1,0 -0.46,0c-1.3,0 -2.35,-1.05 -2.35,-2.34c0,-2.6 0,-8.05 0,-10.65c0,-1.3 1.05,-2.35 2.35,-2.35c0.56,0 -0.1,0 0.46,0z"/>
  <path id="a18Zy1uBXF" d="m33.77,53.71c1.29,0 2.34,1.05 2.34,2.35c0,2.6 0,8.05 0,10.65c0,1.29 -1.05,2.34 -2.34,2.34c-0.56,0 0.1,0 -0.46,0c-1.29,0 -2.34,-1.05 -2.34,-2.34c0,-2.6 0,-8.05 0,-10.65c0,-1.3 1.05,-2.35 2.34,-2.35c0.56,0 -0.1,0 0.46,0z"/>
  <path id="b1hqdGzRGg" d="m47.57,15.27c0,5.78 -4.7,10.48 -10.49,10.48c-5.78,0 -10.48,-4.7 -10.48,-10.48c0,-5.79 4.7,-10.49 10.48,-10.49c5.79,0 10.49,4.7 10.49,10.49z"/>
  <path id="c13i7n3LM" d="m40.86,41.58c1.29,0 2.34,1.05 2.34,2.34c0,2.6 0,8.05 0,10.65c0,1.3 -1.05,2.35 -2.34,2.35c-1.98,0 -5.57,0 -7.55,0c-1.29,0 -2.34,-1.05 -2.34,-2.35c0,-2.6 0,-8.05 0,-10.65c0,-1.29 1.05,-2.34 2.34,-2.34c1.98,0 5.57,0 7.55,0z"/>
  <path id="aKgDyI3LX" d="m36.11,68.57c0,0.91 -2.65,1.65 -5.92,1.65c-3.27,0 -5.92,-0.74 -5.92,-1.65c0,-0.91 2.65,-1.65 5.92,-1.65c3.27,0 5.92,0.74 5.92,1.65z"/>
  <path id="arDBjEc3G" d="m40.86,24.98c1.29,0 2.34,1.05 2.34,2.34c0,4.81 0,16.91 0,21.72c0,1.29 -1.05,2.34 -2.34,2.34c-1.98,0 -5.57,0 -7.55,0c-1.29,0 -2.34,-1.05 -2.34,-2.34c0,-4.81 0,-16.91 0,-21.72c0,-1.29 1.05,-2.34 2.34,-2.34c1.98,0 5.57,0 7.55,0z"/>
  <path id="a5s4oiYhiJ" d="m49.12,68.57c0,0.91 -2.65,1.65 -5.92,1.65c-3.27,0 -5.92,-0.74 -5.92,-1.65c0,-0.91 2.65,-1.65 5.92,-1.65c3.27,0 5.92,0.74 5.92,1.65z"/>
  <path id="e2dQFfKyzn" d="m31.54,54.3l4,0l0,7.67l-4,0l0,-7.67z"/>
  <path id="b1EVALiDHq" d="m38.63,54.91l4,0l0,7.67l-4,0l0,-7.67z"/>
  <path id="a2y7eObdi8" d="m31.1,25.58c0.54,-0.39 1.3,-0.27 1.69,0.27c0.25,0.34 0.27,0.37 0.52,0.71c0.39,0.54 0.27,1.3 -0.27,1.69c-1.78,1.3 -6.15,4.47 -7.93,5.77c-0.55,0.39 -1.3,0.27 -1.7,-0.27c-0.24,-0.34 -0.27,-0.37 -0.51,-0.71c-0.4,-0.54 -0.28,-1.3 0.27,-1.7c1.78,-1.29 6.15,-4.46 7.93,-5.76z"/>
  <path id="iy6eUCKdr" d="m50.61,31.77c0.51,0.44 0.56,1.21 0.12,1.71c-0.27,0.32 -0.3,0.35 -0.57,0.66c-0.44,0.51 -1.21,0.56 -1.72,0.12c-1.66,-1.45 -5.73,-4.99 -7.4,-6.43c-0.5,-0.44 -0.55,-1.21 -0.12,-1.71c0.28,-0.32 0.3,-0.35 0.58,-0.66c0.44,-0.51 1.2,-0.56 1.71,-0.12c1.66,1.44 5.74,4.98 7.4,6.43z"/>
  <path id="a1MuMxPYYd" d="m25.06,31.92c0.64,0 1.17,0.53 1.17,1.17c0,1.63 0,5.34 0,6.97c0,0.65 -0.53,1.17 -1.17,1.17c-0.48,0 -0.74,0 -1.22,0c-0.65,0 -1.17,-0.52 -1.17,-1.17c0,-1.63 0,-5.34 0,-6.97c0,-0.64 0.52,-1.17 1.17,-1.17c0.48,0 0.74,0 1.22,0z"/>
  <path id="b6PPenEFad" d="m49.96,31.92c0.65,0 1.17,0.53 1.17,1.17c0,1.63 0,5.34 0,6.97c0,0.65 -0.52,1.17 -1.17,1.17c-0.48,0 -0.74,0 -1.22,0c-0.65,0 -1.17,-0.52 -1.17,-1.17c0,-1.63 0,-5.34 0,-6.97c0,-0.64 0.52,-1.17 1.17,-1.17c0.48,0 0.74,0 1.22,0z"/>
  <path id="b6dyaGWwA" d="m27.02,42.55c0,1.79 -1.15,3.25 -2.57,3.25c-1.42,0 -2.58,-1.46 -2.58,-3.25c0,-1.8 1.16,-3.25 2.58,-3.25c1.42,0 2.57,1.45 2.57,3.25z"/>
  <path id="c49Z7Cml9B" d="m51.92,42.55c0,1.79 -1.15,3.25 -2.57,3.25c-1.42,0 -2.57,-1.46 -2.57,-3.25c0,-1.8 1.15,-3.25 2.57,-3.25c1.42,0 2.57,1.45 2.57,3.25z"/>
  <path id="a6pzLWBdfK" d="m34.66,10.73c0,0.66 -0.5,1.19 -1.12,1.19c-0.62,0 -1.13,-0.53 -1.13,-1.19c0,-0.65 0.51,-1.18 1.13,-1.18c0.62,0 1.12,0.53 1.12,1.18z"/>
  <path id="eIpFuOOfb" d="m41.75,10.73c0,0.66 -0.5,1.19 -1.12,1.19c-0.62,0 -1.13,-0.53 -1.13,-1.19c0,-0.65 0.51,-1.18 1.13,-1.18c0.62,0 1.12,0.53 1.12,1.18z"/>
  <path id="c2vmrZTtpG" d="m32.27,17.17l0.81,1.06l1.07,0.5l1.18,0.69l1.13,0.81l1.06,0.5l1.19,0.07l1.19,-0.19l1.25,-0.44l1.25,-0.56l1,-0.69l0.5,-1.19"/>
  <path id="d1BpqZGYp9" d="m37.58,14.77c0,0.27 -0.22,0.5 -0.5,0.5c-0.27,0 -0.5,-0.23 -0.5,-0.5c0,-0.28 0.23,-0.5 0.5,-0.5c0.28,0 0.5,0.22 0.5,0.5z"/>
  <path id="d2FwOK9zO" d="m31.44,25.47l3.87,0l0,5.25l-3.87,0l0,-5.25z"/>
  <path id="fSk95zPlQ" d="m38.86,25.47l3.87,0l0,5.25l-3.87,0l0,-5.25z"/>
  <path id="b7Jg7SR9J" d="m26.21,29.83l1.3,1.86l-3.17,2.22l-1.3,-1.86l3.17,-2.22z"/>
  <path id="b2yS8rdm1s" d="m50.41,32.25l-1.46,1.73l-2.97,-2.49l1.46,-1.73l2.97,2.49z"/>
 </defs>
 <g>
  <title>Layer 1</title>
  <ellipse ry="19.88235" rx="12" id="svg_104" cy="38.29412" cx="35.58824" stroke-linecap="null" stroke-linejoin="null" stroke-dasharray="null" stroke-width="null" stroke="#000000" fill="#007f7f"/>
  <g stroke="null" id="svg_101">
   <path stroke="#000000" id="svg_102" d="m48.84085,29.96292c1.02279,0 2.06781,0 2.99202,0c1.01863,0 2.0191,0 3.06325,0c1.01585,0 2.04588,-0.0075 2.84122,0.50134c0.83395,0.53354 1.34716,1.33723 1.8026,2.1338c0.45296,0.79224 0.5818,1.64781 0.69869,2.56831c0.10715,0.84375 0.1587,1.787 0.34687,2.63059c0.19013,0.85245 0.41344,1.7219 0.70029,2.56596c0.28409,0.83592 0.65314,1.66629 1.10924,2.44408c0.45525,0.77635 0.90926,1.56861 1.28582,2.39625c0.3714,0.81627 0.81676,1.60936 1.18224,2.40505c0.38788,0.84445 0.79414,1.58384 1.18802,2.4269c0.38314,0.82009 0.78937,1.57569 1.11848,2.49117c0.3018,0.83954 0.22515,1.71548 -0.45217,2.37773c-0.66548,0.65068 -1.50308,1.13503 -2.50805,1.34541c-0.81423,0.17045 -1.19919,-0.67087 -1.35312,-1.54037c-0.15729,-0.88842 -0.18438,-1.76123 -0.68801,-2.54873c-0.48046,-0.75128 -1.15894,-1.40059 -1.60978,-2.2171c-0.42628,-0.77203 -0.83575,-1.59882 -1.09267,-2.43921c-0.26266,-0.85921 -0.37499,-1.73433 -0.66572,-2.59769c-0.28013,-0.83187 -0.3031,-1.75901 -0.554,-2.66898c-0.2336,-0.8472 -0.63001,-1.62615 -0.92052,-2.46149c-0.30609,-0.88016 -0.75147,-1.70776 -1.4408,-2.30713c-0.71367,-0.62054 -1.50988,-1.13269 -2.41173,-1.61846c-0.85643,-0.4613 -1.71055,-0.93198 -2.56435,-1.35801l-0.86906,-0.44706" stroke-linecap="null" stroke-linejoin="null" stroke-dasharray="null" fill="#007f7f"/>
   <path stroke="#000000" id="svg_103" d="m67.51788,53.25704c0.71338,-0.6291 1.72353,-0.93248 2.4924,-0.30604c0.69298,0.56461 0.4548,1.60708 -0.50464,1.7178c-0.9921,0.1145 -2.13798,-0.29368 -1.92107,0c0.53939,0.73029 1.74352,0.84961 2.44473,1.50887c0.67618,0.63572 1.625,1.96371 0.82374,2.11859c-0.9733,0.18813 -1.47946,-1.18458 -2.22158,-1.78039c-0.72918,-0.58542 -1.72818,-1.53537 -1.97797,-1.14118c-0.46241,0.7297 1.38465,1.27972 1.86215,2.05882c0.46673,0.76153 0.7988,1.99759 0.13405,2.09224c-0.97842,0.1393 -1.4277,-1.17605 -1.88032,-1.93632c-0.46564,-0.78214 -1.0025,-1.5308 -0.81176,-1.31957c0.62546,0.69266 0.56256,1.70111 0.35817,2.56491c-0.20081,0.84864 -1.12371,1.48901 -1.59245,0.78025c-0.5077,-0.76768 -0.46541,-1.70041 -0.76041,-2.51649l0.08575,-0.86502" stroke-linecap="null" stroke-linejoin="null" stroke-dasharray="null" fill="#007f7f"/>
  </g>
  <g id="svg_100">
   <path d="m21.35294,28.88235c-0.90196,0 -1.82353,0 -2.63855,0c-0.89829,0 -1.78057,0 -2.70137,0c-0.89584,0 -1.80419,-0.00751 -2.50557,0.50133c-0.73543,0.53354 -1.18801,1.33724 -1.58965,2.1338c-0.39945,0.79224 -0.51307,1.64781 -0.61616,2.56831c-0.09449,0.84375 -0.13995,1.787 -0.30588,2.63059c-0.16768,0.85244 -0.3646,1.7219 -0.61757,2.56596c-0.25052,0.83591 -0.57598,1.66628 -0.9782,2.44408c-0.40147,0.77634 -0.80184,1.56861 -1.13392,2.39625c-0.32752,0.81627 -0.72026,1.60936 -1.04257,2.40504c-0.34206,0.84446 -0.70032,1.58385 -1.04767,2.4269c-0.33788,0.82009 -0.69612,1.57569 -0.98635,2.49118c-0.26615,0.83953 -0.19855,1.71548 0.39875,2.37772c0.58686,0.65068 1.32551,1.13503 2.21176,1.34541c0.71804,0.17045 1.05752,-0.67087 1.19327,-1.54037c0.13871,-0.88842 0.1626,-1.76123 0.60673,-2.54873c0.4237,-0.75128 1.02203,-1.40059 1.41961,-2.2171c0.37592,-0.77203 0.73703,-1.59882 0.96359,-2.43921c0.23163,-0.85921 0.33069,-1.73433 0.58708,-2.59769c0.24704,-0.83187 0.26729,-1.75901 0.48855,-2.66898c0.206,-0.8472 0.55558,-1.62615 0.81176,-2.46149c0.26993,-0.88017 0.66269,-1.70777 1.27059,-2.30714c0.62936,-0.62054 1.33152,-1.13268 2.12682,-1.61845c0.75525,-0.4613 1.50847,-0.93198 2.26141,-1.35802l0.76639,-0.44706" id="svg_98" stroke-linecap="null" stroke-linejoin="null" stroke-dasharray="null" stroke="#000000" fill="#007f7f"/>
   <path d="m4.88235,52.17647c-0.6291,-0.6291 -1.51993,-0.93248 -2.19796,-0.30604c-0.61111,0.56461 -0.40107,1.60708 0.44502,1.7178c0.8749,0.11449 1.88541,-0.29369 1.69412,0c-0.47567,0.73029 -1.53755,0.84961 -2.15592,1.50887c-0.5963,0.63572 -1.43302,1.96371 -0.72643,2.11859c0.85832,0.18813 1.30468,-1.18458 1.95914,-1.78039c0.64304,-0.58541 1.52401,-1.53536 1.74429,-1.14118c0.40778,0.72971 -1.22107,1.27972 -1.64216,2.05882c-0.41159,0.76153 -0.70443,1.99759 -0.11822,2.09224c0.86283,0.13931 1.25905,-1.17604 1.6582,-1.93631c0.41063,-0.78215 0.88407,-1.5308 0.71586,-1.31957c-0.55157,0.69266 -0.49611,1.70111 -0.31586,2.5649c0.17708,0.84864 0.99096,1.48901 1.40431,0.78025c0.44772,-0.76768 0.41043,-1.70041 0.67059,-2.51649l-0.07563,-0.86502" id="svg_99" stroke-linecap="null" stroke-linejoin="null" stroke-dasharray="null" stroke="#000000" fill="#007f7f"/>
  </g>
  <path d="m8.05882,21.47059c0.70588,-0.35294 1.58333,-0.35294 2.47059,-0.35294c0.88739,0 1.83661,-0.27992 2.68627,0c0.80921,0.26659 1.36438,1.05063 1.97129,1.71639c0.60726,0.66615 1.2114,1.26351 2.02604,1.58494c0.82685,0.32625 1.64664,0.7154 2.53208,0.81631c0.86733,0.09885 1.73971,0.12083 2.63467,0c0.87932,-0.11872 1.57036,-0.71629 2.42902,-0.99122c0.82419,-0.26389 1.80887,-0.43309 2.30267,-1.16172c0.49945,-0.73698 0.59903,-1.64165 0.74549,-2.52596c0.14223,-0.85876 0.32785,-1.72608 0.5782,-2.57804c0.25059,-0.8528 0.49088,-1.70243 0.55057,-2.60863c0.05833,-0.88557 0.06917,-1.78365 0.00757,-2.65155c-0.06235,-0.87849 -0.22857,-1.756 -0.22857,-2.63237c0,-0.87404 0.05831,-1.793 0.41929,-2.5669c0.37979,-0.81422 1.00338,-1.46504 1.7189,-2.00126c0.70499,-0.52832 1.50635,-0.9562 2.30871,-1.23341c0.84463,-0.29182 1.62444,-0.74781 2.5178,-0.81365c0.86731,-0.06392 1.65546,0.44639 2.2298,1.14573c0.5778,0.70353 1.00843,1.464 1.42902,2.22571c0.41758,0.75627 0.80289,1.57176 1.14117,2.39327c0.32468,0.78848 0.74354,1.57502 1.15686,2.37255c0.39577,0.76365 0.58206,1.64243 0.72602,2.5221c0.14098,0.86145 0.11712,1.73061 0.11712,2.63308c0,0.92325 -0.05905,1.81796 0,2.68796c0.05896,0.86873 0.51483,1.63483 0.89412,2.44612c0.37041,0.79228 0.88939,1.47263 1.69365,1.69835c0.86678,0.24327 1.76072,0.59863 2.64753,0.4021c0.84681,-0.18767 1.58395,-0.69684 2.32486,-1.21355c0.73838,-0.51494 1.37694,-1.15323 2.13649,-1.58651c0.7718,-0.44026 1.58596,-0.72316 2.57786,-0.80533c0.67544,-0.05595 1.68547,-0.1186 2.64706,-0.21569c0.72686,-0.07339 1.69932,-0.21781 2.59106,-0.31953c0.86622,-0.09881 1.78649,-0.03471 2.69271,-0.03341c0.85349,0.00123 1.77932,0.10105 2.58794,0.31765c0.844,0.22607 1.71798,0.38162 2.60783,0.64706c0.842,0.25117 1.59838,0.87235 1.95184,1.68235c0.30795,0.70571 -0.70589,0.76471 -1.62353,0.76471c-0.86181,0 -1.72606,0 -2.61506,0c-0.94714,0 -1.8152,0 -2.72424,0c-0.83151,0 -2.27217,-0.24409 -2.30724,0.43529c-0.04556,0.88258 1.50271,0.96971 2.21626,1.48486c0.69435,0.5013 1.36263,1.10925 2.07734,1.63278c0.70016,0.51287 1.48638,0.99237 2.02353,1.67059c0.52734,0.66583 0.61691,1.61898 0.89359,2.46386c0.26656,0.81395 1.00641,1.85495 0.59551,2.09049c-0.78405,0.44944 -1.62497,-0.58269 -2.45087,-1.01265c-0.81296,-0.42322 -1.53024,-0.65915 -2.38945,-1.09763c-0.83261,-0.42491 -1.41528,-1.16461 -2.14682,-1.66761c-0.73951,-0.50847 -1.77851,-0.99358 -1.84314,-0.43341c-0.09904,0.85841 0.82124,1.55218 1.37255,2.25694c0.54365,0.69498 1.1283,1.299 1.63921,2.06259c0.50158,0.74965 0.84855,1.53897 1.07059,2.37439c0.22684,0.85347 0.32122,1.77911 0.58432,2.66106c0.25716,0.86207 0.53322,1.64706 0.62321,2.568c0.08398,0.85929 0.00423,1.73945 0.00423,2.62777c0,0.91373 -0.48288,1.25422 -0.82353,0.39247c-0.32758,-0.82869 -0.5193,-1.63725 -0.86274,-2.47059c-0.34123,-0.82796 -0.83394,-1.5311 -1.39482,-2.24549c-0.58444,-0.7444 -1.16103,-1.36212 -1.76204,-2.04863c-0.56123,-0.64108 -1.03904,-1.30602 -1.62745,-2.09804c-0.52626,-0.70837 -0.64413,-0.26498 -0.42902,0.60329c0.20732,0.83684 0.3956,1.72697 0.60549,2.57073c0.21523,0.86521 0.47597,1.70375 0.77028,2.49551c0.33986,0.9143 0.43528,1.75557 0.64651,2.7119c0.16634,0.75306 0.39938,1.67657 0.49098,2.51896c0.09976,0.91745 0.15106,1.81039 0.15106,2.61584c0,0.98478 0.00436,1.85522 0,2.67576c-0.00502,0.94388 -0.14423,1.87342 -0.39702,2.68941c-0.25856,0.83461 -0.5272,1.70084 -0.87059,2.48581c-0.35625,0.81438 -0.86488,1.83581 -1.24078,1.44624c-0.59332,-0.61491 -0.39808,-1.66333 -0.61171,-2.58061c-0.19894,-0.85422 -0.37494,-1.71961 -0.58406,-2.59975c-0.19569,-0.82359 -0.45681,-1.70852 -0.64626,-2.61625c-0.17313,-0.82953 -0.20853,-1.67395 -0.35547,-2.60508c-0.13952,-0.88408 -0.42125,-1.74553 -0.58228,-2.57098c-0.17581,-0.90118 -0.42683,-1.76865 -0.85176,-2.53992c-0.43885,-0.79655 -0.83877,-1.55698 -1.37047,-2.29927c-0.50759,-0.70863 -1.02224,-1.64011 -1.19549,-1.47351c-0.59986,0.57685 -0.08324,1.76105 -0.17402,2.64349c-0.08908,0.86586 -0.24658,1.759 -0.55241,2.60145c-0.30193,0.8317 -0.75117,1.61549 -1.1349,2.36141c-0.42283,0.82193 -0.81635,1.65831 -1.28612,2.40455c-0.45732,0.72647 -1.06764,1.36898 -1.50206,2.11053c-0.43973,0.75063 -0.87374,1.57761 -1.29339,2.37433c-0.39746,0.7546 -0.63847,1.64966 -1.0571,2.44674c-0.40794,0.77673 -0.66598,2.29038 -1.58824,2.13726c-0.30256,-0.05024 0.0812,-1.15686 0.24812,-1.85682c0.23164,-0.97134 0.47481,-1.89929 0.71267,-2.75102c0.2103,-0.75306 0.52946,-1.62524 0.78008,-2.53663c0.23531,-0.85575 0.45458,-1.72843 0.57286,-2.63984c0.09711,-0.74825 0.13898,-1.70369 0.15561,-2.5189c0.01935,-0.94904 0.00126,-1.85082 0.00126,-2.77031c0,-0.86541 0.01966,-1.69189 -0.08423,-2.66027c-0.0921,-0.85852 -0.23469,-1.77392 -0.68235,-2.52439c-0.35012,-0.58694 -0.84671,0.36109 -1.13537,1.17977c-0.29915,0.84842 -0.54069,1.63708 -0.76283,2.44141c-0.27036,0.97894 -0.50008,1.87618 -0.76659,2.65663c-0.25199,0.73794 -0.52694,1.59795 -0.83467,2.51812c-0.27019,0.80794 -0.58057,1.66315 -0.81747,2.42367c-0.28428,0.91265 -0.56003,1.72395 -0.84786,2.58028c-0.29694,0.88343 -0.53832,1.72252 -0.81184,2.51982c-0.30175,0.87956 -0.64207,1.80375 -0.92737,2.57769c-0.31929,0.86614 -0.61803,1.6915 -0.94118,2.51018c-0.30906,0.783 -0.57151,1.68596 -0.90792,2.51527c-0.31645,0.78011 -0.81783,1.4906 -1.1669,2.34306c-0.31785,0.77621 -0.5716,2.04934 -0.97035,1.90196c-0.76051,-0.28109 -0.41635,-1.72635 -0.59216,-2.55498c-0.19816,-0.93398 -0.40554,-1.66626 -0.59545,-2.61443c-0.19464,-0.97181 -0.27734,-1.73988 -0.38024,-2.60141c-0.12041,-1.00809 -0.23495,-1.72976 -0.37396,-2.69804c-0.12085,-0.8418 -0.17833,-1.7175 -0.28361,-2.7349c-0.08034,-0.77639 -0.09099,-1.67448 -0.11765,-2.60831c-0.02528,-0.8856 -0.12642,-1.78378 -0.25867,-2.60753c-0.14597,-0.90921 -0.28075,-1.76903 -0.56486,-2.6469c-0.26763,-0.82694 -0.63349,-1.64368 -1.01051,-2.41867c-0.39804,-0.8182 -0.72761,-1.63955 -1.02426,-2.47947c-0.28094,-0.79546 -0.57453,-1.6789 -0.97323,-2.44131c-0.4104,-0.78478 -1.00836,-0.17052 -1.35137,0.61475c-0.33004,0.75559 -0.77655,1.65155 -1.05239,2.48941c-0.2642,0.80248 -0.43475,1.72076 -0.59998,2.58177c-0.17135,0.89293 -0.27221,1.73986 -0.37461,2.65949c-0.099,0.88914 -0.0938,1.71468 -0.08424,2.62714c0.0098,0.93568 0.15214,1.76427 0.3249,2.60785c0.16702,0.81549 0.4741,1.77949 0.60906,2.61051c0.13503,0.83141 0.28395,1.77415 0.46353,2.64802c0.17517,0.85242 -0.1171,1.69357 -0.82818,1.31298c-0.7501,-0.40147 -1.52622,-0.88485 -2.16916,-1.66171c-0.53444,-0.64576 -0.7579,-1.61218 -0.90604,-2.46055c-0.14854,-0.8507 -0.23993,-1.67188 -0.32384,-2.63424c-0.07681,-0.88093 -0.11145,-1.73739 -0.11145,-2.65235c0,-0.91592 0,-1.78559 0,-2.67812c0,-0.83088 0,-1.71543 0,-2.65441c0,-0.84708 0,-1.78104 0,-2.6339c0,-0.93522 0.01217,-1.82446 0,-2.68408c-0.01302,-0.91951 -0.24029,-1.95802 -0.77206,-1.72614c-0.87056,0.37961 -1.16202,1.32767 -1.40645,2.18747c-0.25095,0.88275 -0.50418,1.68911 -0.7719,2.53883c-0.28826,0.9149 -0.47689,1.76715 -0.74072,2.57506c-0.26405,0.8086 -0.65739,1.60842 -0.83582,2.51727c-0.1718,0.87503 -0.22691,1.74812 -0.29955,2.61575c-0.07128,0.85141 -0.19738,1.79723 -0.22808,2.7291c-0.02997,0.90963 -0.02911,1.74725 -0.00179,2.60369c0.02952,0.92527 0.13799,1.80912 0.25888,2.73137c0.11012,0.84003 0.83397,2.3308 0.04078,2.49114c-0.77819,0.15731 -0.92767,-1.48893 -1.3349,-2.23608c-0.4173,-0.76561 -0.87436,-1.60498 -1.13318,-2.43106c-0.27067,-0.86392 -0.54568,-1.67794 -0.79278,-2.55498c-0.24111,-0.85574 -0.32499,-1.73618 -0.50512,-2.57994c-0.19313,-0.90466 -0.4751,-1.73914 -0.56955,-2.61645c-0.09513,-0.8836 -0.08424,-1.78774 -0.08424,-2.69616c0,-0.8571 -0.01574,-1.7624 0.00002,-2.62185c0.01671,-0.911 0.12504,-1.77664 0.24702,-2.69325c0.11292,-0.84855 0.25941,-1.7385 0.51522,-2.56236c0.26336,-0.84817 0.31326,-1.85316 -0.46204,-1.56288c-0.83492,0.31261 -1.54233,0.92019 -2.32061,1.28567c-0.85635,0.40214 -1.51557,0.87063 -2.21616,1.44283c-0.67825,0.55396 -1.32048,1.20739 -1.64825,2.00841c-0.32922,0.80457 -0.60144,1.64356 -0.80147,2.54657c-0.18425,0.83178 -0.36733,1.76581 -0.4902,1.22902c-0.18675,-0.81592 -0.02083,-1.76043 0,-2.62478c0.02102,-0.87186 0.27843,-1.76622 0.54902,-2.64345c0.25528,-0.82758 0.5246,-1.60377 0.9509,-2.44533c0.38327,-0.75661 0.93746,-1.51473 1.46477,-2.20565c0.5207,-0.68227 0.98541,-1.46221 1.71343,-2.0193c0.69175,-0.52933 -0.07574,-0.20855 -0.91702,0.09349c-0.83467,0.29967 -1.70315,0.50578 -2.55437,0.73757c-0.83621,0.22771 -1.74299,0.44385 -2.59888,0.74118c-0.76139,0.2645 -1.04488,-0.66763 -0.72059,-1.46569c0.33876,-0.83367 1.20244,-1.28799 1.99086,-1.63096c0.79192,-0.3445 1.56669,-0.8293 2.33143,-1.31963c0.74054,-0.47481 1.78646,-0.67249 2.22245,-1.42451c0.27459,-0.47363 -0.8923,-0.82811 -1.72188,-0.93145c-0.88126,-0.10978 -1.78019,-0.04597 -2.69647,-0.05129c-0.86357,-0.00502 -1.97123,0.02358 -2.33129,-0.67049c-0.41242,-0.795 0.33931,-1.53944 1.14363,-1.8001c0.91151,-0.29539 1.70588,-0.64706 2.50014,-1.01176l0.86086,-0.23231l0.77788,-0.39294l0.86055,-0.01004" id="svg_96" stroke-linecap="null" stroke-linejoin="null" stroke-dasharray="null" stroke="#000000" fill="#333333"/>
  <path d="m31,21.94118c0.76298,0.40988 1.48295,0.89184 2.18698,1.4811c0.58237,0.48743 1.33255,1.17785 1.89725,1.68251c0.57035,0.5097 1.37075,1.14272 1.76335,0.4011c0.40833,-0.77133 0.90478,-1.49792 1.21177,-2.30641c0.31398,-0.82692 0.73911,-1.59595 1.06502,-2.39947c0.33152,-0.81734 0.35646,-1.70202 0.34621,-2.60392c-0.0098,-0.86291 -0.11046,-1.7298 -0.28235,-2.59498c-0.17826,-0.89725 -0.42229,-1.74805 -0.67057,-2.61033c-0.23698,-0.82305 -0.50228,-1.67708 -0.73563,-2.53141c-0.23327,-0.85405 -0.42635,-1.69286 -0.74728,-2.52374c-0.32717,-0.84703 -0.75067,-1.78452 -1.56165,-2.12382c-0.78659,-0.3291 -1.55232,0.45263 -2.16425,1.1159c-0.60406,0.65474 -0.96526,1.43377 -1.25428,2.26055c-0.28594,0.81798 -0.29507,1.71162 -0.45206,2.56722c-0.15888,0.86592 -0.19127,1.75221 -0.24959,2.63671c-0.05784,0.87715 -0.0969,1.74767 -0.11765,2.63694c-0.0206,0.88274 0,1.77278 0,2.66314l0,0.896l0,0.88235l0,0.89412" id="svg_97" stroke-linecap="null" stroke-linejoin="null" stroke-dasharray="null" stroke="#000000" fill="#000000"/>
 </g>
</svg>